M48
;Layer_Color=9474304
;FILE_FORMAT=4:4
METRIC,LZ
;TYPE=PLATED
T1F00S00C0.3000
T2F00S00C0.8000
T3F00S00C0.8900
T4F00S00C0.9000
T5F00S00C1.0200
T6F00S00C1.2000
T7F00S00C1.6300
T8F00S00C3.6000
;TYPE=NON_PLATED
T9F00S00C3.2500
%
T01
X00091734Y00117484
X00118612Y00121883
X0016325Y0013425
X001695Y0014275
X001565Y0015102
X0017075Y0010025
X00185983Y00103767
X00177Y0006625
X001655Y0006275
X00193Y000525
X0020123Y0004325
X0022125Y0006675
X0023975Y0006325
X00247Y0010225
X00256Y001225
X003015Y0009725
X00277Y0004975
X00338Y000535
X0035375Y00055
X0037925Y000905
X0038275Y00105
X0038725Y0002
X00411Y00022
X0022925Y00011
X0046025Y00393
X00494001Y00482
X00504001
X00499001Y00492
X00494001Y00502
X00504001
X00499001Y00512
X00494001Y00522
X00504001
X00499001Y00532
X00494001Y00542
X00504001
X00499001Y00552
X00369001
X00364001Y00542
X00374001
X00369001Y00532
X00364001Y00522
X00374001
X00369001Y00512
X00364001Y00502
X00374001
X00369001Y00492
X00364001Y00482
X00374001
X002665Y00352886
X00247Y003715
X0023875Y00338
X00237799Y00322994
X00223968Y0033101
X0019325Y0033025
X00197Y003035
X001975Y0028475
X00221Y0029875
X0023525Y00289
X00255359Y00233109
X0018225Y002285
X0015125Y0025125
X0015325Y0028175
X001375Y002975
X0013725Y003415
X0009925Y0035575
X00148Y003925
X0020725Y00393
X002005Y004055
X0027975Y0032075
X003015Y0026675
X0032825Y00217
X00329Y001835
X0030675Y001605
X00231Y0017525
X0021275Y0018575
X0016075Y001905
X0009075Y002645
X0005075Y00242
X0003075Y002295
X00364001Y00562
X00374001
X00494001
X00504001
T02
X0041175Y0012375
X0046175
X003205Y0043225
Y0048225
T03
X0005235Y0041235
X0007775
X0010315
X0012855
X0011585Y0043775
X0009045
X0006505
X0014125
T04
X0004Y000961
Y001215
Y001469
X001032Y0003025
X001286
X00154
X0004Y001723
Y001977
T05
X000559Y0055025
X001376
X00163
X000305
T06
X00235Y004395
X0021Y004895
T07
X001742Y0047075
X000193
T08
X0003425Y0002975
X0048075Y0003175
Y0036225
X0003425Y0033
T09
X001539Y0050125
X000396
M30
