M48
;Layer_Color=9474304
;FILE_FORMAT=4:4
METRIC,LZ
;TYPE=PLATED
T1F00S00C0.3000
T2F00S00C0.8000
T3F00S00C0.8900
T4F00S00C0.9000
T5F00S00C1.0000
T6F00S00C1.0200
T7F00S00C1.2000
T8F00S00C1.6300
T9F00S00C3.6000
;TYPE=NON_PLATED
T10F00S00C3.2500
%
T01
X0004725Y0016675
X000575Y0020825
X00073322Y00203428
X000575Y002555
X0011Y0025025
X0011275Y002705
X00142Y0023625
X00192Y0024675
X002045Y002445
X0020298Y002245
X00219Y00235
X0023225Y0024275
X002365Y0022825
X00245Y00223
X00260037Y00238537
X00273Y002315
X0028525Y0023125
X003195Y001875
X0028725Y0015275
X0024775Y0018825
X002135Y0017298
X0019575Y0018225
X00166Y001845
Y00196
X002085Y0027225
X003725Y0024425
X0039025Y0020725
X0037175Y0013075
X0041675Y001265
X0009575Y0012575
X0050075Y00146
X004935Y00217
X00502001Y00603751
X00511001
X00506501Y00612751
X00502001Y00621751
X00511001
X00506501Y00630751
X00502001Y00639751
X00511001
X00506501Y00648751
X00502001Y00657751
X00511001
X00506501Y00666751
X00502001Y00675751
X00511001
X00376001
X00367001
X00371501Y00666751
X00380501
X00376001Y00657751
X00367001
X00371501Y00648751
X00380501
X00376001Y00639751
X00367001
X00371501Y00630751
X00380501
X00376001Y00621751
X00367001
X00371501Y00612751
X00380501
X00376001Y00603751
X0027575Y00561
X00263Y0051275
X0024775
X002325
X0021725Y0051325
X002345Y004905
X00245Y0049025
X0025525Y0048975
X002655Y004895
X0026575Y0047825
X00266Y0046675
X0026625Y004565
X002575Y0044375
X00238Y00431
X00224Y0042925
X0023275Y0045875
X0022425Y0046725
X002155Y00459
X0019025Y0045723
X0018025Y0045375
X001795Y0044325
X0018702Y0047077
X00151Y00459
X001375Y00442
X00135Y0038303
X0014575Y003555
X001615Y003535
X00178Y00336
X0018925Y00337
X001815Y0032475
X0020475Y00317
X0022075Y003355
X0023125Y00338
X002445Y0038625
X002535Y0039725
X0024725Y0041375
X00201Y0041075
X0019825Y0038375
X00145507Y00333766
X002925Y003405
X00339Y003445
X00354Y003425
X00361287Y00296463
X0030425Y004395
X002725Y0049625
X00188071Y00528821
X00181Y0052175
X00166Y0051725
X00115Y0051775
X00445Y0051875
X0004075Y0032675
T02
X00422Y002585
X00472
X00326Y006055
Y006555
T03
X0005835Y005341
X0008375
X0010915
X0013455
X0014725Y005595
X0012185
X0009645
X0007105
T04
X0002775Y0028745
Y0031285
Y0033825
Y0036365
Y0038905
T05
X0002775Y0019895
Y0022435
Y0024975
X00094Y0008165
Y0005625
Y0003085
X0040075
Y0005625
Y0008165
X003505Y0038185
Y0040725
Y0043265
T06
X000619Y00672
X001436
X00169
X000365
T07
X0018325Y0005
X0023325
X00304
X00354
X00329Y001
X00279
X0020825
X0015825
X002415Y00576
X002165Y00626
T08
X001802Y005925
X000253
T09
X0004025Y000365
X0048675Y000385
Y00484
X0004025Y0045175
T10
X001599Y00623
X000456
M30
