M48
;Layer_Color=9474304
;FILE_FORMAT=4:4
METRIC,LZ
;TYPE=PLATED
T1F00S00C0.3000
T2F00S00C0.8000
T3F00S00C0.8900
T4F00S00C0.9000
T5F00S00C1.0000
T6F00S00C1.0200
T7F00S00C1.2000
T8F00S00C1.6300
T9F00S00C3.6000
;TYPE=NON_PLATED
T10F00S00C3.2500
%
T01
X00096Y00025
X000835Y0005525
X0012925Y00102
X0020475Y0010975
X0023Y0011425
X00245Y00109
X00260037Y00124537
X00273Y001175
X0028175Y00125
X002935Y00116
X003465Y0013325
X00385Y00136
X0038625Y00164
X00384Y00104
X0039025Y0009325
X00374Y0004475
X0027475Y0005325
X0024775Y0007425
X004945Y0010775
X00502001Y00489751
X00511001
X00506501Y00498751
X00502001Y00507751
X00511001
X00506501Y00516751
X00502001Y00525751
X00511001
X00506501Y00534751
X00502001Y00543751
X00511001
X00506501Y00552751
X00502001Y00561751
X00511001
X00376001
X00367001
X00371501Y00552751
X00380501
X00376001Y00543751
X00367001
X00371501Y00534751
X00380501
X00376001Y00525751
X00367001
X00371501Y00516751
X00380501
X00376001Y00507751
X00367001
X00371501Y00498751
X00380501
X00376001Y00489751
X0027575Y00447
X00263Y0039875
X0024775
X002325
X0021725Y0039925
X002345Y003765
X00245Y0037625
X0025525Y0037575
X002655Y003755
X0026575Y0036425
X00266Y0035275
X0026625Y003425
X002575Y0032975
X00238Y00317
X00224Y0031525
X0023275Y0034475
X0022425Y0035325
X002155Y00345
X0019025Y0034323
X0018025Y0033975
X001795Y0032925
X0018702Y0035677
X00151Y00345
X001375Y00328
X00135Y0026903
X0014575Y002415
X001615Y002395
X00128Y00219
X0013675Y001785
X0014675Y0018725
X001045Y001715
X0019825Y0026975
X00201Y0029675
X0024725Y0029975
X00287Y0029925
X0027875Y0028875
Y00276
Y00262
X00297Y0022075
X0035775Y0017475
X003005Y0037325
X00188071Y00414821
X00181Y0040775
X00166Y0040325
X00115Y0040375
X00445Y0040475
T02
X00422Y001445
X00472
X00326Y004915
Y005415
T03
X0005835Y004201
X0008375
X0010915
X0013455
X0012185Y004455
X0009645
X0007105
X0014725
T04
X0029385Y00029
X0031925
X0034465
X0002775Y0017345
Y0019885
Y0022425
Y0024965
Y0027505
T05
X0005675Y001122
Y001376
Y00163
X0035325Y0021085
Y0023625
Y0026165
T06
X000619Y00558
X001436
X00169
X000365
T07
X002415Y00462
X002165Y00512
T08
X001802Y004785
X000253
T09
X0004025Y000375
X0048675Y000395
Y0037
X0004025Y0033775
T10
X001599Y00509
X000456
M30
