G04*
G04 #@! TF.GenerationSoftware,Altium Limited,Altium Designer,20.0.13 (296)*
G04*
G04 Layer_Color=8421504*
%FSLAX44Y44*%
%MOMM*%
G71*
G01*
G75*
%ADD21R,0.7000X0.9000*%
%ADD22R,0.9000X0.7000*%
%ADD23R,1.4000X1.0000*%
%ADD24R,1.0000X0.8000*%
%ADD25R,0.8000X1.0000*%
%ADD26R,1.3000X1.1000*%
%ADD27R,1.5000X0.9000*%
%ADD28R,1.0000X1.4000*%
%ADD29R,1.5000X2.4000*%
%ADD30R,2.2000X0.6000*%
%ADD31R,2.4000X1.5000*%
G04:AMPARAMS|DCode=32|XSize=0.28mm|YSize=0.69mm|CornerRadius=0.07mm|HoleSize=0mm|Usage=FLASHONLY|Rotation=45.000|XOffset=0mm|YOffset=0mm|HoleType=Round|Shape=RoundedRectangle|*
%AMROUNDEDRECTD32*
21,1,0.2800,0.5500,0,0,45.0*
21,1,0.1400,0.6900,0,0,45.0*
1,1,0.1400,0.2439,-0.1450*
1,1,0.1400,0.1450,-0.2439*
1,1,0.1400,-0.2439,0.1450*
1,1,0.1400,-0.1450,0.2439*
%
%ADD32ROUNDEDRECTD32*%
G04:AMPARAMS|DCode=33|XSize=0.28mm|YSize=0.69mm|CornerRadius=0.07mm|HoleSize=0mm|Usage=FLASHONLY|Rotation=135.000|XOffset=0mm|YOffset=0mm|HoleType=Round|Shape=RoundedRectangle|*
%AMROUNDEDRECTD33*
21,1,0.2800,0.5500,0,0,135.0*
21,1,0.1400,0.6900,0,0,135.0*
1,1,0.1400,0.1450,0.2439*
1,1,0.1400,0.2439,0.1450*
1,1,0.1400,-0.1450,-0.2439*
1,1,0.1400,-0.2439,-0.1450*
%
%ADD33ROUNDEDRECTD33*%
%ADD34P,3.2329X4X90.0*%
G04:AMPARAMS|DCode=35|XSize=1.56mm|YSize=0.28mm|CornerRadius=0.035mm|HoleSize=0mm|Usage=FLASHONLY|Rotation=90.000|XOffset=0mm|YOffset=0mm|HoleType=Round|Shape=RoundedRectangle|*
%AMROUNDEDRECTD35*
21,1,1.5600,0.2100,0,0,90.0*
21,1,1.4900,0.2800,0,0,90.0*
1,1,0.0700,0.1050,0.7450*
1,1,0.0700,0.1050,-0.7450*
1,1,0.0700,-0.1050,-0.7450*
1,1,0.0700,-0.1050,0.7450*
%
%ADD35ROUNDEDRECTD35*%
G04:AMPARAMS|DCode=36|XSize=1.56mm|YSize=0.28mm|CornerRadius=0.035mm|HoleSize=0mm|Usage=FLASHONLY|Rotation=180.000|XOffset=0mm|YOffset=0mm|HoleType=Round|Shape=RoundedRectangle|*
%AMROUNDEDRECTD36*
21,1,1.5600,0.2100,0,0,180.0*
21,1,1.4900,0.2800,0,0,180.0*
1,1,0.0700,-0.7450,0.1050*
1,1,0.0700,0.7450,0.1050*
1,1,0.0700,0.7450,-0.1050*
1,1,0.0700,-0.7450,-0.1050*
%
%ADD36ROUNDEDRECTD36*%
%ADD37R,1.2000X0.6000*%
%ADD38R,10.4500X8.3000*%
%ADD39R,1.0500X3.2000*%
%ADD40R,1.1000X1.2500*%
%ADD41R,4.0000X7.0000*%
%ADD42R,2.7940X3.8100*%
G36*
X413125Y25375D02*
Y20125D01*
X401875D01*
Y25375D01*
X413125D01*
D02*
G37*
G36*
Y44375D02*
Y39125D01*
X401875D01*
Y44375D01*
X413125D01*
D02*
G37*
G36*
X436125Y25375D02*
Y20125D01*
X424875D01*
Y25375D01*
X436125D01*
D02*
G37*
G36*
Y34875D02*
Y29625D01*
X424875D01*
Y34875D01*
X436125D01*
D02*
G37*
G36*
Y44375D02*
Y39125D01*
X424875D01*
Y44375D01*
X436125D01*
D02*
G37*
G36*
X436375Y73375D02*
X425125D01*
Y78625D01*
X436375D01*
Y73375D01*
D02*
G37*
G36*
X413375D02*
X402125D01*
Y78625D01*
X413375D01*
Y73375D01*
D02*
G37*
G36*
X436375Y63875D02*
X425125D01*
Y69125D01*
X436375D01*
Y63875D01*
D02*
G37*
G36*
Y54375D02*
X425125D01*
Y59625D01*
X436375D01*
Y54375D01*
D02*
G37*
G36*
X413375D02*
X402125D01*
Y59625D01*
X413375D01*
Y54375D01*
D02*
G37*
D21*
X54500Y270500D02*
D03*
X70500D02*
D03*
X54500Y285750D02*
D03*
X70500D02*
D03*
X111500Y299500D02*
D03*
X127500D02*
D03*
X286750Y446000D02*
D03*
X302750D02*
D03*
X166500Y331000D02*
D03*
X150500D02*
D03*
X278750Y395750D02*
D03*
X294750D02*
D03*
X196500Y384500D02*
D03*
X180500D02*
D03*
X208500D02*
D03*
X224500D02*
D03*
D22*
X389750Y39000D02*
D03*
Y23000D02*
D03*
X372000Y147000D02*
D03*
Y163000D02*
D03*
X372000Y114750D02*
D03*
Y130750D02*
D03*
X358000Y114750D02*
D03*
Y130750D02*
D03*
Y147000D02*
D03*
Y163000D02*
D03*
X211500Y32750D02*
D03*
Y48750D02*
D03*
X151250Y49250D02*
D03*
Y33250D02*
D03*
X260250Y296500D02*
D03*
Y312500D02*
D03*
X188500Y296250D02*
D03*
Y312250D02*
D03*
X166500Y361250D02*
D03*
Y345250D02*
D03*
Y373250D02*
D03*
Y389250D02*
D03*
X232750Y427750D02*
D03*
Y411750D02*
D03*
X217500Y427750D02*
D03*
Y411750D02*
D03*
X263500Y427750D02*
D03*
Y411750D02*
D03*
X248000Y427750D02*
D03*
Y411750D02*
D03*
X363250Y452750D02*
D03*
Y436750D02*
D03*
D23*
X319300Y271500D02*
D03*
Y291500D02*
D03*
D24*
X299300Y273500D02*
D03*
Y289500D02*
D03*
X359250Y53750D02*
D03*
Y69750D02*
D03*
X377250Y79750D02*
D03*
Y63750D02*
D03*
X260000Y36750D02*
D03*
Y52750D02*
D03*
X244000Y36750D02*
D03*
Y52750D02*
D03*
X228000Y36500D02*
D03*
Y52500D02*
D03*
X215250Y302250D02*
D03*
Y286250D02*
D03*
X96500Y384119D02*
D03*
Y368119D02*
D03*
X80250Y384119D02*
D03*
Y368119D02*
D03*
X91500Y273000D02*
D03*
Y257000D02*
D03*
X233250Y302250D02*
D03*
Y286250D02*
D03*
X509250Y112250D02*
D03*
Y128250D02*
D03*
X509750Y165500D02*
D03*
Y181500D02*
D03*
D25*
X291750Y52000D02*
D03*
X307750D02*
D03*
X341250D02*
D03*
X325250D02*
D03*
X113000Y71750D02*
D03*
X97000D02*
D03*
X113000Y55500D02*
D03*
X97000D02*
D03*
X113000Y39500D02*
D03*
X97000D02*
D03*
X82500Y94000D02*
D03*
X98500D02*
D03*
X129600Y133050D02*
D03*
X113600D02*
D03*
X129600Y116800D02*
D03*
X113600D02*
D03*
X134750Y256750D02*
D03*
X118750D02*
D03*
X289500Y348750D02*
D03*
X305500D02*
D03*
X122400Y318800D02*
D03*
X106400D02*
D03*
X122400Y334800D02*
D03*
X106400D02*
D03*
X509250Y92000D02*
D03*
X493250D02*
D03*
D26*
X193000Y32000D02*
D03*
X170000D02*
D03*
Y50000D02*
D03*
X193000D02*
D03*
X169500Y294000D02*
D03*
X146500D02*
D03*
Y312000D02*
D03*
X169500D02*
D03*
D27*
X120250Y157500D02*
D03*
Y171500D02*
D03*
X89250D02*
D03*
Y157500D02*
D03*
D28*
X159500Y269750D02*
D03*
X179500D02*
D03*
D29*
X321500Y321750D02*
D03*
X292500D02*
D03*
D30*
X60500Y232300D02*
D03*
Y219600D02*
D03*
Y206900D02*
D03*
Y194200D02*
D03*
X108500Y232300D02*
D03*
Y219600D02*
D03*
Y206900D02*
D03*
Y194200D02*
D03*
D31*
X122750Y357500D02*
D03*
Y386500D02*
D03*
D32*
X219786Y367036D02*
D03*
X216250Y363500D02*
D03*
X202108Y349358D02*
D03*
X205644Y352893D02*
D03*
X212714Y359965D02*
D03*
X209179Y356429D02*
D03*
X235978Y329630D02*
D03*
X239514Y333165D02*
D03*
X232442Y326094D02*
D03*
X228907Y322559D02*
D03*
X243050Y336701D02*
D03*
X246585Y340236D02*
D03*
D33*
X228907Y367036D02*
D03*
X232442Y363500D02*
D03*
X246585Y349358D02*
D03*
X243050Y352893D02*
D03*
X235978Y359964D02*
D03*
X239514Y356429D02*
D03*
X202108Y340236D02*
D03*
X205644Y336701D02*
D03*
X219786Y322559D02*
D03*
X216250Y326094D02*
D03*
X209179Y333165D02*
D03*
X212714Y329630D02*
D03*
D34*
X224347Y344797D02*
D03*
D35*
X179750Y245350D02*
D03*
X184750D02*
D03*
X189750D02*
D03*
X194750D02*
D03*
X199750D02*
D03*
X204750D02*
D03*
X209750D02*
D03*
X214750D02*
D03*
X219750D02*
D03*
X224750D02*
D03*
X229750D02*
D03*
X234750D02*
D03*
X239750D02*
D03*
X244750D02*
D03*
X249750D02*
D03*
X254750D02*
D03*
X259750D02*
D03*
X264750D02*
D03*
X269750D02*
D03*
X274750D02*
D03*
X279750D02*
D03*
X284750D02*
D03*
X289750D02*
D03*
X294750D02*
D03*
X299750D02*
D03*
Y91750D02*
D03*
X294750D02*
D03*
X289750D02*
D03*
X284750D02*
D03*
X279750D02*
D03*
X274750D02*
D03*
X269750D02*
D03*
X264750D02*
D03*
X259750D02*
D03*
X254750D02*
D03*
X249750D02*
D03*
X244750D02*
D03*
X239750D02*
D03*
X234750D02*
D03*
X229750D02*
D03*
X224750D02*
D03*
X219750D02*
D03*
X214750D02*
D03*
X209750D02*
D03*
X204750D02*
D03*
X199750D02*
D03*
X194750D02*
D03*
X189750D02*
D03*
X184750D02*
D03*
X179750D02*
D03*
D36*
X162950Y108550D02*
D03*
Y113550D02*
D03*
Y118550D02*
D03*
Y123550D02*
D03*
Y128550D02*
D03*
Y133550D02*
D03*
Y138550D02*
D03*
Y143550D02*
D03*
Y148550D02*
D03*
Y153550D02*
D03*
Y158550D02*
D03*
Y163550D02*
D03*
Y168550D02*
D03*
Y173550D02*
D03*
Y178550D02*
D03*
Y183550D02*
D03*
Y188550D02*
D03*
Y193550D02*
D03*
Y198550D02*
D03*
Y203550D02*
D03*
Y208550D02*
D03*
Y213550D02*
D03*
Y218550D02*
D03*
Y223550D02*
D03*
Y228550D02*
D03*
X316550D02*
D03*
Y223550D02*
D03*
Y218550D02*
D03*
Y213550D02*
D03*
Y208550D02*
D03*
Y203550D02*
D03*
Y198550D02*
D03*
Y193550D02*
D03*
Y188550D02*
D03*
Y183550D02*
D03*
Y178550D02*
D03*
Y173550D02*
D03*
Y168550D02*
D03*
Y163550D02*
D03*
Y158550D02*
D03*
Y153550D02*
D03*
Y148550D02*
D03*
Y143550D02*
D03*
Y138550D02*
D03*
Y133550D02*
D03*
Y128550D02*
D03*
Y123550D02*
D03*
Y118550D02*
D03*
Y113550D02*
D03*
Y108550D02*
D03*
D37*
X407750Y57000D02*
D03*
Y76000D02*
D03*
X430750D02*
D03*
Y66500D02*
D03*
Y57000D02*
D03*
X407500Y22750D02*
D03*
Y41750D02*
D03*
X430500D02*
D03*
Y32250D02*
D03*
Y22750D02*
D03*
D38*
X439750Y527750D02*
D03*
D39*
X473750Y433250D02*
D03*
X456750D02*
D03*
X439750D02*
D03*
X422750D02*
D03*
X405750D02*
D03*
D40*
X343750Y426250D02*
D03*
Y449250D02*
D03*
D41*
X495250Y264500D02*
D03*
X395250D02*
D03*
D42*
X423435Y374750D02*
D03*
X352065D02*
D03*
M02*
