G04*
G04 #@! TF.GenerationSoftware,Altium Limited,Altium Designer,20.0.13 (296)*
G04*
G04 Layer_Color=8388736*
%FSLAX44Y44*%
%MOMM*%
G71*
G01*
G75*
%ADD42R,10.5700X8.4200*%
%ADD43R,1.1700X3.3200*%
%ADD44R,1.3700X1.2200*%
%ADD45R,0.8200X1.0200*%
%ADD46R,1.2032X1.0032*%
%ADD47R,1.0200X0.8200*%
%ADD48R,1.1032X1.0032*%
%ADD49R,1.5200X1.5200*%
%ADD50R,1.3400X0.7400*%
%ADD51R,1.5200X1.5200*%
%ADD52R,0.5240X1.8040*%
%ADD53R,1.8040X0.5240*%
%ADD54R,4.2032X7.2032*%
%ADD55R,1.3032X1.5032*%
%ADD56R,2.9972X4.0132*%
%ADD57R,1.0032X1.2032*%
%ADD58R,0.5032X1.7032*%
%ADD59R,1.7032X0.5032*%
%ADD60R,1.6032X1.2032*%
%ADD61R,0.7200X2.3200*%
%ADD62R,1.7032X1.1032*%
%ADD63R,1.2032X1.6032*%
%ADD64C,1.5200*%
%ADD65C,4.7032*%
%ADD66C,2.7032*%
%ADD67C,3.4532*%
%ADD68C,2.6482*%
%ADD69C,1.7332*%
%ADD70C,1.6012*%
%ADD71R,1.6012X1.6012*%
%ADD72C,1.7032*%
%ADD73R,1.7032X1.7032*%
%ADD74R,1.7032X1.7032*%
G36*
X292750Y177125D02*
Y170375D01*
X279625D01*
Y177125D01*
X292750D01*
D02*
G37*
G36*
Y196125D02*
Y189375D01*
X279625D01*
Y196125D01*
X292750D01*
D02*
G37*
G36*
X315875Y177125D02*
Y170375D01*
X302750D01*
Y177125D01*
X315875D01*
D02*
G37*
G36*
Y186625D02*
Y179875D01*
X302750D01*
Y186625D01*
X315875D01*
D02*
G37*
G36*
Y196125D02*
Y189375D01*
X302750D01*
Y196125D01*
X315875D01*
D02*
G37*
G36*
X316625Y222875D02*
X303500D01*
Y229625D01*
X316625D01*
Y222875D01*
D02*
G37*
G36*
X293500D02*
X280375D01*
Y229625D01*
X293500D01*
Y222875D01*
D02*
G37*
G36*
X316625Y213375D02*
X303500D01*
Y220125D01*
X316625D01*
Y213375D01*
D02*
G37*
G36*
Y203875D02*
X303500D01*
Y210625D01*
X316625D01*
Y203875D01*
D02*
G37*
G36*
X293500D02*
X280375D01*
Y210625D01*
X293500D01*
Y203875D01*
D02*
G37*
D42*
X433750Y520000D02*
D03*
D43*
X467750Y425500D02*
D03*
X450750D02*
D03*
X433750D02*
D03*
X416750D02*
D03*
X399750D02*
D03*
D44*
X281000Y403750D02*
D03*
X258000D02*
D03*
D45*
X312500Y386250D02*
D03*
X296500D02*
D03*
X135750Y264750D02*
D03*
X151750D02*
D03*
X118500Y281000D02*
D03*
X134500D02*
D03*
X120000Y312750D02*
D03*
X136000D02*
D03*
X120000Y327000D02*
D03*
X136000D02*
D03*
X302000Y280000D02*
D03*
X318000D02*
D03*
X192000Y378000D02*
D03*
X176000D02*
D03*
X148000D02*
D03*
X164000D02*
D03*
X317500Y341500D02*
D03*
X301500D02*
D03*
X82750Y149500D02*
D03*
X98750D02*
D03*
X99500Y209750D02*
D03*
X83500D02*
D03*
X104500Y264750D02*
D03*
X120500D02*
D03*
X125500Y297000D02*
D03*
X109500D02*
D03*
X207750Y378500D02*
D03*
X223750D02*
D03*
D46*
X409500Y39000D02*
D03*
Y55000D02*
D03*
X427750Y39000D02*
D03*
Y55000D02*
D03*
X501750Y149750D02*
D03*
Y165750D02*
D03*
X369750Y19750D02*
D03*
Y35750D02*
D03*
D47*
X232000Y239000D02*
D03*
Y223000D02*
D03*
X267250Y207500D02*
D03*
Y223500D02*
D03*
X246250Y207250D02*
D03*
Y223250D02*
D03*
X51500Y256000D02*
D03*
Y272000D02*
D03*
X31000Y256250D02*
D03*
Y272250D02*
D03*
X267500Y193750D02*
D03*
Y177750D02*
D03*
X85750Y366250D02*
D03*
Y382250D02*
D03*
X150250Y325500D02*
D03*
Y341500D02*
D03*
Y313250D02*
D03*
Y297250D02*
D03*
X208500Y16250D02*
D03*
Y32250D02*
D03*
X178000Y32250D02*
D03*
Y16250D02*
D03*
X71500Y366250D02*
D03*
Y382250D02*
D03*
X193250Y32250D02*
D03*
Y16250D02*
D03*
D48*
X218250Y205500D02*
D03*
Y219500D02*
D03*
D49*
X308500Y249250D02*
D03*
X282000D02*
D03*
X320500Y432250D02*
D03*
D50*
X287000Y207250D02*
D03*
Y226250D02*
D03*
X310000D02*
D03*
Y216750D02*
D03*
Y207250D02*
D03*
X286250Y173750D02*
D03*
Y192750D02*
D03*
X309250D02*
D03*
Y183250D02*
D03*
Y173750D02*
D03*
D51*
X199250Y203500D02*
D03*
Y230000D02*
D03*
X461750Y123750D02*
D03*
D52*
X191750Y352550D02*
D03*
X196750D02*
D03*
X201750D02*
D03*
X206750D02*
D03*
X211750D02*
D03*
X216750D02*
D03*
X221750D02*
D03*
X226750D02*
D03*
X231750D02*
D03*
X236750D02*
D03*
X241750D02*
D03*
X246750D02*
D03*
Y268950D02*
D03*
X241750D02*
D03*
X236750D02*
D03*
X231750D02*
D03*
X226750D02*
D03*
X221750D02*
D03*
X216750D02*
D03*
X211750D02*
D03*
X206750D02*
D03*
X201750D02*
D03*
X196750D02*
D03*
X191750D02*
D03*
D53*
X261050Y338250D02*
D03*
Y333250D02*
D03*
Y328250D02*
D03*
Y323250D02*
D03*
Y318250D02*
D03*
Y313250D02*
D03*
Y308250D02*
D03*
Y303250D02*
D03*
Y298250D02*
D03*
Y293250D02*
D03*
Y288250D02*
D03*
Y283250D02*
D03*
X177450D02*
D03*
Y288250D02*
D03*
Y293250D02*
D03*
Y298250D02*
D03*
Y303250D02*
D03*
Y308250D02*
D03*
Y313250D02*
D03*
Y318250D02*
D03*
Y323250D02*
D03*
Y328250D02*
D03*
Y333250D02*
D03*
Y338250D02*
D03*
D54*
X485250Y255250D02*
D03*
X385250D02*
D03*
D55*
X300250Y299250D02*
D03*
Y322250D02*
D03*
X318250D02*
D03*
Y299250D02*
D03*
X81500Y168250D02*
D03*
Y191250D02*
D03*
X99500D02*
D03*
Y168250D02*
D03*
D56*
X417435Y367000D02*
D03*
X346065D02*
D03*
D57*
X82000Y132000D02*
D03*
X98000D02*
D03*
X118500Y78250D02*
D03*
X102500D02*
D03*
X118500Y95250D02*
D03*
X102500D02*
D03*
X87750D02*
D03*
X71750D02*
D03*
X79750Y54750D02*
D03*
X95750D02*
D03*
X126000Y182250D02*
D03*
X142000D02*
D03*
X69000Y78500D02*
D03*
X85000D02*
D03*
X266250Y159250D02*
D03*
X250250D02*
D03*
X247000Y81250D02*
D03*
X231000D02*
D03*
D58*
X155500Y170750D02*
D03*
X160500D02*
D03*
X165500D02*
D03*
X170500D02*
D03*
X175500D02*
D03*
X180500D02*
D03*
X185500D02*
D03*
X190500D02*
D03*
X195500D02*
D03*
X200500D02*
D03*
X205500D02*
D03*
X210500D02*
D03*
Y81750D02*
D03*
X205500D02*
D03*
X200500D02*
D03*
X195500D02*
D03*
X190500D02*
D03*
X185500D02*
D03*
X180500D02*
D03*
X175500D02*
D03*
X170500D02*
D03*
X165500D02*
D03*
X160500D02*
D03*
X155500D02*
D03*
D59*
X227500Y153750D02*
D03*
Y148750D02*
D03*
Y143750D02*
D03*
Y138750D02*
D03*
Y133750D02*
D03*
Y128750D02*
D03*
Y123750D02*
D03*
Y118750D02*
D03*
Y113750D02*
D03*
Y108750D02*
D03*
Y103750D02*
D03*
Y98750D02*
D03*
X138500D02*
D03*
Y103750D02*
D03*
Y108750D02*
D03*
Y113750D02*
D03*
Y118750D02*
D03*
Y123750D02*
D03*
Y128750D02*
D03*
Y133750D02*
D03*
Y138750D02*
D03*
Y143750D02*
D03*
Y148750D02*
D03*
Y153750D02*
D03*
D60*
X365250Y107750D02*
D03*
Y127750D02*
D03*
X341750Y107750D02*
D03*
Y127750D02*
D03*
X318750Y107750D02*
D03*
Y127750D02*
D03*
D61*
X349050Y77000D02*
D03*
X336350D02*
D03*
X323650D02*
D03*
X310950D02*
D03*
X349050Y29000D02*
D03*
X336350D02*
D03*
X323650D02*
D03*
X310950D02*
D03*
D62*
X358750Y149500D02*
D03*
Y163500D02*
D03*
X327750D02*
D03*
Y149500D02*
D03*
D63*
X125750Y203750D02*
D03*
X145750D02*
D03*
D64*
X320500Y482250D02*
D03*
X411750Y123750D02*
D03*
D65*
X34250Y29750D02*
D03*
X480750Y31750D02*
D03*
X34250Y330000D02*
D03*
X480750Y362250D02*
D03*
D66*
X210000Y489500D02*
D03*
X235000Y439500D02*
D03*
D67*
X153900Y501250D02*
D03*
X39600D02*
D03*
D68*
X19300Y470750D02*
D03*
X174200D02*
D03*
D69*
X55900Y550250D02*
D03*
X30500D02*
D03*
X137600D02*
D03*
X163000D02*
D03*
D70*
X52350Y412350D02*
D03*
X65050Y437750D02*
D03*
X77750Y412350D02*
D03*
X90450Y437750D02*
D03*
X103150Y412350D02*
D03*
X115850Y437750D02*
D03*
X128550Y412350D02*
D03*
D71*
X141250Y437750D02*
D03*
D72*
X154000Y30250D02*
D03*
X128600D02*
D03*
X40000Y96100D02*
D03*
Y121500D02*
D03*
Y146900D02*
D03*
Y172300D02*
D03*
D73*
X103200Y30250D02*
D03*
D74*
X40000Y197700D02*
D03*
M02*
