G04*
G04 #@! TF.GenerationSoftware,Altium Limited,Altium Designer,20.0.13 (296)*
G04*
G04 Layer_Physical_Order=3*
G04 Layer_Color=16440176*
%FSLAX44Y44*%
%MOMM*%
G71*
G01*
G75*
%ADD16C,0.2540*%
%ADD88C,0.4000*%
%ADD91C,1.6000*%
%ADD94C,1.3980*%
%ADD96C,2.4450*%
%ADD98C,2.5000*%
%ADD99C,4.5000*%
%ADD100C,1.4000*%
%ADD103C,1.5000*%
%ADD105C,0.7000*%
%ADD106C,0.8000*%
G36*
X521432Y3569D02*
X3569D01*
X3568Y689432D01*
X521431D01*
X521432Y3569D01*
D02*
G37*
%LPC*%
G36*
X169000Y681733D02*
X166481Y681402D01*
X164133Y680429D01*
X162118Y678883D01*
X160571Y676867D01*
X159598Y674519D01*
X159267Y672000D01*
X159598Y669481D01*
X160571Y667133D01*
X162118Y665117D01*
X164133Y663571D01*
X166481Y662598D01*
X169000Y662267D01*
X171519Y662598D01*
X173867Y663571D01*
X175882Y665117D01*
X177429Y667133D01*
X178402Y669481D01*
X178733Y672000D01*
X178402Y674519D01*
X177429Y676867D01*
X175882Y678883D01*
X173867Y680429D01*
X171519Y681402D01*
X169000Y681733D01*
D02*
G37*
G36*
X143600D02*
X141081Y681402D01*
X138733Y680429D01*
X136718Y678883D01*
X135171Y676867D01*
X134198Y674519D01*
X133867Y672000D01*
X134198Y669481D01*
X135171Y667133D01*
X136718Y665117D01*
X138733Y663571D01*
X141081Y662598D01*
X143600Y662267D01*
X146119Y662598D01*
X148467Y663571D01*
X150482Y665117D01*
X152029Y667133D01*
X153002Y669481D01*
X153333Y672000D01*
X153002Y674519D01*
X152029Y676867D01*
X150482Y678883D01*
X148467Y680429D01*
X146119Y681402D01*
X143600Y681733D01*
D02*
G37*
G36*
X61900D02*
X59381Y681402D01*
X57033Y680429D01*
X55017Y678883D01*
X53471Y676867D01*
X52498Y674519D01*
X52167Y672000D01*
X52498Y669481D01*
X53471Y667133D01*
X55017Y665117D01*
X57033Y663571D01*
X59381Y662598D01*
X61900Y662267D01*
X64419Y662598D01*
X66767Y663571D01*
X68782Y665117D01*
X70329Y667133D01*
X71302Y669481D01*
X71633Y672000D01*
X71302Y674519D01*
X70329Y676867D01*
X68782Y678883D01*
X66767Y680429D01*
X64419Y681402D01*
X61900Y681733D01*
D02*
G37*
G36*
X36500D02*
X33981Y681402D01*
X31633Y680429D01*
X29618Y678883D01*
X28071Y676867D01*
X27098Y674519D01*
X26767Y672000D01*
X27098Y669481D01*
X28071Y667133D01*
X29618Y665117D01*
X31633Y663571D01*
X33981Y662598D01*
X36500Y662267D01*
X39019Y662598D01*
X41367Y663571D01*
X43382Y665117D01*
X44929Y667133D01*
X45902Y669481D01*
X46233Y672000D01*
X45902Y674519D01*
X44929Y676867D01*
X43382Y678883D01*
X41367Y680429D01*
X39019Y681402D01*
X36500Y681733D01*
D02*
G37*
G36*
X327270Y664955D02*
Y656770D01*
X335455D01*
X335294Y657990D01*
X334333Y660311D01*
X332804Y662304D01*
X330811Y663833D01*
X328490Y664794D01*
X327270Y664955D01*
D02*
G37*
G36*
X324730D02*
X323509Y664794D01*
X321189Y663833D01*
X319196Y662304D01*
X317667Y660311D01*
X316705Y657990D01*
X316545Y656770D01*
X324730D01*
Y664955D01*
D02*
G37*
G36*
X335455Y654230D02*
X327270D01*
Y646045D01*
X328490Y646206D01*
X330811Y647167D01*
X332804Y648696D01*
X334333Y650689D01*
X335294Y653010D01*
X335455Y654230D01*
D02*
G37*
G36*
X324730D02*
X316545D01*
X316705Y653010D01*
X317667Y650689D01*
X319196Y648696D01*
X321189Y647167D01*
X323509Y646206D01*
X324730Y646045D01*
Y654230D01*
D02*
G37*
G36*
X217770Y640988D02*
Y627270D01*
X231488D01*
X231322Y628948D01*
X230462Y631783D01*
X229066Y634396D01*
X227186Y636686D01*
X224896Y638566D01*
X222283Y639962D01*
X219448Y640822D01*
X217770Y640988D01*
D02*
G37*
G36*
X215230D02*
X213552Y640822D01*
X210717Y639962D01*
X208104Y638566D01*
X205814Y636686D01*
X203934Y634396D01*
X202538Y631783D01*
X201678Y628948D01*
X201512Y627270D01*
X215230D01*
Y640988D01*
D02*
G37*
G36*
Y624730D02*
X201512D01*
X201678Y623052D01*
X202538Y620217D01*
X203934Y617604D01*
X205814Y615314D01*
X208104Y613434D01*
X210717Y612038D01*
X213552Y611178D01*
X215230Y611012D01*
Y624730D01*
D02*
G37*
G36*
X231488D02*
X217770D01*
Y611012D01*
X219448Y611178D01*
X222283Y612038D01*
X224896Y613434D01*
X227186Y615314D01*
X229066Y617604D01*
X230462Y620217D01*
X231322Y623052D01*
X231488Y624730D01*
D02*
G37*
G36*
X159900Y641338D02*
X156322Y640986D01*
X152882Y639942D01*
X149712Y638248D01*
X146933Y635967D01*
X144652Y633188D01*
X142958Y630018D01*
X141914Y626578D01*
X141562Y623000D01*
X141914Y619422D01*
X142958Y615982D01*
X144652Y612812D01*
X146933Y610033D01*
X149712Y607752D01*
X152882Y606058D01*
X156322Y605014D01*
X159900Y604662D01*
X163478Y605014D01*
X166918Y606058D01*
X170088Y607752D01*
X172867Y610033D01*
X175148Y612812D01*
X176842Y615982D01*
X177886Y619422D01*
X178238Y623000D01*
X177886Y626578D01*
X176842Y630018D01*
X175148Y633188D01*
X172867Y635967D01*
X170088Y638248D01*
X166918Y639942D01*
X163478Y640986D01*
X159900Y641338D01*
D02*
G37*
G36*
X45600D02*
X42022Y640986D01*
X38582Y639942D01*
X35412Y638248D01*
X32633Y635967D01*
X30352Y633188D01*
X28658Y630018D01*
X27614Y626578D01*
X27262Y623000D01*
X27614Y619422D01*
X28658Y615982D01*
X30352Y612812D01*
X32633Y610033D01*
X35412Y607752D01*
X38582Y606058D01*
X42022Y605014D01*
X45600Y604662D01*
X49178Y605014D01*
X52618Y606058D01*
X55788Y607752D01*
X58567Y610033D01*
X60848Y612812D01*
X62542Y615982D01*
X63586Y619422D01*
X63938Y623000D01*
X63586Y626578D01*
X62542Y630018D01*
X60848Y633188D01*
X58567Y635967D01*
X55788Y638248D01*
X52618Y639942D01*
X49178Y640986D01*
X45600Y641338D01*
D02*
G37*
G36*
X335000Y614500D02*
X317000D01*
Y596500D01*
X335000D01*
Y614500D01*
D02*
G37*
G36*
X181470Y607211D02*
Y593770D01*
X194911D01*
X194751Y595395D01*
X193907Y598178D01*
X192536Y600743D01*
X190691Y602991D01*
X188443Y604836D01*
X185878Y606207D01*
X183094Y607051D01*
X181470Y607211D01*
D02*
G37*
G36*
X178930D02*
X177306Y607051D01*
X174522Y606207D01*
X171957Y604836D01*
X169709Y602991D01*
X167864Y600743D01*
X166493Y598178D01*
X165649Y595395D01*
X165489Y593770D01*
X178930D01*
Y607211D01*
D02*
G37*
G36*
X26570D02*
Y593770D01*
X40011D01*
X39851Y595395D01*
X39007Y598178D01*
X37636Y600743D01*
X35791Y602991D01*
X33543Y604836D01*
X30978Y606207D01*
X28194Y607051D01*
X26570Y607211D01*
D02*
G37*
G36*
X24030D02*
X22406Y607051D01*
X19622Y606207D01*
X17057Y604836D01*
X14809Y602991D01*
X12964Y600743D01*
X11593Y598178D01*
X10749Y595395D01*
X10589Y593770D01*
X24030D01*
Y607211D01*
D02*
G37*
G36*
X194911Y591230D02*
X181470D01*
Y577789D01*
X183094Y577949D01*
X185878Y578793D01*
X188443Y580164D01*
X190691Y582009D01*
X192536Y584257D01*
X193907Y586822D01*
X194751Y589606D01*
X194911Y591230D01*
D02*
G37*
G36*
X24030Y591230D02*
X10589D01*
X10749Y589606D01*
X11593Y586822D01*
X12964Y584257D01*
X14809Y582009D01*
X17057Y580164D01*
X19622Y578793D01*
X22406Y577949D01*
X24030Y577789D01*
Y591230D01*
D02*
G37*
G36*
X40011D02*
X26570D01*
Y577789D01*
X28194Y577949D01*
X30978Y578793D01*
X33543Y580164D01*
X35791Y582009D01*
X37636Y584257D01*
X39007Y586822D01*
X39851Y589606D01*
X40011Y591230D01*
D02*
G37*
G36*
X178930Y591230D02*
X165489D01*
X165649Y589606D01*
X166493Y586822D01*
X167864Y584257D01*
X169709Y582009D01*
X171957Y580164D01*
X174522Y578793D01*
X177306Y577949D01*
X178930Y577789D01*
Y591230D01*
D02*
G37*
G36*
X241500Y590625D02*
X237715Y590127D01*
X234187Y588666D01*
X231159Y586342D01*
X228834Y583312D01*
X227373Y579785D01*
X226875Y576000D01*
X227373Y572215D01*
X228834Y568687D01*
X231159Y565658D01*
X234187Y563334D01*
X237715Y561873D01*
X241500Y561375D01*
X245285Y561873D01*
X248813Y563334D01*
X251842Y565658D01*
X254166Y568687D01*
X255627Y572215D01*
X256125Y576000D01*
X255627Y579785D01*
X254166Y583312D01*
X251842Y586342D01*
X248813Y588666D01*
X245285Y590127D01*
X241500Y590625D01*
D02*
G37*
G36*
X275750Y566608D02*
X273604Y566181D01*
X271785Y564965D01*
X270569Y563146D01*
X270142Y561000D01*
X270569Y558854D01*
X271785Y557035D01*
X273604Y555819D01*
X275750Y555392D01*
X277896Y555819D01*
X279715Y557035D01*
X280931Y558854D01*
X281358Y561000D01*
X280931Y563146D01*
X279715Y564965D01*
X277896Y566181D01*
X275750Y566608D01*
D02*
G37*
G36*
X156240Y568490D02*
X138260D01*
Y550510D01*
X156240D01*
Y568490D01*
D02*
G37*
G36*
X121850Y568568D02*
X119503Y568259D01*
X117316Y567353D01*
X115438Y565912D01*
X113997Y564034D01*
X113091Y561847D01*
X112782Y559500D01*
X113091Y557153D01*
X113997Y554966D01*
X115438Y553088D01*
X117316Y551647D01*
X119503Y550741D01*
X121850Y550432D01*
X124197Y550741D01*
X126384Y551647D01*
X128262Y553088D01*
X129703Y554966D01*
X130609Y557153D01*
X130918Y559500D01*
X130609Y561847D01*
X129703Y564034D01*
X128262Y565912D01*
X126384Y567353D01*
X124197Y568259D01*
X121850Y568568D01*
D02*
G37*
G36*
X96450D02*
X94103Y568259D01*
X91916Y567353D01*
X90038Y565912D01*
X88597Y564034D01*
X87691Y561847D01*
X87382Y559500D01*
X87691Y557153D01*
X88597Y554966D01*
X90038Y553088D01*
X91916Y551647D01*
X94103Y550741D01*
X96450Y550432D01*
X98797Y550741D01*
X100984Y551647D01*
X102862Y553088D01*
X104303Y554966D01*
X105209Y557153D01*
X105518Y559500D01*
X105209Y561847D01*
X104303Y564034D01*
X102862Y565912D01*
X100984Y567353D01*
X98797Y568259D01*
X96450Y568568D01*
D02*
G37*
G36*
X71050D02*
X68703Y568259D01*
X66516Y567353D01*
X64638Y565912D01*
X63197Y564034D01*
X62291Y561847D01*
X61982Y559500D01*
X62291Y557153D01*
X63197Y554966D01*
X64638Y553088D01*
X66516Y551647D01*
X68703Y550741D01*
X71050Y550432D01*
X73397Y550741D01*
X75584Y551647D01*
X77462Y553088D01*
X78903Y554966D01*
X79809Y557153D01*
X80118Y559500D01*
X79809Y561847D01*
X78903Y564034D01*
X77462Y565912D01*
X75584Y567353D01*
X73397Y568259D01*
X71050Y568568D01*
D02*
G37*
G36*
X59620Y543545D02*
Y535370D01*
X67795D01*
X67635Y536588D01*
X66674Y538906D01*
X65147Y540897D01*
X63156Y542424D01*
X60838Y543385D01*
X59620Y543545D01*
D02*
G37*
G36*
X57080Y543545D02*
X55862Y543385D01*
X53544Y542424D01*
X51553Y540897D01*
X50026Y538906D01*
X49065Y536588D01*
X48905Y535370D01*
X57080D01*
Y543545D01*
D02*
G37*
G36*
X134550Y543168D02*
X132203Y542859D01*
X130016Y541953D01*
X128138Y540512D01*
X126697Y538634D01*
X125791Y536447D01*
X125482Y534100D01*
X125791Y531753D01*
X126697Y529566D01*
X128138Y527688D01*
X130016Y526247D01*
X132203Y525341D01*
X134550Y525032D01*
X136897Y525341D01*
X139084Y526247D01*
X140962Y527688D01*
X142403Y529566D01*
X143309Y531753D01*
X143617Y534100D01*
X143309Y536447D01*
X142403Y538634D01*
X140962Y540512D01*
X139084Y541953D01*
X136897Y542859D01*
X134550Y543168D01*
D02*
G37*
G36*
X109150D02*
X106803Y542859D01*
X104616Y541953D01*
X102738Y540512D01*
X101297Y538634D01*
X100391Y536447D01*
X100082Y534100D01*
X100391Y531753D01*
X101297Y529566D01*
X102738Y527688D01*
X104616Y526247D01*
X106803Y525341D01*
X109150Y525032D01*
X111497Y525341D01*
X113684Y526247D01*
X115562Y527688D01*
X117003Y529566D01*
X117909Y531753D01*
X118217Y534100D01*
X117909Y536447D01*
X117003Y538634D01*
X115562Y540512D01*
X113684Y541953D01*
X111497Y542859D01*
X109150Y543168D01*
D02*
G37*
G36*
X83750D02*
X81403Y542859D01*
X79216Y541953D01*
X77338Y540512D01*
X75897Y538634D01*
X74991Y536447D01*
X74682Y534100D01*
X74991Y531753D01*
X75897Y529566D01*
X77338Y527688D01*
X79216Y526247D01*
X81403Y525341D01*
X83750Y525032D01*
X86097Y525341D01*
X88284Y526247D01*
X90162Y527688D01*
X91603Y529566D01*
X92509Y531753D01*
X92817Y534100D01*
X92509Y536447D01*
X91603Y538634D01*
X90162Y540512D01*
X88284Y541953D01*
X86097Y542859D01*
X83750Y543168D01*
D02*
G37*
G36*
X67795Y532830D02*
X59620D01*
Y524655D01*
X60838Y524815D01*
X63156Y525776D01*
X65147Y527303D01*
X66674Y529294D01*
X67635Y531612D01*
X67795Y532830D01*
D02*
G37*
G36*
X57080D02*
X48905D01*
X49065Y531612D01*
X50026Y529294D01*
X51553Y527303D01*
X53544Y525776D01*
X55862Y524815D01*
X57080Y524655D01*
Y532830D01*
D02*
G37*
G36*
X445000Y524358D02*
X442854Y523931D01*
X441035Y522715D01*
X439819Y520896D01*
X439392Y518750D01*
X439819Y516604D01*
X441035Y514785D01*
X442854Y513569D01*
X445000Y513142D01*
X447146Y513569D01*
X448965Y514785D01*
X450181Y516604D01*
X450608Y518750D01*
X450181Y520896D01*
X448965Y522715D01*
X447146Y523931D01*
X445000Y524358D01*
D02*
G37*
G36*
X115000Y523358D02*
X112854Y522931D01*
X111035Y521716D01*
X109819Y519896D01*
X109392Y517750D01*
X109819Y515604D01*
X111035Y513785D01*
X112854Y512569D01*
X115000Y512142D01*
X117146Y512569D01*
X118965Y513785D01*
X120181Y515604D01*
X120608Y517750D01*
X120181Y519896D01*
X118965Y521716D01*
X117146Y522931D01*
X115000Y523358D01*
D02*
G37*
G36*
X205500Y543084D02*
X171250D01*
X169974Y542830D01*
X168892Y542108D01*
X133892Y507108D01*
X133170Y506026D01*
X132916Y504750D01*
Y457750D01*
X133170Y456474D01*
X133892Y455392D01*
X148392Y440892D01*
X149474Y440170D01*
X150750Y439916D01*
X175113D01*
X175535Y439285D01*
X177354Y438069D01*
X179500Y437642D01*
X181646Y438069D01*
X183465Y439285D01*
X184681Y441104D01*
X185108Y443250D01*
X184681Y445396D01*
X183465Y447215D01*
X183038Y447501D01*
X183060Y449013D01*
X184215Y449785D01*
X185431Y451604D01*
X185557Y452241D01*
X186966Y452810D01*
X188104Y452049D01*
X190250Y451622D01*
X190594Y451691D01*
X198166Y444119D01*
Y432500D01*
X198420Y431224D01*
X199142Y430143D01*
X217892Y411393D01*
X218974Y410670D01*
X220250Y410416D01*
X242863D01*
X243285Y409785D01*
X245104Y408569D01*
X247250Y408142D01*
X249396Y408569D01*
X251215Y409785D01*
X252431Y411604D01*
X252714Y413025D01*
X254092Y413443D01*
X260416Y407119D01*
Y399000D01*
X260670Y397724D01*
X261392Y396642D01*
X315893Y342142D01*
X316974Y341420D01*
X318250Y341166D01*
X334613D01*
X335035Y340535D01*
X336854Y339319D01*
X339000Y338892D01*
X341146Y339319D01*
X342965Y340535D01*
X344181Y342354D01*
X344608Y344500D01*
X344389Y345600D01*
X345559Y346226D01*
X348540Y343245D01*
X348392Y342500D01*
X348819Y340354D01*
X350035Y338535D01*
X351854Y337319D01*
X354000Y336892D01*
X356146Y337319D01*
X357965Y338535D01*
X358646Y339553D01*
X359916Y339168D01*
Y331619D01*
X359405Y331108D01*
X359404Y331107D01*
X282892Y254596D01*
X282170Y253514D01*
X281916Y252238D01*
Y235637D01*
X281285Y235215D01*
X280069Y233396D01*
X279797Y232029D01*
X278502D01*
X278181Y233646D01*
X276965Y235465D01*
X275146Y236681D01*
X273000Y237108D01*
X270854Y236681D01*
X269035Y235465D01*
X267819Y233646D01*
X267392Y231500D01*
X267819Y229354D01*
X269035Y227535D01*
X270854Y226319D01*
X273000Y225892D01*
X275146Y226319D01*
X276965Y227535D01*
X278181Y229354D01*
X278453Y230721D01*
X279748D01*
X280069Y229104D01*
X281285Y227285D01*
X283104Y226069D01*
X285250Y225642D01*
X287396Y226069D01*
X289215Y227285D01*
X290431Y229104D01*
X290858Y231250D01*
X290431Y233396D01*
X289215Y235215D01*
X288584Y235637D01*
Y250857D01*
X364119Y326392D01*
X364120Y326393D01*
X365607Y327880D01*
X366330Y328962D01*
X366584Y330238D01*
Y350627D01*
X367854Y351259D01*
X368416Y350834D01*
Y327881D01*
X317143Y276607D01*
X316420Y275526D01*
X316166Y274250D01*
Y191887D01*
X315535Y191465D01*
X314319Y189646D01*
X313892Y187500D01*
X314319Y185354D01*
X315535Y183535D01*
X317354Y182319D01*
X319500Y181892D01*
X321646Y182319D01*
X323465Y183535D01*
X324681Y185354D01*
X325108Y187500D01*
X324681Y189646D01*
X323465Y191465D01*
X322834Y191887D01*
Y272869D01*
X374108Y324142D01*
X374830Y325224D01*
X375084Y326500D01*
Y352750D01*
X374830Y354026D01*
X374108Y355108D01*
X359858Y369357D01*
X358776Y370080D01*
X357500Y370334D01*
X335381D01*
X294334Y411381D01*
Y464250D01*
X294080Y465526D01*
X293358Y466608D01*
X279357Y480608D01*
X278276Y481330D01*
X277000Y481584D01*
X270137D01*
X269715Y482215D01*
X268194Y483232D01*
X268087Y484314D01*
X268163Y484664D01*
X269465Y485535D01*
X270681Y487354D01*
X271108Y489500D01*
X271037Y489857D01*
X271935Y490755D01*
X272500Y490642D01*
X274646Y491069D01*
X276465Y492285D01*
X277681Y494104D01*
X278108Y496250D01*
X277681Y498396D01*
X276465Y500215D01*
X274646Y501431D01*
X272761Y501806D01*
X272693Y501856D01*
X272450Y502067D01*
X267142Y507376D01*
X266965Y508785D01*
X268181Y510604D01*
X268608Y512750D01*
X268181Y514896D01*
X266965Y516715D01*
X265146Y517931D01*
X263000Y518358D01*
X260854Y517931D01*
X259035Y516715D01*
X257819Y514896D01*
X257392Y512750D01*
X257819Y510604D01*
X257923Y510448D01*
X257324Y509328D01*
X253426D01*
X252827Y510448D01*
X252931Y510604D01*
X253358Y512750D01*
X252931Y514896D01*
X251715Y516715D01*
X249896Y517931D01*
X247750Y518358D01*
X245604Y517931D01*
X243785Y516715D01*
X242569Y514896D01*
X242142Y512750D01*
X242569Y510604D01*
X242673Y510448D01*
X242075Y509328D01*
X238176D01*
X237577Y510448D01*
X237681Y510604D01*
X238108Y512750D01*
X237681Y514896D01*
X236465Y516715D01*
X234646Y517931D01*
X232500Y518358D01*
X231755Y518210D01*
X207857Y542108D01*
X206776Y542830D01*
X205500Y543084D01*
D02*
G37*
G36*
X488020Y509036D02*
Y485270D01*
X511786D01*
X511428Y488909D01*
X509996Y493629D01*
X507671Y497979D01*
X504542Y501792D01*
X500729Y504921D01*
X496379Y507246D01*
X491659Y508678D01*
X488020Y509036D01*
D02*
G37*
G36*
X485480D02*
X481841Y508678D01*
X477121Y507246D01*
X472771Y504921D01*
X468958Y501792D01*
X465829Y497979D01*
X463504Y493629D01*
X462072Y488909D01*
X461714Y485270D01*
X485480D01*
Y509036D01*
D02*
G37*
G36*
X511786Y482730D02*
X488020D01*
Y458964D01*
X491659Y459323D01*
X496379Y460754D01*
X500729Y463079D01*
X504542Y466209D01*
X507671Y470022D01*
X509996Y474371D01*
X511428Y479091D01*
X511786Y482730D01*
D02*
G37*
G36*
X485480D02*
X461714D01*
X462072Y479091D01*
X463504Y474371D01*
X465829Y470022D01*
X468958Y466209D01*
X472771Y463079D01*
X477121Y460754D01*
X481841Y459323D01*
X485480Y458964D01*
Y482730D01*
D02*
G37*
G36*
X41520Y476786D02*
Y453020D01*
X65286D01*
X64928Y456659D01*
X63496Y461379D01*
X61171Y465729D01*
X58042Y469542D01*
X54229Y472671D01*
X49879Y474996D01*
X45159Y476428D01*
X41520Y476786D01*
D02*
G37*
G36*
X38980D02*
X35341Y476428D01*
X30621Y474996D01*
X26271Y472671D01*
X22458Y469542D01*
X19329Y465729D01*
X17004Y461379D01*
X15572Y456659D01*
X15214Y453020D01*
X38980D01*
Y476786D01*
D02*
G37*
G36*
X137500Y447608D02*
X135354Y447181D01*
X133535Y445965D01*
X132319Y444146D01*
X131892Y442000D01*
X132319Y439854D01*
X133535Y438035D01*
X135354Y436819D01*
X137500Y436392D01*
X139646Y436819D01*
X141465Y438035D01*
X142681Y439854D01*
X143108Y442000D01*
X142681Y444146D01*
X141465Y445965D01*
X139646Y447181D01*
X137500Y447608D01*
D02*
G37*
G36*
X351770Y443114D02*
Y433920D01*
X360964D01*
X360769Y435401D01*
X359707Y437965D01*
X358017Y440167D01*
X355816Y441857D01*
X353251Y442919D01*
X351770Y443114D01*
D02*
G37*
G36*
X349230D02*
X347749Y442919D01*
X345185Y441857D01*
X342983Y440167D01*
X341293Y437965D01*
X340231Y435401D01*
X340036Y433920D01*
X349230D01*
Y443114D01*
D02*
G37*
G36*
X65286Y450480D02*
X41520D01*
Y426714D01*
X45159Y427072D01*
X49879Y428504D01*
X54229Y430829D01*
X58042Y433958D01*
X61171Y437771D01*
X63496Y442121D01*
X64928Y446841D01*
X65286Y450480D01*
D02*
G37*
G36*
X38980D02*
X15214D01*
X15572Y446841D01*
X17004Y442121D01*
X19329Y437771D01*
X22458Y433958D01*
X26271Y430829D01*
X30621Y428504D01*
X35341Y427072D01*
X38980Y426714D01*
Y450480D01*
D02*
G37*
G36*
X360964Y431380D02*
X351770D01*
Y422186D01*
X353251Y422381D01*
X355816Y423443D01*
X358017Y425133D01*
X359707Y427335D01*
X360769Y429898D01*
X360964Y431380D01*
D02*
G37*
G36*
X349230D02*
X340036D01*
X340231Y429898D01*
X341293Y427335D01*
X342983Y425133D01*
X345185Y423443D01*
X347749Y422381D01*
X349230Y422186D01*
Y431380D01*
D02*
G37*
G36*
X201000Y416358D02*
X198854Y415931D01*
X197035Y414715D01*
X195819Y412896D01*
X195392Y410750D01*
X195819Y408604D01*
X197035Y406785D01*
X198854Y405569D01*
X201000Y405142D01*
X203146Y405569D01*
X204965Y406785D01*
X206181Y408604D01*
X206608Y410750D01*
X206181Y412896D01*
X204965Y414715D01*
X203146Y415931D01*
X201000Y416358D01*
D02*
G37*
G36*
X350500Y417336D02*
X347890Y416992D01*
X345457Y415985D01*
X343368Y414382D01*
X341765Y412293D01*
X340757Y409860D01*
X340414Y407250D01*
X340757Y404639D01*
X341765Y402207D01*
X343368Y400118D01*
X345457Y398515D01*
X347890Y397507D01*
X350500Y397164D01*
X353111Y397507D01*
X355543Y398515D01*
X357632Y400118D01*
X359235Y402207D01*
X360243Y404639D01*
X360586Y407250D01*
X360243Y409860D01*
X359235Y412293D01*
X357632Y414382D01*
X355543Y415985D01*
X353111Y416992D01*
X350500Y417336D01*
D02*
G37*
G36*
X253500Y402858D02*
X251354Y402431D01*
X249535Y401215D01*
X248319Y399396D01*
X247892Y397250D01*
X248319Y395104D01*
X249535Y393285D01*
X251354Y392069D01*
X253500Y391642D01*
X255646Y392069D01*
X257465Y393285D01*
X258681Y395104D01*
X259108Y397250D01*
X258681Y399396D01*
X257465Y401215D01*
X255646Y402431D01*
X253500Y402858D01*
D02*
G37*
G36*
X244500Y391858D02*
X242354Y391431D01*
X240535Y390215D01*
X239319Y388396D01*
X238892Y386250D01*
X239319Y384104D01*
X240535Y382285D01*
X242354Y381069D01*
X244500Y380642D01*
X246646Y381069D01*
X248465Y382285D01*
X249681Y384104D01*
X250108Y386250D01*
X249681Y388396D01*
X248465Y390215D01*
X246646Y391431D01*
X244500Y391858D01*
D02*
G37*
G36*
X37250Y398550D02*
X18250D01*
Y379550D01*
X37250D01*
Y398550D01*
D02*
G37*
G36*
X198250Y389358D02*
X196104Y388931D01*
X194285Y387715D01*
X193069Y385896D01*
X192642Y383750D01*
X193069Y381604D01*
X194285Y379785D01*
X196104Y378569D01*
X198250Y378142D01*
X200396Y378569D01*
X202215Y379785D01*
X203431Y381604D01*
X203858Y383750D01*
X203431Y385896D01*
X202215Y387715D01*
X200396Y388931D01*
X198250Y389358D01*
D02*
G37*
G36*
X135000Y388638D02*
X132854Y388211D01*
X131035Y386995D01*
X129819Y385176D01*
X129392Y383030D01*
X129819Y380884D01*
X131035Y379064D01*
X132854Y377849D01*
X135000Y377422D01*
X137146Y377849D01*
X138965Y379064D01*
X140181Y380884D01*
X140608Y383030D01*
X140181Y385176D01*
X138965Y386995D01*
X137146Y388211D01*
X135000Y388638D01*
D02*
G37*
G36*
X360500Y391850D02*
X340500D01*
Y371850D01*
X360500D01*
Y391850D01*
D02*
G37*
G36*
X27750Y373232D02*
X25270Y372906D01*
X22959Y371948D01*
X20975Y370425D01*
X19452Y368441D01*
X18494Y366130D01*
X18168Y363650D01*
X18494Y361170D01*
X19452Y358859D01*
X20975Y356875D01*
X22959Y355352D01*
X25270Y354394D01*
X27750Y354068D01*
X30230Y354394D01*
X32541Y355352D01*
X34525Y356875D01*
X36048Y358859D01*
X37005Y361170D01*
X37332Y363650D01*
X37005Y366130D01*
X36048Y368441D01*
X34525Y370425D01*
X32541Y371948D01*
X30230Y372906D01*
X27750Y373232D01*
D02*
G37*
G36*
X161500Y359108D02*
X159354Y358681D01*
X157535Y357465D01*
X156319Y355646D01*
X155892Y353500D01*
X156319Y351354D01*
X157535Y349535D01*
X159354Y348319D01*
X161500Y347892D01*
X163646Y348319D01*
X165465Y349535D01*
X166681Y351354D01*
X167108Y353500D01*
X166681Y355646D01*
X165465Y357465D01*
X163646Y358681D01*
X161500Y359108D01*
D02*
G37*
G36*
X29020Y348209D02*
Y339520D01*
X37709D01*
X37531Y340871D01*
X36520Y343313D01*
X34911Y345411D01*
X32813Y347020D01*
X30371Y348032D01*
X29020Y348209D01*
D02*
G37*
G36*
X26480D02*
X25129Y348032D01*
X22687Y347020D01*
X20589Y345411D01*
X18980Y343313D01*
X17968Y340871D01*
X17790Y339520D01*
X26480D01*
Y348209D01*
D02*
G37*
G36*
X231250Y343608D02*
X229104Y343181D01*
X227285Y341965D01*
X226069Y340146D01*
X225978Y339688D01*
X224732Y339440D01*
X224715Y339465D01*
X222896Y340681D01*
X220750Y341108D01*
X218604Y340681D01*
X216785Y339465D01*
X215569Y337646D01*
X215142Y335500D01*
X215569Y333354D01*
X216785Y331535D01*
X218604Y330319D01*
X220750Y329892D01*
X221495Y330040D01*
X244416Y307119D01*
Y236000D01*
X244670Y234724D01*
X245392Y233643D01*
X254166Y224869D01*
Y201750D01*
X254420Y200474D01*
X255142Y199393D01*
X338893Y115642D01*
X339974Y114920D01*
X341250Y114666D01*
X384500D01*
X385776Y114920D01*
X386857Y115642D01*
X413881Y142666D01*
X496363D01*
X496785Y142035D01*
X498604Y140819D01*
X500750Y140392D01*
X502896Y140819D01*
X504715Y142035D01*
X505931Y143854D01*
X506358Y146000D01*
X505931Y148146D01*
X504715Y149965D01*
X502896Y151181D01*
X500750Y151608D01*
X498604Y151181D01*
X496785Y149965D01*
X496363Y149334D01*
X412500D01*
X411224Y149080D01*
X410143Y148357D01*
X383119Y121334D01*
X342631D01*
X260834Y203131D01*
Y226250D01*
X260580Y227526D01*
X259858Y228608D01*
X251084Y237381D01*
Y308500D01*
X250830Y309776D01*
X250107Y310858D01*
X229524Y331441D01*
X230150Y332611D01*
X231250Y332392D01*
X233396Y332819D01*
X235215Y334035D01*
X236431Y335854D01*
X236858Y338000D01*
X236431Y340146D01*
X235215Y341965D01*
X233396Y343181D01*
X231250Y343608D01*
D02*
G37*
G36*
X189250Y342608D02*
X187104Y342181D01*
X185285Y340965D01*
X184069Y339146D01*
X184062Y339113D01*
X182714Y338844D01*
X181965Y339965D01*
X180146Y341181D01*
X178000Y341608D01*
X175854Y341181D01*
X174035Y339965D01*
X172819Y338146D01*
X172392Y336000D01*
X172819Y333854D01*
X174035Y332035D01*
X175854Y330819D01*
X177814Y330429D01*
X178085Y329854D01*
X178196Y329157D01*
X177535Y328715D01*
X176319Y326896D01*
X175892Y324750D01*
X176319Y322604D01*
X177535Y320785D01*
X179354Y319569D01*
X181500Y319142D01*
X183646Y319569D01*
X185465Y320785D01*
X186681Y322604D01*
X187108Y324750D01*
X186681Y326896D01*
X185465Y328715D01*
X183646Y329931D01*
X181686Y330321D01*
X181415Y330896D01*
X181304Y331593D01*
X181965Y332035D01*
X183181Y333854D01*
X183188Y333887D01*
X184536Y334156D01*
X185285Y333035D01*
X187104Y331819D01*
X189250Y331392D01*
X191396Y331819D01*
X193215Y333035D01*
X194431Y334854D01*
X194858Y337000D01*
X194431Y339146D01*
X193215Y340965D01*
X191396Y342181D01*
X189250Y342608D01*
D02*
G37*
G36*
X292500Y346108D02*
X290354Y345681D01*
X288535Y344465D01*
X287319Y342646D01*
X286892Y340500D01*
X287319Y338354D01*
X288535Y336535D01*
X290354Y335319D01*
X292500Y334892D01*
X294646Y335319D01*
X296465Y336535D01*
X297681Y338354D01*
X298108Y340500D01*
X297681Y342646D01*
X296465Y344465D01*
X294646Y345681D01*
X292500Y346108D01*
D02*
G37*
G36*
X37709Y336980D02*
X29020D01*
Y328291D01*
X30371Y328468D01*
X32813Y329480D01*
X34911Y331089D01*
X36520Y333187D01*
X37531Y335629D01*
X37709Y336980D01*
D02*
G37*
G36*
X26480D02*
X17790D01*
X17968Y335629D01*
X18980Y333187D01*
X20589Y331089D01*
X22687Y329480D01*
X25129Y328468D01*
X26480Y328291D01*
Y336980D01*
D02*
G37*
G36*
X145507Y339374D02*
X143361Y338947D01*
X141542Y337732D01*
X140326Y335912D01*
X139899Y333766D01*
X140326Y331620D01*
X141542Y329801D01*
X143361Y328585D01*
X145507Y328159D01*
X147653Y328585D01*
X149472Y329801D01*
X150688Y331620D01*
X151115Y333766D01*
X150688Y335912D01*
X149472Y337732D01*
X147653Y338947D01*
X145507Y339374D01*
D02*
G37*
G36*
X40750Y332358D02*
X38604Y331931D01*
X36785Y330715D01*
X35569Y328896D01*
X35142Y326750D01*
X35569Y324604D01*
X36785Y322785D01*
X38604Y321569D01*
X40750Y321142D01*
X42896Y321569D01*
X44715Y322785D01*
X45931Y324604D01*
X46358Y326750D01*
X45931Y328896D01*
X44715Y330715D01*
X42896Y331931D01*
X40750Y332358D01*
D02*
G37*
G36*
X27750Y322432D02*
X25270Y322105D01*
X22959Y321148D01*
X20975Y319625D01*
X19452Y317641D01*
X18494Y315330D01*
X18168Y312850D01*
X18494Y310370D01*
X19452Y308059D01*
X20975Y306075D01*
X22959Y304552D01*
X25270Y303594D01*
X27750Y303268D01*
X30230Y303594D01*
X32541Y304552D01*
X34525Y306075D01*
X36048Y308059D01*
X37005Y310370D01*
X37332Y312850D01*
X37005Y315330D01*
X36048Y317641D01*
X34525Y319625D01*
X32541Y321148D01*
X30230Y322105D01*
X27750Y322432D01*
D02*
G37*
G36*
X361287Y302071D02*
X359141Y301644D01*
X357322Y300428D01*
X356106Y298609D01*
X355679Y296463D01*
X356106Y294317D01*
X357322Y292498D01*
X359141Y291282D01*
X361287Y290855D01*
X363433Y291282D01*
X365252Y292498D01*
X366468Y294317D01*
X366895Y296463D01*
X366468Y298609D01*
X365252Y300428D01*
X363433Y301644D01*
X361287Y302071D01*
D02*
G37*
G36*
X27750Y297032D02*
X25270Y296705D01*
X22959Y295748D01*
X20975Y294225D01*
X19452Y292241D01*
X18494Y289930D01*
X18168Y287450D01*
X18494Y284970D01*
X19452Y282659D01*
X20975Y280674D01*
X22959Y279152D01*
X25270Y278195D01*
X27750Y277868D01*
X30230Y278195D01*
X32541Y279152D01*
X34525Y280674D01*
X36048Y282659D01*
X37005Y284970D01*
X37332Y287450D01*
X37005Y289930D01*
X36048Y292241D01*
X34525Y294225D01*
X32541Y295748D01*
X30230Y296705D01*
X27750Y297032D01*
D02*
G37*
G36*
X208500Y277858D02*
X206354Y277431D01*
X204535Y276215D01*
X203319Y274396D01*
X202892Y272250D01*
X203319Y270104D01*
X204535Y268285D01*
X206354Y267069D01*
X208500Y266642D01*
X210646Y267069D01*
X212465Y268285D01*
X213681Y270104D01*
X214108Y272250D01*
X213681Y274396D01*
X212465Y276215D01*
X210646Y277431D01*
X208500Y277858D01*
D02*
G37*
G36*
X423270Y267955D02*
Y259770D01*
X431455D01*
X431295Y260991D01*
X430333Y263311D01*
X428804Y265304D01*
X426811Y266833D01*
X424491Y267794D01*
X423270Y267955D01*
D02*
G37*
G36*
X420730D02*
X419510Y267794D01*
X417189Y266833D01*
X415196Y265304D01*
X413667Y263311D01*
X412706Y260991D01*
X412545Y259770D01*
X420730D01*
Y267955D01*
D02*
G37*
G36*
X57500Y261108D02*
X55354Y260681D01*
X53535Y259465D01*
X52319Y257646D01*
X51892Y255500D01*
X52319Y253354D01*
X53535Y251535D01*
X55354Y250319D01*
X57500Y249892D01*
X59646Y250319D01*
X61465Y251535D01*
X62681Y253354D01*
X63108Y255500D01*
X62681Y257646D01*
X61465Y259465D01*
X59646Y260681D01*
X57500Y261108D01*
D02*
G37*
G36*
X481000Y267500D02*
X463000D01*
Y249500D01*
X481000D01*
Y267500D01*
D02*
G37*
G36*
X431455Y257230D02*
X423270D01*
Y249045D01*
X424491Y249206D01*
X426811Y250167D01*
X428804Y251696D01*
X430333Y253689D01*
X431295Y256010D01*
X431455Y257230D01*
D02*
G37*
G36*
X420730D02*
X412545D01*
X412706Y256010D01*
X413667Y253689D01*
X415196Y251696D01*
X417189Y250167D01*
X419510Y249206D01*
X420730Y249045D01*
Y257230D01*
D02*
G37*
G36*
X368250Y457828D02*
X368250Y457828D01*
X318500D01*
X316939Y457518D01*
X315616Y456634D01*
X315616Y456634D01*
X304242Y445260D01*
X304071Y445116D01*
X303989Y445056D01*
X302104Y444681D01*
X300285Y443465D01*
X299069Y441646D01*
X298642Y439500D01*
X299069Y437354D01*
X300285Y435535D01*
X302104Y434319D01*
X304250Y433892D01*
X306396Y434319D01*
X308215Y435535D01*
X309431Y437354D01*
X309806Y439239D01*
X309855Y439307D01*
X310067Y439549D01*
X320189Y449672D01*
X366561D01*
X376692Y439541D01*
Y249591D01*
X375422Y248913D01*
X374646Y249431D01*
X372500Y249858D01*
X370354Y249431D01*
X368535Y248215D01*
X367319Y246396D01*
X366892Y244250D01*
X367319Y242104D01*
X368535Y240285D01*
X370354Y239069D01*
X372500Y238642D01*
X374646Y239069D01*
X375422Y239587D01*
X376692Y238909D01*
Y141459D01*
X371743Y136510D01*
X371571Y136366D01*
X371489Y136306D01*
X369604Y135931D01*
X367785Y134715D01*
X366569Y132896D01*
X366142Y130750D01*
X366569Y128604D01*
X367785Y126785D01*
X369604Y125569D01*
X371750Y125142D01*
X373896Y125569D01*
X375715Y126785D01*
X376931Y128604D01*
X377306Y130489D01*
X377356Y130557D01*
X377567Y130800D01*
X383654Y136886D01*
X383654Y136886D01*
X384538Y138209D01*
X384848Y139770D01*
X384848Y139770D01*
Y203148D01*
X386118Y203534D01*
X386285Y203285D01*
X388104Y202069D01*
X390250Y201642D01*
X392396Y202069D01*
X394215Y203285D01*
X395431Y205104D01*
X395858Y207250D01*
X395431Y209396D01*
X394215Y211215D01*
X392396Y212431D01*
X390250Y212858D01*
X388104Y212431D01*
X386285Y211215D01*
X386118Y210966D01*
X384848Y211352D01*
Y441230D01*
X384848Y441230D01*
X384538Y442791D01*
X383654Y444114D01*
X383654Y444114D01*
X371134Y456634D01*
X369811Y457518D01*
X369552Y457569D01*
X368250Y457828D01*
D02*
G37*
G36*
X110000Y255858D02*
X107854Y255431D01*
X106035Y254215D01*
X104819Y252396D01*
X104392Y250250D01*
X104819Y248104D01*
X106035Y246285D01*
X107854Y245069D01*
X110000Y244642D01*
X112146Y245069D01*
X113965Y246285D01*
X115181Y248104D01*
X115608Y250250D01*
X115181Y252396D01*
X113965Y254215D01*
X112146Y255431D01*
X110000Y255858D01*
D02*
G37*
G36*
X192000Y252358D02*
X189854Y251931D01*
X188035Y250715D01*
X186819Y248896D01*
X186392Y246750D01*
X186819Y244604D01*
X188035Y242785D01*
X189854Y241569D01*
X192000Y241142D01*
X194146Y241569D01*
X195965Y242785D01*
X197181Y244604D01*
X197608Y246750D01*
X197181Y248896D01*
X195965Y250715D01*
X194146Y251931D01*
X192000Y252358D01*
D02*
G37*
G36*
X37750Y259750D02*
X17750D01*
Y239750D01*
X37750D01*
Y259750D01*
D02*
G37*
G36*
X260037Y244145D02*
X257891Y243718D01*
X256072Y242502D01*
X254856Y240683D01*
X254429Y238537D01*
X254856Y236391D01*
X256072Y234572D01*
X257891Y233356D01*
X260037Y232929D01*
X262183Y233356D01*
X264002Y234572D01*
X265218Y236391D01*
X265645Y238537D01*
X265218Y240683D01*
X264002Y242502D01*
X262183Y243718D01*
X260037Y244145D01*
D02*
G37*
G36*
X142000Y241858D02*
X139854Y241431D01*
X138035Y240215D01*
X136819Y238396D01*
X136392Y236250D01*
X136819Y234104D01*
X138035Y232285D01*
X139854Y231069D01*
X142000Y230642D01*
X144146Y231069D01*
X145965Y232285D01*
X147181Y234104D01*
X147608Y236250D01*
X147181Y238396D01*
X145965Y240215D01*
X144146Y241431D01*
X142000Y241858D01*
D02*
G37*
G36*
X112750Y276108D02*
X110604Y275681D01*
X108785Y274465D01*
X107569Y272646D01*
X107142Y270500D01*
X107569Y268354D01*
X108785Y266535D01*
X110604Y265319D01*
X112750Y264892D01*
X114896Y265319D01*
X116715Y266535D01*
X117137Y267166D01*
X150119D01*
X184643Y232642D01*
X185724Y231920D01*
X187000Y231666D01*
X214613D01*
X215035Y231035D01*
X216854Y229819D01*
X219000Y229392D01*
X221146Y229819D01*
X222965Y231035D01*
X224181Y232854D01*
X224608Y235000D01*
X224181Y237146D01*
X222965Y238965D01*
X221146Y240181D01*
X219000Y240608D01*
X216854Y240181D01*
X215035Y238965D01*
X214613Y238334D01*
X207458D01*
X207073Y239604D01*
X208465Y240535D01*
X209681Y242354D01*
X210108Y244500D01*
X209681Y246646D01*
X208465Y248465D01*
X206646Y249681D01*
X204500Y250108D01*
X202354Y249681D01*
X200535Y248465D01*
X199319Y246646D01*
X198892Y244500D01*
X199319Y242354D01*
X200535Y240535D01*
X201928Y239604D01*
X201542Y238334D01*
X188381D01*
X153857Y272857D01*
X152776Y273580D01*
X151500Y273834D01*
X117137D01*
X116715Y274465D01*
X114896Y275681D01*
X112750Y276108D01*
D02*
G37*
G36*
X202980Y230108D02*
X200834Y229681D01*
X199015Y228465D01*
X197799Y226646D01*
X197372Y224500D01*
X197799Y222354D01*
X199015Y220535D01*
X200834Y219319D01*
X202980Y218892D01*
X205126Y219319D01*
X206945Y220535D01*
X208161Y222354D01*
X208588Y224500D01*
X208161Y226646D01*
X206945Y228465D01*
X205126Y229681D01*
X202980Y230108D01*
D02*
G37*
G36*
X236500Y233858D02*
X234354Y233431D01*
X232535Y232215D01*
X231319Y230396D01*
X230892Y228250D01*
X231319Y226104D01*
X232535Y224285D01*
X233166Y223863D01*
Y199500D01*
X233420Y198224D01*
X234142Y197142D01*
X242290Y188995D01*
X242142Y188250D01*
X242569Y186104D01*
X243785Y184285D01*
X245604Y183069D01*
X247750Y182642D01*
X249896Y183069D01*
X251715Y184285D01*
X252931Y186104D01*
X253358Y188250D01*
X252931Y190396D01*
X251715Y192215D01*
X249896Y193431D01*
X247750Y193858D01*
X247005Y193710D01*
X239834Y200881D01*
Y218671D01*
X240370Y218833D01*
X241104Y218988D01*
X242854Y217819D01*
X245000Y217392D01*
X247146Y217819D01*
X248965Y219035D01*
X250181Y220854D01*
X250608Y223000D01*
X250181Y225146D01*
X248965Y226965D01*
X247146Y228181D01*
X245000Y228608D01*
X243300Y228270D01*
X242774Y228261D01*
X241939Y229097D01*
X241681Y230396D01*
X240465Y232215D01*
X238646Y233431D01*
X236500Y233858D01*
D02*
G37*
G36*
X27750Y234436D02*
X25140Y234093D01*
X22707Y233085D01*
X20618Y231482D01*
X19015Y229393D01*
X18007Y226961D01*
X17664Y224350D01*
X18007Y221740D01*
X19015Y219307D01*
X20618Y217218D01*
X22707Y215615D01*
X25140Y214607D01*
X27750Y214264D01*
X30361Y214607D01*
X32793Y215615D01*
X34882Y217218D01*
X36485Y219307D01*
X37493Y221740D01*
X37836Y224350D01*
X37493Y226961D01*
X36485Y229393D01*
X34882Y231482D01*
X32793Y233085D01*
X30361Y234093D01*
X27750Y234436D01*
D02*
G37*
G36*
X493500Y222608D02*
X491354Y222181D01*
X489535Y220965D01*
X488319Y219146D01*
X487892Y217000D01*
X488319Y214854D01*
X489535Y213035D01*
X491354Y211819D01*
X493500Y211392D01*
X495646Y211819D01*
X497465Y213035D01*
X498681Y214854D01*
X499108Y217000D01*
X498681Y219146D01*
X497465Y220965D01*
X495646Y222181D01*
X493500Y222608D01*
D02*
G37*
G36*
X29020Y209414D02*
Y200220D01*
X38214D01*
X38019Y201702D01*
X36957Y204265D01*
X35267Y206467D01*
X33066Y208157D01*
X30501Y209219D01*
X29020Y209414D01*
D02*
G37*
G36*
X26480D02*
X24999Y209219D01*
X22434Y208157D01*
X20233Y206467D01*
X18543Y204265D01*
X17481Y201702D01*
X17286Y200220D01*
X26480D01*
Y209414D01*
D02*
G37*
G36*
X38214Y197680D02*
X29020D01*
Y188486D01*
X30501Y188681D01*
X33066Y189743D01*
X35267Y191433D01*
X36957Y193634D01*
X38019Y196199D01*
X38214Y197680D01*
D02*
G37*
G36*
X26480D02*
X17286D01*
X17481Y196199D01*
X18543Y193634D01*
X20233Y191433D01*
X22434Y189743D01*
X24999Y188681D01*
X26480Y188486D01*
Y197680D01*
D02*
G37*
G36*
X57500Y213858D02*
X55354Y213431D01*
X53535Y212215D01*
X52319Y210396D01*
X51892Y208250D01*
X52319Y206104D01*
X53535Y204285D01*
X54166Y203863D01*
Y196000D01*
X54420Y194724D01*
X55142Y193643D01*
X74142Y174642D01*
X75224Y173920D01*
X76500Y173666D01*
X190500D01*
X191776Y173920D01*
X192857Y174643D01*
X195005Y176790D01*
X195750Y176642D01*
X197896Y177069D01*
X199715Y178285D01*
X200931Y180104D01*
X201358Y182250D01*
X200931Y184396D01*
X199715Y186215D01*
X197896Y187431D01*
X195750Y187858D01*
X193604Y187431D01*
X191785Y186215D01*
X190569Y184396D01*
X190142Y182250D01*
X190290Y181505D01*
X189119Y180334D01*
X171359D01*
X170680Y181604D01*
X171181Y182354D01*
X171608Y184500D01*
X171181Y186646D01*
X169965Y188465D01*
X168327Y189560D01*
X168228Y190250D01*
X168327Y190940D01*
X169965Y192035D01*
X171181Y193854D01*
X171608Y196000D01*
X171181Y198146D01*
X169965Y199965D01*
X168146Y201181D01*
X166000Y201608D01*
X163854Y201181D01*
X162035Y199965D01*
X160819Y198146D01*
X160392Y196000D01*
X160819Y193854D01*
X162035Y192035D01*
X163673Y190940D01*
X163772Y190250D01*
X163673Y189560D01*
X162035Y188465D01*
X161613Y187834D01*
X93631D01*
X78781Y202684D01*
X78929Y203428D01*
X78502Y205574D01*
X77287Y207394D01*
X75468Y208609D01*
X73322Y209036D01*
X71176Y208609D01*
X69356Y207394D01*
X68141Y205574D01*
X67714Y203428D01*
X68141Y201282D01*
X69356Y199463D01*
X71176Y198247D01*
X73322Y197821D01*
X74066Y197969D01*
X89892Y182143D01*
X90698Y181604D01*
X90418Y180334D01*
X77881D01*
X60834Y197381D01*
Y203863D01*
X61465Y204285D01*
X62681Y206104D01*
X63108Y208250D01*
X62681Y210396D01*
X61465Y212215D01*
X59646Y213431D01*
X57500Y213858D01*
D02*
G37*
G36*
X213500Y178588D02*
X211354Y178161D01*
X209535Y176945D01*
X208319Y175126D01*
X207892Y172980D01*
X208319Y170834D01*
X209535Y169015D01*
X211354Y167799D01*
X213500Y167372D01*
X215646Y167799D01*
X217465Y169015D01*
X218681Y170834D01*
X219108Y172980D01*
X218681Y175126D01*
X217465Y176945D01*
X215646Y178161D01*
X213500Y178588D01*
D02*
G37*
G36*
X47250Y172358D02*
X45104Y171931D01*
X43285Y170715D01*
X42069Y168896D01*
X41642Y166750D01*
X42069Y164604D01*
X43285Y162785D01*
X45104Y161569D01*
X47250Y161142D01*
X49396Y161569D01*
X51215Y162785D01*
X52431Y164604D01*
X52858Y166750D01*
X52431Y168896D01*
X51215Y170715D01*
X49396Y171931D01*
X47250Y172358D01*
D02*
G37*
G36*
X287250Y158358D02*
X285104Y157931D01*
X283285Y156715D01*
X282069Y154896D01*
X281642Y152750D01*
X282069Y150604D01*
X283285Y148785D01*
X285104Y147569D01*
X287250Y147142D01*
X289396Y147569D01*
X291215Y148785D01*
X292431Y150604D01*
X292858Y152750D01*
X292431Y154896D01*
X291215Y156715D01*
X289396Y157931D01*
X287250Y158358D01*
D02*
G37*
G36*
X416750Y132108D02*
X414604Y131681D01*
X412785Y130465D01*
X411569Y128646D01*
X411142Y126500D01*
X411569Y124354D01*
X412785Y122535D01*
X414604Y121319D01*
X416750Y120892D01*
X418896Y121319D01*
X420715Y122535D01*
X421931Y124354D01*
X422358Y126500D01*
X421931Y128646D01*
X420715Y130465D01*
X418896Y131681D01*
X416750Y132108D01*
D02*
G37*
G36*
X95750Y131358D02*
X93604Y130931D01*
X91785Y129715D01*
X90569Y127896D01*
X90142Y125750D01*
X90569Y123604D01*
X91785Y121785D01*
X93604Y120569D01*
X95750Y120142D01*
X97896Y120569D01*
X99715Y121785D01*
X100931Y123604D01*
X101358Y125750D01*
X100931Y127896D01*
X99715Y129715D01*
X97896Y130931D01*
X95750Y131358D01*
D02*
G37*
G36*
X329000Y114625D02*
X325215Y114127D01*
X321687Y112666D01*
X318659Y110342D01*
X316334Y107313D01*
X314873Y103785D01*
X314375Y100000D01*
X314873Y96215D01*
X316334Y92687D01*
X318659Y89658D01*
X321687Y87334D01*
X325215Y85873D01*
X329000Y85375D01*
X332785Y85873D01*
X336313Y87334D01*
X339342Y89658D01*
X341666Y92687D01*
X343127Y96215D01*
X343625Y100000D01*
X343127Y103785D01*
X341666Y107313D01*
X339342Y110342D01*
X336313Y112666D01*
X332785Y114127D01*
X329000Y114625D01*
D02*
G37*
G36*
X279000D02*
X275215Y114127D01*
X271687Y112666D01*
X268659Y110342D01*
X266334Y107313D01*
X264873Y103785D01*
X264375Y100000D01*
X264873Y96215D01*
X266334Y92687D01*
X268659Y89658D01*
X271687Y87334D01*
X275215Y85873D01*
X279000Y85375D01*
X282785Y85873D01*
X286313Y87334D01*
X289342Y89658D01*
X291666Y92687D01*
X293127Y96215D01*
X293625Y100000D01*
X293127Y103785D01*
X291666Y107313D01*
X289342Y110342D01*
X286313Y112666D01*
X282785Y114127D01*
X279000Y114625D01*
D02*
G37*
G36*
X208250D02*
X204465Y114127D01*
X200937Y112666D01*
X197908Y110342D01*
X195584Y107313D01*
X194123Y103785D01*
X193625Y100000D01*
X194123Y96215D01*
X195584Y92687D01*
X197908Y89658D01*
X200937Y87334D01*
X204465Y85873D01*
X208250Y85375D01*
X212035Y85873D01*
X215563Y87334D01*
X218591Y89658D01*
X220916Y92687D01*
X222377Y96215D01*
X222875Y100000D01*
X222377Y103785D01*
X220916Y107313D01*
X218591Y110342D01*
X215563Y112666D01*
X212035Y114127D01*
X208250Y114625D01*
D02*
G37*
G36*
X158250D02*
X154465Y114127D01*
X150937Y112666D01*
X147908Y110342D01*
X145584Y107313D01*
X144123Y103785D01*
X143625Y100000D01*
X144123Y96215D01*
X145584Y92687D01*
X147908Y89658D01*
X150937Y87334D01*
X154465Y85873D01*
X158250Y85375D01*
X162035Y85873D01*
X165563Y87334D01*
X168591Y89658D01*
X170916Y92687D01*
X172377Y96215D01*
X172875Y100000D01*
X172377Y103785D01*
X170916Y107313D01*
X168591Y110342D01*
X165563Y112666D01*
X162035Y114127D01*
X158250Y114625D01*
D02*
G37*
G36*
X400750Y91736D02*
X398139Y91393D01*
X395707Y90385D01*
X393618Y88782D01*
X392015Y86693D01*
X391007Y84261D01*
X390664Y81650D01*
X391007Y79040D01*
X392015Y76607D01*
X393618Y74518D01*
X395707Y72915D01*
X398139Y71907D01*
X400750Y71564D01*
X403360Y71907D01*
X405793Y72915D01*
X407882Y74518D01*
X409485Y76607D01*
X410493Y79040D01*
X410836Y81650D01*
X410493Y84261D01*
X409485Y86693D01*
X407882Y88782D01*
X405793Y90385D01*
X403360Y91393D01*
X400750Y91736D01*
D02*
G37*
G36*
X94000D02*
X91390Y91393D01*
X88957Y90385D01*
X86868Y88782D01*
X85265Y86693D01*
X84257Y84261D01*
X83914Y81650D01*
X84257Y79040D01*
X85265Y76607D01*
X86868Y74518D01*
X88957Y72915D01*
X91390Y71907D01*
X94000Y71564D01*
X96610Y71907D01*
X99043Y72915D01*
X101132Y74518D01*
X102735Y76607D01*
X103743Y79040D01*
X104086Y81650D01*
X103743Y84261D01*
X102735Y86693D01*
X101132Y88782D01*
X99043Y90385D01*
X96610Y91393D01*
X94000Y91736D01*
D02*
G37*
G36*
X355270Y64988D02*
Y51270D01*
X368988D01*
X368822Y52948D01*
X367962Y55783D01*
X366566Y58396D01*
X364686Y60686D01*
X362396Y62566D01*
X359783Y63962D01*
X356948Y64822D01*
X355270Y64988D01*
D02*
G37*
G36*
X352730D02*
X351052Y64822D01*
X348217Y63962D01*
X345604Y62566D01*
X343314Y60686D01*
X341434Y58396D01*
X340038Y55783D01*
X339178Y52948D01*
X339012Y51270D01*
X352730D01*
Y64988D01*
D02*
G37*
G36*
X234520D02*
Y51270D01*
X248238D01*
X248072Y52948D01*
X247212Y55783D01*
X245816Y58396D01*
X243936Y60686D01*
X241646Y62566D01*
X239033Y63962D01*
X236198Y64822D01*
X234520Y64988D01*
D02*
G37*
G36*
X231980D02*
X230302Y64822D01*
X227467Y63962D01*
X224854Y62566D01*
X222564Y60686D01*
X220684Y58396D01*
X219288Y55783D01*
X218428Y52948D01*
X218262Y51270D01*
X231980D01*
Y64988D01*
D02*
G37*
G36*
X400750Y66336D02*
X398139Y65993D01*
X395707Y64985D01*
X393618Y63382D01*
X392015Y61293D01*
X391007Y58861D01*
X390664Y56250D01*
X391007Y53639D01*
X392015Y51207D01*
X393618Y49118D01*
X395707Y47515D01*
X398139Y46507D01*
X400750Y46164D01*
X403360Y46507D01*
X405793Y47515D01*
X407882Y49118D01*
X409485Y51207D01*
X410493Y53639D01*
X410836Y56250D01*
X410493Y58861D01*
X409485Y61293D01*
X407882Y63382D01*
X405793Y64985D01*
X403360Y65993D01*
X400750Y66336D01*
D02*
G37*
G36*
X94000D02*
X91390Y65993D01*
X88957Y64985D01*
X86868Y63382D01*
X85265Y61293D01*
X84257Y58861D01*
X83914Y56250D01*
X84257Y53639D01*
X85265Y51207D01*
X86868Y49118D01*
X88957Y47515D01*
X91390Y46507D01*
X94000Y46164D01*
X96610Y46507D01*
X99043Y47515D01*
X101132Y49118D01*
X102735Y51207D01*
X103743Y53639D01*
X104086Y56250D01*
X103743Y58861D01*
X102735Y61293D01*
X101132Y63382D01*
X99043Y64985D01*
X96610Y65993D01*
X94000Y66336D01*
D02*
G37*
G36*
X488020Y63536D02*
Y39770D01*
X511786D01*
X511428Y43409D01*
X509996Y48129D01*
X507671Y52479D01*
X504542Y56292D01*
X500729Y59421D01*
X496379Y61746D01*
X491659Y63178D01*
X488020Y63536D01*
D02*
G37*
G36*
X485480D02*
X481841Y63178D01*
X477121Y61746D01*
X472771Y59421D01*
X468958Y56292D01*
X465829Y52479D01*
X463504Y48129D01*
X462072Y43409D01*
X461714Y39770D01*
X485480D01*
Y63536D01*
D02*
G37*
G36*
X41520Y61536D02*
Y37770D01*
X65286D01*
X64928Y41409D01*
X63496Y46129D01*
X61171Y50479D01*
X58042Y54292D01*
X54229Y57421D01*
X49879Y59746D01*
X45159Y61178D01*
X41520Y61536D01*
D02*
G37*
G36*
X38980D02*
X35341Y61178D01*
X30621Y59746D01*
X26271Y57421D01*
X22458Y54292D01*
X19329Y50479D01*
X17004Y46129D01*
X15572Y41409D01*
X15214Y37770D01*
X38980D01*
Y61536D01*
D02*
G37*
G36*
X304000Y64625D02*
X300215Y64127D01*
X296687Y62666D01*
X293659Y60342D01*
X291334Y57313D01*
X289873Y53785D01*
X289375Y50000D01*
X289873Y46215D01*
X291334Y42687D01*
X293659Y39659D01*
X296687Y37334D01*
X300215Y35873D01*
X304000Y35375D01*
X307785Y35873D01*
X311313Y37334D01*
X314342Y39659D01*
X316666Y42687D01*
X318127Y46215D01*
X318625Y50000D01*
X318127Y53785D01*
X316666Y57313D01*
X314342Y60342D01*
X311313Y62666D01*
X307785Y64127D01*
X304000Y64625D01*
D02*
G37*
G36*
X183250D02*
X179465Y64127D01*
X175937Y62666D01*
X172908Y60342D01*
X170584Y57313D01*
X169123Y53785D01*
X168625Y50000D01*
X169123Y46215D01*
X170584Y42687D01*
X172908Y39659D01*
X175937Y37334D01*
X179465Y35873D01*
X183250Y35375D01*
X187035Y35873D01*
X190563Y37334D01*
X193591Y39659D01*
X195916Y42687D01*
X197377Y46215D01*
X197875Y50000D01*
X197377Y53785D01*
X195916Y57313D01*
X193591Y60342D01*
X190563Y62666D01*
X187035Y64127D01*
X183250Y64625D01*
D02*
G37*
G36*
X368988Y48730D02*
X355270D01*
Y35012D01*
X356948Y35178D01*
X359783Y36038D01*
X362396Y37434D01*
X364686Y39314D01*
X366566Y41604D01*
X367962Y44217D01*
X368822Y47052D01*
X368988Y48730D01*
D02*
G37*
G36*
X352730D02*
X339012D01*
X339178Y47052D01*
X340038Y44217D01*
X341434Y41604D01*
X343314Y39314D01*
X345604Y37434D01*
X348217Y36038D01*
X351052Y35178D01*
X352730Y35012D01*
Y48730D01*
D02*
G37*
G36*
X248238D02*
X234520D01*
Y35012D01*
X236198Y35178D01*
X239033Y36038D01*
X241646Y37434D01*
X243936Y39314D01*
X245816Y41604D01*
X247212Y44217D01*
X248072Y47052D01*
X248238Y48730D01*
D02*
G37*
G36*
X231980D02*
X218262D01*
X218428Y47052D01*
X219288Y44217D01*
X220684Y41604D01*
X222564Y39314D01*
X224854Y37434D01*
X227467Y36038D01*
X230302Y35178D01*
X231980Y35012D01*
Y48730D01*
D02*
G37*
G36*
X410750Y40850D02*
X390750D01*
Y20850D01*
X410750D01*
Y40850D01*
D02*
G37*
G36*
X104000D02*
X84000D01*
Y20850D01*
X104000D01*
Y40850D01*
D02*
G37*
G36*
X511786Y37230D02*
X488020D01*
Y13464D01*
X491659Y13822D01*
X496379Y15254D01*
X500729Y17579D01*
X504542Y20708D01*
X507671Y24521D01*
X509996Y28871D01*
X511428Y33591D01*
X511786Y37230D01*
D02*
G37*
G36*
X485480D02*
X461714D01*
X462072Y33591D01*
X463504Y28871D01*
X465829Y24521D01*
X468958Y20708D01*
X472771Y17579D01*
X477121Y15254D01*
X481841Y13822D01*
X485480Y13464D01*
Y37230D01*
D02*
G37*
G36*
X65286Y35230D02*
X41520D01*
Y11464D01*
X45159Y11822D01*
X49879Y13254D01*
X54229Y15579D01*
X58042Y18708D01*
X61171Y22521D01*
X63496Y26871D01*
X64928Y31591D01*
X65286Y35230D01*
D02*
G37*
G36*
X38980D02*
X15214D01*
X15572Y31591D01*
X17004Y26871D01*
X19329Y22521D01*
X22458Y18708D01*
X26271Y15579D01*
X30621Y13254D01*
X35341Y11822D01*
X38980Y11464D01*
Y35230D01*
D02*
G37*
%LPD*%
G36*
X169494Y517627D02*
X169548Y517507D01*
X169630Y517366D01*
X169740Y517205D01*
X170044Y516823D01*
X170459Y516361D01*
X170985Y515819D01*
X168674Y512473D01*
X168395Y512744D01*
X167647Y513371D01*
X167428Y513518D01*
X167222Y513635D01*
X167032Y513721D01*
X166856Y513775D01*
X166694Y513800D01*
X166548Y513793D01*
X169467Y517728D01*
X169494Y517627D01*
D02*
G37*
G36*
X165965Y513750D02*
X165831Y513737D01*
X165681Y513695D01*
X165515Y513624D01*
X165332Y513524D01*
X165133Y513396D01*
X164919Y513238D01*
X164441Y512837D01*
X163899Y512320D01*
X161070Y515148D01*
X161343Y515427D01*
X161988Y516168D01*
X162146Y516383D01*
X162274Y516582D01*
X162374Y516764D01*
X162445Y516931D01*
X162487Y517081D01*
X162500Y517215D01*
X165965Y513750D01*
D02*
G37*
G36*
X270678Y500907D02*
X271418Y500262D01*
X271633Y500104D01*
X271832Y499976D01*
X272014Y499876D01*
X272181Y499805D01*
X272331Y499763D01*
X272465Y499750D01*
X269000Y496285D01*
X268987Y496419D01*
X268945Y496569D01*
X268874Y496736D01*
X268774Y496918D01*
X268646Y497117D01*
X268488Y497332D01*
X268087Y497809D01*
X267570Y498352D01*
X270398Y501180D01*
X270678Y500907D01*
D02*
G37*
G36*
X166724Y511484D02*
X175842Y502366D01*
X175842Y502366D01*
X177165Y501482D01*
X178726Y501172D01*
X261811D01*
X266253Y496729D01*
X266251Y496124D01*
X265500Y495108D01*
X263354Y494681D01*
X261535Y493465D01*
X261222Y492998D01*
X259695D01*
X259216Y493715D01*
X257396Y494931D01*
X255250Y495358D01*
X253104Y494931D01*
X251285Y493715D01*
X251056Y493372D01*
X249528D01*
X248965Y494215D01*
X247146Y495431D01*
X245000Y495858D01*
X242854Y495431D01*
X241035Y494215D01*
X240597Y493561D01*
X239070D01*
X238465Y494465D01*
X236646Y495681D01*
X234500Y496108D01*
X232354Y495681D01*
X230535Y494465D01*
X229319Y492646D01*
X228892Y490500D01*
X229319Y488354D01*
X230535Y486535D01*
X232354Y485319D01*
X234500Y484892D01*
X236646Y485319D01*
X238465Y486535D01*
X238903Y487189D01*
X240430D01*
X241035Y486285D01*
X242854Y485069D01*
X245000Y484642D01*
X247146Y485069D01*
X248965Y486285D01*
X249194Y486628D01*
X250721D01*
X251285Y485784D01*
X253104Y484569D01*
X255250Y484142D01*
X257396Y484569D01*
X259216Y485784D01*
X259528Y486252D01*
X261055D01*
X261535Y485535D01*
X263056Y484518D01*
X263163Y483436D01*
X263088Y483086D01*
X261785Y482215D01*
X260569Y480396D01*
X260142Y478250D01*
X260569Y476104D01*
X261785Y474285D01*
X263525Y473122D01*
X263606Y472828D01*
X263616Y471772D01*
X262035Y470715D01*
X260819Y468896D01*
X260392Y466750D01*
X260819Y464604D01*
X262035Y462785D01*
X262752Y462305D01*
Y460778D01*
X262285Y460465D01*
X261069Y458646D01*
X260642Y456500D01*
X261069Y454354D01*
X262285Y452535D01*
X264104Y451319D01*
X266250Y450892D01*
X267829Y451206D01*
X279916Y439119D01*
Y407250D01*
X280170Y405974D01*
X280893Y404893D01*
X327393Y358392D01*
X328474Y357670D01*
X329750Y357416D01*
X353619D01*
X359916Y351119D01*
Y345832D01*
X358646Y345447D01*
X357965Y346465D01*
X356146Y347681D01*
X354000Y348108D01*
X353256Y347960D01*
X346595Y354620D01*
X345514Y355342D01*
X344238Y355596D01*
X327869D01*
X277334Y406131D01*
Y408750D01*
X277080Y410026D01*
X276357Y411108D01*
X254108Y433358D01*
X253026Y434080D01*
X251750Y434334D01*
X242387D01*
X241965Y434965D01*
X240146Y436181D01*
X238000Y436608D01*
X235854Y436181D01*
X234035Y434965D01*
X232819Y433146D01*
X232392Y431000D01*
X232819Y428854D01*
X233821Y427354D01*
X233346Y426084D01*
X231881D01*
X229460Y428505D01*
X229608Y429250D01*
X229181Y431396D01*
X227965Y433215D01*
X226146Y434431D01*
X224000Y434858D01*
X221854Y434431D01*
X220035Y433215D01*
X218819Y431396D01*
X218392Y429250D01*
X218819Y427104D01*
X220035Y425285D01*
X221854Y424069D01*
X224000Y423642D01*
X224744Y423790D01*
X228142Y420392D01*
X229224Y419670D01*
X230500Y419416D01*
X243544D01*
X243929Y418146D01*
X243285Y417715D01*
X242863Y417084D01*
X221631D01*
X204834Y433881D01*
Y445500D01*
X204580Y446776D01*
X203857Y447858D01*
X195630Y456085D01*
X195858Y457230D01*
X195431Y459376D01*
X194215Y461195D01*
X192396Y462411D01*
X190250Y462838D01*
X189945Y462777D01*
X189657Y463020D01*
X188385Y464292D01*
X188754Y465507D01*
X189166Y465589D01*
X190985Y466805D01*
X192201Y468624D01*
X192628Y470770D01*
X192201Y472916D01*
X190985Y474735D01*
X189166Y475951D01*
X187020Y476378D01*
X184874Y475951D01*
X183055Y474735D01*
X181839Y472916D01*
X181412Y470770D01*
X181745Y469098D01*
X180960Y467828D01*
X175000D01*
X173439Y467518D01*
X172116Y466634D01*
X172116Y466634D01*
X168561Y463078D01*
X155083D01*
X155078Y463148D01*
Y500560D01*
X166008Y511490D01*
X166179Y511633D01*
X166262Y511694D01*
X166433Y511728D01*
X166724Y511484D01*
D02*
G37*
G36*
X153004Y463582D02*
X153072Y462601D01*
X153112Y462338D01*
X153162Y462107D01*
X153220Y461907D01*
X153288Y461740D01*
X153364Y461604D01*
X153450Y461499D01*
X148550D01*
X148635Y461604D01*
X148712Y461740D01*
X148779Y461907D01*
X148838Y462107D01*
X148888Y462338D01*
X148928Y462601D01*
X148982Y463223D01*
X149000Y463972D01*
X153000D01*
X153004Y463582D01*
D02*
G37*
G36*
X187970Y461775D02*
X188717Y461144D01*
X188937Y460995D01*
X189141Y460876D01*
X189331Y460787D01*
X189506Y460728D01*
X189666Y460700D01*
X189811Y460702D01*
X186770Y456861D01*
X186745Y456971D01*
X186692Y457100D01*
X186612Y457248D01*
X186503Y457415D01*
X186367Y457601D01*
X186011Y458030D01*
X185542Y458534D01*
X185266Y458814D01*
X187691Y462046D01*
X187970Y461775D01*
D02*
G37*
G36*
X153604Y461365D02*
X153740Y461288D01*
X153907Y461221D01*
X154107Y461162D01*
X154338Y461113D01*
X154601Y461072D01*
X155223Y461018D01*
X155972Y461000D01*
Y457000D01*
X155582Y456996D01*
X154601Y456928D01*
X154338Y456888D01*
X154107Y456838D01*
X153907Y456780D01*
X153740Y456712D01*
X153604Y456636D01*
X153499Y456550D01*
Y461450D01*
X153604Y461365D01*
D02*
G37*
%LPC*%
G36*
X257500Y449358D02*
X255354Y448931D01*
X253535Y447715D01*
X252319Y445896D01*
X251892Y443750D01*
X252319Y441604D01*
X253535Y439785D01*
X255354Y438569D01*
X257500Y438142D01*
X259646Y438569D01*
X261465Y439785D01*
X262681Y441604D01*
X263108Y443750D01*
X262681Y445896D01*
X261465Y447715D01*
X259646Y448931D01*
X257500Y449358D01*
D02*
G37*
%LPD*%
G36*
X309180Y441602D02*
X308907Y441323D01*
X308262Y440582D01*
X308104Y440367D01*
X307976Y440168D01*
X307876Y439986D01*
X307805Y439819D01*
X307763Y439669D01*
X307750Y439535D01*
X304285Y443000D01*
X304419Y443013D01*
X304569Y443055D01*
X304736Y443126D01*
X304918Y443226D01*
X305117Y443354D01*
X305331Y443512D01*
X305809Y443913D01*
X306352Y444430D01*
X309180Y441602D01*
D02*
G37*
G36*
X376680Y132852D02*
X376407Y132572D01*
X375762Y131832D01*
X375604Y131617D01*
X375476Y131418D01*
X375376Y131236D01*
X375305Y131069D01*
X375263Y130919D01*
X375250Y130785D01*
X371785Y134250D01*
X371919Y134263D01*
X372069Y134305D01*
X372236Y134376D01*
X372418Y134476D01*
X372617Y134604D01*
X372831Y134762D01*
X373309Y135163D01*
X373852Y135680D01*
X376680Y132852D01*
D02*
G37*
D16*
X251750Y431000D02*
X274000Y408750D01*
Y404750D02*
Y408750D01*
Y404750D02*
X326488Y352262D01*
X238000Y431000D02*
X251750D01*
X334000Y367000D02*
X357500D01*
X371750Y326500D02*
Y352750D01*
X357500Y367000D02*
X371750Y352750D01*
X319500Y274250D02*
X371750Y326500D01*
X361762Y328750D02*
X361762D01*
X285250Y231250D02*
Y252238D01*
X361762Y328750D01*
X361762D02*
X363250Y330238D01*
X76500Y177000D02*
X190500D01*
X195750Y182250D01*
X319500Y187500D02*
Y274250D01*
X187000Y235000D02*
X219000D01*
X151500Y270500D02*
X187000Y235000D01*
X236500Y199500D02*
Y228250D01*
Y199500D02*
X247750Y188250D01*
X92250Y184500D02*
X166000D01*
X73322Y203428D02*
X92250Y184500D01*
X57500Y196000D02*
Y208250D01*
Y196000D02*
X76500Y177000D01*
X112750Y270500D02*
X151500D01*
X220750Y335500D02*
X247750Y308500D01*
X265750Y478250D02*
X277000D01*
X291000Y464250D01*
Y410000D02*
Y464250D01*
Y410000D02*
X334000Y367000D01*
X257500Y201750D02*
X341250Y118000D01*
X384500D01*
X257500Y201750D02*
Y226250D01*
X247750Y236000D02*
Y308500D01*
Y236000D02*
X257500Y226250D01*
X283250Y407250D02*
Y440500D01*
Y407250D02*
X329750Y360750D01*
X355000D01*
X326488Y352262D02*
X344238D01*
X354000Y342500D02*
Y342500D01*
X344238Y352262D02*
X354000Y342500D01*
X318250Y344500D02*
X339000D01*
X263750Y399000D02*
X318250Y344500D01*
X249500Y422750D02*
X263750Y408500D01*
Y399000D02*
Y408500D01*
X224000Y429250D02*
X230500Y422750D01*
X249500D01*
X266250Y456500D02*
X267250D01*
X283250Y440500D01*
X363250Y330238D02*
Y352500D01*
X355000Y360750D02*
X363250Y352500D01*
X412500Y146000D02*
X500750D01*
X384500Y118000D02*
X412500Y146000D01*
X220250Y413750D02*
X247250D01*
X201500Y432500D02*
Y445500D01*
Y432500D02*
X220250Y413750D01*
X205500Y539750D02*
X232500Y512750D01*
X171250Y539750D02*
X205500D01*
X136250Y504750D02*
X171250Y539750D01*
X136250Y457750D02*
Y504750D01*
Y457750D02*
X150750Y443250D01*
X179500D01*
X190250Y456750D02*
Y457230D01*
Y456750D02*
X201500Y445500D01*
D88*
X371750Y130750D02*
X380770Y139770D01*
Y441230D01*
X368250Y453750D02*
X380770Y441230D01*
X304250Y439500D02*
X318500Y453750D01*
X368250D01*
X263500Y505250D02*
X272500Y496250D01*
X178726Y505250D02*
X263500D01*
X166726Y517250D02*
X178726Y505250D01*
X166000Y517250D02*
X166726D01*
X183159Y463750D02*
X189679Y457230D01*
X190250D01*
X175000Y463750D02*
X183159D01*
X151000Y459000D02*
X170250D01*
X175000Y463750D01*
X151000Y502250D02*
X166000Y517250D01*
X151000Y459000D02*
Y502250D01*
D91*
X27750Y198950D02*
D03*
X350500Y432650D02*
D03*
D94*
X58350Y534100D02*
D03*
D96*
X180200Y592500D02*
D03*
X25300D02*
D03*
D98*
X233250Y50000D02*
D03*
X354000D02*
D03*
X216500Y626000D02*
D03*
D99*
X40250Y451750D02*
D03*
Y36500D02*
D03*
X486750Y38500D02*
D03*
Y484000D02*
D03*
D100*
X326000Y655500D02*
D03*
X422000Y258500D02*
D03*
D103*
X27750Y338250D02*
D03*
D105*
X219000Y235000D02*
D03*
X236500Y228250D02*
D03*
X73322Y203428D02*
D03*
X166000Y184500D02*
D03*
X195750Y182250D02*
D03*
X57500Y208250D02*
D03*
X112750Y270500D02*
D03*
X220750Y335500D02*
D03*
X285250Y231250D02*
D03*
X319500Y187500D02*
D03*
X339000Y344500D02*
D03*
X304250Y439500D02*
D03*
X354000Y342500D02*
D03*
X266250Y456500D02*
D03*
X272500Y496250D02*
D03*
X500750Y146000D02*
D03*
X247750Y188250D02*
D03*
X371750Y130750D02*
D03*
X145750Y355500D02*
D03*
X232750Y458750D02*
D03*
X224250Y467250D02*
D03*
X215500Y459000D02*
D03*
X190250Y457230D02*
D03*
X247250Y413750D02*
D03*
X166000Y517250D02*
D03*
X224000Y429250D02*
D03*
X179500Y443250D02*
D03*
X151000Y459000D02*
D03*
X238000Y431000D02*
D03*
X265750Y478250D02*
D03*
X232500Y512750D02*
D03*
D106*
X204750Y317000D02*
D03*
X232250Y242750D02*
D03*
X511001Y675751D02*
D03*
Y657751D02*
D03*
Y639751D02*
D03*
Y621751D02*
D03*
Y603751D02*
D03*
X502001Y675751D02*
D03*
X506501Y666751D02*
D03*
X502001Y657751D02*
D03*
X506501Y648751D02*
D03*
X502001Y639751D02*
D03*
X506501Y630751D02*
D03*
X502001Y621751D02*
D03*
X506501Y612751D02*
D03*
X502001Y603751D02*
D03*
X376001Y675751D02*
D03*
X380501Y666751D02*
D03*
X376001Y657751D02*
D03*
X380501Y648751D02*
D03*
X376001Y639751D02*
D03*
X380501Y630751D02*
D03*
X376001Y621751D02*
D03*
X380501Y612751D02*
D03*
X376001Y603751D02*
D03*
X367001Y675751D02*
D03*
X371501Y666751D02*
D03*
X367001Y657751D02*
D03*
X371501Y648751D02*
D03*
X367001Y639751D02*
D03*
X371501Y630751D02*
D03*
X367001Y621751D02*
D03*
X371501Y612751D02*
D03*
M02*
