G04*
G04 #@! TF.GenerationSoftware,Altium Limited,Altium Designer,20.0.13 (296)*
G04*
G04 Layer_Color=16711935*
%FSLAX44Y44*%
%MOMM*%
G71*
G01*
G75*
%ADD49R,1.5200X1.5200*%
%ADD51R,1.5200X1.5200*%
%ADD64C,1.5200*%
%ADD65C,4.7032*%
%ADD66C,2.7032*%
%ADD67C,3.4532*%
%ADD68C,2.6482*%
%ADD69C,1.7332*%
%ADD70C,1.6012*%
%ADD71R,1.6012X1.6012*%
%ADD72C,1.7032*%
%ADD73R,1.7032X1.7032*%
%ADD74R,1.7032X1.7032*%
D49*
X320500Y432250D02*
D03*
D51*
X461750Y123750D02*
D03*
D64*
X320500Y482250D02*
D03*
X411750Y123750D02*
D03*
D65*
X34250Y29750D02*
D03*
X480750Y31750D02*
D03*
X34250Y330000D02*
D03*
X480750Y362250D02*
D03*
D66*
X210000Y489500D02*
D03*
X235000Y439500D02*
D03*
D67*
X153900Y501250D02*
D03*
X39600D02*
D03*
D68*
X19300Y470750D02*
D03*
X174200D02*
D03*
D69*
X55900Y550250D02*
D03*
X30500D02*
D03*
X137600D02*
D03*
X163000D02*
D03*
D70*
X52350Y412350D02*
D03*
X65050Y437750D02*
D03*
X77750Y412350D02*
D03*
X90450Y437750D02*
D03*
X103150Y412350D02*
D03*
X115850Y437750D02*
D03*
X128550Y412350D02*
D03*
D71*
X141250Y437750D02*
D03*
D72*
X154000Y30250D02*
D03*
X128600D02*
D03*
X40000Y96100D02*
D03*
Y121500D02*
D03*
Y146900D02*
D03*
Y172300D02*
D03*
D73*
X103200Y30250D02*
D03*
D74*
X40000Y197700D02*
D03*
M02*
