G04*
G04 #@! TF.GenerationSoftware,Altium Limited,Altium Designer,20.0.13 (296)*
G04*
G04 Layer_Physical_Order=4*
G04 Layer_Color=16711680*
%FSLAX44Y44*%
%MOMM*%
G71*
G01*
G75*
%ADD15C,0.2540*%
%ADD81C,0.4000*%
%ADD83C,1.6000*%
%ADD84R,1.6000X1.6000*%
%ADD85C,4.5000*%
%ADD86C,1.4000*%
%ADD87R,1.4000X1.4000*%
%ADD88R,1.4000X1.4000*%
%ADD89C,2.5000*%
%ADD90C,3.2500*%
%ADD91C,2.4450*%
%ADD92C,1.5300*%
%ADD93C,1.3980*%
%ADD94R,1.3980X1.3980*%
%ADD95C,1.5000*%
%ADD96R,1.5000X1.5000*%
%ADD97R,1.5000X1.5000*%
%ADD98C,0.7000*%
%ADD99C,0.8000*%
G36*
X521432Y3569D02*
X3569D01*
X3568Y575432D01*
X521431D01*
X521432Y3569D01*
D02*
G37*
%LPC*%
G36*
X169000Y567733D02*
X166481Y567402D01*
X164133Y566429D01*
X162118Y564882D01*
X160571Y562867D01*
X159598Y560519D01*
X159267Y558000D01*
X159598Y555481D01*
X160571Y553133D01*
X162118Y551117D01*
X164133Y549571D01*
X166481Y548598D01*
X169000Y548267D01*
X171519Y548598D01*
X173867Y549571D01*
X175882Y551117D01*
X177429Y553133D01*
X178402Y555481D01*
X178733Y558000D01*
X178402Y560519D01*
X177429Y562867D01*
X175882Y564882D01*
X173867Y566429D01*
X171519Y567402D01*
X169000Y567733D01*
D02*
G37*
G36*
X36500D02*
X33981Y567402D01*
X31633Y566429D01*
X29617Y564882D01*
X28071Y562867D01*
X27098Y560519D01*
X26767Y558000D01*
X27098Y555481D01*
X28071Y553133D01*
X29617Y551117D01*
X31633Y549571D01*
X33981Y548598D01*
X36500Y548267D01*
X39019Y548598D01*
X41366Y549571D01*
X43382Y551117D01*
X44929Y553133D01*
X45901Y555481D01*
X46233Y558000D01*
X45901Y560519D01*
X44929Y562867D01*
X43382Y564882D01*
X41366Y566429D01*
X39019Y567402D01*
X36500Y567733D01*
D02*
G37*
G36*
X327270Y550955D02*
Y542770D01*
X335455D01*
X335294Y543991D01*
X334333Y546311D01*
X332804Y548304D01*
X330811Y549833D01*
X328490Y550794D01*
X327270Y550955D01*
D02*
G37*
G36*
X324730D02*
X323509Y550794D01*
X321189Y549833D01*
X319196Y548304D01*
X317667Y546311D01*
X316705Y543991D01*
X316545Y542770D01*
X324730D01*
Y550955D01*
D02*
G37*
G36*
X335455Y540230D02*
X327270D01*
Y532045D01*
X328490Y532206D01*
X330811Y533167D01*
X332804Y534696D01*
X334333Y536689D01*
X335294Y539010D01*
X335455Y540230D01*
D02*
G37*
G36*
X324730D02*
X316545D01*
X316705Y539010D01*
X317667Y536689D01*
X319196Y534696D01*
X321189Y533167D01*
X323509Y532206D01*
X324730Y532045D01*
Y540230D01*
D02*
G37*
G36*
X217770Y526988D02*
Y513270D01*
X231488D01*
X231322Y514948D01*
X230462Y517783D01*
X229066Y520396D01*
X227186Y522686D01*
X224896Y524566D01*
X222283Y525962D01*
X219448Y526822D01*
X217770Y526988D01*
D02*
G37*
G36*
X215230D02*
X213552Y526822D01*
X210716Y525962D01*
X208104Y524566D01*
X205814Y522686D01*
X203934Y520396D01*
X202538Y517783D01*
X201678Y514948D01*
X201512Y513270D01*
X215230D01*
Y526988D01*
D02*
G37*
G36*
X143600Y567733D02*
X141081Y567402D01*
X138733Y566429D01*
X136718Y564882D01*
X135171Y562867D01*
X134198Y560519D01*
X133867Y558000D01*
X134198Y555481D01*
X134525Y554692D01*
X123866Y544034D01*
X122982Y542711D01*
X122672Y541150D01*
X122672Y541150D01*
Y503255D01*
X121498Y502769D01*
X70565Y553703D01*
X71301Y555481D01*
X71633Y558000D01*
X71301Y560519D01*
X70329Y562867D01*
X68782Y564882D01*
X66766Y566429D01*
X64419Y567402D01*
X61900Y567733D01*
X59381Y567402D01*
X57033Y566429D01*
X55017Y564882D01*
X53471Y562867D01*
X52498Y560519D01*
X52167Y558000D01*
X52498Y555481D01*
X53471Y553133D01*
X55017Y551117D01*
X57033Y549571D01*
X59381Y548598D01*
X61900Y548267D01*
X64167Y548565D01*
X202172Y410561D01*
Y393250D01*
X202172Y393250D01*
X202482Y391689D01*
X203366Y390366D01*
X206866Y386866D01*
X206866Y386866D01*
X208189Y385982D01*
X209750Y385672D01*
X209750Y385672D01*
X254000D01*
X254000Y385672D01*
X255560Y385982D01*
X256884Y386866D01*
X263199Y393182D01*
X265146Y393569D01*
X266965Y394785D01*
X268181Y396604D01*
X268608Y398750D01*
X268181Y400896D01*
X266965Y402715D01*
X265146Y403931D01*
X263000Y404358D01*
X260854Y403931D01*
X259035Y402715D01*
X257819Y400896D01*
X257432Y398950D01*
X253194Y394712D01*
X252208Y395522D01*
X252931Y396604D01*
X253358Y398750D01*
X252931Y400896D01*
X251715Y402715D01*
X249896Y403931D01*
X247950Y404318D01*
X231634Y420634D01*
X230311Y421518D01*
X228750Y421828D01*
X228750Y421828D01*
X211189D01*
X130828Y502189D01*
Y539461D01*
X140293Y548925D01*
X141081Y548598D01*
X143600Y548267D01*
X146119Y548598D01*
X148467Y549571D01*
X150482Y551117D01*
X152029Y553133D01*
X153001Y555481D01*
X153333Y558000D01*
X153001Y560519D01*
X152029Y562867D01*
X150482Y564882D01*
X148467Y566429D01*
X146119Y567402D01*
X143600Y567733D01*
D02*
G37*
G36*
X231488Y510730D02*
X217770D01*
Y497012D01*
X219448Y497178D01*
X222283Y498038D01*
X224896Y499434D01*
X227186Y501314D01*
X229066Y503604D01*
X230462Y506217D01*
X231322Y509052D01*
X231488Y510730D01*
D02*
G37*
G36*
X215230D02*
X201512D01*
X201678Y509052D01*
X202538Y506217D01*
X203934Y503604D01*
X205814Y501314D01*
X208104Y499434D01*
X210716Y498038D01*
X213552Y497178D01*
X215230Y497012D01*
Y510730D01*
D02*
G37*
G36*
X159900Y527338D02*
X156322Y526986D01*
X152882Y525943D01*
X149712Y524248D01*
X146933Y521967D01*
X144652Y519188D01*
X142958Y516018D01*
X141914Y512578D01*
X141562Y509000D01*
X141914Y505423D01*
X142958Y501982D01*
X144652Y498812D01*
X146933Y496033D01*
X149712Y493753D01*
X152882Y492058D01*
X156322Y491014D01*
X159900Y490662D01*
X163478Y491014D01*
X166918Y492058D01*
X170088Y493753D01*
X172867Y496033D01*
X175148Y498812D01*
X176842Y501982D01*
X177886Y505423D01*
X178238Y509000D01*
X177886Y512578D01*
X176842Y516018D01*
X175148Y519188D01*
X172867Y521967D01*
X170088Y524248D01*
X166918Y525943D01*
X163478Y526986D01*
X159900Y527338D01*
D02*
G37*
G36*
X45600D02*
X42023Y526986D01*
X38582Y525943D01*
X35412Y524248D01*
X32633Y521967D01*
X30352Y519188D01*
X28658Y516018D01*
X27614Y512578D01*
X27262Y509000D01*
X27614Y505423D01*
X28658Y501982D01*
X30352Y498812D01*
X32633Y496033D01*
X35412Y493753D01*
X38582Y492058D01*
X42023Y491014D01*
X45600Y490662D01*
X49178Y491014D01*
X52618Y492058D01*
X55788Y493753D01*
X58567Y496033D01*
X60848Y498812D01*
X62543Y501982D01*
X63586Y505423D01*
X63938Y509000D01*
X63586Y512578D01*
X62543Y516018D01*
X60848Y519188D01*
X58567Y521967D01*
X55788Y524248D01*
X52618Y525943D01*
X49178Y526986D01*
X45600Y527338D01*
D02*
G37*
G36*
X335000Y500500D02*
X317000D01*
Y482500D01*
X335000D01*
Y500500D01*
D02*
G37*
G36*
X181470Y493211D02*
Y479770D01*
X194911D01*
X194751Y481394D01*
X193907Y484178D01*
X192536Y486743D01*
X190691Y488991D01*
X188442Y490836D01*
X185877Y492207D01*
X183094Y493051D01*
X181470Y493211D01*
D02*
G37*
G36*
X26570D02*
Y479770D01*
X40011D01*
X39851Y481394D01*
X39007Y484178D01*
X37636Y486743D01*
X35791Y488991D01*
X33543Y490836D01*
X30978Y492207D01*
X28194Y493051D01*
X26570Y493211D01*
D02*
G37*
G36*
X24030D02*
X22406Y493051D01*
X19622Y492207D01*
X17057Y490836D01*
X14809Y488991D01*
X12964Y486743D01*
X11593Y484178D01*
X10749Y481394D01*
X10589Y479770D01*
X24030D01*
Y493211D01*
D02*
G37*
G36*
X178930D02*
X177305Y493051D01*
X174522Y492207D01*
X171957Y490836D01*
X169709Y488991D01*
X167864Y486743D01*
X166493Y484178D01*
X165648Y481394D01*
X165488Y479770D01*
X178930D01*
Y493211D01*
D02*
G37*
G36*
X40011Y477230D02*
X26570D01*
Y463789D01*
X28194Y463949D01*
X30978Y464793D01*
X33543Y466164D01*
X35791Y468009D01*
X37636Y470257D01*
X39007Y472822D01*
X39851Y475605D01*
X40011Y477230D01*
D02*
G37*
G36*
X194911D02*
X181470D01*
Y463789D01*
X183094Y463949D01*
X185877Y464793D01*
X188442Y466164D01*
X190691Y468009D01*
X192536Y470257D01*
X193907Y472822D01*
X194751Y475605D01*
X194911Y477230D01*
D02*
G37*
G36*
X178930D02*
X165488D01*
X165648Y475605D01*
X166493Y472822D01*
X167864Y470257D01*
X169709Y468009D01*
X171957Y466164D01*
X174522Y464793D01*
X177305Y463949D01*
X178930Y463789D01*
Y477230D01*
D02*
G37*
G36*
X24030D02*
X10589D01*
X10749Y475605D01*
X11593Y472822D01*
X12964Y470257D01*
X14809Y468009D01*
X17057Y466164D01*
X19622Y464793D01*
X22406Y463949D01*
X24030Y463789D01*
Y477230D01*
D02*
G37*
G36*
X241500Y476625D02*
X237715Y476127D01*
X234188Y474666D01*
X231159Y472342D01*
X228834Y469313D01*
X227373Y465785D01*
X226875Y462000D01*
X227373Y458215D01*
X228834Y454688D01*
X231159Y451659D01*
X234188Y449334D01*
X237715Y447873D01*
X241500Y447375D01*
X245285Y447873D01*
X248813Y449334D01*
X251842Y451659D01*
X254166Y454688D01*
X255627Y458215D01*
X256125Y462000D01*
X255627Y465785D01*
X254166Y469313D01*
X251842Y472342D01*
X248813Y474666D01*
X245285Y476127D01*
X241500Y476625D01*
D02*
G37*
G36*
X275750Y452608D02*
X273604Y452181D01*
X271785Y450965D01*
X270569Y449146D01*
X270142Y447000D01*
X270569Y444854D01*
X271785Y443035D01*
X273604Y441819D01*
X275750Y441392D01*
X277896Y441819D01*
X279715Y443035D01*
X280931Y444854D01*
X281358Y447000D01*
X280931Y449146D01*
X279715Y450965D01*
X277896Y452181D01*
X275750Y452608D01*
D02*
G37*
G36*
X156240Y454490D02*
X138260D01*
Y436510D01*
X156240D01*
Y454490D01*
D02*
G37*
G36*
X121850Y454568D02*
X119503Y454259D01*
X117316Y453353D01*
X115438Y451912D01*
X113997Y450034D01*
X113091Y447847D01*
X112782Y445500D01*
X113091Y443153D01*
X113997Y440966D01*
X115438Y439089D01*
X117316Y437648D01*
X119503Y436742D01*
X121850Y436433D01*
X124197Y436742D01*
X126384Y437648D01*
X128262Y439089D01*
X129703Y440966D01*
X130609Y443153D01*
X130918Y445500D01*
X130609Y447847D01*
X129703Y450034D01*
X128262Y451912D01*
X126384Y453353D01*
X124197Y454259D01*
X121850Y454568D01*
D02*
G37*
G36*
X96450D02*
X94103Y454259D01*
X91916Y453353D01*
X90038Y451912D01*
X88597Y450034D01*
X87691Y447847D01*
X87382Y445500D01*
X87691Y443153D01*
X88597Y440966D01*
X90038Y439089D01*
X91916Y437648D01*
X94103Y436742D01*
X96450Y436433D01*
X98797Y436742D01*
X100984Y437648D01*
X102862Y439089D01*
X104303Y440966D01*
X105209Y443153D01*
X105518Y445500D01*
X105209Y447847D01*
X104303Y450034D01*
X102862Y451912D01*
X100984Y453353D01*
X98797Y454259D01*
X96450Y454568D01*
D02*
G37*
G36*
X71050D02*
X68703Y454259D01*
X66516Y453353D01*
X64638Y451912D01*
X63197Y450034D01*
X62291Y447847D01*
X61982Y445500D01*
X62291Y443153D01*
X63197Y440966D01*
X64638Y439089D01*
X66516Y437648D01*
X68703Y436742D01*
X71050Y436433D01*
X73397Y436742D01*
X75584Y437648D01*
X77462Y439089D01*
X78903Y440966D01*
X79809Y443153D01*
X80118Y445500D01*
X79809Y447847D01*
X78903Y450034D01*
X77462Y451912D01*
X75584Y453353D01*
X73397Y454259D01*
X71050Y454568D01*
D02*
G37*
G36*
X59620Y429545D02*
Y421370D01*
X67795D01*
X67635Y422588D01*
X66674Y424906D01*
X65147Y426897D01*
X63156Y428425D01*
X60838Y429385D01*
X59620Y429545D01*
D02*
G37*
G36*
X57080D02*
X55862Y429385D01*
X53544Y428425D01*
X51553Y426897D01*
X50026Y424906D01*
X49065Y422588D01*
X48905Y421370D01*
X57080D01*
Y429545D01*
D02*
G37*
G36*
X188071Y420429D02*
X185925Y420002D01*
X184106Y418786D01*
X182890Y416967D01*
X182463Y414821D01*
X182604Y414116D01*
X181706Y413218D01*
X181000Y413358D01*
X178854Y412931D01*
X177035Y411716D01*
X175819Y409896D01*
X175392Y407750D01*
X175819Y405604D01*
X177035Y403785D01*
X178854Y402569D01*
X181000Y402142D01*
X183146Y402569D01*
X184965Y403785D01*
X186181Y405604D01*
X186608Y407750D01*
X186467Y408456D01*
X187365Y409354D01*
X188071Y409213D01*
X190217Y409640D01*
X192036Y410856D01*
X193252Y412675D01*
X193679Y414821D01*
X193252Y416967D01*
X192036Y418786D01*
X190217Y420002D01*
X188071Y420429D01*
D02*
G37*
G36*
X134550Y429168D02*
X132203Y428859D01*
X130016Y427953D01*
X128138Y426512D01*
X126697Y424634D01*
X125791Y422447D01*
X125482Y420100D01*
X125791Y417753D01*
X126697Y415566D01*
X128138Y413689D01*
X130016Y412248D01*
X132203Y411342D01*
X134550Y411033D01*
X136897Y411342D01*
X139084Y412248D01*
X140962Y413689D01*
X142403Y415566D01*
X143308Y417753D01*
X143617Y420100D01*
X143308Y422447D01*
X142403Y424634D01*
X140962Y426512D01*
X139084Y427953D01*
X136897Y428859D01*
X134550Y429168D01*
D02*
G37*
G36*
X109150D02*
X106803Y428859D01*
X104616Y427953D01*
X102738Y426512D01*
X101297Y424634D01*
X100391Y422447D01*
X100082Y420100D01*
X100391Y417753D01*
X101297Y415566D01*
X102738Y413689D01*
X104616Y412248D01*
X106803Y411342D01*
X109150Y411033D01*
X111497Y411342D01*
X113684Y412248D01*
X115562Y413689D01*
X117003Y415566D01*
X117908Y417753D01*
X118217Y420100D01*
X117908Y422447D01*
X117003Y424634D01*
X115562Y426512D01*
X113684Y427953D01*
X111497Y428859D01*
X109150Y429168D01*
D02*
G37*
G36*
X83750D02*
X81403Y428859D01*
X79216Y427953D01*
X77338Y426512D01*
X75897Y424634D01*
X74991Y422447D01*
X74682Y420100D01*
X74991Y417753D01*
X75897Y415566D01*
X77338Y413689D01*
X79216Y412248D01*
X81403Y411342D01*
X83750Y411033D01*
X86097Y411342D01*
X88284Y412248D01*
X90162Y413689D01*
X91603Y415566D01*
X92508Y417753D01*
X92817Y420100D01*
X92508Y422447D01*
X91603Y424634D01*
X90162Y426512D01*
X88284Y427953D01*
X86097Y428859D01*
X83750Y429168D01*
D02*
G37*
G36*
X67795Y418830D02*
X59620D01*
Y410655D01*
X60838Y410816D01*
X63156Y411776D01*
X65147Y413303D01*
X66674Y415294D01*
X67635Y417612D01*
X67795Y418830D01*
D02*
G37*
G36*
X57080D02*
X48905D01*
X49065Y417612D01*
X50026Y415294D01*
X51553Y413303D01*
X53544Y411776D01*
X55862Y410816D01*
X57080Y410655D01*
Y418830D01*
D02*
G37*
G36*
X115000Y409358D02*
X112854Y408931D01*
X111035Y407715D01*
X109819Y405896D01*
X109392Y403750D01*
X109819Y401604D01*
X111035Y399785D01*
X112854Y398569D01*
X115000Y398143D01*
X117146Y398569D01*
X118422Y399422D01*
X161943D01*
X162035Y399285D01*
X163854Y398069D01*
X166000Y397642D01*
X168146Y398069D01*
X169965Y399285D01*
X171181Y401104D01*
X171608Y403250D01*
X171181Y405396D01*
X169965Y407215D01*
X168146Y408431D01*
X166000Y408858D01*
X163854Y408431D01*
X162579Y407578D01*
X119057D01*
X118965Y407715D01*
X117146Y408931D01*
X115000Y409358D01*
D02*
G37*
G36*
X488020Y395036D02*
Y371270D01*
X511786D01*
X511428Y374909D01*
X509996Y379629D01*
X507671Y383979D01*
X504542Y387792D01*
X500729Y390921D01*
X496379Y393246D01*
X491659Y394678D01*
X488020Y395036D01*
D02*
G37*
G36*
X485480D02*
X481841Y394678D01*
X477121Y393246D01*
X472771Y390921D01*
X468958Y387792D01*
X465829Y383979D01*
X463504Y379629D01*
X462072Y374909D01*
X461714Y371270D01*
X485480D01*
Y395036D01*
D02*
G37*
G36*
X300500Y378858D02*
X298354Y378431D01*
X296535Y377215D01*
X295319Y375396D01*
X294892Y373250D01*
X295319Y371104D01*
X296535Y369285D01*
X298354Y368069D01*
X300500Y367642D01*
X302646Y368069D01*
X304465Y369285D01*
X305681Y371104D01*
X306108Y373250D01*
X305681Y375396D01*
X304465Y377215D01*
X302646Y378431D01*
X300500Y378858D01*
D02*
G37*
G36*
X187020Y362378D02*
X184874Y361951D01*
X183055Y360735D01*
X181839Y358916D01*
X181412Y356770D01*
X181839Y354624D01*
X183055Y352805D01*
X184874Y351589D01*
X187020Y351162D01*
X189166Y351589D01*
X190985Y352805D01*
X192201Y354624D01*
X192628Y356770D01*
X192201Y358916D01*
X190985Y360735D01*
X189166Y361951D01*
X187020Y362378D01*
D02*
G37*
G36*
X511786Y368730D02*
X488020D01*
Y344964D01*
X491659Y345323D01*
X496379Y346754D01*
X500729Y349080D01*
X504542Y352209D01*
X507671Y356021D01*
X509996Y360372D01*
X511428Y365092D01*
X511786Y368730D01*
D02*
G37*
G36*
X485480D02*
X461714D01*
X462072Y365092D01*
X463504Y360372D01*
X465829Y356021D01*
X468958Y352209D01*
X472771Y349080D01*
X477121Y346754D01*
X481841Y345323D01*
X485480Y344964D01*
Y368730D01*
D02*
G37*
G36*
X190250Y348838D02*
X188104Y348411D01*
X186285Y347195D01*
X185069Y345376D01*
X184942Y344739D01*
X183534Y344170D01*
X182396Y344931D01*
X180250Y345358D01*
X178104Y344931D01*
X176285Y343715D01*
X175069Y341896D01*
X174642Y339750D01*
X175069Y337604D01*
X176285Y335785D01*
X176712Y335499D01*
X176689Y333987D01*
X175535Y333215D01*
X174319Y331396D01*
X173892Y329250D01*
X174319Y327104D01*
X175535Y325285D01*
X177354Y324069D01*
X179500Y323642D01*
X181646Y324069D01*
X183465Y325285D01*
X184681Y327104D01*
X185108Y329250D01*
X184681Y331396D01*
X183465Y333215D01*
X183038Y333501D01*
X183060Y335013D01*
X184215Y335785D01*
X185431Y337604D01*
X185557Y338241D01*
X186966Y338810D01*
X188104Y338049D01*
X190250Y337622D01*
X192396Y338049D01*
X194215Y339265D01*
X195431Y341084D01*
X195858Y343230D01*
X195431Y345376D01*
X194215Y347195D01*
X192396Y348411D01*
X190250Y348838D01*
D02*
G37*
G36*
X151000Y350608D02*
X148854Y350181D01*
X147035Y348965D01*
X145819Y347146D01*
X145392Y345000D01*
X145819Y342854D01*
X147035Y341035D01*
X148854Y339819D01*
X151000Y339392D01*
X153146Y339819D01*
X154965Y341035D01*
X156181Y342854D01*
X156608Y345000D01*
X156181Y347146D01*
X154965Y348965D01*
X153146Y350181D01*
X151000Y350608D01*
D02*
G37*
G36*
X41520Y362786D02*
Y339020D01*
X65286D01*
X64928Y342659D01*
X63496Y347379D01*
X61171Y351729D01*
X58042Y355541D01*
X54229Y358671D01*
X49879Y360996D01*
X45159Y362428D01*
X41520Y362786D01*
D02*
G37*
G36*
X38980D02*
X35341Y362428D01*
X30621Y360996D01*
X26271Y358671D01*
X22458Y355541D01*
X19329Y351729D01*
X17004Y347379D01*
X15572Y342659D01*
X15214Y339020D01*
X38980D01*
Y362786D01*
D02*
G37*
G36*
X234500Y382108D02*
X232354Y381681D01*
X230535Y380465D01*
X229319Y378646D01*
X228892Y376500D01*
X229319Y374354D01*
X230535Y372535D01*
X232354Y371319D01*
X234500Y370892D01*
X236646Y371319D01*
X238465Y372535D01*
X238903Y373190D01*
X240430D01*
X241035Y372285D01*
X242854Y371069D01*
X245000Y370642D01*
X247146Y371069D01*
X248965Y372285D01*
X249194Y372628D01*
X250721D01*
X251285Y371785D01*
X253104Y370569D01*
X255250Y370142D01*
X257396Y370569D01*
X259216Y371785D01*
X259528Y372252D01*
X261055D01*
X261535Y371535D01*
X263056Y370518D01*
X263163Y369436D01*
X263088Y369086D01*
X261785Y368215D01*
X260569Y366396D01*
X260142Y364250D01*
X260290Y363506D01*
X234619Y337834D01*
X225250D01*
X223974Y337580D01*
X222892Y336857D01*
X209393Y323358D01*
X208670Y322276D01*
X208416Y321000D01*
Y251250D01*
X208670Y249974D01*
X209393Y248892D01*
X338143Y120142D01*
X339224Y119420D01*
X340500Y119166D01*
X353250D01*
X354526Y119420D01*
X355607Y120142D01*
X368131Y132666D01*
X380613D01*
X381035Y132035D01*
X382854Y130819D01*
X385000Y130392D01*
X387146Y130819D01*
X388965Y132035D01*
X390181Y133854D01*
X390608Y136000D01*
X390181Y138146D01*
X388965Y139965D01*
X387146Y141181D01*
X385000Y141608D01*
X382854Y141181D01*
X381035Y139965D01*
X380613Y139334D01*
X366750D01*
X365474Y139080D01*
X364392Y138357D01*
X351869Y125834D01*
X341881D01*
X338972Y128743D01*
X339459Y129916D01*
X342113D01*
X342535Y129285D01*
X344354Y128069D01*
X346500Y127642D01*
X348646Y128069D01*
X350465Y129285D01*
X351681Y131104D01*
X352108Y133250D01*
X351681Y135396D01*
X350465Y137215D01*
X348646Y138431D01*
X346500Y138858D01*
X344354Y138431D01*
X342535Y137215D01*
X342113Y136584D01*
X337551D01*
X314693Y159443D01*
X314701Y159509D01*
X315266Y160666D01*
X381863D01*
X382285Y160035D01*
X384104Y158819D01*
X386250Y158392D01*
X388396Y158819D01*
X390215Y160035D01*
X391431Y161854D01*
X391858Y164000D01*
X391431Y166146D01*
X390215Y167965D01*
X388396Y169181D01*
X386250Y169608D01*
X384104Y169181D01*
X382285Y167965D01*
X381863Y167334D01*
X316210D01*
X313302Y170243D01*
X313788Y171416D01*
X353363D01*
X353785Y170785D01*
X355604Y169569D01*
X357750Y169142D01*
X359896Y169569D01*
X361715Y170785D01*
X362931Y172604D01*
X363358Y174750D01*
X362931Y176896D01*
X361715Y178715D01*
X359896Y179931D01*
X357750Y180358D01*
X355604Y179931D01*
X353785Y178715D01*
X353363Y178084D01*
X311881D01*
X236084Y253881D01*
Y310369D01*
X237255Y311540D01*
X238000Y311392D01*
X240146Y311819D01*
X241965Y313035D01*
X243181Y314854D01*
X243608Y317000D01*
X243181Y319146D01*
X241965Y320965D01*
X240146Y322181D01*
X238000Y322608D01*
X235854Y322181D01*
X234035Y320965D01*
X232819Y319146D01*
X232392Y317000D01*
X232540Y316255D01*
X230746Y314461D01*
X229575Y315086D01*
X229608Y315250D01*
X229181Y317396D01*
X227965Y319215D01*
X226146Y320431D01*
X225799Y320500D01*
X225430Y321715D01*
X230131Y326416D01*
X253113D01*
X253535Y325785D01*
X255354Y324569D01*
X257500Y324142D01*
X259646Y324569D01*
X261465Y325785D01*
X262681Y327604D01*
X263108Y329750D01*
X262681Y331896D01*
X261465Y333715D01*
X259646Y334931D01*
X257500Y335358D01*
X255354Y334931D01*
X253535Y333715D01*
X253113Y333084D01*
X240958D01*
X240472Y334257D01*
X259253Y353038D01*
X260453Y352443D01*
X260819Y350604D01*
X262035Y348785D01*
X262752Y348305D01*
Y346778D01*
X262285Y346465D01*
X261069Y344646D01*
X260642Y342500D01*
X261069Y340354D01*
X262285Y338535D01*
X264104Y337319D01*
X266250Y336892D01*
X268396Y337319D01*
X270215Y338535D01*
X271431Y340354D01*
X271858Y342500D01*
X271431Y344646D01*
X270215Y346465D01*
X269498Y346945D01*
Y348472D01*
X269965Y348785D01*
X271181Y350604D01*
X271608Y352750D01*
X271181Y354896D01*
X269965Y356715D01*
X268225Y357878D01*
X268144Y358173D01*
X268134Y359228D01*
X269715Y360285D01*
X270931Y362104D01*
X271358Y364250D01*
X270931Y366396D01*
X269715Y368215D01*
X268194Y369232D01*
X268087Y370314D01*
X268163Y370664D01*
X269465Y371535D01*
X270681Y373354D01*
X271108Y375500D01*
X270681Y377646D01*
X269465Y379465D01*
X267646Y380681D01*
X265500Y381108D01*
X263354Y380681D01*
X261535Y379465D01*
X261222Y378997D01*
X259695D01*
X259216Y379715D01*
X257396Y380931D01*
X255250Y381357D01*
X253104Y380931D01*
X251285Y379715D01*
X251056Y379372D01*
X249528D01*
X248965Y380215D01*
X247146Y381431D01*
X245000Y381858D01*
X242854Y381431D01*
X241035Y380215D01*
X240597Y379561D01*
X239070D01*
X238465Y380465D01*
X236646Y381681D01*
X234500Y382108D01*
D02*
G37*
G36*
X137500Y333608D02*
X135354Y333181D01*
X133535Y331965D01*
X132319Y330146D01*
X131892Y328000D01*
X132319Y325854D01*
X133535Y324035D01*
X135354Y322819D01*
X137500Y322392D01*
X139646Y322819D01*
X141465Y324035D01*
X142681Y325854D01*
X143108Y328000D01*
X142681Y330146D01*
X141465Y331965D01*
X139646Y333181D01*
X137500Y333608D01*
D02*
G37*
G36*
X65286Y336480D02*
X41520D01*
Y312714D01*
X45159Y313072D01*
X49879Y314504D01*
X54229Y316829D01*
X58042Y319958D01*
X61171Y323771D01*
X63496Y328121D01*
X64928Y332841D01*
X65286Y336480D01*
D02*
G37*
G36*
X38980D02*
X15214D01*
X15572Y332841D01*
X17004Y328121D01*
X19329Y323771D01*
X22458Y319958D01*
X26271Y316829D01*
X30621Y314504D01*
X35341Y313072D01*
X38980Y312714D01*
Y336480D01*
D02*
G37*
G36*
X247250Y305358D02*
X245104Y304931D01*
X243285Y303715D01*
X242069Y301896D01*
X241642Y299750D01*
X242069Y297604D01*
X243285Y295785D01*
X245104Y294569D01*
X247250Y294142D01*
X249396Y294569D01*
X251215Y295785D01*
X252431Y297604D01*
X252858Y299750D01*
X252431Y301896D01*
X251215Y303715D01*
X249396Y304931D01*
X247250Y305358D01*
D02*
G37*
G36*
X287000Y304858D02*
X284854Y304431D01*
X283035Y303215D01*
X281819Y301396D01*
X281392Y299250D01*
X281819Y297104D01*
X283035Y295285D01*
X284854Y294069D01*
X287000Y293642D01*
X289146Y294069D01*
X290965Y295285D01*
X292181Y297104D01*
X292608Y299250D01*
X292181Y301396D01*
X290965Y303215D01*
X289146Y304431D01*
X287000Y304858D01*
D02*
G37*
G36*
X201000Y302358D02*
X198854Y301931D01*
X197035Y300715D01*
X195819Y298896D01*
X195392Y296750D01*
X195819Y294604D01*
X197035Y292785D01*
X198854Y291569D01*
X201000Y291142D01*
X203146Y291569D01*
X204965Y292785D01*
X206181Y294604D01*
X206608Y296750D01*
X206181Y298896D01*
X204965Y300715D01*
X203146Y301931D01*
X201000Y302358D01*
D02*
G37*
G36*
X278750Y281608D02*
X276604Y281181D01*
X274785Y279965D01*
X273569Y278146D01*
X273142Y276000D01*
X273569Y273854D01*
X274785Y272035D01*
X276604Y270819D01*
X278750Y270392D01*
X280896Y270819D01*
X282715Y272035D01*
X283931Y273854D01*
X284358Y276000D01*
X283931Y278146D01*
X282715Y279965D01*
X280896Y281181D01*
X278750Y281608D01*
D02*
G37*
G36*
X198250Y275358D02*
X196104Y274931D01*
X194285Y273715D01*
X193069Y271896D01*
X192642Y269750D01*
X193069Y267604D01*
X194285Y265785D01*
X196104Y264569D01*
X198250Y264142D01*
X200396Y264569D01*
X202215Y265785D01*
X203431Y267604D01*
X203858Y269750D01*
X203431Y271896D01*
X202215Y273715D01*
X200396Y274931D01*
X198250Y275358D01*
D02*
G37*
G36*
X354520Y272114D02*
Y262920D01*
X363714D01*
X363519Y264401D01*
X362457Y266965D01*
X360767Y269167D01*
X358565Y270857D01*
X356002Y271919D01*
X354520Y272114D01*
D02*
G37*
G36*
X351980D02*
X350499Y271919D01*
X347934Y270857D01*
X345733Y269167D01*
X344043Y266965D01*
X342981Y264401D01*
X342786Y262920D01*
X351980D01*
Y272114D01*
D02*
G37*
G36*
X278750Y267608D02*
X276604Y267181D01*
X274785Y265965D01*
X273569Y264146D01*
X273142Y262000D01*
X273569Y259854D01*
X274785Y258035D01*
X276604Y256819D01*
X278750Y256392D01*
X280896Y256819D01*
X282715Y258035D01*
X283931Y259854D01*
X284358Y262000D01*
X283931Y264146D01*
X282715Y265965D01*
X280896Y267181D01*
X278750Y267608D01*
D02*
G37*
G36*
X363714Y260380D02*
X354520D01*
Y251186D01*
X356002Y251381D01*
X358565Y252443D01*
X360767Y254133D01*
X362457Y256334D01*
X363519Y258899D01*
X363714Y260380D01*
D02*
G37*
G36*
X351980D02*
X342786D01*
X342981Y258899D01*
X344043Y256334D01*
X345733Y254133D01*
X347934Y252443D01*
X350499Y251381D01*
X351980Y251186D01*
Y260380D01*
D02*
G37*
G36*
X27750Y259232D02*
X25270Y258906D01*
X22959Y257948D01*
X20975Y256425D01*
X19452Y254441D01*
X18494Y252130D01*
X18168Y249650D01*
X18494Y247170D01*
X19452Y244859D01*
X20975Y242875D01*
X22959Y241352D01*
X25270Y240394D01*
X27750Y240068D01*
X30230Y240394D01*
X32541Y241352D01*
X34525Y242875D01*
X36048Y244859D01*
X37005Y247170D01*
X37332Y249650D01*
X37005Y252130D01*
X36048Y254441D01*
X34525Y256425D01*
X32541Y257948D01*
X30230Y258906D01*
X27750Y259232D01*
D02*
G37*
G36*
X161500Y245108D02*
X159354Y244681D01*
X157535Y243465D01*
X156319Y241646D01*
X155892Y239500D01*
X156319Y237354D01*
X157535Y235535D01*
X159354Y234319D01*
X161500Y233892D01*
X163646Y234319D01*
X165465Y235535D01*
X166681Y237354D01*
X167108Y239500D01*
X166681Y241646D01*
X165465Y243465D01*
X163646Y244681D01*
X161500Y245108D01*
D02*
G37*
G36*
X353250Y246336D02*
X350639Y245993D01*
X348207Y244985D01*
X346118Y243382D01*
X344515Y241293D01*
X343507Y238860D01*
X343164Y236250D01*
X343507Y233639D01*
X344515Y231207D01*
X346118Y229118D01*
X348207Y227515D01*
X350639Y226507D01*
X353250Y226164D01*
X355860Y226507D01*
X358293Y227515D01*
X360382Y229118D01*
X361985Y231207D01*
X362993Y233639D01*
X363336Y236250D01*
X362993Y238860D01*
X361985Y241293D01*
X360382Y243382D01*
X358293Y244985D01*
X355860Y245993D01*
X353250Y246336D01*
D02*
G37*
G36*
X29020Y234209D02*
Y225520D01*
X37709D01*
X37531Y226871D01*
X36520Y229313D01*
X34911Y231411D01*
X32813Y233020D01*
X30371Y234032D01*
X29020Y234209D01*
D02*
G37*
G36*
X26480D02*
X25129Y234032D01*
X22687Y233020D01*
X20589Y231411D01*
X18980Y229313D01*
X17968Y226871D01*
X17790Y225520D01*
X26480D01*
Y234209D01*
D02*
G37*
G36*
X297000Y226358D02*
X294854Y225931D01*
X293035Y224715D01*
X291819Y222896D01*
X291392Y220750D01*
X291819Y218604D01*
X293035Y216785D01*
X294854Y215569D01*
X297000Y215142D01*
X299146Y215569D01*
X300965Y216785D01*
X302181Y218604D01*
X302608Y220750D01*
X302181Y222896D01*
X300965Y224715D01*
X299146Y225931D01*
X297000Y226358D01*
D02*
G37*
G36*
X37709Y222980D02*
X29020D01*
Y214291D01*
X30371Y214468D01*
X32813Y215480D01*
X34911Y217089D01*
X36520Y219187D01*
X37531Y221629D01*
X37709Y222980D01*
D02*
G37*
G36*
X26480D02*
X17790D01*
X17968Y221629D01*
X18980Y219187D01*
X20589Y217089D01*
X22687Y215480D01*
X25129Y214468D01*
X26480Y214291D01*
Y222980D01*
D02*
G37*
G36*
X128000Y224608D02*
X125854Y224181D01*
X124035Y222965D01*
X122819Y221146D01*
X122392Y219000D01*
X122819Y216854D01*
X124035Y215035D01*
X125854Y213819D01*
X128000Y213392D01*
X130146Y213819D01*
X131965Y215035D01*
X133181Y216854D01*
X133608Y219000D01*
X133181Y221146D01*
X131965Y222965D01*
X130146Y224181D01*
X128000Y224608D01*
D02*
G37*
G36*
X27750Y208432D02*
X25270Y208106D01*
X22959Y207148D01*
X20975Y205625D01*
X19452Y203641D01*
X18494Y201330D01*
X18168Y198850D01*
X18494Y196370D01*
X19452Y194059D01*
X20975Y192075D01*
X22959Y190552D01*
X25270Y189594D01*
X27750Y189268D01*
X30230Y189594D01*
X32541Y190552D01*
X34525Y192075D01*
X36048Y194059D01*
X37005Y196370D01*
X37332Y198850D01*
X37005Y201330D01*
X36048Y203641D01*
X34525Y205625D01*
X32541Y207148D01*
X30230Y208106D01*
X27750Y208432D01*
D02*
G37*
G36*
X146750Y192858D02*
X144604Y192431D01*
X142785Y191215D01*
X141569Y189396D01*
X141142Y187250D01*
X141569Y185104D01*
X142785Y183285D01*
X144604Y182069D01*
X146750Y181642D01*
X148896Y182069D01*
X150715Y183285D01*
X151931Y185104D01*
X152358Y187250D01*
X151931Y189396D01*
X150715Y191215D01*
X148896Y192431D01*
X146750Y192858D01*
D02*
G37*
G36*
X136750Y184108D02*
X134604Y183681D01*
X132785Y182465D01*
X131569Y180646D01*
X131142Y178500D01*
X131569Y176354D01*
X132785Y174535D01*
X134604Y173319D01*
X136750Y172892D01*
X138896Y173319D01*
X140715Y174535D01*
X141931Y176354D01*
X142358Y178500D01*
X141931Y180646D01*
X140715Y182465D01*
X138896Y183681D01*
X136750Y184108D01*
D02*
G37*
G36*
X104500Y177108D02*
X102354Y176681D01*
X100535Y175465D01*
X99319Y173646D01*
X98892Y171500D01*
X99319Y169354D01*
X100535Y167535D01*
X102354Y166319D01*
X104500Y165892D01*
X106646Y166319D01*
X108465Y167535D01*
X109681Y169354D01*
X110108Y171500D01*
X109681Y173646D01*
X108465Y175465D01*
X106646Y176681D01*
X104500Y177108D01*
D02*
G37*
G36*
X58020Y173464D02*
Y164270D01*
X67214D01*
X67019Y165751D01*
X65957Y168315D01*
X64267Y170517D01*
X62066Y172207D01*
X59502Y173269D01*
X58020Y173464D01*
D02*
G37*
G36*
X55480D02*
X53999Y173269D01*
X51435Y172207D01*
X49233Y170517D01*
X47544Y168315D01*
X46481Y165751D01*
X46286Y164270D01*
X55480D01*
Y173464D01*
D02*
G37*
G36*
X27750Y183032D02*
X25270Y182705D01*
X22959Y181748D01*
X20975Y180225D01*
X19452Y178241D01*
X18494Y175930D01*
X18168Y173450D01*
X18494Y170970D01*
X19452Y168659D01*
X20975Y166674D01*
X22959Y165152D01*
X25270Y164195D01*
X27750Y163868D01*
X30230Y164195D01*
X32541Y165152D01*
X34525Y166674D01*
X36048Y168659D01*
X37005Y170970D01*
X37332Y173450D01*
X37005Y175930D01*
X36048Y178241D01*
X34525Y180225D01*
X32541Y181748D01*
X30230Y182705D01*
X27750Y183032D01*
D02*
G37*
G36*
X67214Y161730D02*
X58020D01*
Y152536D01*
X59502Y152731D01*
X62066Y153793D01*
X64267Y155483D01*
X65957Y157684D01*
X67019Y160248D01*
X67214Y161730D01*
D02*
G37*
G36*
X55480D02*
X46286D01*
X46481Y160248D01*
X47544Y157684D01*
X49233Y155483D01*
X51435Y153793D01*
X53999Y152731D01*
X55480Y152536D01*
Y161730D01*
D02*
G37*
G36*
X423270Y153955D02*
Y145770D01*
X431455D01*
X431295Y146990D01*
X430333Y149311D01*
X428804Y151304D01*
X426811Y152833D01*
X424491Y153794D01*
X423270Y153955D01*
D02*
G37*
G36*
X420730D02*
X419510Y153794D01*
X417189Y152833D01*
X415196Y151304D01*
X413667Y149311D01*
X412706Y146990D01*
X412545Y145770D01*
X420730D01*
Y153955D01*
D02*
G37*
G36*
X481000Y153500D02*
X463000D01*
Y135500D01*
X481000D01*
Y153500D01*
D02*
G37*
G36*
X431455Y143230D02*
X423270D01*
Y135045D01*
X424491Y135206D01*
X426811Y136167D01*
X428804Y137696D01*
X430333Y139689D01*
X431295Y142010D01*
X431455Y143230D01*
D02*
G37*
G36*
X420730D02*
X412545D01*
X412706Y142010D01*
X413667Y139689D01*
X415196Y137696D01*
X417189Y136167D01*
X419510Y135206D01*
X420730Y135045D01*
Y143230D01*
D02*
G37*
G36*
X56750Y147686D02*
X54140Y147343D01*
X51707Y146335D01*
X49618Y144732D01*
X48015Y142643D01*
X47008Y140210D01*
X46664Y137600D01*
X47008Y134989D01*
X48015Y132557D01*
X49618Y130468D01*
X51707Y128865D01*
X54140Y127857D01*
X56750Y127514D01*
X59361Y127857D01*
X61793Y128865D01*
X63882Y130468D01*
X65485Y132557D01*
X66493Y134989D01*
X66837Y137600D01*
X66493Y140210D01*
X65485Y142643D01*
X63882Y144732D01*
X61793Y146335D01*
X59361Y147343D01*
X56750Y147686D01*
D02*
G37*
G36*
X260037Y130145D02*
X257891Y129718D01*
X256072Y128502D01*
X254856Y126683D01*
X254429Y124537D01*
X254856Y122391D01*
X256072Y120572D01*
X257891Y119356D01*
X260037Y118929D01*
X262183Y119356D01*
X264002Y120572D01*
X265218Y122391D01*
X265645Y124537D01*
X265218Y126683D01*
X264002Y128502D01*
X262183Y129718D01*
X260037Y130145D01*
D02*
G37*
G36*
X293500Y121608D02*
X291354Y121181D01*
X289535Y119965D01*
X288319Y118146D01*
X287892Y116000D01*
X288319Y113854D01*
X289535Y112035D01*
X291354Y110819D01*
X293500Y110392D01*
X295646Y110819D01*
X297465Y112035D01*
X298681Y113854D01*
X299108Y116000D01*
X298681Y118146D01*
X297465Y119965D01*
X295646Y121181D01*
X293500Y121608D01*
D02*
G37*
G36*
X230000Y119858D02*
X227854Y119431D01*
X226035Y118215D01*
X224819Y116396D01*
X224392Y114250D01*
X224819Y112104D01*
X226035Y110285D01*
X227854Y109069D01*
X230000Y108642D01*
X232146Y109069D01*
X233965Y110285D01*
X235181Y112104D01*
X235608Y114250D01*
X235181Y116396D01*
X233965Y118215D01*
X232146Y119431D01*
X230000Y119858D01*
D02*
G37*
G36*
X204750Y115358D02*
X202604Y114931D01*
X200785Y113715D01*
X199569Y111896D01*
X199142Y109750D01*
X199569Y107604D01*
X200785Y105785D01*
X202604Y104569D01*
X204750Y104142D01*
X206896Y104569D01*
X208715Y105785D01*
X209931Y107604D01*
X210358Y109750D01*
X209931Y111896D01*
X208715Y113715D01*
X206896Y114931D01*
X204750Y115358D01*
D02*
G37*
G36*
X278750Y294358D02*
X276604Y293931D01*
X274785Y292715D01*
X273569Y290896D01*
X273142Y288750D01*
X273569Y286604D01*
X274785Y284785D01*
X276604Y283569D01*
X278750Y283142D01*
X280896Y283569D01*
X281687Y284098D01*
X286922D01*
Y273100D01*
X286922Y273100D01*
X287232Y271539D01*
X288116Y270216D01*
X343250Y215082D01*
Y200850D01*
X363250D01*
Y206772D01*
X369211D01*
X394672Y181311D01*
Y103439D01*
X390050Y98818D01*
X388104Y98431D01*
X386454Y97328D01*
X385161D01*
X385036Y98598D01*
X386146Y98819D01*
X387965Y100035D01*
X389181Y101854D01*
X389608Y104000D01*
X389181Y106146D01*
X387965Y107965D01*
X386146Y109181D01*
X384000Y109608D01*
X381854Y109181D01*
X380035Y107965D01*
X379613Y107334D01*
X340631D01*
X311607Y136357D01*
X310526Y137080D01*
X309250Y137334D01*
X290750D01*
X289474Y137080D01*
X288392Y136357D01*
X282495Y130460D01*
X281750Y130608D01*
X279604Y130181D01*
X277785Y128965D01*
X276569Y127146D01*
X276142Y125000D01*
X276477Y123319D01*
X275377Y122527D01*
X275146Y122681D01*
X273000Y123108D01*
X270854Y122681D01*
X269035Y121465D01*
X267819Y119646D01*
X267392Y117500D01*
X267819Y115354D01*
X269035Y113535D01*
X270854Y112319D01*
X273000Y111892D01*
X275146Y112319D01*
X276965Y113535D01*
X278181Y115354D01*
X278608Y117500D01*
X278273Y119181D01*
X279373Y119973D01*
X279604Y119819D01*
X281750Y119392D01*
X283896Y119819D01*
X285715Y121035D01*
X286931Y122854D01*
X287358Y125000D01*
X287210Y125745D01*
X292131Y130666D01*
X307869D01*
X336892Y101643D01*
X337974Y100920D01*
X339250Y100666D01*
X379613D01*
X380035Y100035D01*
X381854Y98819D01*
X382964Y98598D01*
X382839Y97328D01*
X314750D01*
X314750Y97328D01*
X314750Y97328D01*
X266750D01*
X266750Y97328D01*
X265189Y97018D01*
X263866Y96134D01*
X247550Y79818D01*
X245604Y79431D01*
X243954Y78328D01*
X158689D01*
X134818Y102200D01*
X134431Y104146D01*
X133215Y105965D01*
X131396Y107181D01*
X129250Y107608D01*
X127104Y107181D01*
X125285Y105965D01*
X124069Y104146D01*
X123642Y102000D01*
X124069Y99854D01*
X125285Y98035D01*
X127104Y96819D01*
X129050Y96432D01*
X145981Y79502D01*
X145495Y78328D01*
X83689D01*
X61088Y100930D01*
X61614Y102200D01*
X66750D01*
Y116432D01*
X86384Y136066D01*
X87268Y137389D01*
X87578Y138950D01*
X87578Y138950D01*
Y229811D01*
X123189Y265422D01*
X130796D01*
X131035Y265065D01*
X132854Y263849D01*
X135000Y263422D01*
X137146Y263849D01*
X138965Y265065D01*
X140181Y266884D01*
X140608Y269030D01*
X140181Y271176D01*
X140067Y271346D01*
X140666Y272466D01*
X151069D01*
X241666Y181869D01*
Y113387D01*
X241035Y112965D01*
X239819Y111146D01*
X239392Y109000D01*
X239819Y106854D01*
X241035Y105035D01*
X242854Y103819D01*
X245000Y103392D01*
X247146Y103819D01*
X248965Y105035D01*
X250181Y106854D01*
X250608Y109000D01*
X250181Y111146D01*
X248965Y112965D01*
X248334Y113387D01*
Y183250D01*
X248080Y184526D01*
X247358Y185608D01*
X154808Y278157D01*
X153726Y278880D01*
X152450Y279134D01*
X37250D01*
Y284550D01*
X18250D01*
Y265550D01*
X37250D01*
Y272466D01*
X116902D01*
X117428Y271196D01*
X80616Y234384D01*
X79732Y233061D01*
X79422Y231500D01*
X79422Y231500D01*
Y140639D01*
X60982Y122200D01*
X46750D01*
Y102200D01*
X51672D01*
Y100500D01*
X51672Y100500D01*
X51982Y98939D01*
X52866Y97616D01*
X79116Y71366D01*
X79116Y71366D01*
X80439Y70482D01*
X82000Y70172D01*
X157000D01*
X157000Y70172D01*
X157000Y70172D01*
X243954D01*
X245604Y69069D01*
X247750Y68642D01*
X249896Y69069D01*
X251715Y70285D01*
X252931Y72104D01*
X253318Y74050D01*
X268439Y89172D01*
X303245D01*
X303731Y87998D01*
X274550Y58818D01*
X272604Y58431D01*
X270785Y57215D01*
X269569Y55396D01*
X269142Y53250D01*
X269569Y51104D01*
X270785Y49285D01*
X272604Y48069D01*
X274750Y47642D01*
X276896Y48069D01*
X278715Y49285D01*
X279931Y51104D01*
X280318Y53050D01*
X316439Y89172D01*
X386454D01*
X388104Y88069D01*
X390250Y87642D01*
X392396Y88069D01*
X394215Y89285D01*
X395431Y91104D01*
X395818Y93050D01*
X401634Y98866D01*
X401634Y98866D01*
X402518Y100189D01*
X402828Y101750D01*
Y183000D01*
X402828Y183000D01*
X402518Y184561D01*
X401634Y185884D01*
X401634Y185884D01*
X373784Y213734D01*
X372461Y214618D01*
X370900Y214928D01*
X370900Y214928D01*
X363250D01*
Y220850D01*
X349018D01*
X295078Y274789D01*
Y285833D01*
X294768Y287394D01*
X293884Y288717D01*
X293884Y288717D01*
X291541Y291060D01*
X290218Y291944D01*
X288657Y292254D01*
X288657Y292254D01*
X283023D01*
X282715Y292715D01*
X280896Y293931D01*
X278750Y294358D01*
D02*
G37*
G36*
X445000Y410358D02*
X442854Y409931D01*
X441035Y408715D01*
X439819Y406896D01*
X439432Y404950D01*
X434616Y400134D01*
X433732Y398811D01*
X433422Y397250D01*
X433422Y397250D01*
Y282250D01*
X433422Y282250D01*
X433732Y280689D01*
X434616Y279366D01*
X490422Y223561D01*
Y111546D01*
X489319Y109896D01*
X488892Y107750D01*
X489319Y105604D01*
X490535Y103785D01*
X492354Y102569D01*
X494500Y102142D01*
X496646Y102569D01*
X498465Y103785D01*
X499681Y105604D01*
X500108Y107750D01*
X499681Y109896D01*
X498578Y111546D01*
Y225250D01*
X498268Y226811D01*
X497384Y228134D01*
X497384Y228134D01*
X441578Y283939D01*
Y395561D01*
X445200Y399182D01*
X447146Y399569D01*
X448965Y400785D01*
X450181Y402604D01*
X450608Y404750D01*
X450181Y406896D01*
X448965Y408715D01*
X447146Y409931D01*
X445000Y410358D01*
D02*
G37*
G36*
X83500Y60858D02*
X81354Y60431D01*
X79535Y59215D01*
X78319Y57396D01*
X77892Y55250D01*
X78319Y53104D01*
X79535Y51285D01*
X81354Y50069D01*
X83500Y49642D01*
X85646Y50069D01*
X87465Y51285D01*
X88681Y53104D01*
X89108Y55250D01*
X88681Y57396D01*
X87465Y59215D01*
X85646Y60431D01*
X83500Y60858D01*
D02*
G37*
G36*
X488020Y64536D02*
Y40770D01*
X511786D01*
X511428Y44409D01*
X509996Y49129D01*
X507671Y53479D01*
X504542Y57292D01*
X500729Y60421D01*
X496379Y62746D01*
X491659Y64178D01*
X488020Y64536D01*
D02*
G37*
G36*
X485480D02*
X481841Y64178D01*
X477121Y62746D01*
X472771Y60421D01*
X468958Y57292D01*
X465829Y53479D01*
X463504Y49129D01*
X462072Y44409D01*
X461714Y40770D01*
X485480D01*
Y64536D01*
D02*
G37*
G36*
X374000Y50358D02*
X371854Y49931D01*
X370035Y48715D01*
X368819Y46896D01*
X368392Y44750D01*
X368819Y42604D01*
X370035Y40785D01*
X371854Y39569D01*
X374000Y39142D01*
X376146Y39569D01*
X377965Y40785D01*
X379181Y42604D01*
X379608Y44750D01*
X379181Y46896D01*
X377965Y48715D01*
X376146Y49931D01*
X374000Y50358D01*
D02*
G37*
G36*
X41520Y62536D02*
Y38770D01*
X65286D01*
X64928Y42409D01*
X63496Y47129D01*
X61171Y51479D01*
X58042Y55292D01*
X54229Y58421D01*
X49879Y60746D01*
X45159Y62178D01*
X41520Y62536D01*
D02*
G37*
G36*
X38980D02*
X35341Y62178D01*
X30621Y60746D01*
X26271Y58421D01*
X22458Y55292D01*
X19329Y51479D01*
X17004Y47129D01*
X15572Y42409D01*
X15214Y38770D01*
X38980D01*
Y62536D01*
D02*
G37*
G36*
X320520Y38960D02*
Y30270D01*
X329210D01*
X329032Y31621D01*
X328020Y34063D01*
X326411Y36161D01*
X324313Y37770D01*
X321871Y38782D01*
X320520Y38960D01*
D02*
G37*
G36*
X317980D02*
X316629Y38782D01*
X314187Y37770D01*
X312089Y36161D01*
X310480Y34063D01*
X309468Y31621D01*
X309291Y30270D01*
X317980D01*
Y38960D01*
D02*
G37*
G36*
X303350Y38500D02*
X284350D01*
Y19500D01*
X303350D01*
Y38500D01*
D02*
G37*
G36*
X344650Y38582D02*
X342170Y38256D01*
X339859Y37298D01*
X337875Y35776D01*
X336352Y33791D01*
X335395Y31480D01*
X335068Y29000D01*
X335395Y26520D01*
X336352Y24209D01*
X337875Y22225D01*
X339859Y20702D01*
X342170Y19745D01*
X344650Y19418D01*
X347130Y19745D01*
X349441Y20702D01*
X351426Y22225D01*
X352948Y24209D01*
X353905Y26520D01*
X354232Y29000D01*
X353905Y31480D01*
X352948Y33791D01*
X351426Y35776D01*
X349441Y37298D01*
X347130Y38256D01*
X344650Y38582D01*
D02*
G37*
G36*
X96000Y30608D02*
X93854Y30181D01*
X92035Y28965D01*
X90819Y27146D01*
X90392Y25000D01*
X90819Y22854D01*
X92035Y21035D01*
X93854Y19819D01*
X96000Y19392D01*
X98146Y19819D01*
X99965Y21035D01*
X101181Y22854D01*
X101608Y25000D01*
X101181Y27146D01*
X99965Y28965D01*
X98146Y30181D01*
X96000Y30608D01*
D02*
G37*
G36*
X329210Y27730D02*
X320520D01*
Y19041D01*
X321871Y19219D01*
X324313Y20230D01*
X326411Y21840D01*
X328020Y23937D01*
X329032Y26379D01*
X329210Y27730D01*
D02*
G37*
G36*
X317980D02*
X309291D01*
X309468Y26379D01*
X310480Y23937D01*
X312089Y21840D01*
X314187Y20230D01*
X316629Y19219D01*
X317980Y19041D01*
Y27730D01*
D02*
G37*
G36*
X511786Y38230D02*
X488020D01*
Y14464D01*
X491659Y14822D01*
X496379Y16254D01*
X500729Y18579D01*
X504542Y21708D01*
X507671Y25521D01*
X509996Y29871D01*
X511428Y34591D01*
X511786Y38230D01*
D02*
G37*
G36*
X485480D02*
X461714D01*
X462072Y34591D01*
X463504Y29871D01*
X465829Y25521D01*
X468958Y21708D01*
X472771Y18579D01*
X477121Y16254D01*
X481841Y14822D01*
X485480Y14464D01*
Y38230D01*
D02*
G37*
G36*
X65286Y36230D02*
X41520D01*
Y12464D01*
X45159Y12822D01*
X49879Y14254D01*
X54229Y16579D01*
X58042Y19708D01*
X61171Y23521D01*
X63496Y27871D01*
X64928Y32591D01*
X65286Y36230D01*
D02*
G37*
G36*
X38980D02*
X15214D01*
X15572Y32591D01*
X17004Y27871D01*
X19329Y23521D01*
X22458Y19708D01*
X26271Y16579D01*
X30621Y14254D01*
X35341Y12822D01*
X38980Y12464D01*
Y36230D01*
D02*
G37*
%LPD*%
D15*
X232750Y252500D02*
X310500Y174750D01*
X232750Y252500D02*
Y311750D01*
X238000Y317000D01*
X211750Y251250D02*
Y321000D01*
Y251250D02*
X340500Y122500D01*
X211750Y321000D02*
X225250Y334500D01*
X216290Y253130D02*
X336171Y133250D01*
X216290Y317290D02*
X228750Y329750D01*
X216290Y253130D02*
Y317290D01*
X152450Y275800D02*
X245000Y183250D01*
Y109000D02*
Y183250D01*
X28500Y275800D02*
X152450D01*
X27750Y275050D02*
X28500Y275800D01*
X236000Y334500D02*
X265750Y364250D01*
X225250Y334500D02*
X236000D01*
X228750Y329750D02*
X257500D01*
X281750Y125000D02*
X290750Y134000D01*
X309250D01*
X339250Y104000D01*
X384000D01*
X336171Y133250D02*
X346500D01*
X310500Y174750D02*
X357750D01*
X224000Y254830D02*
Y315250D01*
X314829Y164000D02*
X386250D01*
X224000Y254830D02*
X314829Y164000D01*
X340500Y122500D02*
X353250D01*
X366750Y136000D02*
X385000D01*
X353250Y122500D02*
X366750Y136000D01*
D81*
X291000Y273100D02*
X353250Y210850D01*
X279324Y288176D02*
X288657D01*
X291000Y285833D01*
Y273100D02*
Y285833D01*
X121500Y269500D02*
X134530D01*
X135000Y269030D01*
X209500Y417750D02*
X228750D01*
X126750Y500500D02*
Y541150D01*
Y500500D02*
X209500Y417750D01*
X390250Y93250D02*
X398750Y101750D01*
X370900Y210850D02*
X398750Y183000D01*
Y101750D02*
Y183000D01*
X83500Y231500D02*
X121500Y269500D01*
X437500Y282250D02*
Y397250D01*
X445000Y404750D01*
X437500Y282250D02*
X494500Y225250D01*
X228750Y417750D02*
X247750Y398750D01*
X494500Y107750D02*
Y225250D01*
X157000Y74250D02*
X247750D01*
X266750Y93250D01*
X165750Y403500D02*
X166000Y403250D01*
X115250Y403500D02*
X165750D01*
X115000Y403750D02*
X115250Y403500D01*
X83500Y138950D02*
Y231500D01*
X56750Y112200D02*
X83500Y138950D01*
X55750Y111200D02*
X56750Y112200D01*
X55750Y100500D02*
Y111200D01*
X82000Y74250D02*
X157000D01*
X55750Y100500D02*
X82000Y74250D01*
X129250Y102000D02*
X157000Y74250D01*
X266750Y93250D02*
X314750D01*
X390250D01*
X274750Y53250D02*
X314750Y93250D01*
X353250Y210850D02*
X370900D01*
X278750Y288750D02*
X279324Y288176D01*
X61900Y556600D02*
Y558000D01*
Y556600D02*
X206250Y412250D01*
X126750Y541150D02*
X143600Y558000D01*
X206250Y393250D02*
Y412250D01*
Y393250D02*
X209750Y389750D01*
X254000D01*
X263000Y398750D01*
D83*
X56750Y137600D02*
D03*
Y163000D02*
D03*
X353250Y261650D02*
D03*
Y236250D02*
D03*
D84*
X56750Y112200D02*
D03*
X353250Y210850D02*
D03*
D85*
X40250Y337750D02*
D03*
Y37500D02*
D03*
X486750Y39500D02*
D03*
Y370000D02*
D03*
D86*
X326000Y541500D02*
D03*
X422000Y144500D02*
D03*
D87*
X326000Y491500D02*
D03*
D88*
X472000Y144500D02*
D03*
D89*
X216500Y512000D02*
D03*
X241500Y462000D02*
D03*
D90*
X159900Y509000D02*
D03*
X45600D02*
D03*
D91*
X25300Y478500D02*
D03*
X180200D02*
D03*
D92*
X61900Y558000D02*
D03*
X36500D02*
D03*
X143600D02*
D03*
X169000D02*
D03*
D93*
X58350Y420100D02*
D03*
X71050Y445500D02*
D03*
X83750Y420100D02*
D03*
X96450Y445500D02*
D03*
X109150Y420100D02*
D03*
X121850Y445500D02*
D03*
X134550Y420100D02*
D03*
D94*
X147250Y445500D02*
D03*
D95*
X344650Y29000D02*
D03*
X319250D02*
D03*
X27750Y173450D02*
D03*
Y198850D02*
D03*
Y224250D02*
D03*
Y249650D02*
D03*
D96*
X293850Y29000D02*
D03*
D97*
X27750Y275050D02*
D03*
D98*
X135000Y269030D02*
D03*
X260037Y124537D02*
D03*
X266000Y352750D02*
D03*
X145750Y241500D02*
D03*
X445000Y404750D02*
D03*
X187020Y356770D02*
D03*
X247750Y74250D02*
D03*
X494500Y107750D02*
D03*
X232750Y344750D02*
D03*
X224250Y353250D02*
D03*
X215500Y345000D02*
D03*
X384000Y104000D02*
D03*
X346500Y133250D02*
D03*
X281750Y125000D02*
D03*
X390250Y93250D02*
D03*
X287000Y299250D02*
D03*
X198250Y269750D02*
D03*
X257500Y329750D02*
D03*
X266250Y342500D02*
D03*
X190250Y343230D02*
D03*
X300500Y373250D02*
D03*
X374000Y44750D02*
D03*
X161500Y239500D02*
D03*
X128000Y219000D02*
D03*
X146750Y187250D02*
D03*
X136750Y178500D02*
D03*
X83500Y55250D02*
D03*
X96000Y25000D02*
D03*
X104500Y171500D02*
D03*
X129250Y102000D02*
D03*
X204750Y109750D02*
D03*
X274750Y53250D02*
D03*
X230000Y114250D02*
D03*
X245000Y109000D02*
D03*
X273000Y117500D02*
D03*
X293500Y116000D02*
D03*
X297000Y220750D02*
D03*
X278750Y288750D02*
D03*
Y276000D02*
D03*
Y262000D02*
D03*
X201000Y296750D02*
D03*
X357750Y174750D02*
D03*
X386250Y164000D02*
D03*
X385000Y136000D02*
D03*
X247250Y299750D02*
D03*
X166000Y403250D02*
D03*
X137500Y328000D02*
D03*
X224000Y315250D02*
D03*
X179500Y329250D02*
D03*
X180250Y339750D02*
D03*
X151000Y345000D02*
D03*
X238000Y317000D02*
D03*
X217250Y399250D02*
D03*
X247750Y398750D02*
D03*
X188071Y414821D02*
D03*
X265750Y364250D02*
D03*
X265500Y375500D02*
D03*
X255250Y375750D02*
D03*
X245000Y376250D02*
D03*
X234500Y376500D02*
D03*
X275750Y447000D02*
D03*
X263000Y398750D02*
D03*
X232500D02*
D03*
X115000Y403750D02*
D03*
X181000Y407750D02*
D03*
D99*
X511001Y561751D02*
D03*
Y543751D02*
D03*
Y525751D02*
D03*
Y507751D02*
D03*
Y489751D02*
D03*
X502001Y561751D02*
D03*
X506501Y552751D02*
D03*
X502001Y543751D02*
D03*
X506501Y534751D02*
D03*
X502001Y525751D02*
D03*
X506501Y516751D02*
D03*
X502001Y507751D02*
D03*
X506501Y498751D02*
D03*
X502001Y489751D02*
D03*
X376001Y561751D02*
D03*
X380501Y552751D02*
D03*
X376001Y543751D02*
D03*
X380501Y534751D02*
D03*
X376001Y525751D02*
D03*
X380501Y516751D02*
D03*
X376001Y507751D02*
D03*
X380501Y498751D02*
D03*
X376001Y489751D02*
D03*
X367001Y561751D02*
D03*
X371501Y552751D02*
D03*
X367001Y543751D02*
D03*
X371501Y534751D02*
D03*
X367001Y525751D02*
D03*
X371501Y516751D02*
D03*
X367001Y507751D02*
D03*
X371501Y498751D02*
D03*
M02*
