G04*
G04 #@! TF.GenerationSoftware,Altium Limited,Altium Designer,20.0.13 (296)*
G04*
G04 Layer_Physical_Order=1*
G04 Layer_Color=255*
%FSLAX44Y44*%
%MOMM*%
G71*
G01*
G75*
%ADD10C,0.2500*%
%ADD11C,0.3000*%
%ADD16C,0.2540*%
%ADD21R,1.1000X1.2500*%
%ADD22R,0.7000X0.9000*%
%ADD23R,0.9000X0.7000*%
%ADD24R,4.2000X0.6000*%
%ADD25R,2.2000X0.6000*%
%ADD26R,0.7620X0.7620*%
%ADD27R,0.7620X0.7620*%
%ADD28R,0.8000X1.1000*%
%ADD29R,1.1000X0.8000*%
%ADD30R,0.8000X1.0000*%
%ADD31R,1.4000X1.0000*%
%ADD32R,1.0000X0.8000*%
%ADD33R,1.3000X1.1000*%
%ADD34R,1.0000X1.4000*%
%ADD35R,1.5000X2.4000*%
%ADD36R,2.4000X1.5000*%
G04:AMPARAMS|DCode=37|XSize=0.28mm|YSize=0.69mm|CornerRadius=0.07mm|HoleSize=0mm|Usage=FLASHONLY|Rotation=45.000|XOffset=0mm|YOffset=0mm|HoleType=Round|Shape=RoundedRectangle|*
%AMROUNDEDRECTD37*
21,1,0.2800,0.5500,0,0,45.0*
21,1,0.1400,0.6900,0,0,45.0*
1,1,0.1400,0.2439,-0.1450*
1,1,0.1400,0.1450,-0.2439*
1,1,0.1400,-0.2439,0.1450*
1,1,0.1400,-0.1450,0.2439*
%
%ADD37ROUNDEDRECTD37*%
G04:AMPARAMS|DCode=38|XSize=0.28mm|YSize=0.69mm|CornerRadius=0.07mm|HoleSize=0mm|Usage=FLASHONLY|Rotation=135.000|XOffset=0mm|YOffset=0mm|HoleType=Round|Shape=RoundedRectangle|*
%AMROUNDEDRECTD38*
21,1,0.2800,0.5500,0,0,135.0*
21,1,0.1400,0.6900,0,0,135.0*
1,1,0.1400,0.1450,0.2439*
1,1,0.1400,0.2439,0.1450*
1,1,0.1400,-0.1450,-0.2439*
1,1,0.1400,-0.2439,-0.1450*
%
%ADD38ROUNDEDRECTD38*%
%ADD39P,3.2329X4X90.0*%
G04:AMPARAMS|DCode=40|XSize=1.56mm|YSize=0.28mm|CornerRadius=0.035mm|HoleSize=0mm|Usage=FLASHONLY|Rotation=90.000|XOffset=0mm|YOffset=0mm|HoleType=Round|Shape=RoundedRectangle|*
%AMROUNDEDRECTD40*
21,1,1.5600,0.2100,0,0,90.0*
21,1,1.4900,0.2800,0,0,90.0*
1,1,0.0700,0.1050,0.7450*
1,1,0.0700,0.1050,-0.7450*
1,1,0.0700,-0.1050,-0.7450*
1,1,0.0700,-0.1050,0.7450*
%
%ADD40ROUNDEDRECTD40*%
G04:AMPARAMS|DCode=41|XSize=1.56mm|YSize=0.28mm|CornerRadius=0.035mm|HoleSize=0mm|Usage=FLASHONLY|Rotation=180.000|XOffset=0mm|YOffset=0mm|HoleType=Round|Shape=RoundedRectangle|*
%AMROUNDEDRECTD41*
21,1,1.5600,0.2100,0,0,180.0*
21,1,1.4900,0.2800,0,0,180.0*
1,1,0.0700,-0.7450,0.1050*
1,1,0.0700,0.7450,0.1050*
1,1,0.0700,0.7450,-0.1050*
1,1,0.0700,-0.7450,-0.1050*
%
%ADD41ROUNDEDRECTD41*%
%ADD42R,1.2000X0.6000*%
%ADD43R,10.4500X8.3000*%
%ADD44R,1.0500X3.2000*%
%ADD45R,4.0000X7.0000*%
%ADD46R,2.7940X3.8100*%
%ADD88C,0.4000*%
%ADD89C,0.5000*%
%ADD90C,1.0000*%
%ADD91C,1.6000*%
%ADD92R,1.6000X1.6000*%
%ADD93R,1.3980X1.3980*%
%ADD94C,1.3980*%
%ADD95C,1.5300*%
%ADD96C,2.4450*%
%ADD97C,3.2500*%
%ADD98C,2.5000*%
%ADD99C,4.5000*%
%ADD100C,1.4000*%
%ADD101R,1.4000X1.4000*%
%ADD102R,1.4000X1.4000*%
%ADD103C,1.5000*%
%ADD104R,1.5000X1.5000*%
%ADD105C,0.7000*%
%ADD106C,0.8000*%
G36*
X435519Y196630D02*
X435670Y196550D01*
X435919Y196480D01*
X436269Y196419D01*
X436720Y196367D01*
X438670Y196269D01*
X440470Y196250D01*
Y191250D01*
X439520Y191245D01*
X435919Y191020D01*
X435670Y190949D01*
X435519Y190870D01*
X435470Y190780D01*
Y196719D01*
X435519Y196630D01*
D02*
G37*
G36*
X435270Y162380D02*
X435420Y162300D01*
X435670Y162230D01*
X436020Y162169D01*
X436469Y162117D01*
X438419Y162019D01*
X440219Y162000D01*
Y157000D01*
X439269Y156995D01*
X435670Y156770D01*
X435420Y156699D01*
X435270Y156620D01*
X435219Y156530D01*
Y162469D01*
X435270Y162380D01*
D02*
G37*
G36*
X418963Y123769D02*
X418944Y123697D01*
X418928Y123588D01*
X418913Y123443D01*
X418883Y122790D01*
X418873Y121812D01*
X416333D01*
X416331Y122041D01*
X416289Y122590D01*
X416264Y122727D01*
X416233Y122841D01*
X416197Y122933D01*
X416156Y123001D01*
X416109Y123047D01*
X416056Y123069D01*
X418984Y123806D01*
X418963Y123769D01*
D02*
G37*
G36*
X463033Y112271D02*
X463071Y111834D01*
X463134Y111449D01*
X463223Y111114D01*
X463338Y110832D01*
X463477Y110600D01*
X463642Y110420D01*
X463833Y110292D01*
X464049Y110215D01*
X464290Y110189D01*
X459210D01*
X459451Y110215D01*
X459667Y110292D01*
X459858Y110420D01*
X460023Y110600D01*
X460163Y110832D01*
X460277Y111114D01*
X460366Y111449D01*
X460429Y111834D01*
X460467Y112271D01*
X460480Y112760D01*
X463020D01*
X463033Y112271D01*
D02*
G37*
G36*
X448549Y101224D02*
X448333Y101146D01*
X448142Y101016D01*
X447977Y100836D01*
X447837Y100604D01*
X447723Y100322D01*
X447634Y99988D01*
X447571Y99603D01*
X447533Y99167D01*
X447520Y98680D01*
X444980D01*
X444970Y99163D01*
X444889Y99976D01*
X444818Y100306D01*
X444728Y100585D01*
X444617Y100814D01*
X444485Y100992D01*
X444334Y101119D01*
X444162Y101195D01*
X443970Y101221D01*
X448790Y101251D01*
X448549Y101224D01*
D02*
G37*
G36*
X447533Y98021D02*
X447571Y97584D01*
X447634Y97199D01*
X447723Y96864D01*
X447837Y96582D01*
X447977Y96350D01*
X448142Y96170D01*
X448333Y96042D01*
X448549Y95965D01*
X448790Y95939D01*
X443710D01*
X443951Y95965D01*
X444167Y96042D01*
X444358Y96170D01*
X444523Y96350D01*
X444663Y96582D01*
X444777Y96864D01*
X444866Y97199D01*
X444929Y97584D01*
X444967Y98021D01*
X444980Y98510D01*
X447520D01*
X447533Y98021D01*
D02*
G37*
G36*
X457311Y88210D02*
X457285Y88451D01*
X457208Y88667D01*
X457080Y88858D01*
X456900Y89023D01*
X456668Y89163D01*
X456386Y89277D01*
X456051Y89366D01*
X455666Y89429D01*
X455229Y89467D01*
X454740Y89480D01*
Y92020D01*
X455229Y92033D01*
X455666Y92071D01*
X456051Y92134D01*
X456386Y92223D01*
X456668Y92338D01*
X456900Y92477D01*
X457080Y92642D01*
X457208Y92833D01*
X457285Y93049D01*
X457311Y93290D01*
Y88210D01*
D02*
G37*
G36*
X449715Y93049D02*
X449792Y92833D01*
X449920Y92642D01*
X450100Y92477D01*
X450332Y92338D01*
X450614Y92223D01*
X450949Y92134D01*
X451334Y92071D01*
X451771Y92033D01*
X452259Y92020D01*
Y89480D01*
X451771Y89467D01*
X451334Y89429D01*
X450949Y89366D01*
X450614Y89277D01*
X450332Y89163D01*
X450100Y89023D01*
X449920Y88858D01*
X449792Y88667D01*
X449715Y88451D01*
X449689Y88210D01*
Y93290D01*
X449715Y93049D01*
D02*
G37*
G36*
X521431Y414488D02*
X520161Y413500D01*
X476750D01*
Y361959D01*
X476690Y361500D01*
Y329425D01*
X467008Y319742D01*
X465886Y318280D01*
X465180Y316577D01*
X464940Y314750D01*
Y300375D01*
Y267500D01*
X463000D01*
Y249500D01*
X467412D01*
Y224650D01*
X441100Y198338D01*
X438124D01*
X437500Y198370D01*
Y198750D01*
X435513D01*
X435470Y198759D01*
X435426Y198750D01*
X421500D01*
Y189790D01*
X420960D01*
Y186847D01*
X423080Y186980D01*
X423330Y187051D01*
X423480Y187131D01*
X423530Y187220D01*
Y185520D01*
X429500D01*
Y182980D01*
X423530D01*
Y181281D01*
X423480Y181370D01*
X423330Y181450D01*
X423080Y181520D01*
X422730Y181581D01*
X422280Y181633D01*
X420960Y181700D01*
Y178710D01*
X421500D01*
Y169750D01*
X437500D01*
Y170162D01*
X441091D01*
Y164088D01*
X437874D01*
X437250Y164120D01*
Y164500D01*
X435263D01*
X435219Y164509D01*
X435176Y164500D01*
X421250D01*
Y155540D01*
X420710D01*
Y152597D01*
X422831Y152730D01*
X423080Y152800D01*
X423231Y152880D01*
X423280Y152969D01*
Y151270D01*
X429250D01*
Y148730D01*
X423280D01*
Y147030D01*
X423231Y147120D01*
X423080Y147199D01*
X422831Y147270D01*
X422481Y147331D01*
X422030Y147382D01*
X420710Y147449D01*
Y144460D01*
X421250D01*
Y135500D01*
X437250D01*
Y135912D01*
X442750D01*
X444506Y136261D01*
X445994Y137256D01*
X448923Y140185D01*
X449918Y141673D01*
X450267Y143429D01*
Y156571D01*
Y173821D01*
Y191071D01*
X449918Y192827D01*
X449376Y193637D01*
X466239Y210500D01*
X467412Y210014D01*
Y150201D01*
X447071Y129860D01*
X441940D01*
Y124729D01*
X432506Y115294D01*
X431970Y114493D01*
X430700Y114878D01*
Y120335D01*
X423795D01*
X421068Y123062D01*
X421931Y124354D01*
X422358Y126500D01*
X421931Y128646D01*
X420715Y130465D01*
X418896Y131681D01*
X416750Y132108D01*
X414604Y131681D01*
X412785Y130465D01*
X411569Y128646D01*
X411142Y126500D01*
X411569Y124354D01*
X412785Y122535D01*
X414331Y121502D01*
X414523Y120536D01*
X415246Y119454D01*
X419080Y115620D01*
Y108715D01*
X430700Y108715D01*
X431162Y107636D01*
Y99901D01*
X429261Y98000D01*
X424750D01*
Y85000D01*
X435750D01*
Y91511D01*
X438994Y94756D01*
X439480Y95483D01*
X440750Y95097D01*
Y85000D01*
X451750D01*
Y87416D01*
X455250D01*
Y85250D01*
X468250D01*
Y87631D01*
X468710Y88710D01*
X469520Y88710D01*
X473480D01*
Y95750D01*
Y102790D01*
X468710D01*
X468250Y103869D01*
Y112250D01*
X465084D01*
Y115119D01*
X465715Y115750D01*
X476000D01*
Y127750D01*
X461000D01*
Y120465D01*
X459393Y118857D01*
X458670Y117776D01*
X458416Y116500D01*
Y112250D01*
X455250D01*
Y101250D01*
X467440D01*
X468250Y101250D01*
X468710Y100170D01*
Y97330D01*
X468250Y96250D01*
X467440Y96250D01*
X455250D01*
Y94084D01*
X451750D01*
Y98000D01*
X451750D01*
X451943Y99190D01*
X453560D01*
Y110810D01*
X442795D01*
X442269Y112080D01*
X448429Y118240D01*
X453560D01*
Y123371D01*
X475244Y145056D01*
X476239Y146544D01*
X476588Y148300D01*
Y222750D01*
Y245764D01*
X477762Y246250D01*
X493256Y230756D01*
X494744Y229761D01*
X496500Y229412D01*
X501250D01*
Y227500D01*
X514250D01*
Y238500D01*
X507193D01*
X506750Y238588D01*
X498401D01*
X481000Y255989D01*
Y267500D01*
X479061D01*
Y288440D01*
X509750D01*
X511577Y288680D01*
X513280Y289386D01*
X513429Y289500D01*
X516750D01*
Y295042D01*
X516810Y295500D01*
X516750Y295959D01*
Y301500D01*
X513429D01*
X513280Y301615D01*
X511577Y302320D01*
X509750Y302561D01*
X479799D01*
X479061Y303299D01*
Y311825D01*
X488743Y321508D01*
X489865Y322970D01*
X490570Y324673D01*
X490811Y326500D01*
Y339500D01*
X520161D01*
X520750Y339500D01*
X521431Y338512D01*
X521432Y3569D01*
X3569D01*
X3568Y689432D01*
X521431D01*
X521431Y414488D01*
D02*
G37*
%LPC*%
G36*
X169000Y681733D02*
X166481Y681402D01*
X164133Y680429D01*
X162118Y678883D01*
X160571Y676867D01*
X159598Y674519D01*
X159267Y672000D01*
X159598Y669481D01*
X160571Y667133D01*
X162118Y665117D01*
X164133Y663571D01*
X166481Y662598D01*
X169000Y662267D01*
X171519Y662598D01*
X173867Y663571D01*
X175882Y665117D01*
X177429Y667133D01*
X178402Y669481D01*
X178733Y672000D01*
X178402Y674519D01*
X177429Y676867D01*
X175882Y678883D01*
X173867Y680429D01*
X171519Y681402D01*
X169000Y681733D01*
D02*
G37*
G36*
X143600D02*
X141081Y681402D01*
X138733Y680429D01*
X136718Y678883D01*
X135171Y676867D01*
X134198Y674519D01*
X133867Y672000D01*
X134198Y669481D01*
X135171Y667133D01*
X136718Y665117D01*
X138733Y663571D01*
X141081Y662598D01*
X143600Y662267D01*
X146119Y662598D01*
X148467Y663571D01*
X150482Y665117D01*
X152029Y667133D01*
X153002Y669481D01*
X153333Y672000D01*
X153002Y674519D01*
X152029Y676867D01*
X150482Y678883D01*
X148467Y680429D01*
X146119Y681402D01*
X143600Y681733D01*
D02*
G37*
G36*
X61900D02*
X59381Y681402D01*
X57033Y680429D01*
X55017Y678883D01*
X53471Y676867D01*
X52498Y674519D01*
X52167Y672000D01*
X52498Y669481D01*
X53471Y667133D01*
X55017Y665117D01*
X57033Y663571D01*
X59381Y662598D01*
X61900Y662267D01*
X64419Y662598D01*
X66767Y663571D01*
X68782Y665117D01*
X70329Y667133D01*
X71302Y669481D01*
X71633Y672000D01*
X71302Y674519D01*
X70329Y676867D01*
X68782Y678883D01*
X66767Y680429D01*
X64419Y681402D01*
X61900Y681733D01*
D02*
G37*
G36*
X36500D02*
X33981Y681402D01*
X31633Y680429D01*
X29618Y678883D01*
X28071Y676867D01*
X27098Y674519D01*
X26767Y672000D01*
X27098Y669481D01*
X28071Y667133D01*
X29618Y665117D01*
X31633Y663571D01*
X33981Y662598D01*
X36500Y662267D01*
X39019Y662598D01*
X41367Y663571D01*
X43382Y665117D01*
X44929Y667133D01*
X45902Y669481D01*
X46233Y672000D01*
X45902Y674519D01*
X44929Y676867D01*
X43382Y678883D01*
X41367Y680429D01*
X39019Y681402D01*
X36500Y681733D01*
D02*
G37*
G36*
X327270Y664955D02*
Y656770D01*
X335455D01*
X335294Y657990D01*
X334333Y660311D01*
X332804Y662304D01*
X330811Y663833D01*
X328490Y664794D01*
X327270Y664955D01*
D02*
G37*
G36*
X324730D02*
X323509Y664794D01*
X321189Y663833D01*
X319196Y662304D01*
X317667Y660311D01*
X316705Y657990D01*
X316545Y656770D01*
X324730D01*
Y664955D01*
D02*
G37*
G36*
X335455Y654230D02*
X327270D01*
Y646045D01*
X328490Y646206D01*
X330811Y647167D01*
X332804Y648696D01*
X334333Y650689D01*
X335294Y653010D01*
X335455Y654230D01*
D02*
G37*
G36*
X324730D02*
X316545D01*
X316705Y653010D01*
X317667Y650689D01*
X319196Y648696D01*
X321189Y647167D01*
X323509Y646206D01*
X324730Y646045D01*
Y654230D01*
D02*
G37*
G36*
X217770Y640988D02*
Y627270D01*
X231488D01*
X231322Y628948D01*
X230462Y631783D01*
X229066Y634396D01*
X227186Y636686D01*
X224896Y638566D01*
X222283Y639962D01*
X219448Y640822D01*
X217770Y640988D01*
D02*
G37*
G36*
X215230D02*
X213552Y640822D01*
X210717Y639962D01*
X208104Y638566D01*
X205814Y636686D01*
X203934Y634396D01*
X202538Y631783D01*
X201678Y628948D01*
X201512Y627270D01*
X215230D01*
Y640988D01*
D02*
G37*
G36*
Y624730D02*
X201512D01*
X201678Y623052D01*
X202538Y620217D01*
X203934Y617604D01*
X205814Y615314D01*
X208104Y613434D01*
X210717Y612038D01*
X213552Y611178D01*
X215230Y611012D01*
Y624730D01*
D02*
G37*
G36*
X231488D02*
X217770D01*
Y611012D01*
X219448Y611178D01*
X222283Y612038D01*
X224896Y613434D01*
X227186Y615314D01*
X229066Y617604D01*
X230462Y620217D01*
X231322Y623052D01*
X231488Y624730D01*
D02*
G37*
G36*
X159900Y641338D02*
X156322Y640986D01*
X152882Y639942D01*
X149712Y638248D01*
X146933Y635967D01*
X144652Y633188D01*
X142958Y630018D01*
X141914Y626578D01*
X141562Y623000D01*
X141914Y619422D01*
X142958Y615982D01*
X144652Y612812D01*
X146933Y610033D01*
X149712Y607752D01*
X152882Y606058D01*
X156322Y605014D01*
X159900Y604662D01*
X163478Y605014D01*
X166918Y606058D01*
X170088Y607752D01*
X172867Y610033D01*
X175148Y612812D01*
X176842Y615982D01*
X177886Y619422D01*
X178238Y623000D01*
X177886Y626578D01*
X176842Y630018D01*
X175148Y633188D01*
X172867Y635967D01*
X170088Y638248D01*
X166918Y639942D01*
X163478Y640986D01*
X159900Y641338D01*
D02*
G37*
G36*
X45600D02*
X42022Y640986D01*
X38582Y639942D01*
X35412Y638248D01*
X32633Y635967D01*
X30352Y633188D01*
X28658Y630018D01*
X27614Y626578D01*
X27262Y623000D01*
X27614Y619422D01*
X28658Y615982D01*
X30352Y612812D01*
X32633Y610033D01*
X35412Y607752D01*
X38582Y606058D01*
X42022Y605014D01*
X45600Y604662D01*
X49178Y605014D01*
X52618Y606058D01*
X55788Y607752D01*
X58567Y610033D01*
X60848Y612812D01*
X62542Y615982D01*
X63586Y619422D01*
X63938Y623000D01*
X63586Y626578D01*
X62542Y630018D01*
X60848Y633188D01*
X58567Y635967D01*
X55788Y638248D01*
X52618Y639942D01*
X49178Y640986D01*
X45600Y641338D01*
D02*
G37*
G36*
X181470Y607211D02*
Y593770D01*
X194911D01*
X194751Y595395D01*
X193907Y598178D01*
X192536Y600743D01*
X190691Y602991D01*
X188443Y604836D01*
X185878Y606207D01*
X183094Y607051D01*
X181470Y607211D01*
D02*
G37*
G36*
X178930D02*
X177306Y607051D01*
X174522Y606207D01*
X171957Y604836D01*
X169709Y602991D01*
X167864Y600743D01*
X166493Y598178D01*
X165649Y595395D01*
X165489Y593770D01*
X178930D01*
Y607211D01*
D02*
G37*
G36*
X26570D02*
Y593770D01*
X40011D01*
X39851Y595395D01*
X39007Y598178D01*
X37636Y600743D01*
X35791Y602991D01*
X33543Y604836D01*
X30978Y606207D01*
X28194Y607051D01*
X26570Y607211D01*
D02*
G37*
G36*
X24030D02*
X22406Y607051D01*
X19622Y606207D01*
X17057Y604836D01*
X14809Y602991D01*
X12964Y600743D01*
X11593Y598178D01*
X10749Y595395D01*
X10589Y593770D01*
X24030D01*
Y607211D01*
D02*
G37*
G36*
X194911Y591230D02*
X181470D01*
Y577789D01*
X183094Y577949D01*
X185878Y578793D01*
X188443Y580164D01*
X190691Y582009D01*
X192536Y584257D01*
X193907Y586822D01*
X194751Y589606D01*
X194911Y591230D01*
D02*
G37*
G36*
X24030Y591230D02*
X10589D01*
X10749Y589606D01*
X11593Y586822D01*
X12964Y584257D01*
X14809Y582009D01*
X17057Y580164D01*
X19622Y578793D01*
X22406Y577949D01*
X24030Y577789D01*
Y591230D01*
D02*
G37*
G36*
X40011D02*
X26570D01*
Y577789D01*
X28194Y577949D01*
X30978Y578793D01*
X33543Y580164D01*
X35791Y582009D01*
X37636Y584257D01*
X39007Y586822D01*
X39851Y589606D01*
X40011Y591230D01*
D02*
G37*
G36*
X178930Y591230D02*
X165489D01*
X165649Y589606D01*
X166493Y586822D01*
X167864Y584257D01*
X169709Y582009D01*
X171957Y580164D01*
X174522Y578793D01*
X177306Y577949D01*
X178930Y577789D01*
Y591230D01*
D02*
G37*
G36*
X351790Y572040D02*
X345020D01*
Y564520D01*
X351790D01*
Y572040D01*
D02*
G37*
G36*
X342480D02*
X335710D01*
Y564520D01*
X342480D01*
Y572040D01*
D02*
G37*
G36*
X308790Y567040D02*
X304020D01*
Y561270D01*
X308790D01*
Y567040D01*
D02*
G37*
G36*
X301480D02*
X296710D01*
Y561270D01*
X301480D01*
Y567040D01*
D02*
G37*
G36*
X351790Y561980D02*
X345020D01*
Y554460D01*
X351790D01*
Y561980D01*
D02*
G37*
G36*
X342480D02*
X335710D01*
Y554460D01*
X342480D01*
Y561980D01*
D02*
G37*
G36*
X275750Y566608D02*
X273604Y566181D01*
X271785Y564965D01*
X270569Y563146D01*
X270142Y561000D01*
X270569Y558854D01*
X271785Y557035D01*
X273604Y555819D01*
X275750Y555392D01*
X277896Y555819D01*
X279715Y557035D01*
X279980Y557430D01*
X281250Y557245D01*
Y553500D01*
X292250D01*
Y566500D01*
X281250D01*
Y564754D01*
X279980Y564569D01*
X279715Y564965D01*
X277896Y566181D01*
X275750Y566608D01*
D02*
G37*
G36*
X308790Y558730D02*
X304020D01*
Y552960D01*
X308790D01*
Y558730D01*
D02*
G37*
G36*
X301480D02*
X296710D01*
Y552960D01*
X301480D01*
Y558730D01*
D02*
G37*
G36*
X156240Y568490D02*
X138260D01*
Y550510D01*
X156240D01*
Y568490D01*
D02*
G37*
G36*
X481540Y565790D02*
X475020D01*
Y548520D01*
X481540D01*
Y565790D01*
D02*
G37*
G36*
X447540D02*
X441020D01*
Y548520D01*
X447540D01*
Y565790D01*
D02*
G37*
G36*
X472480D02*
X465960D01*
Y548520D01*
X472480D01*
Y565790D01*
D02*
G37*
G36*
X438480D02*
X431960D01*
Y548520D01*
X438480D01*
Y565790D01*
D02*
G37*
G36*
X240960Y547790D02*
X239790D01*
X239690Y547790D01*
X234020D01*
Y541750D01*
Y535710D01*
X239690D01*
X239790Y535710D01*
X240960D01*
X241060Y535710D01*
X246730D01*
Y541750D01*
Y547790D01*
X241060D01*
X240960Y547790D01*
D02*
G37*
G36*
X249270Y547790D02*
Y543020D01*
X252470D01*
Y545220D01*
X252519Y545036D01*
X252670Y544871D01*
X252920Y544725D01*
X253270Y544599D01*
X253720Y544493D01*
X254270Y544405D01*
X254919Y544337D01*
X255040Y544332D01*
Y547790D01*
X249270D01*
D02*
G37*
G36*
X270540D02*
X264770D01*
Y543020D01*
X270540D01*
Y547790D01*
D02*
G37*
G36*
X262230D02*
X256460D01*
Y544356D01*
X257231Y544405D01*
X257781Y544493D01*
X258231Y544599D01*
X258581Y544725D01*
X258831Y544871D01*
X258981Y545036D01*
X259031Y545220D01*
Y543020D01*
X262230D01*
Y547790D01*
D02*
G37*
G36*
X216230D02*
X210460D01*
Y543020D01*
X216230D01*
Y547790D01*
D02*
G37*
G36*
X369750Y556250D02*
X356750D01*
Y545250D01*
X359172D01*
Y542328D01*
X351250D01*
Y548500D01*
X336250D01*
Y532000D01*
X351250D01*
Y534172D01*
X360907D01*
X360907Y534172D01*
X362468Y534482D01*
X363791Y535366D01*
X366134Y537709D01*
X367018Y539032D01*
X367328Y540593D01*
X367328Y540593D01*
Y545250D01*
X369750D01*
Y556250D01*
D02*
G37*
G36*
X262230Y540480D02*
X259031D01*
Y538281D01*
X258981Y538465D01*
X258831Y538630D01*
X258581Y538775D01*
X258231Y538901D01*
X257781Y539008D01*
X257231Y539095D01*
X256581Y539163D01*
X256460Y539169D01*
Y535710D01*
X262230D01*
Y540480D01*
D02*
G37*
G36*
X270540D02*
X264770D01*
Y535710D01*
X270540D01*
Y540480D01*
D02*
G37*
G36*
X252470D02*
X249270D01*
Y535710D01*
X255040D01*
Y539145D01*
X254270Y539095D01*
X253720Y539008D01*
X253270Y538901D01*
X252920Y538775D01*
X252670Y538630D01*
X252519Y538465D01*
X252470Y538281D01*
Y540480D01*
D02*
G37*
G36*
X225710Y547790D02*
X224540D01*
X224440Y547790D01*
X218770D01*
Y541750D01*
Y535710D01*
X224440D01*
X224540Y535710D01*
X225710D01*
X225810Y535710D01*
X231480D01*
Y541750D01*
Y547790D01*
X225810D01*
X225710Y547790D01*
D02*
G37*
G36*
X216230Y540480D02*
X210460D01*
Y535710D01*
X216230D01*
Y540480D01*
D02*
G37*
G36*
X57080Y543545D02*
X55862Y543385D01*
X53544Y542424D01*
X51553Y540897D01*
X50026Y538906D01*
X49065Y536588D01*
X48905Y535370D01*
X57080D01*
Y543545D01*
D02*
G37*
G36*
X335000Y614500D02*
X317000D01*
Y612561D01*
X271000D01*
X269173Y612320D01*
X267470Y611615D01*
X266008Y610493D01*
X245537Y590022D01*
X245285Y590127D01*
X241500Y590625D01*
X237715Y590127D01*
X234187Y588666D01*
X231159Y586342D01*
X228834Y583312D01*
X227373Y579785D01*
X226875Y576000D01*
X227373Y572215D01*
X228834Y568687D01*
X231159Y565658D01*
X234187Y563334D01*
X237715Y561873D01*
X241500Y561375D01*
X245285Y561873D01*
X248813Y563334D01*
X251842Y565658D01*
X254166Y568687D01*
X255627Y572215D01*
X256125Y576000D01*
X255627Y579785D01*
X255522Y580037D01*
X273925Y598440D01*
X317000D01*
Y596500D01*
X335000D01*
Y598440D01*
X353826D01*
X371999Y580266D01*
X363983Y572250D01*
X356750D01*
Y561250D01*
X369750D01*
Y566482D01*
X377132Y573864D01*
X378401Y573864D01*
X383690Y568576D01*
Y553108D01*
X383930Y551281D01*
X384636Y549578D01*
X385758Y548116D01*
X387220Y546994D01*
X388923Y546288D01*
X390750Y546048D01*
X398500D01*
Y529250D01*
X413000D01*
Y565250D01*
X398500D01*
X397810Y566234D01*
Y571500D01*
X397570Y573328D01*
X396865Y575030D01*
X395742Y576493D01*
X387118Y585117D01*
X361743Y610493D01*
X360280Y611615D01*
X358577Y612320D01*
X356750Y612561D01*
X335000D01*
Y614500D01*
D02*
G37*
G36*
X481540Y545980D02*
X475020D01*
Y528710D01*
X481540D01*
Y545980D01*
D02*
G37*
G36*
X472480D02*
X465960D01*
Y528710D01*
X472480D01*
Y545980D01*
D02*
G37*
G36*
X447540D02*
X441020D01*
Y528710D01*
X447540D01*
Y545980D01*
D02*
G37*
G36*
X438480D02*
X431960D01*
Y528710D01*
X438480D01*
Y545980D01*
D02*
G37*
G36*
X134550Y543168D02*
X132203Y542859D01*
X130016Y541953D01*
X128138Y540512D01*
X126697Y538634D01*
X125791Y536447D01*
X125482Y534100D01*
X125791Y531753D01*
X126697Y529566D01*
X128138Y527688D01*
X130016Y526247D01*
X132203Y525341D01*
X134550Y525032D01*
X136897Y525341D01*
X139084Y526247D01*
X140962Y527688D01*
X142403Y529566D01*
X143309Y531753D01*
X143617Y534100D01*
X143309Y536447D01*
X142403Y538634D01*
X140962Y540512D01*
X139084Y541953D01*
X136897Y542859D01*
X134550Y543168D01*
D02*
G37*
G36*
X57080Y532830D02*
X48905D01*
X49065Y531612D01*
X50026Y529294D01*
X51553Y527303D01*
X53544Y525776D01*
X55862Y524815D01*
X57080Y524655D01*
Y532830D01*
D02*
G37*
G36*
X464000Y565250D02*
X449500D01*
Y529250D01*
X452672D01*
Y526939D01*
X449135Y523402D01*
X448215D01*
X447897Y523436D01*
X447883Y523438D01*
X447146Y523931D01*
X445000Y524358D01*
X442854Y523931D01*
X441035Y522715D01*
X439819Y520896D01*
X439392Y518750D01*
X439819Y516604D01*
X441035Y514785D01*
X442854Y513569D01*
X445000Y513142D01*
X447146Y513569D01*
X448965Y514785D01*
X449252Y515214D01*
X449280Y515220D01*
X449439Y515242D01*
X449490Y515246D01*
X450824D01*
X450824Y515246D01*
X452385Y515556D01*
X453708Y516440D01*
X459634Y522366D01*
X459634Y522366D01*
X460518Y523689D01*
X460828Y525250D01*
X460828Y525250D01*
Y529250D01*
X464000D01*
Y565250D01*
D02*
G37*
G36*
X300790Y516790D02*
X296020D01*
Y511020D01*
X300790D01*
Y516790D01*
D02*
G37*
G36*
X293480D02*
X288710D01*
Y511020D01*
X293480D01*
Y516790D01*
D02*
G37*
G36*
X224000Y531250D02*
X211000D01*
Y520250D01*
X213296D01*
Y517441D01*
X213274Y517199D01*
X212069Y515396D01*
X211642Y513250D01*
X212069Y511104D01*
X213284Y509285D01*
X215104Y508069D01*
X217250Y507642D01*
X219396Y508069D01*
X221215Y509285D01*
X222431Y511104D01*
X222857Y513250D01*
X222431Y515396D01*
X221498Y516792D01*
X221489Y516834D01*
X221471Y516965D01*
X221453Y517249D01*
Y520250D01*
X224000D01*
Y531250D01*
D02*
G37*
G36*
X254500D02*
X241500D01*
Y520250D01*
X243797D01*
Y516941D01*
X243774Y516699D01*
X242569Y514896D01*
X242142Y512750D01*
X242569Y510604D01*
X243785Y508785D01*
X245604Y507569D01*
X247750Y507142D01*
X249896Y507569D01*
X251715Y508785D01*
X252931Y510604D01*
X253358Y512750D01*
X252931Y514896D01*
X251998Y516292D01*
X251990Y516335D01*
X251971Y516465D01*
X251953Y516749D01*
Y520250D01*
X254500D01*
Y531250D01*
D02*
G37*
G36*
X239250D02*
X226250D01*
Y520250D01*
X228547D01*
Y516941D01*
X228524Y516699D01*
X227319Y514896D01*
X226892Y512750D01*
X227319Y510604D01*
X228535Y508785D01*
X230354Y507569D01*
X232500Y507142D01*
X234646Y507569D01*
X236465Y508785D01*
X237681Y510604D01*
X238108Y512750D01*
X237681Y514896D01*
X236748Y516292D01*
X236740Y516335D01*
X236721Y516465D01*
X236703Y516749D01*
Y520250D01*
X239250D01*
Y531250D01*
D02*
G37*
G36*
X300790Y508480D02*
X296020D01*
Y502710D01*
X300790D01*
Y508480D01*
D02*
G37*
G36*
X293480D02*
X288710D01*
Y502710D01*
X293480D01*
Y508480D01*
D02*
G37*
G36*
X166000Y522858D02*
X163854Y522431D01*
X162035Y521215D01*
X160819Y519396D01*
X160392Y517250D01*
X160819Y515104D01*
X162035Y513285D01*
X162144Y513212D01*
X162172Y512858D01*
Y508750D01*
X160000D01*
Y497750D01*
X173000D01*
Y499171D01*
X175000D01*
Y492000D01*
X186000D01*
Y505000D01*
X180767D01*
X179634Y506134D01*
X178311Y507018D01*
X176750Y507328D01*
X176750Y507328D01*
X173000D01*
Y508750D01*
X170329D01*
Y513492D01*
X170363Y513818D01*
X170378Y513903D01*
X171181Y515104D01*
X171608Y517250D01*
X171181Y519396D01*
X169965Y521215D01*
X168146Y522431D01*
X166000Y522858D01*
D02*
G37*
G36*
X368575Y510340D02*
X353335D01*
Y490020D01*
X368575D01*
Y510340D01*
D02*
G37*
G36*
X350795D02*
X335555D01*
Y490020D01*
X350795D01*
Y510340D01*
D02*
G37*
G36*
X311540Y495040D02*
X306270D01*
Y488770D01*
X311540D01*
Y495040D01*
D02*
G37*
G36*
X303730D02*
X298460D01*
Y488770D01*
X303730D01*
Y495040D01*
D02*
G37*
G36*
X488020Y509036D02*
Y485270D01*
X511786D01*
X511428Y488909D01*
X509996Y493629D01*
X507671Y497979D01*
X504542Y501792D01*
X500729Y504921D01*
X496379Y507246D01*
X491659Y508678D01*
X488020Y509036D01*
D02*
G37*
G36*
X485480D02*
X481841Y508678D01*
X477121Y507246D01*
X472771Y504921D01*
X468958Y501792D01*
X465829Y497979D01*
X463504Y493629D01*
X462072Y488909D01*
X461714Y485270D01*
X485480D01*
Y509036D01*
D02*
G37*
G36*
X97770Y488659D02*
Y483389D01*
X104040D01*
Y488659D01*
X97770D01*
D02*
G37*
G36*
X78980D02*
X72710D01*
Y483389D01*
X78980D01*
Y488659D01*
D02*
G37*
G36*
X311540Y486230D02*
X306270D01*
Y479960D01*
X311540D01*
Y486230D01*
D02*
G37*
G36*
X303730D02*
X298460D01*
Y479960D01*
X303730D01*
Y486230D01*
D02*
G37*
G36*
X104040Y480849D02*
X97770D01*
Y475579D01*
X104040D01*
Y480849D01*
D02*
G37*
G36*
X78980D02*
X72710D01*
Y475579D01*
X78980D01*
Y480849D01*
D02*
G37*
G36*
X88960Y488659D02*
X87790D01*
X87690Y488659D01*
X81520D01*
Y482119D01*
Y475579D01*
X87690D01*
X87790Y475579D01*
X88960D01*
X89060Y475579D01*
X95230D01*
Y482119D01*
Y488659D01*
X89060D01*
X88960Y488659D01*
D02*
G37*
G36*
X137290Y481540D02*
X124020D01*
Y472770D01*
X137290D01*
Y481540D01*
D02*
G37*
G36*
X121480D02*
X108210D01*
Y472770D01*
X121480D01*
Y481540D01*
D02*
G37*
G36*
X368575Y487480D02*
X353335D01*
Y467160D01*
X368575D01*
Y487480D01*
D02*
G37*
G36*
X350795D02*
X335555D01*
Y467160D01*
X350795D01*
Y487480D01*
D02*
G37*
G36*
X323290Y478290D02*
X314520D01*
Y465020D01*
X323290D01*
Y478290D01*
D02*
G37*
G36*
X311980D02*
X303210D01*
Y465020D01*
X311980D01*
Y478290D01*
D02*
G37*
G36*
X137290Y470230D02*
X124020D01*
Y461460D01*
X137290D01*
Y470230D01*
D02*
G37*
G36*
X121480D02*
X108210D01*
Y461460D01*
X121480D01*
Y470230D01*
D02*
G37*
G36*
X511786Y482730D02*
X488020D01*
Y458964D01*
X491659Y459323D01*
X496379Y460754D01*
X500729Y463079D01*
X504542Y466209D01*
X507671Y470022D01*
X509996Y474371D01*
X511428Y479091D01*
X511786Y482730D01*
D02*
G37*
G36*
X485480D02*
X461714D01*
X462072Y479091D01*
X463504Y474371D01*
X465829Y470022D01*
X468958Y466209D01*
X472771Y463079D01*
X477121Y460754D01*
X481841Y459323D01*
X485480Y458964D01*
Y482730D01*
D02*
G37*
G36*
X41520Y476786D02*
Y453020D01*
X65286D01*
X64928Y456659D01*
X63496Y461379D01*
X61171Y465729D01*
X58042Y469542D01*
X54229Y472671D01*
X49879Y474996D01*
X45159Y476428D01*
X41520Y476786D01*
D02*
G37*
G36*
X38980D02*
X35341Y476428D01*
X30621Y474996D01*
X26271Y472671D01*
X22458Y469542D01*
X19329Y465729D01*
X17004Y461379D01*
X15572Y456659D01*
X15214Y453020D01*
X38980D01*
Y476786D01*
D02*
G37*
G36*
X112940Y456340D02*
X107670D01*
Y450070D01*
X112940D01*
Y456340D01*
D02*
G37*
G36*
X105130D02*
X99860D01*
Y450070D01*
X105130D01*
Y456340D01*
D02*
G37*
G36*
X323290Y462480D02*
X314520D01*
Y449210D01*
X323290D01*
Y462480D01*
D02*
G37*
G36*
X311980D02*
X303210D01*
Y449210D01*
X311980D01*
Y462480D01*
D02*
G37*
G36*
X156540Y452040D02*
X151770D01*
Y446270D01*
X156540D01*
Y452040D01*
D02*
G37*
G36*
X149230D02*
X144460D01*
Y446270D01*
X149230D01*
Y452040D01*
D02*
G37*
G36*
X156540Y443730D02*
X151770D01*
Y437960D01*
X156540D01*
Y443730D01*
D02*
G37*
G36*
X149230D02*
X144460D01*
Y437960D01*
X149230D01*
Y443730D01*
D02*
G37*
G36*
X128400Y455800D02*
X116400D01*
Y441800D01*
X119066D01*
Y439800D01*
X116400D01*
Y425800D01*
X128400D01*
Y439800D01*
X125734D01*
Y441800D01*
X128400D01*
Y444725D01*
X129573Y445211D01*
X132040Y442745D01*
X131892Y442000D01*
X132319Y439854D01*
X133535Y438035D01*
X135354Y436819D01*
X137500Y436392D01*
X139646Y436819D01*
X141465Y438035D01*
X142681Y439854D01*
X143108Y442000D01*
X142681Y444146D01*
X141465Y445965D01*
X139646Y447181D01*
X137500Y447608D01*
X136755Y447460D01*
X131080Y453135D01*
X129998Y453858D01*
X128722Y454112D01*
X128400D01*
Y455800D01*
D02*
G37*
G36*
X112940Y447530D02*
X106400D01*
X99860D01*
Y441610D01*
X99860Y441260D01*
Y440340D01*
X99860Y439990D01*
Y434070D01*
X106400D01*
X112940D01*
Y439990D01*
X112940Y440340D01*
Y441260D01*
X112940Y441610D01*
Y447530D01*
D02*
G37*
G36*
X351770Y443114D02*
Y433920D01*
X360964D01*
X360769Y435401D01*
X359707Y437965D01*
X358017Y440167D01*
X355816Y441857D01*
X353251Y442919D01*
X351770Y443114D01*
D02*
G37*
G36*
X349230D02*
X347749Y442919D01*
X345185Y441857D01*
X342983Y440167D01*
X341293Y437965D01*
X340231Y435401D01*
X340036Y433920D01*
X349230D01*
Y443114D01*
D02*
G37*
G36*
X157224Y586354D02*
X123074D01*
X121806Y586101D01*
X120731Y585383D01*
X104347Y568999D01*
X103629Y567924D01*
X103456Y567057D01*
X102507Y566543D01*
X102107Y566491D01*
X100984Y567353D01*
X98797Y568259D01*
X96450Y568568D01*
X94103Y568259D01*
X91916Y567353D01*
X90038Y565912D01*
X88597Y564034D01*
X87691Y561847D01*
X87382Y559500D01*
X87691Y557153D01*
X87745Y557024D01*
X85345Y554624D01*
X80295D01*
X80121Y554589D01*
X79335Y555375D01*
X79208Y555702D01*
X79809Y557153D01*
X80118Y559500D01*
X79809Y561847D01*
X78903Y564034D01*
X77462Y565912D01*
X75584Y567353D01*
X73397Y568259D01*
X71050Y568568D01*
X68703Y568259D01*
X66516Y567353D01*
X64638Y565912D01*
X63197Y564034D01*
X62291Y561847D01*
X61982Y559500D01*
X62291Y557153D01*
X63197Y554966D01*
X64638Y553088D01*
X66516Y551647D01*
X68703Y550741D01*
X71050Y550432D01*
X72856Y550670D01*
X73450Y549467D01*
X67866Y543884D01*
X66982Y542561D01*
X66982Y542561D01*
X66672Y541000D01*
X66672Y541000D01*
Y540885D01*
X65469Y540477D01*
X65147Y540897D01*
X63156Y542424D01*
X60838Y543385D01*
X59620Y543545D01*
Y534100D01*
Y524655D01*
X60838Y524815D01*
X63156Y525776D01*
X65147Y527303D01*
X65469Y527723D01*
X66672Y527315D01*
Y525500D01*
X66672Y525500D01*
X66982Y523939D01*
X67866Y522616D01*
X76171Y514311D01*
Y504119D01*
X73250D01*
Y492119D01*
X87250D01*
Y494040D01*
X89500D01*
Y492119D01*
X103500D01*
Y494040D01*
X108750D01*
Y491000D01*
X136750D01*
Y510000D01*
X119078D01*
Y513682D01*
X119098Y513905D01*
X119113Y514007D01*
X120181Y515604D01*
X120608Y517750D01*
X120181Y519896D01*
X118965Y521716D01*
X117146Y522931D01*
X115000Y523358D01*
X112854Y522931D01*
X111035Y521716D01*
X109819Y519896D01*
X109392Y517750D01*
X109819Y515604D01*
X110887Y514007D01*
X110899Y513923D01*
X110922Y513602D01*
Y510000D01*
X108750D01*
Y502197D01*
X103500D01*
Y504119D01*
X100578D01*
Y519761D01*
X106348Y525530D01*
X106803Y525341D01*
X109150Y525032D01*
X111497Y525341D01*
X113684Y526247D01*
X115562Y527688D01*
X117003Y529566D01*
X117909Y531753D01*
X118217Y534100D01*
X117909Y536447D01*
X117003Y538634D01*
X115562Y540512D01*
X113684Y541953D01*
X111497Y542859D01*
X109150Y543168D01*
X106803Y542859D01*
X104616Y541953D01*
X102738Y540512D01*
X101297Y538634D01*
X100391Y536447D01*
X100082Y534100D01*
X100391Y531753D01*
X100580Y531298D01*
X93616Y524334D01*
X93616Y524334D01*
X92732Y523011D01*
X92422Y521450D01*
X92422Y521450D01*
Y504119D01*
X89500D01*
Y502197D01*
X87250D01*
Y504119D01*
X84328D01*
Y516000D01*
X84328Y516000D01*
X84018Y517561D01*
X83134Y518884D01*
X74829Y527189D01*
Y528976D01*
X74967Y529052D01*
X76098Y529304D01*
X77338Y527688D01*
X79216Y526247D01*
X81403Y525341D01*
X83750Y525032D01*
X86097Y525341D01*
X88284Y526247D01*
X90162Y527688D01*
X91603Y529566D01*
X92509Y531753D01*
X92817Y534100D01*
X92515Y536398D01*
X109033Y552915D01*
X109752Y553990D01*
X110004Y555258D01*
Y557847D01*
X111274Y558408D01*
X111419Y558311D01*
X111926Y557972D01*
X111927Y557972D01*
X111927Y557972D01*
X112470Y557864D01*
X113012Y557756D01*
X113091Y557153D01*
X113997Y554966D01*
X115438Y553088D01*
X117316Y551647D01*
X119503Y550741D01*
X121850Y550432D01*
X124197Y550741D01*
X126384Y551647D01*
X128262Y553088D01*
X129703Y554966D01*
X130609Y557153D01*
X130918Y559500D01*
X130609Y561847D01*
X129703Y564034D01*
X128262Y565912D01*
X126384Y567353D01*
X124197Y568259D01*
X122169Y568526D01*
X121550Y569702D01*
X126534Y574686D01*
X153764D01*
X163936Y564514D01*
Y551000D01*
X163593Y550657D01*
X163593Y550657D01*
X146867Y533931D01*
X146148Y532856D01*
X145896Y531588D01*
Y485682D01*
X146148Y484414D01*
X146867Y483339D01*
X153819Y476387D01*
X154894Y475668D01*
X156162Y475416D01*
X160000D01*
Y469750D01*
X173000D01*
Y475416D01*
X181982D01*
X182661Y474146D01*
X181839Y472916D01*
X181412Y470770D01*
X181839Y468624D01*
X183055Y466805D01*
X184874Y465589D01*
X187020Y465162D01*
X187239Y465206D01*
X188761Y463684D01*
X188392Y462468D01*
X188104Y462411D01*
X186285Y461195D01*
X185069Y459376D01*
X184942Y458739D01*
X183534Y458170D01*
X182396Y458931D01*
X180250Y459358D01*
X178104Y458931D01*
X176285Y457715D01*
X175069Y455896D01*
X174642Y453750D01*
X175069Y451604D01*
X176285Y449785D01*
X176712Y449499D01*
X176689Y447987D01*
X175535Y447215D01*
X174319Y445396D01*
X173892Y443250D01*
X174319Y441104D01*
X174586Y440704D01*
X173988Y439584D01*
X172000D01*
Y451500D01*
X170578D01*
Y453750D01*
X173000D01*
Y464750D01*
X160000D01*
Y463203D01*
X154927D01*
X154732Y463219D01*
X154585Y463240D01*
X154542Y463248D01*
X153146Y464181D01*
X151000Y464608D01*
X148854Y464181D01*
X147035Y462965D01*
X145819Y461146D01*
X145392Y459000D01*
X145819Y456854D01*
X147035Y455035D01*
X148854Y453819D01*
X151000Y453392D01*
X153146Y453819D01*
X154946Y455022D01*
X155279Y455047D01*
X160000D01*
Y453750D01*
X162422D01*
Y451500D01*
X161000D01*
Y438763D01*
X160768Y438608D01*
X156631Y434471D01*
X155540Y434040D01*
X155540Y434040D01*
Y434040D01*
X155540Y434040D01*
X147770D01*
Y426000D01*
Y417960D01*
X154666D01*
Y415500D01*
X138000D01*
Y411334D01*
X133381D01*
X133000Y411715D01*
Y420000D01*
X122000D01*
Y407000D01*
X128285D01*
X129642Y405642D01*
X130724Y404920D01*
X132000Y404666D01*
X138000D01*
Y400500D01*
X155000D01*
Y405854D01*
X156512D01*
X157788Y406108D01*
X158870Y406831D01*
X159190Y407151D01*
X160460Y406625D01*
Y399960D01*
X168230D01*
Y408000D01*
Y416040D01*
X161334D01*
Y418500D01*
X178000D01*
Y422916D01*
X182000D01*
Y420750D01*
X195000D01*
Y427035D01*
X196341Y428376D01*
X199865D01*
X200391Y427106D01*
X198642Y425358D01*
X197920Y424276D01*
X197666Y423000D01*
Y415195D01*
X197245Y414855D01*
X197035Y414715D01*
X196993Y414653D01*
X196695Y414414D01*
X195540Y414764D01*
Y416290D01*
X189770D01*
Y410250D01*
Y404210D01*
X195540D01*
Y406736D01*
X196810Y407121D01*
X197035Y406785D01*
X198854Y405569D01*
X201000Y405142D01*
X203146Y405569D01*
X204965Y406785D01*
X206181Y408604D01*
X206608Y410750D01*
X206181Y412896D01*
X204965Y414715D01*
X204334Y415137D01*
Y421619D01*
X205381Y422666D01*
X207152D01*
X208250Y422250D01*
X208250Y422016D01*
Y410250D01*
X222250D01*
Y412916D01*
X226250D01*
Y410250D01*
X240250D01*
Y412916D01*
X241808D01*
X242069Y411604D01*
X243285Y409785D01*
X245104Y408569D01*
X247250Y408142D01*
X249396Y408569D01*
X251215Y409785D01*
X251940Y410869D01*
X253210Y410484D01*
Y404460D01*
X258980D01*
Y410500D01*
Y416540D01*
X253499D01*
X253210Y416540D01*
X251963Y416596D01*
X251215Y417715D01*
X249396Y418931D01*
X247250Y419358D01*
X245345Y418979D01*
X244819Y419330D01*
X244004Y419492D01*
X243484Y420769D01*
X249107Y426393D01*
X249830Y427474D01*
X250084Y428750D01*
Y430221D01*
X251257Y430707D01*
X253750Y428214D01*
Y421000D01*
X266750D01*
Y432000D01*
X259389D01*
X259377Y432017D01*
X253052Y438342D01*
X253519Y439671D01*
X253678Y439689D01*
X255354Y438569D01*
X257500Y438142D01*
X259646Y438569D01*
X261465Y439785D01*
X262681Y441604D01*
X263108Y443750D01*
X262681Y445896D01*
X261465Y447715D01*
X260766Y448182D01*
X261151Y449452D01*
X261329D01*
X262605Y449706D01*
X263687Y450429D01*
X264499Y451241D01*
X266250Y450892D01*
X268396Y451319D01*
X270215Y452535D01*
X271431Y454354D01*
X271858Y456500D01*
X271431Y458646D01*
X270215Y460465D01*
X269498Y460945D01*
Y462472D01*
X269965Y462785D01*
X271181Y464604D01*
X271608Y466750D01*
X271181Y468896D01*
X269965Y470715D01*
X268225Y471878D01*
X268144Y472173D01*
X268134Y473228D01*
X269715Y474285D01*
X270931Y476104D01*
X271358Y478250D01*
X270931Y480396D01*
X269715Y482215D01*
X268194Y483232D01*
X268087Y484314D01*
X268163Y484664D01*
X269465Y485535D01*
X270681Y487354D01*
X271108Y489500D01*
X271037Y489857D01*
X271935Y490755D01*
X272500Y490642D01*
X274646Y491069D01*
X276244Y492137D01*
X276327Y492150D01*
X276648Y492172D01*
X278811D01*
X280445Y490538D01*
X280445Y490538D01*
X281768Y489654D01*
X282156Y489576D01*
X283000Y488732D01*
Y480500D01*
X284922D01*
Y477750D01*
X274750D01*
Y449750D01*
X287982D01*
X298521Y439211D01*
X298732Y438945D01*
X298761Y438904D01*
X299069Y437354D01*
X300285Y435535D01*
X302104Y434319D01*
X304250Y433892D01*
X306396Y434319D01*
X308215Y435535D01*
X309431Y437354D01*
X309858Y439500D01*
X309431Y441646D01*
X308215Y443465D01*
X306396Y444681D01*
X304250Y445108D01*
X304205Y445099D01*
X303948Y445319D01*
X293750Y455518D01*
Y477750D01*
X293078D01*
Y480500D01*
X295000D01*
Y494500D01*
X288768D01*
X286962Y496305D01*
X285639Y497189D01*
X285251Y497267D01*
X283384Y499134D01*
X283384Y499134D01*
X282828Y499689D01*
Y503250D01*
X284250D01*
Y516250D01*
X273250D01*
Y513829D01*
X271314D01*
X269753Y513518D01*
X269557Y513387D01*
X268384Y513873D01*
X268181Y514896D01*
X267378Y516097D01*
X267369Y516146D01*
X267328Y516718D01*
Y520250D01*
X270000D01*
Y531250D01*
X257000D01*
Y520250D01*
X259172D01*
Y516992D01*
X259150Y516817D01*
X259145Y516789D01*
X259035Y516715D01*
X257819Y514896D01*
X257392Y512750D01*
X257819Y510604D01*
X259035Y508785D01*
X260854Y507569D01*
X261627Y507415D01*
X261996Y506200D01*
X258374Y502578D01*
X230000D01*
Y505000D01*
X219000D01*
Y496715D01*
X217428Y495143D01*
X216705Y494062D01*
X216452Y492786D01*
Y485500D01*
X215978Y485026D01*
X215947Y484979D01*
X215600Y484632D01*
X214682Y484357D01*
X214133Y484303D01*
X208334Y490103D01*
Y492000D01*
X214000D01*
Y505000D01*
X208334D01*
Y508838D01*
X208082Y510106D01*
X208081Y510106D01*
X207363Y511181D01*
X199032Y519512D01*
X192698Y525846D01*
X193252Y526675D01*
X193679Y528821D01*
X193252Y530967D01*
X192036Y532786D01*
X190217Y534002D01*
X188071Y534429D01*
X185925Y534002D01*
X184106Y532786D01*
X182890Y530967D01*
X182463Y528821D01*
X182604Y528116D01*
X181706Y527218D01*
X181000Y527358D01*
X178854Y526931D01*
X177035Y525715D01*
X175819Y523896D01*
X175392Y521750D01*
X175819Y519604D01*
X177035Y517785D01*
X178854Y516569D01*
X181000Y516143D01*
X183146Y516569D01*
X184445Y517437D01*
X184647Y517397D01*
X195774Y506270D01*
X195247Y505000D01*
X191000D01*
Y492000D01*
X196666D01*
Y487763D01*
X195838Y487084D01*
X173000D01*
Y492750D01*
X160000D01*
Y488503D01*
X158730Y487976D01*
X157564Y489143D01*
Y528128D01*
X174633Y545197D01*
X175351Y546272D01*
X175603Y547540D01*
Y567974D01*
X175351Y569242D01*
X174633Y570317D01*
X159567Y585383D01*
X158492Y586101D01*
X158281Y586143D01*
X157224Y586354D01*
D02*
G37*
G36*
X145230Y434040D02*
X137460D01*
Y427270D01*
X145230D01*
Y434040D01*
D02*
G37*
G36*
X65286Y450480D02*
X41520D01*
Y426714D01*
X45159Y427072D01*
X49879Y428504D01*
X54229Y430829D01*
X58042Y433958D01*
X61171Y437771D01*
X63496Y442121D01*
X64928Y446841D01*
X65286Y450480D01*
D02*
G37*
G36*
X38980D02*
X15214D01*
X15572Y446841D01*
X17004Y442121D01*
X19329Y437771D01*
X22458Y433958D01*
X26271Y430829D01*
X30621Y428504D01*
X35341Y427072D01*
X38980Y426714D01*
Y450480D01*
D02*
G37*
G36*
X112940Y431530D02*
X107670D01*
Y425260D01*
X112940D01*
Y431530D01*
D02*
G37*
G36*
X105130D02*
X99860D01*
Y425260D01*
X105130D01*
Y431530D01*
D02*
G37*
G36*
X360964Y431380D02*
X351770D01*
Y422186D01*
X353251Y422381D01*
X355816Y423443D01*
X358017Y425133D01*
X359707Y427335D01*
X360769Y429898D01*
X360964Y431380D01*
D02*
G37*
G36*
X349230D02*
X340036D01*
X340231Y429898D01*
X341293Y427335D01*
X342983Y425133D01*
X345185Y423443D01*
X347749Y422381D01*
X349230Y422186D01*
Y431380D01*
D02*
G37*
G36*
X305790Y426790D02*
X297520D01*
Y420520D01*
X305790D01*
Y426790D01*
D02*
G37*
G36*
X294980D02*
X286710D01*
Y420520D01*
X294980D01*
Y426790D01*
D02*
G37*
G36*
X145230Y424730D02*
X137460D01*
Y417960D01*
X145230D01*
Y424730D01*
D02*
G37*
G36*
X117540Y420540D02*
X112770D01*
Y414770D01*
X117540D01*
Y420540D01*
D02*
G37*
G36*
X110230D02*
X105460D01*
Y414770D01*
X110230D01*
Y420540D01*
D02*
G37*
G36*
X261520Y416540D02*
Y411770D01*
X267290D01*
Y416540D01*
X261520D01*
D02*
G37*
G36*
X305790Y417980D02*
X297520D01*
Y411710D01*
X305790D01*
Y417980D01*
D02*
G37*
G36*
X294980D02*
X286710D01*
Y411710D01*
X294980D01*
Y417980D01*
D02*
G37*
G36*
X187230Y416290D02*
X181460D01*
Y411520D01*
X187230D01*
Y416290D01*
D02*
G37*
G36*
X178540Y416040D02*
X170770D01*
Y409270D01*
X178540D01*
Y416040D01*
D02*
G37*
G36*
X117540Y412230D02*
X112770D01*
Y406460D01*
X117540D01*
Y412230D01*
D02*
G37*
G36*
X110230D02*
X105460D01*
Y406460D01*
X110230D01*
Y412230D01*
D02*
G37*
G36*
X267290Y409230D02*
X261520D01*
Y404460D01*
X267290D01*
Y409230D01*
D02*
G37*
G36*
X187230Y408980D02*
X181460D01*
Y404210D01*
X187230D01*
Y408980D01*
D02*
G37*
G36*
X240790Y406790D02*
X234520D01*
Y401520D01*
X240790D01*
Y406790D01*
D02*
G37*
G36*
X222790D02*
X216520D01*
Y401520D01*
X222790D01*
Y406790D01*
D02*
G37*
G36*
X213980D02*
X207710D01*
Y401520D01*
X213980D01*
Y406790D01*
D02*
G37*
G36*
X231980D02*
X225710D01*
Y401520D01*
X231980D01*
Y406790D01*
D02*
G37*
G36*
X81040Y406540D02*
X76270D01*
Y400770D01*
X81040D01*
Y406540D01*
D02*
G37*
G36*
X73730D02*
X68960D01*
Y400770D01*
X73730D01*
Y406540D01*
D02*
G37*
G36*
X178540Y406730D02*
X170770D01*
Y399960D01*
X178540D01*
Y406730D01*
D02*
G37*
G36*
X350500Y417336D02*
X347890Y416992D01*
X345457Y415985D01*
X343368Y414382D01*
X341765Y412293D01*
X340757Y409860D01*
X340414Y407250D01*
X340757Y404639D01*
X341765Y402207D01*
X343368Y400118D01*
X345457Y398515D01*
X347890Y397507D01*
X350500Y397164D01*
X353111Y397507D01*
X355543Y398515D01*
X357632Y400118D01*
X359235Y402207D01*
X360243Y404639D01*
X360586Y407250D01*
X360243Y409860D01*
X359235Y412293D01*
X357632Y414382D01*
X355543Y415985D01*
X353111Y416992D01*
X350500Y417336D01*
D02*
G37*
G36*
X240790Y398980D02*
X234520D01*
Y393710D01*
X240790D01*
Y398980D01*
D02*
G37*
G36*
X231980D02*
X225710D01*
Y393710D01*
X231980D01*
Y398980D01*
D02*
G37*
G36*
X222790D02*
X216520D01*
Y393710D01*
X222790D01*
Y398980D01*
D02*
G37*
G36*
X213980D02*
X207710D01*
Y393710D01*
X213980D01*
Y398980D01*
D02*
G37*
G36*
X81040Y398230D02*
X76270D01*
Y392460D01*
X81040D01*
Y398230D01*
D02*
G37*
G36*
X73730D02*
X68960D01*
Y392460D01*
X73730D01*
Y398230D01*
D02*
G37*
G36*
X64500Y406000D02*
X53500D01*
Y393000D01*
X55666D01*
Y390750D01*
X53500D01*
Y388463D01*
X49091D01*
X45397Y392157D01*
X44316Y392880D01*
X43040Y393134D01*
X37250D01*
Y398550D01*
X18250D01*
Y379550D01*
X37250D01*
Y386466D01*
X41659D01*
X45353Y382771D01*
X46434Y382049D01*
X47710Y381795D01*
X52663D01*
X53224Y381420D01*
X53500Y381365D01*
Y377750D01*
X64500D01*
Y390750D01*
X62334D01*
Y393000D01*
X64500D01*
Y406000D01*
D02*
G37*
G36*
X99040Y393540D02*
X92770D01*
Y388270D01*
X99040D01*
Y393540D01*
D02*
G37*
G36*
X90230D02*
X83960D01*
Y388270D01*
X90230D01*
Y393540D01*
D02*
G37*
G36*
X167040Y393290D02*
X160770D01*
Y385020D01*
X167040D01*
Y393290D01*
D02*
G37*
G36*
X158230D02*
X151960D01*
Y385020D01*
X158230D01*
Y393290D01*
D02*
G37*
G36*
X334540Y388790D02*
X328270D01*
Y383520D01*
X334540D01*
Y388790D01*
D02*
G37*
G36*
X325730D02*
X319460D01*
Y383520D01*
X325730D01*
Y388790D01*
D02*
G37*
G36*
X99040Y385730D02*
X92770D01*
Y380460D01*
X99040D01*
Y385730D01*
D02*
G37*
G36*
X90230D02*
X83960D01*
Y380460D01*
X90230D01*
Y385730D01*
D02*
G37*
G36*
X334540Y380980D02*
X328270D01*
Y375710D01*
X334540D01*
Y380980D01*
D02*
G37*
G36*
X325730D02*
X319460D01*
Y375710D01*
X325730D01*
Y380980D01*
D02*
G37*
G36*
X305250Y406250D02*
X287250D01*
Y392250D01*
X298899D01*
X298900Y392244D01*
X299622Y391162D01*
X303916Y386869D01*
Y374647D01*
X302646Y374366D01*
X302108Y375172D01*
X277672Y399608D01*
X276591Y400330D01*
X275315Y400584D01*
X257887D01*
X257465Y401215D01*
X255646Y402431D01*
X253500Y402858D01*
X251354Y402431D01*
X249535Y401215D01*
X248319Y399396D01*
X247892Y397250D01*
X248319Y395104D01*
X249535Y393285D01*
X251354Y392069D01*
X253500Y391642D01*
X255646Y392069D01*
X257465Y393285D01*
X257887Y393916D01*
X273934D01*
X277092Y390757D01*
X276606Y389584D01*
X248887D01*
X248465Y390215D01*
X246646Y391431D01*
X244500Y391858D01*
X242354Y391431D01*
X240535Y390215D01*
X239319Y388396D01*
X238892Y386250D01*
X239319Y384104D01*
X240535Y382285D01*
X242354Y381069D01*
X244500Y380642D01*
X246646Y381069D01*
X248465Y382285D01*
X248887Y382916D01*
X277251D01*
X289700Y370466D01*
X289174Y369196D01*
X288700D01*
X287783Y369014D01*
X287250Y368658D01*
X286717Y369014D01*
X285800Y369196D01*
X283700D01*
X282783Y369014D01*
X282250Y368658D01*
X281717Y369014D01*
X280800Y369196D01*
X278700D01*
X277783Y369014D01*
X277250Y368658D01*
X276717Y369014D01*
X275800Y369196D01*
X273700D01*
X272783Y369014D01*
X272250Y368658D01*
X271717Y369014D01*
X270800Y369196D01*
X268700D01*
X267783Y369014D01*
X267250Y368658D01*
X266717Y369014D01*
X265800Y369196D01*
X263700D01*
X262783Y369014D01*
X262250Y368658D01*
X261717Y369014D01*
X260800Y369196D01*
X258700D01*
X257783Y369014D01*
X257250Y368658D01*
X256717Y369014D01*
X255800Y369196D01*
X253700D01*
X252783Y369014D01*
X252250Y368658D01*
X251717Y369014D01*
X250800Y369196D01*
X248700D01*
X247783Y369014D01*
X247250Y368658D01*
X246717Y369014D01*
X245800Y369196D01*
X243700D01*
X242783Y369014D01*
X242250Y368658D01*
X241717Y369014D01*
X240800Y369196D01*
X238700D01*
X237783Y369014D01*
X237250Y368658D01*
X236717Y369014D01*
X235800Y369196D01*
X233700D01*
X232783Y369014D01*
X232250Y368658D01*
X231717Y369014D01*
X230800Y369196D01*
X228700D01*
X227783Y369014D01*
X227250Y368658D01*
X226717Y369014D01*
X225800Y369196D01*
X223700D01*
X222783Y369014D01*
X222250Y368658D01*
X221717Y369014D01*
X220800Y369196D01*
X218700D01*
X217783Y369014D01*
X217250Y368658D01*
X216717Y369014D01*
X215800Y369196D01*
X213700D01*
X212783Y369014D01*
X212250Y368658D01*
X211717Y369014D01*
X210800Y369196D01*
X208700D01*
X207783Y369014D01*
X207250Y368658D01*
X206717Y369014D01*
X205800Y369196D01*
X203700D01*
X202783Y369014D01*
X202250Y368658D01*
X201717Y369014D01*
X200800Y369196D01*
X198700D01*
X198084Y369702D01*
Y377662D01*
X198642Y378220D01*
X200396Y378569D01*
X202215Y379785D01*
X203431Y381604D01*
X203858Y383750D01*
X203431Y385896D01*
X202215Y387715D01*
X200396Y388931D01*
X198250Y389358D01*
X196104Y388931D01*
X194285Y387715D01*
X193069Y385896D01*
X192642Y383750D01*
X192991Y381999D01*
X192392Y381401D01*
X191670Y380319D01*
X191416Y379043D01*
Y376208D01*
X190243Y375722D01*
X186500Y379465D01*
Y392750D01*
X172500D01*
Y374750D01*
X171506Y374084D01*
X168258D01*
X167040Y374210D01*
X167040Y375354D01*
Y382480D01*
X159500D01*
X151960D01*
X151960Y374210D01*
X150742Y374084D01*
X140750D01*
Y377750D01*
X139555D01*
X139412Y377802D01*
X139333Y377843D01*
X139259Y377895D01*
X138965Y379064D01*
X140181Y380884D01*
X140608Y383030D01*
X140181Y385176D01*
X138965Y386995D01*
X137146Y388211D01*
X135000Y388638D01*
X132854Y388211D01*
X131035Y386995D01*
X130613Y386364D01*
X108280D01*
X107004Y386110D01*
X105922Y385387D01*
X103071Y382536D01*
X102348Y381455D01*
X102094Y380179D01*
Y376559D01*
X100642Y375108D01*
X100642Y375107D01*
X99869Y374334D01*
X98500D01*
Y377000D01*
X84500D01*
Y374334D01*
X81561D01*
X80184Y375712D01*
Y377750D01*
X80500D01*
Y379690D01*
X80508Y379725D01*
X80504Y379745D01*
X80509Y379766D01*
X80500Y379811D01*
Y390750D01*
X69500D01*
Y377750D01*
X73516D01*
Y374330D01*
X73770Y373055D01*
X74492Y371973D01*
X77823Y368643D01*
X78905Y367920D01*
X80180Y367666D01*
X84500D01*
Y365000D01*
X88166D01*
Y361000D01*
X88420Y359724D01*
X89142Y358643D01*
X95436Y352349D01*
Y348030D01*
X95500Y347709D01*
Y343364D01*
X76151D01*
X73500Y346015D01*
Y351300D01*
X47500D01*
Y341300D01*
X68785D01*
X70312Y339773D01*
X69826Y338600D01*
X47500D01*
Y333315D01*
X45122Y330937D01*
X44383D01*
X42896Y331931D01*
X40750Y332358D01*
X38604Y331931D01*
X36785Y330715D01*
X35569Y328896D01*
X35142Y326750D01*
X35569Y324604D01*
X36785Y322785D01*
X38604Y321569D01*
X40750Y321142D01*
X42896Y321569D01*
X44715Y322785D01*
X45420Y323839D01*
X46431Y323953D01*
X47500Y323019D01*
Y315900D01*
X73500D01*
X74416Y315045D01*
Y314854D01*
X74040Y313740D01*
X73146Y313740D01*
X61770D01*
Y308200D01*
Y302660D01*
X74040D01*
Y305631D01*
X75310Y306016D01*
X75392Y305893D01*
X84392Y296893D01*
X85474Y296170D01*
X86750Y295916D01*
X147750D01*
X149026Y296170D01*
X150107Y296893D01*
X151608Y298392D01*
X151871Y298786D01*
X152439Y298701D01*
X153104Y298346D01*
Y296500D01*
X153287Y295583D01*
X153643Y295050D01*
X153287Y294517D01*
X153104Y293600D01*
Y291500D01*
X153287Y290583D01*
X153643Y290050D01*
X153287Y289517D01*
X153104Y288600D01*
Y286500D01*
X153287Y285583D01*
X153643Y285050D01*
X153287Y284517D01*
X153104Y283600D01*
Y281500D01*
X153287Y280583D01*
X153643Y280050D01*
X153287Y279517D01*
X153104Y278600D01*
Y276500D01*
X153287Y275583D01*
X153643Y275050D01*
X153287Y274517D01*
X153104Y273600D01*
Y271500D01*
X153287Y270583D01*
X153643Y270050D01*
X153287Y269517D01*
X153104Y268600D01*
Y266500D01*
X153287Y265583D01*
X153643Y265050D01*
X153287Y264517D01*
X153104Y263600D01*
Y261500D01*
X153287Y260583D01*
X153643Y260050D01*
X153287Y259517D01*
X153104Y258600D01*
Y256500D01*
X153287Y255583D01*
X153643Y255050D01*
X153287Y254517D01*
X153104Y253600D01*
Y251500D01*
X153287Y250583D01*
X153643Y250050D01*
X153287Y249517D01*
X153104Y248600D01*
Y246500D01*
X153287Y245583D01*
X153643Y245050D01*
X153287Y244517D01*
X153104Y243600D01*
Y241500D01*
X153287Y240583D01*
X153643Y240050D01*
X153287Y239517D01*
X153104Y238600D01*
Y236500D01*
X153287Y235583D01*
X153643Y235050D01*
X153287Y234517D01*
X153104Y233600D01*
Y231500D01*
X153287Y230583D01*
X153318Y230536D01*
X152778Y229728D01*
X152597Y228820D01*
X162950D01*
Y226280D01*
X152373D01*
X152048Y225884D01*
X144581D01*
X140899Y229566D01*
X141524Y230737D01*
X142000Y230642D01*
X144146Y231069D01*
X145965Y232285D01*
X147181Y234104D01*
X147608Y236250D01*
X147181Y238396D01*
X145965Y240215D01*
X144146Y241431D01*
X142000Y241858D01*
X139854Y241431D01*
X138035Y240215D01*
X137891Y240000D01*
X136776D01*
X136734Y240009D01*
X136689Y240000D01*
X124750D01*
Y228000D01*
X133064D01*
X133123Y227912D01*
X135322Y225713D01*
X134836Y224540D01*
X133020D01*
Y219270D01*
X139290D01*
Y220086D01*
X140463Y220572D01*
X140843Y220192D01*
X141924Y219470D01*
X143200Y219216D01*
X154937D01*
X155500Y219104D01*
X169343D01*
X169869Y217834D01*
X153849Y201814D01*
X153730D01*
X153408Y201750D01*
X145000D01*
Y190750D01*
X158000D01*
Y196535D01*
X159503Y198038D01*
X160673Y197412D01*
X160392Y196000D01*
X160819Y193854D01*
X162035Y192035D01*
X163673Y190940D01*
X163772Y190250D01*
X163673Y189560D01*
X162035Y188465D01*
X160819Y186646D01*
X160392Y184500D01*
X160819Y182354D01*
X162035Y180535D01*
X163854Y179319D01*
X166000Y178892D01*
X168146Y179319D01*
X169965Y180535D01*
X170387Y181166D01*
X186500D01*
X187776Y181420D01*
X188858Y182143D01*
X188941Y182226D01*
X190245Y181734D01*
X190569Y180104D01*
X190683Y179934D01*
X190084Y178814D01*
X187855D01*
X186580Y178560D01*
X185498Y177838D01*
X180132Y172471D01*
X179040Y172040D01*
X179040Y172040D01*
Y172040D01*
X179040Y172040D01*
X171270D01*
Y164000D01*
Y155960D01*
X174586D01*
X175072Y154787D01*
X173785Y153500D01*
X161500D01*
Y150584D01*
X157750D01*
Y152750D01*
X144750D01*
Y141750D01*
X157750D01*
Y143916D01*
X161500D01*
Y138500D01*
X178500D01*
Y148785D01*
X182690Y152975D01*
X183960Y152449D01*
Y147270D01*
X191730D01*
Y154040D01*
X185400D01*
X184721Y155310D01*
X184830Y155474D01*
X185034Y156500D01*
X201500D01*
Y159416D01*
X205000D01*
Y157250D01*
X218000D01*
Y167936D01*
X219120Y168612D01*
X221000Y166733D01*
Y160500D01*
X235000D01*
Y162037D01*
X241250D01*
Y160500D01*
X255250D01*
Y162658D01*
X261000D01*
Y160500D01*
X274075D01*
X275000Y160500D01*
X275172Y159301D01*
Y157040D01*
X269270D01*
Y150500D01*
Y143960D01*
X275172D01*
Y137439D01*
X259616Y121884D01*
X258732Y120561D01*
X258422Y119000D01*
X258422Y119000D01*
Y47439D01*
X245911Y34928D01*
X239652D01*
X239334Y36198D01*
X241646Y37434D01*
X243936Y39314D01*
X245816Y41604D01*
X247212Y44217D01*
X248072Y47052D01*
X248238Y48730D01*
X218262D01*
X218428Y47052D01*
X219288Y44217D01*
X220684Y41604D01*
X222564Y39314D01*
X224854Y37434D01*
X227166Y36198D01*
X226848Y34928D01*
X188073D01*
X187820Y36198D01*
X190563Y37334D01*
X193591Y39659D01*
X195916Y42687D01*
X197377Y46215D01*
X197875Y50000D01*
X197377Y53785D01*
X195916Y57313D01*
X193591Y60342D01*
X190563Y62666D01*
X187035Y64127D01*
X183250Y64625D01*
X179465Y64127D01*
X175937Y62666D01*
X172908Y60342D01*
X171136Y58032D01*
X103852D01*
X103743Y58861D01*
X102735Y61293D01*
X101132Y63382D01*
X99043Y64985D01*
X96610Y65993D01*
X94000Y66336D01*
X91390Y65993D01*
X88957Y64985D01*
X86868Y63382D01*
X85265Y61293D01*
X84257Y58861D01*
X83914Y56250D01*
X84257Y53639D01*
X85265Y51207D01*
X86868Y49118D01*
X88957Y47515D01*
X91390Y46507D01*
X94000Y46164D01*
X96610Y46507D01*
X99043Y47515D01*
X101132Y49118D01*
X101713Y49876D01*
X168641D01*
X169123Y46215D01*
X170584Y42687D01*
X172908Y39659D01*
X175937Y37334D01*
X178680Y36198D01*
X178427Y34928D01*
X104000D01*
Y40850D01*
X84000D01*
Y20850D01*
X104000D01*
Y26772D01*
X247600D01*
X247600Y26772D01*
X249161Y27082D01*
X250484Y27966D01*
X265384Y42866D01*
X266268Y44189D01*
X266578Y45750D01*
X266578Y45750D01*
Y90394D01*
X267781Y90802D01*
X268659Y89658D01*
X271687Y87334D01*
X275215Y85873D01*
X279000Y85375D01*
X282785Y85873D01*
X286313Y87334D01*
X289342Y89658D01*
X291666Y92687D01*
X293127Y96215D01*
X293625Y100000D01*
X293127Y103785D01*
X291666Y107313D01*
X289342Y110342D01*
X286313Y112666D01*
X282785Y114127D01*
X279000Y114625D01*
X275215Y114127D01*
X271687Y112666D01*
X268659Y110342D01*
X267781Y109198D01*
X266578Y109606D01*
Y117311D01*
X282134Y132866D01*
X282134Y132866D01*
X283018Y134189D01*
X283328Y135750D01*
Y147409D01*
X284448Y148007D01*
X285104Y147569D01*
X287250Y147142D01*
X289396Y147569D01*
X291215Y148785D01*
X291230Y148807D01*
X292455Y148435D01*
X292482Y148416D01*
X292495Y148404D01*
X292499Y148398D01*
X292500Y148397D01*
X292500Y148397D01*
Y147750D01*
X305500D01*
Y149916D01*
X308250D01*
Y147750D01*
X321250D01*
Y158750D01*
X308250D01*
Y156584D01*
X305500D01*
Y158750D01*
X292500D01*
Y157487D01*
X292394Y157269D01*
X292330Y157177D01*
X291215Y156715D01*
X289396Y157931D01*
X287250Y158358D01*
X285104Y157931D01*
X284448Y157493D01*
X283328Y158091D01*
Y159311D01*
X290439Y166422D01*
X325500D01*
Y164000D01*
X336500D01*
Y171232D01*
X339787Y174519D01*
X340960Y174033D01*
Y171770D01*
X345730D01*
Y177540D01*
X344467D01*
X343981Y178713D01*
X345486Y180219D01*
X345644Y180250D01*
X352250D01*
Y193250D01*
X341250D01*
Y187390D01*
X340866Y187134D01*
X337423Y183691D01*
X336250Y184177D01*
Y193250D01*
X334084D01*
Y196000D01*
X337500D01*
Y210000D01*
X325500D01*
Y207701D01*
X324230Y207175D01*
X319884Y211521D01*
Y219104D01*
X324000D01*
X324917Y219286D01*
X325694Y219806D01*
X326214Y220583D01*
X326396Y221500D01*
Y223600D01*
X326214Y224517D01*
X327147Y225331D01*
X327532Y225447D01*
X328041Y225494D01*
X338838Y214697D01*
X339919Y213975D01*
X341195Y213721D01*
X360374D01*
X373075Y201020D01*
X372549Y199750D01*
X370250D01*
Y187750D01*
X384250D01*
Y189671D01*
X386172D01*
Y188000D01*
X386172Y188000D01*
X386482Y186439D01*
X387366Y185116D01*
X393879Y178603D01*
X393677Y177009D01*
X393116Y176634D01*
X393116Y176634D01*
X383116Y166634D01*
X382232Y165311D01*
X381922Y163750D01*
X381178Y162750D01*
X377000D01*
Y151750D01*
X390000D01*
Y158356D01*
X390078Y158750D01*
X390078Y158750D01*
Y162061D01*
X397689Y169672D01*
X403500D01*
X403894Y169750D01*
X414500D01*
Y179750D01*
X404267D01*
X394328Y189689D01*
Y195500D01*
X394328Y195500D01*
X394328Y195500D01*
Y203182D01*
X394348Y203405D01*
X394363Y203506D01*
X395431Y205104D01*
X395858Y207250D01*
X395431Y209396D01*
X394215Y211215D01*
X392396Y212431D01*
X390250Y212858D01*
X388104Y212431D01*
X386285Y211215D01*
X385069Y209396D01*
X384642Y207250D01*
X385069Y205104D01*
X386137Y203506D01*
X386149Y203423D01*
X386172Y203102D01*
Y197828D01*
X384250D01*
Y199750D01*
X380584D01*
Y201560D01*
X380330Y202836D01*
X379608Y203917D01*
X364113Y219412D01*
X363031Y220135D01*
X361755Y220389D01*
X342576D01*
X329922Y233043D01*
X330408Y234216D01*
X336750D01*
Y231000D01*
X348750D01*
Y245000D01*
X348124D01*
X347638Y246173D01*
X349965Y248500D01*
X357250D01*
Y261500D01*
X351210D01*
X350737Y262609D01*
X351471Y263500D01*
X359750D01*
Y274500D01*
X349413D01*
X348814Y275230D01*
Y279500D01*
X359750D01*
Y284834D01*
X359758Y284877D01*
X359750Y284921D01*
Y285046D01*
X360190Y285425D01*
X361460Y284843D01*
Y279210D01*
X367230D01*
Y285250D01*
Y291290D01*
X365731D01*
X365367Y292209D01*
X365294Y292560D01*
X366468Y294317D01*
X366895Y296463D01*
X366468Y298609D01*
X365252Y300428D01*
X363433Y301644D01*
X361287Y302071D01*
X359354Y301686D01*
X358084Y302343D01*
Y310750D01*
X361250D01*
Y321750D01*
X348250D01*
Y310750D01*
X351416D01*
Y300641D01*
X343122Y292347D01*
X342399Y291266D01*
X342354Y291036D01*
X341084Y291161D01*
Y310750D01*
X344250D01*
Y321750D01*
X331250D01*
Y310750D01*
X334416D01*
Y275881D01*
X328004Y269469D01*
X326615Y269755D01*
X326214Y270583D01*
X326396Y271500D01*
Y273600D01*
X326214Y274517D01*
X325857Y275050D01*
X326214Y275583D01*
X326396Y276500D01*
Y278600D01*
X326214Y279517D01*
X325858Y280050D01*
X326214Y280583D01*
X326396Y281500D01*
Y283600D01*
X326214Y284517D01*
X325857Y285050D01*
X326214Y285583D01*
X326396Y286500D01*
Y288600D01*
X326214Y289517D01*
X325858Y290050D01*
X326214Y290583D01*
X326396Y291500D01*
Y293600D01*
X326214Y294517D01*
X325857Y295050D01*
X326214Y295583D01*
X326396Y296500D01*
Y298600D01*
X326214Y299517D01*
X325857Y300050D01*
X326214Y300583D01*
X326396Y301500D01*
Y303600D01*
X326214Y304517D01*
X325858Y305050D01*
X326214Y305583D01*
X326396Y306500D01*
Y308600D01*
X326214Y309517D01*
X325857Y310050D01*
X326214Y310583D01*
X326396Y311500D01*
Y313600D01*
X326214Y314517D01*
X325858Y315050D01*
X326214Y315583D01*
X326396Y316500D01*
Y318600D01*
X326214Y319517D01*
X325857Y320050D01*
X326214Y320583D01*
X326396Y321500D01*
Y323600D01*
X326214Y324517D01*
X325858Y325050D01*
X326214Y325583D01*
X326396Y326500D01*
Y328600D01*
X326214Y329517D01*
X325857Y330050D01*
X326214Y330583D01*
X326396Y331500D01*
Y333600D01*
X326214Y334517D01*
X325858Y335050D01*
X326214Y335583D01*
X326396Y336500D01*
Y338600D01*
X326214Y339517D01*
X325857Y340050D01*
X326214Y340583D01*
X326396Y341500D01*
Y343600D01*
X326214Y344517D01*
X325694Y345294D01*
X324917Y345814D01*
X324000Y345996D01*
X320628D01*
Y355111D01*
X325768Y360250D01*
X334000D01*
Y360922D01*
X348000D01*
X348000Y360922D01*
X349561Y361232D01*
X350884Y362116D01*
X353384Y364616D01*
X353384Y364616D01*
X354268Y365939D01*
X354578Y367500D01*
X354578Y367500D01*
Y371850D01*
X360500D01*
Y391850D01*
X340500D01*
Y371850D01*
X346422D01*
Y369189D01*
X346311Y369078D01*
X334000D01*
Y372250D01*
X320000D01*
Y366018D01*
X313666Y359684D01*
X312782Y358361D01*
X312472Y356800D01*
X312472Y356800D01*
Y345996D01*
X309100D01*
X308354Y345848D01*
X307921Y346003D01*
X307084Y346607D01*
Y347869D01*
X309608Y350392D01*
X310330Y351474D01*
X310584Y352750D01*
Y388250D01*
X310330Y389526D01*
X309608Y390607D01*
X305314Y394901D01*
Y395520D01*
X305250Y395842D01*
Y406250D01*
D02*
G37*
G36*
X27750Y373232D02*
X25270Y372906D01*
X22959Y371948D01*
X20975Y370425D01*
X19452Y368441D01*
X18494Y366130D01*
X18168Y363650D01*
X18494Y361170D01*
X19452Y358859D01*
X20975Y356875D01*
X22959Y355352D01*
X25270Y354394D01*
X27750Y354068D01*
X30230Y354394D01*
X32541Y355352D01*
X34525Y356875D01*
X36048Y358859D01*
X37005Y361170D01*
X37332Y363650D01*
X37005Y366130D01*
X36048Y368441D01*
X34525Y370425D01*
X32541Y371948D01*
X30230Y372906D01*
X27750Y373232D01*
D02*
G37*
G36*
X29020Y348209D02*
Y339520D01*
X37709D01*
X37531Y340871D01*
X36520Y343313D01*
X34911Y345411D01*
X32813Y347020D01*
X30371Y348032D01*
X29020Y348209D01*
D02*
G37*
G36*
X26480D02*
X25129Y348032D01*
X22687Y347020D01*
X20589Y345411D01*
X18980Y343313D01*
X17968Y340871D01*
X17790Y339520D01*
X26480D01*
Y348209D01*
D02*
G37*
G36*
X430000Y565250D02*
X415500D01*
Y529250D01*
X415939D01*
Y509800D01*
X407465D01*
Y477685D01*
X395330Y465550D01*
X394208Y464088D01*
X393503Y462385D01*
X393262Y460558D01*
Y413500D01*
X376750D01*
Y339500D01*
X420750D01*
Y413500D01*
X407383D01*
Y457633D01*
X417450Y467700D01*
X439405D01*
Y509800D01*
X430060D01*
Y547000D01*
X430000Y547458D01*
Y565250D01*
D02*
G37*
G36*
X37709Y336980D02*
X29020D01*
Y328291D01*
X30371Y328468D01*
X32813Y329480D01*
X34911Y331089D01*
X36520Y333187D01*
X37531Y335629D01*
X37709Y336980D01*
D02*
G37*
G36*
X26480D02*
X17790D01*
X17968Y335629D01*
X18980Y333187D01*
X20589Y331089D01*
X22687Y329480D01*
X25129Y328468D01*
X26480Y328291D01*
Y336980D01*
D02*
G37*
G36*
X354000Y348108D02*
X351854Y347681D01*
X350035Y346465D01*
X348819Y344646D01*
X348392Y342500D01*
X348819Y340354D01*
X349710Y339020D01*
X349097Y337750D01*
X348250D01*
Y326750D01*
X361250D01*
Y337750D01*
X358903D01*
X358290Y339020D01*
X359181Y340354D01*
X359608Y342500D01*
X359181Y344646D01*
X357965Y346465D01*
X356146Y347681D01*
X354000Y348108D01*
D02*
G37*
G36*
X339000Y350108D02*
X336854Y349681D01*
X335035Y348465D01*
X333819Y346646D01*
X333392Y344500D01*
X333819Y342354D01*
X335035Y340535D01*
X335666Y340113D01*
Y337750D01*
X331250D01*
Y326750D01*
X344250D01*
Y337750D01*
X342334D01*
Y340113D01*
X342965Y340535D01*
X344181Y342354D01*
X344608Y344500D01*
X344181Y346646D01*
X342965Y348465D01*
X341146Y349681D01*
X339000Y350108D01*
D02*
G37*
G36*
X59230Y313740D02*
X46960D01*
Y309470D01*
X59230D01*
Y313740D01*
D02*
G37*
G36*
X27750Y322432D02*
X25270Y322105D01*
X22959Y321148D01*
X20975Y319625D01*
X19452Y317641D01*
X18494Y315330D01*
X18168Y312850D01*
X18494Y310370D01*
X19452Y308059D01*
X20975Y306075D01*
X22959Y304552D01*
X25270Y303594D01*
X27750Y303268D01*
X30230Y303594D01*
X32541Y304552D01*
X34525Y306075D01*
X36048Y308059D01*
X37005Y310370D01*
X37332Y312850D01*
X37005Y315330D01*
X36048Y317641D01*
X34525Y319625D01*
X32541Y321148D01*
X30230Y322105D01*
X27750Y322432D01*
D02*
G37*
G36*
X59230Y306930D02*
X46960D01*
Y302660D01*
X59230D01*
Y306930D01*
D02*
G37*
G36*
X375540Y291290D02*
X369770D01*
Y286520D01*
X375540D01*
Y291290D01*
D02*
G37*
G36*
X517290Y286040D02*
X511020D01*
Y280770D01*
X517290D01*
Y286040D01*
D02*
G37*
G36*
X508480D02*
X502210D01*
Y280770D01*
X508480D01*
Y286040D01*
D02*
G37*
G36*
X375540Y283980D02*
X369770D01*
Y279210D01*
X375540D01*
Y283980D01*
D02*
G37*
G36*
X27750Y297032D02*
X25270Y296705D01*
X22959Y295748D01*
X20975Y294225D01*
X19452Y292241D01*
X18494Y289930D01*
X18168Y287450D01*
X18494Y284970D01*
X19452Y282659D01*
X20975Y280674D01*
X22959Y279152D01*
X25270Y278195D01*
X27750Y277868D01*
X30230Y278195D01*
X32541Y279152D01*
X32982Y279490D01*
X34116Y278732D01*
X35677Y278422D01*
X35677Y278422D01*
X62750D01*
Y274250D01*
X77750D01*
Y278422D01*
X91250D01*
Y274250D01*
X106250D01*
Y278422D01*
X119750D01*
X119750Y274250D01*
X118601Y273959D01*
X117053D01*
X116715Y274465D01*
X114896Y275681D01*
X112750Y276108D01*
X110604Y275681D01*
X108785Y274465D01*
X107569Y272646D01*
X107142Y270500D01*
X107569Y268354D01*
X108785Y266535D01*
X110604Y265319D01*
X112750Y264892D01*
X114896Y265319D01*
X116715Y266535D01*
X117221Y267291D01*
X119750D01*
Y251250D01*
X134750D01*
Y256166D01*
X136119D01*
X136750Y255535D01*
Y249250D01*
X149750D01*
Y260250D01*
X141465D01*
X139858Y261857D01*
X138776Y262580D01*
X137500Y262834D01*
X134750D01*
Y267291D01*
X136750D01*
Y265250D01*
X149750D01*
Y276250D01*
X136750D01*
Y274788D01*
X136020Y274373D01*
X134750Y275038D01*
Y290750D01*
X119750D01*
Y286578D01*
X106250D01*
Y290750D01*
X91250D01*
Y286578D01*
X77750D01*
Y290750D01*
X62750D01*
Y286578D01*
X38498D01*
X37332Y287450D01*
X37005Y289930D01*
X36048Y292241D01*
X34525Y294225D01*
X32541Y295748D01*
X30230Y296705D01*
X27750Y297032D01*
D02*
G37*
G36*
X517290Y278230D02*
X511020D01*
Y272960D01*
X517290D01*
Y278230D01*
D02*
G37*
G36*
X508480D02*
X502210D01*
Y272960D01*
X508480D01*
Y278230D01*
D02*
G37*
G36*
X423270Y267955D02*
Y259770D01*
X431455D01*
X431295Y260991D01*
X430333Y263311D01*
X428804Y265304D01*
X426811Y266833D01*
X424491Y267794D01*
X423270Y267955D01*
D02*
G37*
G36*
X420730D02*
X419510Y267794D01*
X417189Y266833D01*
X415196Y265304D01*
X413667Y263311D01*
X412706Y260991D01*
X412545Y259770D01*
X420730D01*
Y267955D01*
D02*
G37*
G36*
X77750Y267750D02*
X62750D01*
Y259828D01*
X61480Y259443D01*
X61465Y259465D01*
X59646Y260681D01*
X57500Y261108D01*
X55354Y260681D01*
X53535Y259465D01*
X52319Y257646D01*
X52111Y256600D01*
X46506Y250994D01*
X45511Y249506D01*
X45162Y247750D01*
Y244250D01*
X43250D01*
Y233250D01*
X56250D01*
Y244250D01*
X54338D01*
Y245849D01*
X58600Y250111D01*
X59646Y250319D01*
X61465Y251535D01*
X61480Y251557D01*
X62750Y251250D01*
X62916Y250049D01*
Y244750D01*
X59750D01*
Y233750D01*
X72750D01*
Y244750D01*
X69584D01*
Y251250D01*
X77750D01*
Y267750D01*
D02*
G37*
G36*
X431455Y257230D02*
X423270D01*
Y249045D01*
X424491Y249206D01*
X426811Y250167D01*
X428804Y251696D01*
X430333Y253689D01*
X431295Y256010D01*
X431455Y257230D01*
D02*
G37*
G36*
X420730D02*
X412545D01*
X412706Y256010D01*
X413667Y253689D01*
X415196Y251696D01*
X417189Y250167D01*
X419510Y249206D01*
X420730Y249045D01*
Y257230D01*
D02*
G37*
G36*
X375000Y274750D02*
X362000D01*
Y263750D01*
X364047D01*
Y261500D01*
X362250D01*
Y248500D01*
X363938D01*
X365172Y248312D01*
X365359Y247368D01*
X365143Y246149D01*
X364764Y245540D01*
X364410Y245540D01*
X364410Y245540D01*
X364346Y245540D01*
X360020D01*
Y239270D01*
X365290D01*
Y243860D01*
X366524Y244497D01*
X366560Y244498D01*
X366645Y244435D01*
X366930Y244063D01*
X367319Y242104D01*
X368535Y240285D01*
X370354Y239069D01*
X372500Y238642D01*
X374646Y239069D01*
X376465Y240285D01*
X377681Y242104D01*
X378108Y244250D01*
X377681Y246396D01*
X376465Y248215D01*
X374646Y249431D01*
X373713Y249616D01*
X373328Y250001D01*
Y253500D01*
X373328Y253500D01*
X373250Y253894D01*
Y261500D01*
X372203D01*
Y263750D01*
X375000D01*
Y274750D01*
D02*
G37*
G36*
X37750Y259750D02*
X17750D01*
Y239750D01*
X37750D01*
Y259750D01*
D02*
G37*
G36*
X357480Y245540D02*
X352210D01*
Y239270D01*
X357480D01*
Y245540D01*
D02*
G37*
G36*
X106250Y267750D02*
X91250D01*
Y255592D01*
X91186Y255270D01*
Y253401D01*
X82785Y245000D01*
X74500D01*
Y234000D01*
X87500D01*
Y240285D01*
X96877Y249662D01*
X97600Y250744D01*
X97701Y251250D01*
X103590D01*
X104396Y250268D01*
X104392Y250250D01*
X104819Y248104D01*
X105588Y246953D01*
X105750Y245750D01*
X105750Y245750D01*
X105750Y245750D01*
Y234750D01*
X118750D01*
Y245750D01*
X115584D01*
Y246793D01*
X115330Y248069D01*
X115210Y248249D01*
X115608Y250250D01*
X115181Y252396D01*
X113965Y254215D01*
X112146Y255431D01*
X110000Y255858D01*
X107854Y255431D01*
X107370Y255107D01*
X106250Y255706D01*
Y267750D01*
D02*
G37*
G36*
X365290Y236730D02*
X360020D01*
Y230460D01*
X365290D01*
Y236730D01*
D02*
G37*
G36*
X357480D02*
X352210D01*
Y230460D01*
X357480D01*
Y236730D01*
D02*
G37*
G36*
X130480Y224540D02*
X124210D01*
Y219270D01*
X130480D01*
Y224540D01*
D02*
G37*
G36*
X27750Y234436D02*
X25140Y234093D01*
X22707Y233085D01*
X20618Y231482D01*
X19015Y229393D01*
X18007Y226961D01*
X17664Y224350D01*
X18007Y221740D01*
X19015Y219307D01*
X20618Y217218D01*
X22707Y215615D01*
X25140Y214607D01*
X27750Y214264D01*
X30361Y214607D01*
X32793Y215615D01*
X34882Y217218D01*
X36220Y218962D01*
X43250D01*
Y217250D01*
X56250D01*
Y228250D01*
X43250D01*
Y228138D01*
X37005D01*
X36485Y229393D01*
X34882Y231482D01*
X32793Y233085D01*
X30361Y234093D01*
X27750Y234436D01*
D02*
G37*
G36*
X72750Y228750D02*
X59750D01*
Y217750D01*
X60626D01*
X61112Y216577D01*
X58245Y213710D01*
X57500Y213858D01*
X55354Y213431D01*
X53535Y212215D01*
X52319Y210396D01*
X51892Y208250D01*
X52319Y206104D01*
X53535Y204285D01*
X55354Y203069D01*
X57500Y202642D01*
X59646Y203069D01*
X61465Y204285D01*
X62681Y206104D01*
X63108Y208250D01*
X62960Y208995D01*
X68608Y214643D01*
X69330Y215724D01*
X69584Y217000D01*
Y217750D01*
X72750D01*
Y228750D01*
D02*
G37*
G36*
X139290Y216730D02*
X133020D01*
Y211460D01*
X139290D01*
Y216730D01*
D02*
G37*
G36*
X130480D02*
X124210D01*
Y211460D01*
X130480D01*
Y216730D01*
D02*
G37*
G36*
X87500Y229000D02*
X74500D01*
Y218000D01*
X77666D01*
Y212488D01*
X74066Y208888D01*
X73322Y209036D01*
X71176Y208609D01*
X69356Y207394D01*
X68141Y205574D01*
X67714Y203428D01*
X68141Y201282D01*
X69356Y199463D01*
X71176Y198247D01*
X73322Y197821D01*
X75468Y198247D01*
X77287Y199463D01*
X78502Y201282D01*
X78929Y203428D01*
X78781Y204173D01*
X83357Y208749D01*
X84080Y209831D01*
X84334Y211107D01*
Y218000D01*
X87500D01*
Y229000D01*
D02*
G37*
G36*
X354040Y210540D02*
X348770D01*
Y204270D01*
X354040D01*
Y210540D01*
D02*
G37*
G36*
X346230D02*
X340960D01*
Y204270D01*
X346230D01*
Y210540D01*
D02*
G37*
G36*
X104790Y207540D02*
X100020D01*
Y201770D01*
X104790D01*
Y207540D01*
D02*
G37*
G36*
X97480D02*
X92710D01*
Y201770D01*
X97480D01*
Y207540D01*
D02*
G37*
G36*
X493500Y222608D02*
X491354Y222181D01*
X489535Y220965D01*
X488319Y219146D01*
X487892Y217000D01*
X488319Y214854D01*
X489535Y213035D01*
X491354Y211819D01*
X493500Y211392D01*
X495646Y211819D01*
X497465Y213035D01*
X497730Y213431D01*
X500932D01*
X501116Y213415D01*
X501250Y213393D01*
Y200500D01*
X514250D01*
Y211500D01*
Y222500D01*
X501250D01*
Y220607D01*
X501116Y220585D01*
X500932Y220569D01*
X497730D01*
X497465Y220965D01*
X495646Y222181D01*
X493500Y222608D01*
D02*
G37*
G36*
X29020Y209414D02*
Y200220D01*
X38214D01*
X38019Y201702D01*
X36957Y204265D01*
X35267Y206467D01*
X33066Y208157D01*
X30501Y209219D01*
X29020Y209414D01*
D02*
G37*
G36*
X26480D02*
X24999Y209219D01*
X22434Y208157D01*
X20233Y206467D01*
X18543Y204265D01*
X17481Y201702D01*
X17286Y200220D01*
X26480D01*
Y209414D01*
D02*
G37*
G36*
X354040Y201730D02*
X348770D01*
Y195460D01*
X354040D01*
Y201730D01*
D02*
G37*
G36*
X346230D02*
X340960D01*
Y195460D01*
X346230D01*
Y201730D01*
D02*
G37*
G36*
X514790Y196040D02*
X509020D01*
Y191270D01*
X514790D01*
Y196040D01*
D02*
G37*
G36*
X506480D02*
X500710D01*
Y191270D01*
X506480D01*
Y196040D01*
D02*
G37*
G36*
X414500Y198750D02*
X398500D01*
Y188750D01*
X414500D01*
Y198750D01*
D02*
G37*
G36*
X38214Y197680D02*
X29020D01*
Y188486D01*
X30501Y188681D01*
X33066Y189743D01*
X35267Y191433D01*
X36957Y193634D01*
X38019Y196199D01*
X38214Y197680D01*
D02*
G37*
G36*
X26480D02*
X17286D01*
X17481Y196199D01*
X18543Y193634D01*
X20233Y191433D01*
X22434Y189743D01*
X24999Y188681D01*
X26480Y188486D01*
Y197680D01*
D02*
G37*
G36*
X104790Y199230D02*
X98750D01*
X92710D01*
Y194040D01*
X90210D01*
Y187270D01*
X103290D01*
Y193460D01*
X104790D01*
Y199230D01*
D02*
G37*
G36*
X514790Y188730D02*
X509020D01*
Y183960D01*
X514790D01*
Y188730D01*
D02*
G37*
G36*
X506480D02*
X500710D01*
Y183960D01*
X506480D01*
Y188730D01*
D02*
G37*
G36*
X158540Y186290D02*
X152770D01*
Y181520D01*
X158540D01*
Y186290D01*
D02*
G37*
G36*
X150230D02*
X144460D01*
Y181520D01*
X150230D01*
Y186290D01*
D02*
G37*
G36*
X384790Y184290D02*
X378520D01*
Y179020D01*
X384790D01*
Y184290D01*
D02*
G37*
G36*
X375980D02*
X369710D01*
Y179020D01*
X375980D01*
Y184290D01*
D02*
G37*
G36*
X118750Y229750D02*
X105750D01*
Y218750D01*
X108916D01*
Y212750D01*
X109170Y211474D01*
X109893Y210392D01*
X111416Y208869D01*
Y207000D01*
X109250D01*
Y194000D01*
X109250D01*
X109750Y193500D01*
Y178500D01*
X121750D01*
Y193500D01*
X121313D01*
X120250Y194000D01*
Y207000D01*
X118084D01*
Y210250D01*
X117830Y211526D01*
X117107Y212607D01*
X115584Y214131D01*
Y218750D01*
X118750D01*
Y229750D01*
D02*
G37*
G36*
X103290Y184730D02*
X98020D01*
Y177960D01*
X103290D01*
Y184730D01*
D02*
G37*
G36*
X95480D02*
X90210D01*
Y177960D01*
X95480D01*
Y184730D01*
D02*
G37*
G36*
X158540Y178980D02*
X152770D01*
Y174210D01*
X158540D01*
Y178980D01*
D02*
G37*
G36*
X150230D02*
X144460D01*
Y174210D01*
X150230D01*
Y178980D01*
D02*
G37*
G36*
X353040Y177540D02*
X348270D01*
Y171770D01*
X353040D01*
Y177540D01*
D02*
G37*
G36*
X384790Y176480D02*
X378520D01*
Y171210D01*
X384790D01*
Y176480D01*
D02*
G37*
G36*
X375980D02*
X369710D01*
Y171210D01*
X375980D01*
Y176480D01*
D02*
G37*
G36*
X168730Y172040D02*
X160960D01*
Y165270D01*
X168730D01*
Y172040D01*
D02*
G37*
G36*
X158290Y169290D02*
X152520D01*
Y164520D01*
X158290D01*
Y169290D01*
D02*
G37*
G36*
X149980D02*
X144210D01*
Y164520D01*
X149980D01*
Y169290D01*
D02*
G37*
G36*
X353040Y169230D02*
X348270D01*
Y163460D01*
X353040D01*
Y169230D01*
D02*
G37*
G36*
X345730D02*
X340960D01*
Y163460D01*
X345730D01*
Y169230D01*
D02*
G37*
G36*
X158290Y161980D02*
X152520D01*
Y157210D01*
X158290D01*
Y161980D01*
D02*
G37*
G36*
X149980D02*
X144210D01*
Y157210D01*
X149980D01*
Y161980D01*
D02*
G37*
G36*
X47250Y172358D02*
X45104Y171931D01*
X43285Y170715D01*
X42069Y168896D01*
X41642Y166750D01*
X41750Y166206D01*
X41366Y165822D01*
X40482Y164499D01*
X40172Y162938D01*
X40172Y162938D01*
Y158500D01*
X37750D01*
Y157078D01*
X35000D01*
Y158500D01*
X22000D01*
Y147500D01*
X35000D01*
Y148922D01*
X37750D01*
Y147500D01*
X50750D01*
Y158500D01*
X48328D01*
Y161249D01*
X48463Y161384D01*
X49396Y161569D01*
X51215Y162785D01*
X52431Y164604D01*
X52858Y166750D01*
X52431Y168896D01*
X51215Y170715D01*
X49396Y171931D01*
X47250Y172358D01*
D02*
G37*
G36*
X168730Y162730D02*
X160960D01*
Y155960D01*
X168730D01*
Y162730D01*
D02*
G37*
G36*
X414250Y164500D02*
X398250D01*
Y154500D01*
X414250D01*
Y164500D01*
D02*
G37*
G36*
X255790Y157040D02*
X249520D01*
Y151770D01*
X255790D01*
Y157040D01*
D02*
G37*
G36*
X246980D02*
X240710D01*
Y151770D01*
X246980D01*
Y157040D01*
D02*
G37*
G36*
X266730Y157040D02*
X260460D01*
Y151770D01*
X266730D01*
Y157040D01*
D02*
G37*
G36*
X235540Y157040D02*
X229270D01*
Y151770D01*
X235540D01*
Y157040D01*
D02*
G37*
G36*
X226730D02*
X220460D01*
Y151770D01*
X226730D01*
Y157040D01*
D02*
G37*
G36*
X218540Y152790D02*
X212770D01*
Y148020D01*
X218540D01*
Y152790D01*
D02*
G37*
G36*
X210230D02*
X204460D01*
Y148020D01*
X210230D01*
Y152790D01*
D02*
G37*
G36*
X202040Y154040D02*
X194270D01*
Y147270D01*
X202040D01*
Y154040D01*
D02*
G37*
G36*
X255790Y149230D02*
X249520D01*
Y143960D01*
X255790D01*
Y149230D01*
D02*
G37*
G36*
X246980D02*
X240710D01*
Y143960D01*
X246980D01*
Y149230D01*
D02*
G37*
G36*
X266730Y149230D02*
X260460D01*
Y143960D01*
X266730D01*
Y149230D01*
D02*
G37*
G36*
X235540Y149230D02*
X229270D01*
Y143960D01*
X235540D01*
Y149230D01*
D02*
G37*
G36*
X226730D02*
X220460D01*
Y143960D01*
X226730D01*
Y149230D01*
D02*
G37*
G36*
X218540Y145480D02*
X212770D01*
Y140710D01*
X218540D01*
Y145480D01*
D02*
G37*
G36*
X210230D02*
X204460D01*
Y140710D01*
X210230D01*
Y145480D01*
D02*
G37*
G36*
X321790Y143290D02*
X316020D01*
Y138520D01*
X321790D01*
Y143290D01*
D02*
G37*
G36*
X51290Y143040D02*
X45520D01*
Y138270D01*
X51290D01*
Y143040D01*
D02*
G37*
G36*
X42980D02*
X37210D01*
Y138270D01*
X42980D01*
Y143040D01*
D02*
G37*
G36*
X202040Y144730D02*
X194270D01*
Y137960D01*
X202040D01*
Y144730D01*
D02*
G37*
G36*
X191730D02*
X183960D01*
Y137960D01*
X191730D01*
Y144730D01*
D02*
G37*
G36*
X313480Y143290D02*
X307710D01*
Y136967D01*
X306537Y136481D01*
X305500Y137518D01*
Y142750D01*
X292500D01*
Y131750D01*
X299732D01*
X311491Y119991D01*
X312814Y119107D01*
X314375Y118797D01*
X341186D01*
X381216Y78766D01*
X381216Y78766D01*
X382539Y77882D01*
X384100Y77572D01*
X391615D01*
X392015Y76607D01*
X393618Y74518D01*
X395707Y72915D01*
X398139Y71907D01*
X400750Y71564D01*
X403360Y71907D01*
X405793Y72915D01*
X407882Y74518D01*
X409485Y76607D01*
X410493Y79040D01*
X410836Y81650D01*
X410493Y84261D01*
X409485Y86693D01*
X407882Y88782D01*
X405793Y90385D01*
X403360Y91393D01*
X400750Y91736D01*
X398139Y91393D01*
X395707Y90385D01*
X393618Y88782D01*
X392015Y86693D01*
X391615Y85728D01*
X385789D01*
X345759Y125759D01*
X344436Y126643D01*
X342875Y126953D01*
X342875Y126953D01*
X316064D01*
X312981Y130037D01*
X313467Y131210D01*
X313480D01*
Y137250D01*
Y143290D01*
D02*
G37*
G36*
X71000Y195250D02*
X58000D01*
Y184250D01*
X66285D01*
X70015Y180520D01*
X69489Y179250D01*
X58000D01*
Y168250D01*
X66285D01*
X67692Y166843D01*
X67206Y165670D01*
X58665D01*
Y154050D01*
X63796D01*
X69941Y147906D01*
X71429Y146911D01*
X73185Y146562D01*
X74949D01*
X77528Y143983D01*
X77042Y142810D01*
X68190D01*
Y131190D01*
X69922D01*
Y122000D01*
X69922Y122000D01*
X70232Y120439D01*
X71116Y119116D01*
X80116Y110116D01*
X80116Y110116D01*
X81439Y109232D01*
X83000Y108922D01*
X83000Y108922D01*
X143398D01*
X145415Y106904D01*
X144123Y103785D01*
X143625Y100000D01*
X144123Y96215D01*
X145584Y92687D01*
X147908Y89658D01*
X150937Y87334D01*
X154465Y85873D01*
X158250Y85375D01*
X162035Y85873D01*
X165563Y87334D01*
X168591Y89658D01*
X170916Y92687D01*
X172377Y96215D01*
X172875Y100000D01*
X172377Y103785D01*
X170916Y107313D01*
X168591Y110342D01*
X165563Y112666D01*
X162035Y114127D01*
X158250Y114625D01*
X154465Y114127D01*
X151115Y112739D01*
X147971Y115884D01*
X146648Y116768D01*
X145087Y117078D01*
X145087Y117078D01*
X84689D01*
X78078Y123689D01*
Y131190D01*
X79810D01*
Y140042D01*
X80518Y140335D01*
X81080Y140456D01*
X82494Y139511D01*
X84250Y139162D01*
X90000D01*
Y136250D01*
X91037D01*
Y128596D01*
X90569Y127896D01*
X90142Y125750D01*
X90569Y123604D01*
X91785Y121785D01*
X93604Y120569D01*
X95750Y120142D01*
X97896Y120569D01*
X99715Y121785D01*
X100931Y123604D01*
X101358Y125750D01*
X100931Y127896D01*
X100213Y128970D01*
Y136250D01*
X101000D01*
Y148916D01*
X106000D01*
Y147364D01*
X105995Y147346D01*
X106000Y147310D01*
Y147276D01*
X105991Y147234D01*
X106000Y147189D01*
Y136250D01*
X117000D01*
Y149250D01*
X113024D01*
Y151060D01*
X112770Y152336D01*
X112048Y153418D01*
X110857Y154607D01*
X110674Y154730D01*
X111060Y156000D01*
X112250D01*
Y171000D01*
X100250D01*
Y166834D01*
X98131D01*
X87607Y177358D01*
X86526Y178080D01*
X85250Y178334D01*
X81631D01*
X71000Y188965D01*
Y195250D01*
D02*
G37*
G36*
X390000Y146750D02*
X377000D01*
Y141518D01*
X371825Y136343D01*
X371750Y136358D01*
X369604Y135931D01*
X367785Y134715D01*
X366569Y132896D01*
X366142Y130750D01*
X366569Y128604D01*
X367785Y126785D01*
X369604Y125569D01*
X371750Y125142D01*
X373896Y125569D01*
X375715Y126785D01*
X376931Y128604D01*
X377256Y130239D01*
X382767Y135750D01*
X390000D01*
Y136797D01*
X398250D01*
Y135500D01*
X414250D01*
Y145500D01*
X398250D01*
Y144954D01*
X390000D01*
Y146750D01*
D02*
G37*
G36*
X499040Y137790D02*
X492270D01*
Y132520D01*
X499040D01*
Y137790D01*
D02*
G37*
G36*
X489730D02*
X482960D01*
Y132520D01*
X489730D01*
Y137790D01*
D02*
G37*
G36*
X321790Y135980D02*
X316020D01*
Y131210D01*
X321790D01*
Y135980D01*
D02*
G37*
G36*
X51290Y135730D02*
X45520D01*
Y130960D01*
X51290D01*
Y135730D01*
D02*
G37*
G36*
X42980D02*
X37210D01*
Y130960D01*
X42980D01*
Y135730D01*
D02*
G37*
G36*
X499040Y129980D02*
X492270D01*
Y124710D01*
X499040D01*
Y129980D01*
D02*
G37*
G36*
X489730D02*
X482960D01*
Y124710D01*
X489730D01*
Y129980D01*
D02*
G37*
G36*
X500750Y151608D02*
X498604Y151181D01*
X496785Y149965D01*
X495569Y148146D01*
X495142Y146000D01*
X495569Y143854D01*
X496785Y142035D01*
X498604Y140819D01*
X500750Y140392D01*
X501495Y140540D01*
X505265Y136770D01*
X504739Y135500D01*
X502500D01*
Y124500D01*
X515500D01*
Y135500D01*
X512334D01*
Y137750D01*
X512080Y139026D01*
X511357Y140107D01*
X506210Y145255D01*
X506358Y146000D01*
X505931Y148146D01*
X504715Y149965D01*
X502896Y151181D01*
X500750Y151608D01*
D02*
G37*
G36*
X515500Y119500D02*
X502500D01*
Y117334D01*
X498500D01*
Y118250D01*
X496525D01*
X496483Y118259D01*
X496437Y118250D01*
X483500D01*
Y106250D01*
X487416D01*
Y102250D01*
X485250D01*
Y89250D01*
X496250D01*
Y102250D01*
X494084D01*
Y106250D01*
X498500D01*
Y110666D01*
X502500D01*
Y108500D01*
X515500D01*
Y119500D01*
D02*
G37*
G36*
X476020Y102790D02*
Y97020D01*
X480790D01*
Y102790D01*
X476020D01*
D02*
G37*
G36*
X480790Y94480D02*
X476020D01*
Y88710D01*
X480790D01*
Y94480D01*
D02*
G37*
G36*
X329000Y114625D02*
X325215Y114127D01*
X321687Y112666D01*
X318659Y110342D01*
X316334Y107313D01*
X314873Y103785D01*
X314375Y100000D01*
X314873Y96215D01*
X316334Y92687D01*
X318659Y89658D01*
X321687Y87334D01*
X325215Y85873D01*
X329000Y85375D01*
X332785Y85873D01*
X336313Y87334D01*
X339342Y89658D01*
X341666Y92687D01*
X343127Y96215D01*
X343625Y100000D01*
X343127Y103785D01*
X341666Y107313D01*
X339342Y110342D01*
X336313Y112666D01*
X332785Y114127D01*
X329000Y114625D01*
D02*
G37*
G36*
X208250D02*
X204465Y114127D01*
X200937Y112666D01*
X197908Y110342D01*
X195584Y107313D01*
X194123Y103785D01*
X193625Y100000D01*
X194123Y96215D01*
X195584Y92687D01*
X197908Y89658D01*
X200937Y87334D01*
X204465Y85873D01*
X208250Y85375D01*
X212035Y85873D01*
X215563Y87334D01*
X218591Y89658D01*
X220916Y92687D01*
X222377Y96215D01*
X222875Y100000D01*
X222377Y103785D01*
X220916Y107313D01*
X218591Y110342D01*
X215563Y112666D01*
X212035Y114127D01*
X208250Y114625D01*
D02*
G37*
G36*
X363250Y76578D02*
X363250Y76578D01*
X326500D01*
X326500Y76578D01*
X324939Y76268D01*
X323616Y75384D01*
X323616Y75384D01*
X311019Y62787D01*
X307785Y64127D01*
X304000Y64625D01*
X300215Y64127D01*
X296687Y62666D01*
X293659Y60342D01*
X291334Y57313D01*
X289873Y53785D01*
X289375Y50000D01*
X289873Y46215D01*
X291334Y42687D01*
X293659Y39659D01*
X296687Y37334D01*
X300215Y35873D01*
X304000Y35375D01*
X307785Y35873D01*
X311313Y37334D01*
X314342Y39659D01*
X316666Y42687D01*
X318127Y46215D01*
X318625Y50000D01*
X318127Y53785D01*
X316787Y57019D01*
X328189Y68422D01*
X361561D01*
X374366Y55616D01*
X374366Y55616D01*
X375689Y54732D01*
X377250Y54422D01*
X377250Y54422D01*
X390905D01*
X391007Y53639D01*
X392015Y51207D01*
X393618Y49118D01*
X395707Y47515D01*
X398139Y46507D01*
X400750Y46164D01*
X403360Y46507D01*
X405793Y47515D01*
X407882Y49118D01*
X409485Y51207D01*
X410493Y53639D01*
X410836Y56250D01*
X410493Y58861D01*
X409485Y61293D01*
X407882Y63382D01*
X405793Y64985D01*
X403360Y65993D01*
X400750Y66336D01*
X398139Y65993D01*
X395707Y64985D01*
X393618Y63382D01*
X393001Y62578D01*
X378939D01*
X366134Y75384D01*
X364811Y76268D01*
X364552Y76319D01*
X363250Y76578D01*
D02*
G37*
G36*
X35000Y142500D02*
X22000D01*
Y131500D01*
X24422D01*
Y110250D01*
X24422Y110250D01*
X24732Y108689D01*
X25616Y107366D01*
X54216Y78766D01*
X54216Y78766D01*
X55539Y77882D01*
X57100Y77572D01*
X84865D01*
X85265Y76607D01*
X86868Y74518D01*
X88957Y72915D01*
X91390Y71907D01*
X94000Y71564D01*
X96610Y71907D01*
X99043Y72915D01*
X101132Y74518D01*
X102735Y76607D01*
X103743Y79040D01*
X104086Y81650D01*
X103743Y84261D01*
X102735Y86693D01*
X101132Y88782D01*
X99043Y90385D01*
X96610Y91393D01*
X94000Y91736D01*
X91390Y91393D01*
X88957Y90385D01*
X86868Y88782D01*
X85265Y86693D01*
X84865Y85728D01*
X58789D01*
X32578Y111939D01*
Y131500D01*
X35000D01*
Y142500D01*
D02*
G37*
G36*
X355270Y64988D02*
Y51270D01*
X368988D01*
X368822Y52948D01*
X367962Y55783D01*
X366566Y58396D01*
X364686Y60686D01*
X362396Y62566D01*
X359783Y63962D01*
X356948Y64822D01*
X355270Y64988D01*
D02*
G37*
G36*
X352730D02*
X351052Y64822D01*
X348217Y63962D01*
X345604Y62566D01*
X343314Y60686D01*
X341434Y58396D01*
X340038Y55783D01*
X339178Y52948D01*
X339012Y51270D01*
X352730D01*
Y64988D01*
D02*
G37*
G36*
X234520D02*
Y51270D01*
X248238D01*
X248072Y52948D01*
X247212Y55783D01*
X245816Y58396D01*
X243936Y60686D01*
X241646Y62566D01*
X239033Y63962D01*
X236198Y64822D01*
X234520Y64988D01*
D02*
G37*
G36*
X231980D02*
X230302Y64822D01*
X227467Y63962D01*
X224854Y62566D01*
X222564Y60686D01*
X220684Y58396D01*
X219288Y55783D01*
X218428Y52948D01*
X218262Y51270D01*
X231980D01*
Y64988D01*
D02*
G37*
G36*
X488020Y63536D02*
Y39770D01*
X511786D01*
X511428Y43409D01*
X509996Y48129D01*
X507671Y52479D01*
X504542Y56292D01*
X500729Y59421D01*
X496379Y61746D01*
X491659Y63178D01*
X488020Y63536D01*
D02*
G37*
G36*
X485480D02*
X481841Y63178D01*
X477121Y61746D01*
X472771Y59421D01*
X468958Y56292D01*
X465829Y52479D01*
X463504Y48129D01*
X462072Y43409D01*
X461714Y39770D01*
X485480D01*
Y63536D01*
D02*
G37*
G36*
X41520Y61536D02*
Y37770D01*
X65286D01*
X64928Y41409D01*
X63496Y46129D01*
X61171Y50479D01*
X58042Y54292D01*
X54229Y57421D01*
X49879Y59746D01*
X45159Y61178D01*
X41520Y61536D01*
D02*
G37*
G36*
X38980D02*
X35341Y61178D01*
X30621Y59746D01*
X26271Y57421D01*
X22458Y54292D01*
X19329Y50479D01*
X17004Y46129D01*
X15572Y41409D01*
X15214Y37770D01*
X38980D01*
Y61536D01*
D02*
G37*
G36*
X368988Y48730D02*
X355270D01*
Y35012D01*
X356948Y35178D01*
X359783Y36038D01*
X362396Y37434D01*
X364686Y39314D01*
X366566Y41604D01*
X367962Y44217D01*
X368822Y47052D01*
X368988Y48730D01*
D02*
G37*
G36*
X352730D02*
X339012D01*
X339178Y47052D01*
X340038Y44217D01*
X341434Y41604D01*
X343314Y39314D01*
X345604Y37434D01*
X348217Y36038D01*
X351052Y35178D01*
X352730Y35012D01*
Y48730D01*
D02*
G37*
G36*
X410750Y40850D02*
X390750D01*
Y20850D01*
X410750D01*
Y40850D01*
D02*
G37*
G36*
X511786Y37230D02*
X488020D01*
Y13464D01*
X491659Y13822D01*
X496379Y15254D01*
X500729Y17579D01*
X504542Y20708D01*
X507671Y24521D01*
X509996Y28871D01*
X511428Y33591D01*
X511786Y37230D01*
D02*
G37*
G36*
X485480D02*
X461714D01*
X462072Y33591D01*
X463504Y28871D01*
X465829Y24521D01*
X468958Y20708D01*
X472771Y17579D01*
X477121Y15254D01*
X481841Y13822D01*
X485480Y13464D01*
Y37230D01*
D02*
G37*
G36*
X65286Y35230D02*
X41520D01*
Y11464D01*
X45159Y11822D01*
X49879Y13254D01*
X54229Y15579D01*
X58042Y18708D01*
X61171Y22521D01*
X63496Y26871D01*
X64928Y31591D01*
X65286Y35230D01*
D02*
G37*
G36*
X38980D02*
X15214D01*
X15572Y31591D01*
X17004Y26871D01*
X19329Y22521D01*
X22458Y18708D01*
X26271Y15579D01*
X30621Y13254D01*
X35341Y11822D01*
X38980Y11464D01*
Y35230D01*
D02*
G37*
%LPD*%
G36*
X283311Y558460D02*
X283285Y558701D01*
X283208Y558917D01*
X283079Y559108D01*
X282899Y559273D01*
X282668Y559412D01*
X282385Y559527D01*
X282051Y559616D01*
X281666Y559679D01*
X281229Y559717D01*
X280740Y559730D01*
Y562270D01*
X281229Y562282D01*
X281666Y562321D01*
X282051Y562384D01*
X282385Y562473D01*
X282668Y562587D01*
X282899Y562727D01*
X283079Y562892D01*
X283208Y563083D01*
X283285Y563298D01*
X283311Y563540D01*
Y558460D01*
D02*
G37*
G36*
X243531Y538281D02*
X243480Y538465D01*
X243330Y538630D01*
X243081Y538775D01*
X242731Y538901D01*
X242281Y539008D01*
X241730Y539095D01*
X241080Y539163D01*
X240503Y539191D01*
X239019Y539095D01*
X238469Y539008D01*
X238019Y538901D01*
X237669Y538775D01*
X237419Y538630D01*
X237269Y538465D01*
X237219Y538281D01*
Y545220D01*
X237269Y545036D01*
X237419Y544871D01*
X237669Y544725D01*
X238019Y544599D01*
X238469Y544493D01*
X239019Y544405D01*
X239669Y544337D01*
X240247Y544310D01*
X241730Y544405D01*
X242281Y544493D01*
X242731Y544599D01*
X243081Y544725D01*
X243330Y544871D01*
X243480Y545036D01*
X243531Y545220D01*
Y538281D01*
D02*
G37*
G36*
X228280D02*
X228230Y538465D01*
X228080Y538630D01*
X227830Y538775D01*
X227480Y538901D01*
X227030Y539008D01*
X226480Y539095D01*
X225830Y539163D01*
X225253Y539191D01*
X223770Y539095D01*
X223220Y539008D01*
X222770Y538901D01*
X222420Y538775D01*
X222170Y538630D01*
X222020Y538465D01*
X221970Y538281D01*
Y545220D01*
X222020Y545036D01*
X222170Y544871D01*
X222420Y544725D01*
X222770Y544599D01*
X223220Y544493D01*
X223770Y544405D01*
X224420Y544337D01*
X224997Y544310D01*
X226480Y544405D01*
X227030Y544493D01*
X227480Y544599D01*
X227830Y544725D01*
X228080Y544871D01*
X228230Y545036D01*
X228280Y545220D01*
Y538281D01*
D02*
G37*
G36*
X392732Y576590D02*
X382125Y580125D01*
X385661Y583661D01*
X392732Y576590D01*
D02*
G37*
G36*
X447150Y521529D02*
X447271Y521486D01*
X447426Y521448D01*
X447615Y521415D01*
X448097Y521364D01*
X448716Y521334D01*
X449472Y521324D01*
X450296Y517324D01*
X449908Y517318D01*
X449228Y517272D01*
X448937Y517231D01*
X448678Y517179D01*
X448451Y517115D01*
X448257Y517039D01*
X448095Y516952D01*
X447965Y516853D01*
X447868Y516743D01*
X447064Y521577D01*
X447150Y521529D01*
D02*
G37*
G36*
X219375Y518131D02*
X219379Y517740D01*
X219441Y516758D01*
X219478Y516495D01*
X219523Y516264D01*
X219577Y516065D01*
X219639Y515898D01*
X219709Y515763D01*
X219787Y515660D01*
X214891Y515835D01*
X214983Y515939D01*
X215065Y516075D01*
X215138Y516243D01*
X215200Y516442D01*
X215254Y516674D01*
X215297Y516936D01*
X215355Y517557D01*
X215370Y517915D01*
X215375Y518305D01*
X219375Y518131D01*
D02*
G37*
G36*
X249875Y517631D02*
X249879Y517240D01*
X249941Y516259D01*
X249978Y515995D01*
X250024Y515764D01*
X250077Y515565D01*
X250139Y515398D01*
X250209Y515263D01*
X250288Y515160D01*
X245391Y515335D01*
X245483Y515440D01*
X245565Y515576D01*
X245638Y515743D01*
X245701Y515943D01*
X245754Y516174D01*
X245798Y516437D01*
X245856Y517058D01*
X245870Y517416D01*
X245875Y517805D01*
X249875Y517631D01*
D02*
G37*
G36*
X234625D02*
X234629Y517240D01*
X234691Y516259D01*
X234728Y515995D01*
X234774Y515764D01*
X234827Y515565D01*
X234889Y515398D01*
X234959Y515263D01*
X235038Y515160D01*
X230141Y515335D01*
X230233Y515440D01*
X230315Y515576D01*
X230388Y515743D01*
X230451Y515943D01*
X230504Y516174D01*
X230547Y516437D01*
X230606Y517058D01*
X230620Y517416D01*
X230625Y517805D01*
X234625Y517631D01*
D02*
G37*
G36*
X168552Y514831D02*
X168488Y514698D01*
X168433Y514533D01*
X168384Y514336D01*
X168343Y514105D01*
X168284Y513548D01*
X168254Y512861D01*
X168250Y512469D01*
X164250Y512119D01*
X164245Y512508D01*
X164168Y513485D01*
X164121Y513747D01*
X164065Y513978D01*
X163998Y514176D01*
X163920Y514343D01*
X163833Y514478D01*
X163735Y514582D01*
X168622Y514932D01*
X168552Y514831D01*
D02*
G37*
G36*
X126363Y452925D02*
X126434Y452741D01*
X126554Y452578D01*
X126720Y452438D01*
X126935Y452318D01*
X127197Y452221D01*
X127507Y452145D01*
X127864Y452091D01*
X128269Y452059D01*
X128722Y452048D01*
Y449508D01*
X128269Y449497D01*
X127864Y449464D01*
X127507Y449410D01*
X127197Y449334D01*
X126935Y449237D01*
X126720Y449118D01*
X126554Y448977D01*
X126434Y448815D01*
X126363Y448631D01*
X126339Y448425D01*
Y453130D01*
X126363Y452925D01*
D02*
G37*
G36*
X124124Y443842D02*
X124029Y443786D01*
X123945Y443693D01*
X123872Y443563D01*
X123810Y443396D01*
X123760Y443191D01*
X123721Y442949D01*
X123693Y442670D01*
X123670Y442000D01*
X121130D01*
X121124Y442354D01*
X121080Y442949D01*
X121040Y443191D01*
X120990Y443396D01*
X120928Y443563D01*
X120856Y443693D01*
X120771Y443786D01*
X120676Y443842D01*
X120570Y443861D01*
X124230D01*
X124124Y443842D01*
D02*
G37*
G36*
X123683Y439827D02*
X123721Y439395D01*
X123784Y439014D01*
X123873Y438684D01*
X123988Y438405D01*
X124127Y438176D01*
X124292Y437998D01*
X124483Y437871D01*
X124699Y437795D01*
X124940Y437770D01*
X119860D01*
X120101Y437795D01*
X120317Y437871D01*
X120508Y437998D01*
X120673Y438176D01*
X120813Y438405D01*
X120927Y438684D01*
X121016Y439014D01*
X121079Y439395D01*
X121117Y439827D01*
X121130Y440309D01*
X123670D01*
X123683Y439827D01*
D02*
G37*
G36*
X114888Y558870D02*
X114857Y559044D01*
X114794Y559199D01*
X114701Y559336D01*
X114578Y559455D01*
X114424Y559555D01*
X114239Y559637D01*
X114024Y559701D01*
X113778Y559747D01*
X113502Y559774D01*
X113195Y559783D01*
Y562283D01*
X113614Y562291D01*
X114348Y562352D01*
X114663Y562406D01*
X114944Y562475D01*
X115190Y562559D01*
X115401Y562659D01*
X115578Y562773D01*
X115720Y562904D01*
X115828Y563049D01*
X114888Y558870D01*
D02*
G37*
G36*
X265250Y517531D02*
X265254Y517138D01*
X265343Y515894D01*
X265384Y515664D01*
X265432Y515466D01*
X265488Y515301D01*
X265552Y515168D01*
X265622Y515068D01*
X260735Y515418D01*
X260833Y515522D01*
X260920Y515657D01*
X260998Y515824D01*
X261065Y516022D01*
X261121Y516253D01*
X261168Y516515D01*
X261204Y516809D01*
X261245Y517492D01*
X261250Y517881D01*
X265250Y517531D01*
D02*
G37*
G36*
X117365Y515147D02*
X117288Y515011D01*
X117220Y514843D01*
X117162Y514643D01*
X117113Y514412D01*
X117072Y514149D01*
X117018Y513527D01*
X117000Y512778D01*
X113000D01*
X112996Y513168D01*
X112928Y514149D01*
X112887Y514412D01*
X112838Y514643D01*
X112780Y514843D01*
X112712Y515011D01*
X112635Y515147D01*
X112550Y515251D01*
X117450D01*
X117365Y515147D01*
D02*
G37*
G36*
X275104Y498615D02*
X275240Y498538D01*
X275407Y498470D01*
X275607Y498412D01*
X275838Y498363D01*
X276101Y498322D01*
X276723Y498268D01*
X277472Y498250D01*
Y494250D01*
X277082Y494245D01*
X276101Y494178D01*
X275838Y494137D01*
X275607Y494088D01*
X275407Y494030D01*
X275240Y493962D01*
X275104Y493885D01*
X275000Y493800D01*
Y498700D01*
X275104Y498615D01*
D02*
G37*
G36*
X235269Y487086D02*
X235193Y487056D01*
X235125Y487003D01*
X235066Y486926D01*
X235014Y486825D01*
X234970Y486701D01*
X234934Y486554D01*
X234906Y486383D01*
X234886Y486188D01*
X234870Y485728D01*
X232330D01*
X232328Y486113D01*
X232235Y487647D01*
X232206Y487774D01*
X232173Y487865D01*
X232136Y487919D01*
X235269Y487086D01*
D02*
G37*
G36*
X245033Y486750D02*
X244706Y486735D01*
X244389Y486697D01*
X244080Y486634D01*
X243781Y486548D01*
X243490Y486438D01*
X243209Y486304D01*
X242937Y486147D01*
X242673Y485966D01*
X242419Y485761D01*
X242174Y485532D01*
X240341Y487291D01*
X240570Y487537D01*
X240774Y487792D01*
X240953Y488055D01*
X241107Y488328D01*
X241235Y488609D01*
X241339Y488899D01*
X241417Y489198D01*
X241470Y489506D01*
X241498Y489822D01*
X241501Y490147D01*
X245033Y486750D01*
D02*
G37*
G36*
X255215Y486250D02*
X254889Y486241D01*
X254572Y486208D01*
X254264Y486150D01*
X253965Y486068D01*
X253674Y485961D01*
X253393Y485830D01*
X253121Y485674D01*
X252857Y485494D01*
X252603Y485290D01*
X252357Y485061D01*
X250561Y486857D01*
X250790Y487103D01*
X250994Y487357D01*
X251175Y487621D01*
X251330Y487893D01*
X251461Y488174D01*
X251568Y488465D01*
X251650Y488764D01*
X251708Y489072D01*
X251741Y489389D01*
X251750Y489715D01*
X255215Y486250D01*
D02*
G37*
G36*
X265465Y486000D02*
X265139Y485991D01*
X264822Y485958D01*
X264514Y485900D01*
X264215Y485818D01*
X263924Y485711D01*
X263643Y485580D01*
X263371Y485424D01*
X263107Y485244D01*
X262852Y485040D01*
X262607Y484811D01*
X260811Y486607D01*
X261040Y486852D01*
X261244Y487107D01*
X261424Y487370D01*
X261580Y487643D01*
X261711Y487924D01*
X261818Y488215D01*
X261900Y488514D01*
X261958Y488822D01*
X261991Y489139D01*
X262000Y489465D01*
X265465Y486000D01*
D02*
G37*
G36*
X233795Y484127D02*
X231978Y482224D01*
X230096Y484106D01*
X230134Y484128D01*
X230206Y484185D01*
X230452Y484407D01*
X231999Y485923D01*
X233795Y484127D01*
D02*
G37*
G36*
X237354Y480712D02*
X235513Y478688D01*
X233631Y480570D01*
X233646Y480587D01*
X233907Y480853D01*
X235395Y482345D01*
X237354Y480712D01*
D02*
G37*
G36*
X215062Y480570D02*
X213180Y478688D01*
X213157Y478733D01*
X213099Y478810D01*
X213006Y478920D01*
X212288Y479684D01*
X211384Y480599D01*
X213152Y482366D01*
X215062Y480570D01*
D02*
G37*
G36*
X211526Y477035D02*
X209644Y475153D01*
X209624Y475184D01*
X209568Y475250D01*
X208996Y475850D01*
X207862Y476993D01*
X209545Y478845D01*
X211526Y477035D01*
D02*
G37*
G36*
X240866Y477056D02*
X239048Y475153D01*
X237167Y477034D01*
X237205Y477056D01*
X237277Y477114D01*
X237522Y477335D01*
X239070Y478852D01*
X240866Y477056D01*
D02*
G37*
G36*
X265715Y474750D02*
X265389Y474741D01*
X265072Y474708D01*
X264764Y474650D01*
X264465Y474568D01*
X264174Y474461D01*
X263893Y474330D01*
X263621Y474174D01*
X263357Y473994D01*
X263103Y473790D01*
X262857Y473561D01*
X261061Y475357D01*
X261290Y475603D01*
X261494Y475857D01*
X261674Y476121D01*
X261830Y476393D01*
X261961Y476674D01*
X262068Y476965D01*
X262150Y477264D01*
X262208Y477572D01*
X262241Y477889D01*
X262250Y478215D01*
X265715Y474750D01*
D02*
G37*
G36*
X244401Y473521D02*
X242584Y471617D01*
X240702Y473499D01*
X240741Y473521D01*
X240813Y473579D01*
X241058Y473800D01*
X242605Y475317D01*
X244401Y473521D01*
D02*
G37*
G36*
X207990Y473499D02*
X206108Y471617D01*
X206085Y471662D01*
X206028Y471739D01*
X205935Y471849D01*
X205217Y472613D01*
X204312Y473528D01*
X206080Y475295D01*
X207990Y473499D01*
D02*
G37*
G36*
X247937Y469985D02*
X246120Y468082D01*
X244238Y469964D01*
X244276Y469986D01*
X244348Y470043D01*
X244594Y470265D01*
X246141Y471781D01*
X247937Y469985D01*
D02*
G37*
G36*
X204455Y469964D02*
X202573Y468082D01*
X202553Y468113D01*
X202498Y468178D01*
X201925Y468778D01*
X200791Y469921D01*
X202474Y471774D01*
X204455Y469964D01*
D02*
G37*
G36*
X248420Y466361D02*
X248582Y466302D01*
X248783Y466249D01*
X249022Y466203D01*
X249615Y466133D01*
X250361Y466091D01*
X251260Y466077D01*
X251260Y463537D01*
X250579Y463525D01*
X249415Y463425D01*
X248933Y463338D01*
X248517Y463225D01*
X248167Y463088D01*
X247883Y462925D01*
X247665Y462738D01*
X247514Y462526D01*
X247428Y462289D01*
X248295Y466428D01*
X248420Y466361D01*
D02*
G37*
G36*
X201264Y462289D02*
X201179Y462526D01*
X201027Y462738D01*
X200810Y462925D01*
X200526Y463088D01*
X200176Y463225D01*
X199760Y463338D01*
X199277Y463425D01*
X198729Y463487D01*
X198114Y463525D01*
X197433Y463537D01*
X197433Y466077D01*
X197902Y466081D01*
X199671Y466203D01*
X199910Y466249D01*
X200110Y466302D01*
X200273Y466361D01*
X200397Y466428D01*
X201264Y462289D01*
D02*
G37*
G36*
X153513Y461459D02*
X153648Y461389D01*
X153815Y461327D01*
X154014Y461274D01*
X154245Y461228D01*
X154508Y461191D01*
X155131Y461142D01*
X155881Y461125D01*
X156055Y457125D01*
X155666Y457120D01*
X154687Y457048D01*
X154424Y457004D01*
X154193Y456951D01*
X153993Y456888D01*
X153826Y456815D01*
X153690Y456733D01*
X153585Y456641D01*
X153410Y461538D01*
X153513Y461459D01*
D02*
G37*
G36*
X193328Y458955D02*
X193534Y458731D01*
X193756Y458533D01*
X193995Y458362D01*
X194252Y458217D01*
X194525Y458098D01*
X194815Y458006D01*
X195122Y457940D01*
X195447Y457901D01*
X195788Y457887D01*
X195301Y455348D01*
X194971Y455338D01*
X194648Y455309D01*
X194331Y455261D01*
X194020Y455193D01*
X193715Y455106D01*
X193416Y454999D01*
X193123Y454874D01*
X192837Y454729D01*
X192556Y454564D01*
X192282Y454380D01*
X193140Y459205D01*
X193328Y458955D01*
D02*
G37*
G36*
X199299Y456253D02*
X199647Y455959D01*
X199974Y455723D01*
X200278Y455544D01*
X200560Y455424D01*
X200821Y455360D01*
X201060Y455355D01*
X201277Y455407D01*
X201472Y455518D01*
X201645Y455686D01*
X199038Y452525D01*
X199002Y452632D01*
X198935Y452765D01*
X198834Y452922D01*
X198701Y453105D01*
X198337Y453545D01*
X197547Y454392D01*
X197218Y454725D01*
X198930Y456605D01*
X199299Y456253D01*
D02*
G37*
G36*
X247514Y455068D02*
X247665Y454855D01*
X247883Y454668D01*
X248167Y454506D01*
X248517Y454369D01*
X248933Y454256D01*
X249415Y454169D01*
X249964Y454106D01*
X250579Y454069D01*
X251260Y454056D01*
X251260Y451516D01*
X250791Y451513D01*
X249022Y451390D01*
X248783Y451345D01*
X248582Y451292D01*
X248420Y451232D01*
X248295Y451166D01*
X247428Y455305D01*
X247514Y455068D01*
D02*
G37*
G36*
X183759Y453389D02*
X183792Y453072D01*
X183850Y452764D01*
X183932Y452465D01*
X184039Y452174D01*
X184170Y451893D01*
X184326Y451621D01*
X184506Y451357D01*
X184710Y451102D01*
X184939Y450857D01*
X183143Y449061D01*
X182897Y449290D01*
X182643Y449494D01*
X182379Y449674D01*
X182107Y449830D01*
X181826Y449961D01*
X181535Y450068D01*
X181236Y450150D01*
X180928Y450208D01*
X180611Y450241D01*
X180285Y450250D01*
X183750Y453715D01*
X183759Y453389D01*
D02*
G37*
G36*
X246198Y449470D02*
X246302Y449380D01*
X247484Y448243D01*
X248263Y447467D01*
X246346Y445793D01*
X246006Y446130D01*
X244430Y447536D01*
X244320Y447600D01*
X244238Y447631D01*
X246120Y449512D01*
X246137Y449514D01*
X246198Y449470D01*
D02*
G37*
G36*
X207990Y444095D02*
X207910Y444066D01*
X207802Y444004D01*
X207668Y443910D01*
X207507Y443784D01*
X206863Y443213D01*
X205978Y442352D01*
X204182Y444148D01*
X206108Y445977D01*
X207990Y444095D01*
D02*
G37*
G36*
X242606Y445938D02*
X242664Y445866D01*
X242885Y445621D01*
X244401Y444074D01*
X242605Y442278D01*
X240702Y444095D01*
X242584Y445977D01*
X242606Y445938D01*
D02*
G37*
G36*
X255000Y441300D02*
X254764Y441524D01*
X254516Y441725D01*
X254257Y441902D01*
X253987Y442055D01*
X253707Y442185D01*
X253415Y442291D01*
X253112Y442374D01*
X252799Y442433D01*
X252474Y442468D01*
X252139Y442480D01*
Y445020D01*
X252474Y445032D01*
X252799Y445067D01*
X253112Y445126D01*
X253415Y445209D01*
X253707Y445315D01*
X253987Y445445D01*
X254257Y445598D01*
X254516Y445775D01*
X254764Y445976D01*
X255000Y446200D01*
Y441300D01*
D02*
G37*
G36*
X182236Y445476D02*
X182484Y445275D01*
X182743Y445098D01*
X183013Y444945D01*
X183293Y444815D01*
X183585Y444709D01*
X183888Y444626D01*
X184201Y444567D01*
X184526Y444532D01*
X184861Y444520D01*
Y441980D01*
X184526Y441968D01*
X184201Y441933D01*
X183888Y441874D01*
X183585Y441791D01*
X183293Y441685D01*
X183013Y441555D01*
X182743Y441402D01*
X182484Y441225D01*
X182236Y441024D01*
X181999Y440800D01*
Y445700D01*
X182236Y445476D01*
D02*
G37*
G36*
X302220Y444115D02*
X302965Y443476D01*
X303182Y443322D01*
X303384Y443197D01*
X303571Y443102D01*
X303742Y443036D01*
X303898Y443000D01*
X304038Y442994D01*
X300753Y439358D01*
X300734Y439483D01*
X300687Y439626D01*
X300611Y439786D01*
X300507Y439963D01*
X300375Y440156D01*
X300025Y440596D01*
X299808Y440841D01*
X299288Y441384D01*
X301942Y444387D01*
X302220Y444115D01*
D02*
G37*
G36*
X239070Y442403D02*
X239128Y442331D01*
X239349Y442085D01*
X240866Y440538D01*
X239070Y438742D01*
X237167Y440559D01*
X239048Y442441D01*
X239070Y442403D01*
D02*
G37*
G36*
X211526Y440559D02*
X211488Y440537D01*
X211416Y440480D01*
X211170Y440258D01*
X209623Y438742D01*
X207827Y440538D01*
X209644Y442441D01*
X211526Y440559D01*
D02*
G37*
G36*
X215062Y437024D02*
X215023Y437002D01*
X214951Y436944D01*
X214706Y436723D01*
X213158Y435206D01*
X211362Y437002D01*
X213180Y438905D01*
X215062Y437024D01*
D02*
G37*
G36*
X235543Y438824D02*
X235608Y438713D01*
X235706Y438574D01*
X235839Y438407D01*
X236441Y437731D01*
X237351Y436798D01*
X235676Y434881D01*
X233631Y437024D01*
X235513Y438905D01*
X235543Y438824D01*
D02*
G37*
G36*
X230357Y433437D02*
X230093Y433472D01*
X229827Y433474D01*
X229560Y433443D01*
X229290Y433378D01*
X229019Y433280D01*
X228745Y433148D01*
X228470Y432983D01*
X228193Y432784D01*
X227979Y432607D01*
X227806Y432384D01*
X227639Y432122D01*
X227504Y431854D01*
X227403Y431580D01*
X227334Y431301D01*
X227298Y431017D01*
X227295Y430728D01*
X227324Y430433D01*
X227387Y430133D01*
X223185Y432654D01*
X223502Y432738D01*
X223810Y432839D01*
X224109Y432955D01*
X224400Y433086D01*
X224681Y433233D01*
X224954Y433396D01*
X225218Y433574D01*
X225473Y433768D01*
X225719Y433978D01*
X225895Y434145D01*
X226178Y434442D01*
X226464Y434783D01*
X226695Y435103D01*
X226870Y435404D01*
X226990Y435686D01*
X227054Y435947D01*
X227063Y436190D01*
X227016Y436412D01*
X226914Y436615D01*
X226756Y436798D01*
X230357Y433437D01*
D02*
G37*
G36*
X218597Y433488D02*
X218559Y433466D01*
X218487Y433409D01*
X218241Y433187D01*
X216694Y431671D01*
X214898Y433467D01*
X216716Y435370D01*
X218597Y433488D01*
D02*
G37*
G36*
X184061Y423710D02*
X184035Y423951D01*
X183958Y424167D01*
X183830Y424357D01*
X183650Y424523D01*
X183418Y424662D01*
X183136Y424777D01*
X182801Y424865D01*
X182416Y424929D01*
X181979Y424967D01*
X181490Y424980D01*
Y427520D01*
X181979Y427533D01*
X182416Y427571D01*
X182801Y427634D01*
X183136Y427723D01*
X183418Y427837D01*
X183650Y427977D01*
X183830Y428142D01*
X183958Y428333D01*
X184035Y428549D01*
X184061Y428790D01*
Y423710D01*
D02*
G37*
G36*
X175965Y428549D02*
X176042Y428333D01*
X176170Y428142D01*
X176350Y427977D01*
X176581Y427837D01*
X176864Y427723D01*
X177198Y427634D01*
X177584Y427571D01*
X178021Y427533D01*
X178509Y427520D01*
Y424980D01*
X178021Y424967D01*
X177584Y424929D01*
X177198Y424865D01*
X176864Y424777D01*
X176581Y424662D01*
X176350Y424523D01*
X176170Y424357D01*
X176042Y424167D01*
X175965Y423951D01*
X175939Y423710D01*
Y428790D01*
X175965Y428549D01*
D02*
G37*
G36*
X240015Y420219D02*
X239513Y419699D01*
X238722Y418765D01*
X238435Y418352D01*
X238377Y418250D01*
X238448Y418142D01*
X238626Y417977D01*
X238854Y417837D01*
X239134Y417723D01*
X239464Y417634D01*
X239845Y417571D01*
X240277Y417533D01*
X240759Y417520D01*
Y414980D01*
X240277Y414967D01*
X239845Y414929D01*
X239464Y414866D01*
X239134Y414777D01*
X238854Y414663D01*
X238626Y414523D01*
X238448Y414358D01*
X238321Y414167D01*
X238245Y413951D01*
X238219Y413710D01*
Y417975D01*
X238076Y417633D01*
X238004Y417328D01*
Y417058D01*
X238076Y416825D01*
X238219Y416627D01*
X234627Y420219D01*
X234825Y420076D01*
X235058Y420004D01*
X235328D01*
X235633Y420076D01*
X235974Y420219D01*
X236352Y420435D01*
X236765Y420722D01*
X237214Y421082D01*
X238219Y422016D01*
X240015Y420219D01*
D02*
G37*
G36*
X228311Y413710D02*
X228285Y413951D01*
X228208Y414167D01*
X228079Y414358D01*
X227900Y414523D01*
X227668Y414663D01*
X227386Y414777D01*
X227051Y414866D01*
X226666Y414929D01*
X226229Y414967D01*
X225740Y414980D01*
Y417520D01*
X226229Y417533D01*
X226666Y417571D01*
X227051Y417634D01*
X227386Y417723D01*
X227668Y417837D01*
X227900Y417977D01*
X228079Y418142D01*
X228208Y418333D01*
X228285Y418549D01*
X228311Y418790D01*
Y413710D01*
D02*
G37*
G36*
X220215Y418549D02*
X220292Y418333D01*
X220420Y418142D01*
X220600Y417977D01*
X220832Y417837D01*
X221114Y417723D01*
X221448Y417634D01*
X221834Y417571D01*
X222271Y417533D01*
X222759Y417520D01*
Y414980D01*
X222271Y414967D01*
X221834Y414929D01*
X221448Y414866D01*
X221114Y414777D01*
X220832Y414663D01*
X220600Y414523D01*
X220420Y414358D01*
X220292Y414167D01*
X220215Y413951D01*
X220189Y413710D01*
Y418790D01*
X220215Y418549D01*
D02*
G37*
G36*
X152965Y411487D02*
X153042Y411271D01*
X153170Y411081D01*
X153350Y410915D01*
X153582Y410776D01*
X153864Y410662D01*
X154199Y410573D01*
X154584Y410509D01*
X155021Y410471D01*
X155510Y410458D01*
Y407918D01*
X155021Y407906D01*
X154584Y407868D01*
X154199Y407804D01*
X153864Y407715D01*
X153582Y407601D01*
X153350Y407461D01*
X153170Y407296D01*
X153042Y407105D01*
X152965Y406890D01*
X152939Y406648D01*
Y411728D01*
X152965Y411487D01*
D02*
G37*
G36*
X140061Y405460D02*
X140035Y405701D01*
X139958Y405917D01*
X139830Y406108D01*
X139650Y406273D01*
X139418Y406412D01*
X139136Y406527D01*
X138801Y406616D01*
X138416Y406679D01*
X137979Y406717D01*
X137491Y406730D01*
Y409270D01*
X137979Y409283D01*
X138416Y409321D01*
X138801Y409384D01*
X139136Y409473D01*
X139418Y409587D01*
X139650Y409727D01*
X139830Y409892D01*
X139958Y410083D01*
X140035Y410299D01*
X140061Y410540D01*
Y405460D01*
D02*
G37*
G36*
X61299Y395035D02*
X61083Y394958D01*
X60892Y394830D01*
X60727Y394650D01*
X60588Y394418D01*
X60473Y394136D01*
X60384Y393801D01*
X60321Y393416D01*
X60283Y392979D01*
X60270Y392491D01*
X57730D01*
X57717Y392979D01*
X57679Y393416D01*
X57616Y393801D01*
X57527Y394136D01*
X57413Y394418D01*
X57273Y394650D01*
X57108Y394830D01*
X56917Y394958D01*
X56701Y395035D01*
X56460Y395061D01*
X61540D01*
X61299Y395035D01*
D02*
G37*
G36*
X60283Y390771D02*
X60321Y390334D01*
X60384Y389949D01*
X60473Y389614D01*
X60588Y389332D01*
X60727Y389100D01*
X60892Y388920D01*
X61083Y388792D01*
X61299Y388715D01*
X61540Y388689D01*
X56460D01*
X56701Y388715D01*
X56917Y388792D01*
X57108Y388920D01*
X57273Y389100D01*
X57413Y389332D01*
X57527Y389614D01*
X57616Y389949D01*
X57679Y390334D01*
X57717Y390771D01*
X57730Y391259D01*
X60270D01*
X60283Y390771D01*
D02*
G37*
G36*
X35215Y392099D02*
X35292Y391883D01*
X35420Y391692D01*
X35600Y391527D01*
X35832Y391387D01*
X36114Y391273D01*
X36449Y391184D01*
X36834Y391121D01*
X37271Y391082D01*
X37759Y391070D01*
Y388530D01*
X37271Y388517D01*
X36834Y388479D01*
X36449Y388415D01*
X36114Y388327D01*
X35832Y388212D01*
X35600Y388073D01*
X35420Y387907D01*
X35292Y387717D01*
X35215Y387501D01*
X35189Y387260D01*
Y392340D01*
X35215Y392099D01*
D02*
G37*
G36*
X78470Y379781D02*
X78403Y379755D01*
X78344Y379679D01*
X78291Y379552D01*
X78246Y379374D01*
X78207Y379146D01*
X78176Y378866D01*
X78134Y378155D01*
X78120Y377240D01*
X75580D01*
X75567Y377727D01*
X75529Y378163D01*
X75466Y378548D01*
X75377Y378881D01*
X75262Y379164D01*
X75123Y379395D01*
X74958Y379576D01*
X74767Y379705D01*
X74551Y379784D01*
X74310Y379811D01*
X78470Y379781D01*
D02*
G37*
G36*
X137226Y380293D02*
X137025Y380046D01*
X136848Y379787D01*
X136695Y379517D01*
X136565Y379236D01*
X136459Y378945D01*
X136376Y378642D01*
X136317Y378329D01*
X136282Y378004D01*
X136279Y377921D01*
X136283Y377777D01*
X136321Y377345D01*
X136384Y376964D01*
X136473Y376634D01*
X136587Y376354D01*
X136727Y376126D01*
X136892Y375948D01*
X137083Y375821D01*
X137299Y375745D01*
X137540Y375719D01*
X132460D01*
X132701Y375745D01*
X132917Y375821D01*
X133108Y375948D01*
X133273Y376126D01*
X133413Y376354D01*
X133527Y376634D01*
X133616Y376964D01*
X133679Y377345D01*
X133717Y377777D01*
X133721Y377921D01*
X133718Y378004D01*
X133683Y378329D01*
X133624Y378642D01*
X133541Y378945D01*
X133435Y379236D01*
X133305Y379517D01*
X133152Y379787D01*
X132975Y380046D01*
X132774Y380293D01*
X132550Y380530D01*
X137450D01*
X137226Y380293D01*
D02*
G37*
G36*
X96495Y373299D02*
X96571Y373083D01*
X96698Y372892D01*
X96876Y372727D01*
X97105Y372588D01*
X97384Y372473D01*
X97714Y372384D01*
X98095Y372321D01*
X98527Y372283D01*
X99010Y372270D01*
Y369730D01*
X98527Y369717D01*
X98095Y369679D01*
X97714Y369616D01*
X97384Y369527D01*
X97105Y369413D01*
X96876Y369273D01*
X96698Y369108D01*
X96571Y368917D01*
X96495Y368702D01*
X96469Y368460D01*
Y373540D01*
X96495Y373299D01*
D02*
G37*
G36*
X86561Y368460D02*
X86535Y368701D01*
X86458Y368917D01*
X86330Y369108D01*
X86150Y369273D01*
X85918Y369412D01*
X85635Y369527D01*
X85301Y369616D01*
X84916Y369679D01*
X84479Y369717D01*
X83990Y369730D01*
Y372270D01*
X84479Y372283D01*
X84916Y372321D01*
X85301Y372384D01*
X85635Y372473D01*
X85918Y372588D01*
X86150Y372727D01*
X86330Y372892D01*
X86458Y373083D01*
X86535Y373299D01*
X86561Y373540D01*
Y368460D01*
D02*
G37*
G36*
X138715Y373049D02*
X138792Y372833D01*
X138920Y372642D01*
X139100Y372477D01*
X139332Y372337D01*
X139614Y372223D01*
X139949Y372134D01*
X140334Y372071D01*
X140771Y372033D01*
X141260Y372020D01*
Y369480D01*
X140771Y369467D01*
X140334Y369429D01*
X139949Y369366D01*
X139614Y369277D01*
X139332Y369162D01*
X139100Y369023D01*
X138920Y368857D01*
X138792Y368667D01*
X138715Y368451D01*
X138689Y368210D01*
Y373290D01*
X138715Y373049D01*
D02*
G37*
G36*
X301045Y367045D02*
X298455D01*
X298460Y367072D01*
X298464Y367150D01*
X298480Y369595D01*
X301020D01*
X301045Y367045D01*
D02*
G37*
G36*
X295890Y369649D02*
X295891Y369166D01*
X296015Y367082D01*
X296044Y367045D01*
X293455D01*
X293435Y367063D01*
X293417Y367136D01*
X293401Y367264D01*
X293376Y367683D01*
X293350Y369686D01*
X295890Y369649D01*
D02*
G37*
G36*
X196045Y367045D02*
X193455D01*
X193460Y367072D01*
X193464Y367150D01*
X193480Y369595D01*
X196020D01*
X196045Y367045D01*
D02*
G37*
G36*
X191045D02*
X188456D01*
X188460Y367072D01*
X188465Y367150D01*
X188480Y369595D01*
X191020D01*
X191045Y367045D01*
D02*
G37*
G36*
X93799Y367035D02*
X93583Y366958D01*
X93392Y366830D01*
X93227Y366650D01*
X93087Y366419D01*
X92973Y366136D01*
X92884Y365802D01*
X92821Y365416D01*
X92783Y364979D01*
X92770Y364491D01*
X90230D01*
X90217Y364979D01*
X90179Y365416D01*
X90116Y365802D01*
X90027Y366136D01*
X89912Y366419D01*
X89773Y366650D01*
X89608Y366830D01*
X89417Y366958D01*
X89201Y367035D01*
X88960Y367061D01*
X94040D01*
X93799Y367035D01*
D02*
G37*
G36*
X297783Y349687D02*
X298700Y349504D01*
X300207D01*
X300416Y349250D01*
Y339500D01*
X300516Y338995D01*
X299346Y338369D01*
X297960Y339755D01*
X298108Y340500D01*
X297681Y342646D01*
X296465Y344465D01*
X294646Y345681D01*
X292500Y346108D01*
X290354Y345681D01*
X288535Y344465D01*
X287319Y342646D01*
X286892Y340500D01*
X287319Y338354D01*
X288535Y336535D01*
X290354Y335319D01*
X292500Y334892D01*
X293245Y335040D01*
X298092Y330193D01*
X299174Y329470D01*
X300450Y329216D01*
X306198D01*
X306704Y328600D01*
Y326500D01*
X306886Y325583D01*
X307243Y325050D01*
X306886Y324517D01*
X306704Y323600D01*
Y321500D01*
X306886Y320583D01*
X307243Y320050D01*
X306886Y319517D01*
X306704Y318600D01*
Y316500D01*
X306886Y315583D01*
X307243Y315050D01*
X306886Y314517D01*
X306704Y313600D01*
Y311500D01*
X306886Y310583D01*
X307243Y310050D01*
X306886Y309517D01*
X306704Y308600D01*
Y306500D01*
X306886Y305583D01*
X307243Y305050D01*
X306886Y304517D01*
X306704Y303600D01*
Y301500D01*
X306886Y300583D01*
X307243Y300050D01*
X306886Y299517D01*
X306704Y298600D01*
Y296500D01*
X306886Y295583D01*
X307243Y295050D01*
X306886Y294517D01*
X306704Y293600D01*
Y291500D01*
X306886Y290583D01*
X307243Y290050D01*
X306886Y289517D01*
X306704Y288600D01*
Y286500D01*
X306886Y285583D01*
X307243Y285050D01*
X306886Y284517D01*
X306704Y283600D01*
Y281500D01*
X306886Y280583D01*
X307243Y280050D01*
X306886Y279517D01*
X306704Y278600D01*
Y276500D01*
X306886Y275583D01*
X307243Y275050D01*
X306886Y274517D01*
X306704Y273600D01*
Y271500D01*
X306886Y270583D01*
X307243Y270050D01*
X306886Y269517D01*
X306704Y268600D01*
Y266500D01*
X306886Y265583D01*
X307243Y265050D01*
X306886Y264517D01*
X306704Y263600D01*
Y261500D01*
X306886Y260583D01*
X307243Y260050D01*
X306886Y259517D01*
X306704Y258600D01*
Y256500D01*
X306886Y255583D01*
X307243Y255050D01*
X306886Y254517D01*
X306704Y253600D01*
Y251500D01*
X306886Y250583D01*
X307243Y250050D01*
X306886Y249517D01*
X306704Y248600D01*
Y246500D01*
X306886Y245583D01*
X307243Y245050D01*
X306886Y244517D01*
X306704Y243600D01*
Y241500D01*
X306886Y240583D01*
X307243Y240050D01*
X306886Y239517D01*
X306704Y238600D01*
Y236500D01*
X306886Y235583D01*
X307243Y235050D01*
X306886Y234517D01*
X306704Y233600D01*
Y231500D01*
X306886Y230583D01*
X306918Y230536D01*
X306378Y229728D01*
X306197Y228820D01*
X316550D01*
Y226280D01*
X306197D01*
X306378Y225373D01*
X306918Y224564D01*
X306886Y224517D01*
X306704Y223600D01*
Y221500D01*
X306886Y220583D01*
X307406Y219806D01*
X308183Y219286D01*
X309100Y219104D01*
X313216D01*
Y210140D01*
X313470Y208864D01*
X314193Y207782D01*
X321333Y200643D01*
X322414Y199920D01*
X323690Y199666D01*
X325500D01*
Y196000D01*
X327416D01*
Y193250D01*
X325250D01*
Y191080D01*
X323980Y190695D01*
X323465Y191465D01*
X321646Y192681D01*
X319500Y193108D01*
X317520Y192714D01*
X316893Y192927D01*
X316250Y193271D01*
Y193750D01*
X305250D01*
Y180750D01*
X316250D01*
Y181729D01*
X316893Y182073D01*
X317520Y182286D01*
X319500Y181892D01*
X321646Y182319D01*
X323465Y183535D01*
X323980Y184305D01*
X325250Y183920D01*
Y180250D01*
X332323D01*
X332809Y179077D01*
X330732Y177000D01*
X325500D01*
Y174578D01*
X288750D01*
X287189Y174268D01*
X285866Y173384D01*
X285866Y173384D01*
X276366Y163884D01*
X276270Y163740D01*
X275000Y164125D01*
Y170438D01*
X275009Y170484D01*
X275000Y170526D01*
Y172500D01*
X275000D01*
X274735Y173770D01*
X287107Y186142D01*
X287830Y187224D01*
X287980Y187977D01*
X289250Y187852D01*
Y180750D01*
X300250D01*
Y193750D01*
X298084D01*
Y195398D01*
X298700Y195904D01*
X300800D01*
X301717Y196086D01*
X302494Y196606D01*
X303014Y197383D01*
X303196Y198300D01*
Y213200D01*
X303084Y213763D01*
Y216750D01*
X302830Y218026D01*
X302108Y219108D01*
X290710Y230505D01*
X290858Y231250D01*
X290431Y233396D01*
X289215Y235215D01*
X287396Y236431D01*
X285250Y236858D01*
X283104Y236431D01*
X281285Y235215D01*
X280069Y233396D01*
X279797Y232029D01*
X278502D01*
X278181Y233646D01*
X276965Y235465D01*
X275146Y236681D01*
X273000Y237108D01*
X270854Y236681D01*
X269035Y235465D01*
X267819Y233646D01*
X267392Y231500D01*
X267819Y229354D01*
X269035Y227535D01*
X270854Y226319D01*
X273000Y225892D01*
X273745Y226040D01*
X282519Y217266D01*
X282321Y215780D01*
X281805Y215467D01*
X281656Y215426D01*
X280800Y215596D01*
X278700D01*
X277783Y215413D01*
X277736Y215382D01*
X276927Y215922D01*
X276020Y216103D01*
Y205750D01*
X273480D01*
Y216103D01*
X272572Y215922D01*
X271764Y215382D01*
X271717Y215413D01*
X270800Y215596D01*
X268700D01*
X267783Y215413D01*
X267250Y215057D01*
X266717Y215413D01*
X265800Y215596D01*
X263700D01*
X262783Y215413D01*
X262250Y215057D01*
X261717Y215413D01*
X260800Y215596D01*
X258700D01*
X258084Y216102D01*
Y230662D01*
X260429Y233007D01*
X262183Y233356D01*
X264002Y234572D01*
X265218Y236391D01*
X265645Y238537D01*
X265218Y240683D01*
X264002Y242502D01*
X262183Y243718D01*
X260037Y244145D01*
X257891Y243718D01*
X256072Y242502D01*
X254856Y240683D01*
X254429Y238537D01*
X254778Y236786D01*
X252392Y234401D01*
X251670Y233319D01*
X251416Y232043D01*
Y225536D01*
X250241Y225180D01*
X250146Y225198D01*
X248965Y226965D01*
X247146Y228181D01*
X245000Y228608D01*
X243300Y228270D01*
X242774Y228261D01*
X241939Y229097D01*
X241681Y230396D01*
X240465Y232215D01*
X238646Y233431D01*
X236500Y233858D01*
X234354Y233431D01*
X232535Y232215D01*
X231319Y230396D01*
X230892Y228250D01*
X231040Y227505D01*
X227518Y223983D01*
X226795Y222901D01*
X226541Y221625D01*
Y216755D01*
X226020Y216327D01*
Y205750D01*
X223480D01*
Y216103D01*
X222572Y215922D01*
X221764Y215382D01*
X221717Y215413D01*
X220800Y215596D01*
X218700D01*
X217783Y215413D01*
X217250Y215057D01*
X216717Y215413D01*
X215800Y215596D01*
X213700D01*
X213084Y216101D01*
Y224369D01*
X218255Y229540D01*
X219000Y229392D01*
X221146Y229819D01*
X222965Y231035D01*
X224181Y232854D01*
X224608Y235000D01*
X224181Y237146D01*
X222965Y238965D01*
X221146Y240181D01*
X220350Y240339D01*
X219932Y241717D01*
X262108Y283892D01*
X262830Y284974D01*
X263084Y286250D01*
Y348999D01*
X263700Y349504D01*
X265800D01*
X266717Y349687D01*
X267250Y350043D01*
X267783Y349687D01*
X268700Y349504D01*
X270800D01*
X271717Y349687D01*
X272250Y350043D01*
X272783Y349687D01*
X273700Y349504D01*
X275800D01*
X276717Y349687D01*
X277250Y350043D01*
X277783Y349687D01*
X278700Y349504D01*
X280800D01*
X281717Y349687D01*
X282250Y350043D01*
X282783Y349687D01*
X283700Y349504D01*
X285800D01*
X286717Y349687D01*
X287250Y350043D01*
X287783Y349687D01*
X288700Y349504D01*
X290800D01*
X291717Y349687D01*
X292250Y350043D01*
X292783Y349687D01*
X293700Y349504D01*
X295800D01*
X296717Y349687D01*
X297250Y350043D01*
X297783Y349687D01*
D02*
G37*
G36*
X100053Y351323D02*
X100091Y350887D01*
X100154Y350503D01*
X100243Y350169D01*
X100358Y349887D01*
X100497Y349655D01*
X100662Y349475D01*
X100853Y349345D01*
X101069Y349267D01*
X101310Y349239D01*
X97530Y349269D01*
X97525Y349295D01*
X97520Y349371D01*
X97503Y350514D01*
X97500Y351810D01*
X100040D01*
X100053Y351323D01*
D02*
G37*
G36*
X261040Y351628D02*
X261036Y351550D01*
X261020Y349106D01*
X258480D01*
X258456Y351656D01*
X261045D01*
X261040Y351628D01*
D02*
G37*
G36*
X256040D02*
X256035Y351550D01*
X256020Y349106D01*
X253480D01*
X253455Y351656D01*
X256044D01*
X256040Y351628D01*
D02*
G37*
G36*
X241040D02*
X241036Y351550D01*
X241020Y349106D01*
X238480D01*
X238456Y351656D01*
X241045D01*
X241040Y351628D01*
D02*
G37*
G36*
X236040D02*
X236035Y351550D01*
X236020Y349106D01*
X233480D01*
X233455Y351656D01*
X236044D01*
X236040Y351628D01*
D02*
G37*
G36*
X201040D02*
X201036Y351550D01*
X201020Y349106D01*
X198480D01*
X198456Y351656D01*
X201045D01*
X201040Y351628D01*
D02*
G37*
G36*
X162783Y345998D02*
X162821Y345561D01*
X162884Y345175D01*
X162973Y344841D01*
X163088Y344558D01*
X163227Y344327D01*
X163392Y344147D01*
X163583Y344018D01*
X163799Y343941D01*
X164040Y343915D01*
X158960D01*
X159201Y343941D01*
X159417Y344018D01*
X159608Y344147D01*
X159773Y344327D01*
X159913Y344558D01*
X160027Y344841D01*
X160116Y345175D01*
X160179Y345561D01*
X160217Y345998D01*
X160230Y346486D01*
X162770D01*
X162783Y345998D01*
D02*
G37*
G36*
X130674Y379082D02*
X130671Y378579D01*
X130543Y378111D01*
X130364Y377750D01*
X128750D01*
Y363750D01*
X140750D01*
Y367416D01*
X173370D01*
X174393Y366393D01*
X174393Y366392D01*
X176286Y364499D01*
Y359480D01*
X176304Y359390D01*
Y351900D01*
X176487Y350983D01*
X177006Y350206D01*
X177783Y349687D01*
X178700Y349504D01*
X180800D01*
X181717Y349687D01*
X181764Y349718D01*
X182572Y349178D01*
X183480Y348997D01*
Y359350D01*
X186020D01*
Y348997D01*
X186928Y349178D01*
X187736Y349718D01*
X187783Y349687D01*
X188700Y349504D01*
X190800D01*
X191717Y349687D01*
X192250Y350043D01*
X192783Y349687D01*
X193700Y349504D01*
X195243D01*
X195769Y348234D01*
X189995Y342460D01*
X189250Y342608D01*
X187104Y342181D01*
X185285Y340965D01*
X184069Y339146D01*
X184062Y339113D01*
X182714Y338844D01*
X181965Y339965D01*
X180146Y341181D01*
X178000Y341608D01*
X175854Y341181D01*
X174480Y340263D01*
X173153Y340480D01*
X172936Y340607D01*
X172708Y341059D01*
X172796Y341500D01*
Y343600D01*
X172614Y344517D01*
X172094Y345294D01*
X171317Y345814D01*
X170400Y345996D01*
X164834D01*
Y349113D01*
X165465Y349535D01*
X166681Y351354D01*
X167108Y353500D01*
X166681Y355646D01*
X165465Y357465D01*
X163646Y358681D01*
X161500Y359108D01*
X159354Y358681D01*
X157535Y357465D01*
X156319Y355646D01*
X155892Y353500D01*
X156319Y351354D01*
X157535Y349535D01*
X158166Y349113D01*
Y345996D01*
X155500D01*
X154583Y345814D01*
X153806Y345294D01*
X153287Y344517D01*
X153104Y343600D01*
Y342255D01*
X151834Y341729D01*
X150669Y342894D01*
X149587Y343617D01*
X148311Y343870D01*
X142703D01*
X142482Y343826D01*
X141500Y344632D01*
Y351300D01*
X102104D01*
Y353730D01*
X101850Y355006D01*
X101128Y356087D01*
X94834Y362381D01*
Y365000D01*
X98500D01*
Y367666D01*
X101250D01*
X102526Y367920D01*
X103608Y368643D01*
X105357Y370392D01*
X105358Y370392D01*
X107786Y372821D01*
X108509Y373903D01*
X108763Y375178D01*
Y378798D01*
X109661Y379696D01*
X130120D01*
X130674Y379082D01*
D02*
G37*
G36*
X235487Y341648D02*
X235254Y341395D01*
X235054Y341138D01*
X234886Y340875D01*
X234752Y340607D01*
X234650Y340334D01*
X234582Y340055D01*
X234546Y339771D01*
X234543Y339482D01*
X234573Y339187D01*
X234636Y338887D01*
X230431Y341403D01*
X230747Y341488D01*
X231055Y341589D01*
X231354Y341705D01*
X231645Y341837D01*
X231926Y341984D01*
X232199Y342147D01*
X232463Y342325D01*
X232717Y342519D01*
X232964Y342729D01*
X233201Y342954D01*
X235487Y341648D01*
D02*
G37*
G36*
X308855Y336255D02*
X308828Y336260D01*
X308750Y336264D01*
X306305Y336280D01*
Y338820D01*
X308855Y338844D01*
Y336255D01*
D02*
G37*
G36*
X155256D02*
X155228Y336260D01*
X155150Y336264D01*
X152705Y336280D01*
Y338820D01*
X155256Y338844D01*
Y336255D01*
D02*
G37*
G36*
X143356Y331005D02*
X143090Y331200D01*
X142816Y331374D01*
X142535Y331528D01*
X142247Y331661D01*
X141951Y331774D01*
X141649Y331866D01*
X141339Y331938D01*
X141089Y331978D01*
X140714Y331916D01*
X140384Y331827D01*
X140105Y331713D01*
X139876Y331573D01*
X139698Y331408D01*
X139571Y331217D01*
X139495Y331001D01*
X139469Y330760D01*
Y335840D01*
X139495Y335599D01*
X139571Y335383D01*
X139698Y335192D01*
X139876Y335027D01*
X140105Y334888D01*
X140384Y334773D01*
X140714Y334684D01*
X140853Y334661D01*
X140974Y334686D01*
X141267Y334777D01*
X141545Y334893D01*
X141808Y335035D01*
X142055Y335203D01*
X142287Y335397D01*
X142503Y335616D01*
X142704Y335862D01*
X143356Y331005D01*
D02*
G37*
G36*
X308855Y331256D02*
X308828Y331260D01*
X308750Y331264D01*
X306305Y331280D01*
Y333820D01*
X308855Y333845D01*
Y331256D01*
D02*
G37*
G36*
X179375Y332781D02*
X179099Y332653D01*
X178812Y332498D01*
X178209Y332113D01*
X177893Y331883D01*
X176885Y331038D01*
X176529Y330706D01*
X176163Y330348D01*
X174154Y331931D01*
X174391Y332187D01*
X174589Y332444D01*
X174750Y332702D01*
X174873Y332961D01*
X174959Y333222D01*
X175006Y333483D01*
X175016Y333746D01*
X174988Y334009D01*
X174922Y334274D01*
X174819Y334540D01*
X179375Y332781D01*
D02*
G37*
G36*
X155256Y321256D02*
X155239Y321236D01*
X155171Y321218D01*
X155051Y321202D01*
X154659Y321177D01*
X152780Y321150D01*
Y323690D01*
X153239Y323692D01*
X155219Y323815D01*
X155256Y323845D01*
Y321256D01*
D02*
G37*
G36*
X139495Y323199D02*
X139571Y322983D01*
X139698Y322793D01*
X139876Y322627D01*
X140105Y322488D01*
X140384Y322373D01*
X140714Y322285D01*
X141095Y322221D01*
X141527Y322183D01*
X142009Y322170D01*
Y319630D01*
X141527Y319618D01*
X141095Y319579D01*
X140714Y319516D01*
X140384Y319427D01*
X140105Y319313D01*
X139876Y319173D01*
X139698Y319008D01*
X139571Y318817D01*
X139495Y318601D01*
X139469Y318360D01*
Y323440D01*
X139495Y323199D01*
D02*
G37*
G36*
X71495D02*
X71571Y322983D01*
X71698Y322793D01*
X71876Y322627D01*
X72105Y322488D01*
X72384Y322373D01*
X72714Y322285D01*
X73095Y322221D01*
X73527Y322183D01*
X74009Y322170D01*
Y319630D01*
X73527Y319618D01*
X73095Y319579D01*
X72714Y319516D01*
X72384Y319427D01*
X72105Y319313D01*
X71876Y319173D01*
X71698Y319008D01*
X71571Y318817D01*
X71495Y318601D01*
X71469Y318360D01*
Y323440D01*
X71495Y323199D01*
D02*
G37*
G36*
X170676Y313831D02*
X170757Y313818D01*
X170889Y313807D01*
X171917Y313777D01*
X173216Y313770D01*
X173123Y311230D01*
X170645Y311256D01*
Y313845D01*
X170676Y313831D01*
D02*
G37*
G36*
X340048Y312785D02*
X339833Y312708D01*
X339642Y312580D01*
X339477Y312400D01*
X339337Y312168D01*
X339223Y311886D01*
X339134Y311551D01*
X339071Y311166D01*
X339033Y310729D01*
X339020Y310240D01*
X336480D01*
X336467Y310729D01*
X336429Y311166D01*
X336366Y311551D01*
X336277Y311886D01*
X336162Y312168D01*
X336023Y312400D01*
X335858Y312580D01*
X335667Y312708D01*
X335451Y312785D01*
X335210Y312811D01*
X340290D01*
X340048Y312785D01*
D02*
G37*
G36*
X357048Y312785D02*
X356833Y312708D01*
X356642Y312579D01*
X356477Y312400D01*
X356337Y312168D01*
X356223Y311885D01*
X356134Y311551D01*
X356071Y311166D01*
X356032Y310729D01*
X356020Y310240D01*
X353480D01*
X353467Y310729D01*
X353429Y311166D01*
X353366Y311551D01*
X353277Y311885D01*
X353162Y312168D01*
X353023Y312400D01*
X352858Y312579D01*
X352667Y312708D01*
X352451Y312785D01*
X352210Y312811D01*
X357290D01*
X357048Y312785D01*
D02*
G37*
G36*
X362756Y293286D02*
X362556Y293177D01*
X362377Y293046D01*
X362219Y292892D01*
X362082Y292716D01*
X361967Y292517D01*
X361872Y292296D01*
X361798Y292052D01*
X361746Y291785D01*
X361714Y291496D01*
X361704Y291184D01*
X359164Y291581D01*
X359157Y291947D01*
X359103Y292622D01*
X359056Y292929D01*
X358996Y293217D01*
X358922Y293484D01*
X358834Y293732D01*
X358733Y293961D01*
X358619Y294169D01*
X358491Y294358D01*
X362756Y293286D01*
D02*
G37*
G36*
X359515Y288469D02*
X359012Y287949D01*
X358222Y287015D01*
X357935Y286602D01*
X357719Y286224D01*
X357576Y285883D01*
X357504Y285578D01*
Y285308D01*
X357576Y285075D01*
X357719Y284877D01*
X354127Y288469D01*
X354325Y288326D01*
X354558Y288254D01*
X354828D01*
X355133Y288326D01*
X355474Y288469D01*
X355851Y288685D01*
X356264Y288972D01*
X356713Y289331D01*
X357719Y290266D01*
X359515Y288469D01*
D02*
G37*
G36*
X247783Y349687D02*
X248700Y349504D01*
X250800D01*
X251416Y348999D01*
Y296131D01*
X205245Y249960D01*
X204500Y250108D01*
X202354Y249681D01*
X200535Y248465D01*
X199319Y246646D01*
X198892Y244500D01*
X199319Y242354D01*
X200535Y240535D01*
X201475Y239906D01*
X201090Y238636D01*
X198079D01*
X195894Y240821D01*
Y242737D01*
X195965Y242785D01*
X197181Y244604D01*
X197608Y246750D01*
X197181Y248896D01*
X195965Y250715D01*
X194146Y251931D01*
X192000Y252358D01*
X189854Y251931D01*
X188035Y250715D01*
X186819Y248896D01*
X186392Y246750D01*
X186819Y244604D01*
X188035Y242785D01*
X189226Y241989D01*
Y239440D01*
X189480Y238164D01*
X190203Y237083D01*
X194340Y232945D01*
X195422Y232222D01*
X196698Y231968D01*
X208802D01*
X209620Y232131D01*
X210245Y230960D01*
X208183Y228898D01*
X206945Y228465D01*
X205126Y229681D01*
X202980Y230108D01*
X200834Y229681D01*
X199015Y228465D01*
X197799Y226646D01*
X197372Y224500D01*
X197799Y222354D01*
X199015Y220535D01*
X200834Y219319D01*
X201416Y219203D01*
Y216101D01*
X200800Y215596D01*
X198700D01*
X197783Y215413D01*
X197250Y215057D01*
X196717Y215413D01*
X195800Y215596D01*
X193700D01*
X192783Y215413D01*
X192250Y215057D01*
X191717Y215413D01*
X190800Y215596D01*
X188700D01*
X187783Y215413D01*
X187250Y215057D01*
X186717Y215413D01*
X185800Y215596D01*
X183700D01*
X182783Y215413D01*
X182250Y215057D01*
X181717Y215413D01*
X180800Y215596D01*
X178857D01*
X178569Y215965D01*
X178270Y216805D01*
X182857Y221392D01*
X183580Y222474D01*
X183834Y223750D01*
Y251062D01*
X183580Y252338D01*
X182857Y253419D01*
X181370Y254907D01*
X180288Y255630D01*
X179012Y255884D01*
X173302D01*
X172796Y256500D01*
Y258600D01*
X172614Y259517D01*
X172258Y260050D01*
X172614Y260583D01*
X172796Y261500D01*
Y263600D01*
X172614Y264517D01*
X172257Y265050D01*
X172614Y265583D01*
X172796Y266500D01*
Y268600D01*
X172614Y269517D01*
X172258Y270050D01*
X172614Y270583D01*
X172796Y271500D01*
Y273600D01*
X172614Y274517D01*
X172257Y275050D01*
X172614Y275583D01*
X172796Y276500D01*
Y278600D01*
X172614Y279517D01*
X172258Y280050D01*
X172614Y280583D01*
X172796Y281500D01*
Y283600D01*
X172614Y284517D01*
X172257Y285050D01*
X172614Y285583D01*
X172796Y286500D01*
Y288600D01*
X172614Y289517D01*
X172258Y290050D01*
X172614Y290583D01*
X172796Y291500D01*
Y293600D01*
X172614Y294517D01*
X172257Y295050D01*
X172614Y295583D01*
X172796Y296500D01*
Y298600D01*
X172614Y299517D01*
X172257Y300050D01*
X172614Y300583D01*
X172796Y301500D01*
Y303600D01*
X172614Y304517D01*
X172258Y305050D01*
X172614Y305583D01*
X172796Y306500D01*
Y308600D01*
X173261Y309166D01*
X176500D01*
X177776Y309420D01*
X178857Y310142D01*
X183004Y314289D01*
X183727Y315371D01*
X183981Y316647D01*
Y319793D01*
X185465Y320785D01*
X186681Y322604D01*
X187108Y324750D01*
X186681Y326896D01*
X185465Y328715D01*
X183646Y329931D01*
X181686Y330321D01*
X181415Y330896D01*
X181304Y331593D01*
X181965Y332035D01*
X183181Y333854D01*
X183188Y333887D01*
X184536Y334156D01*
X185285Y333035D01*
X187104Y331819D01*
X189250Y331392D01*
X191396Y331819D01*
X193215Y333035D01*
X194431Y334854D01*
X194858Y337000D01*
X194710Y337745D01*
X202108Y345143D01*
X202796Y346173D01*
X202844Y346228D01*
X204194Y346572D01*
X215163Y335603D01*
X215142Y335500D01*
X215569Y333354D01*
X216785Y331535D01*
X218604Y330319D01*
X220750Y329892D01*
X222896Y330319D01*
X224715Y331535D01*
X225931Y333354D01*
X226022Y333812D01*
X227268Y334060D01*
X227285Y334035D01*
X229104Y332819D01*
X231250Y332392D01*
X233396Y332819D01*
X235146Y333988D01*
X235878Y333834D01*
X236416Y333671D01*
Y304881D01*
X209245Y277710D01*
X208500Y277858D01*
X206354Y277431D01*
X204535Y276215D01*
X203319Y274396D01*
X202892Y272250D01*
X203319Y270104D01*
X204535Y268285D01*
X206354Y267069D01*
X208500Y266642D01*
X210646Y267069D01*
X212465Y268285D01*
X213681Y270104D01*
X214108Y272250D01*
X213960Y272995D01*
X242108Y301143D01*
X242830Y302224D01*
X243084Y303500D01*
Y348999D01*
X243700Y349504D01*
X245800D01*
X246717Y349687D01*
X247250Y350043D01*
X247783Y349687D01*
D02*
G37*
G36*
X325826Y261306D02*
X324245Y261255D01*
Y263844D01*
X325826D01*
Y261306D01*
D02*
G37*
G36*
X324272Y258840D02*
X324350Y258836D01*
X326795Y258820D01*
Y256280D01*
X324245Y256256D01*
Y258845D01*
X324272Y258840D01*
D02*
G37*
G36*
Y253840D02*
X324350Y253836D01*
X326795Y253820D01*
Y251280D01*
X324245Y251255D01*
Y253844D01*
X324272Y253840D01*
D02*
G37*
G36*
X170672D02*
X170750Y253836D01*
X173195Y253820D01*
Y251280D01*
X170645Y251255D01*
Y253844D01*
X170672Y253840D01*
D02*
G37*
G36*
X344033Y245027D02*
X344071Y244595D01*
X344134Y244214D01*
X344223Y243884D01*
X344338Y243605D01*
X344477Y243376D01*
X344642Y243198D01*
X344833Y243071D01*
X345049Y242995D01*
X345290Y242969D01*
X340210D01*
X340451Y242995D01*
X340667Y243071D01*
X340858Y243198D01*
X341023Y243376D01*
X341162Y243605D01*
X341277Y243884D01*
X341366Y244214D01*
X341429Y244595D01*
X341467Y245027D01*
X341480Y245509D01*
X344020D01*
X344033Y245027D01*
D02*
G37*
G36*
X139501Y233800D02*
X139264Y234024D01*
X139016Y234225D01*
X138757Y234402D01*
X138487Y234555D01*
X138207Y234685D01*
X137915Y234791D01*
X137795Y234824D01*
X137619Y234777D01*
X137336Y234662D01*
X137105Y234523D01*
X136924Y234358D01*
X136795Y234167D01*
X136716Y233951D01*
X136689Y233710D01*
X136698Y234978D01*
X136638Y234980D01*
Y237520D01*
X136716Y237523D01*
X136720Y237969D01*
X136745Y237884D01*
X136821Y237808D01*
X136948Y237740D01*
X137126Y237682D01*
X137354Y237632D01*
X137519Y237609D01*
X137612Y237626D01*
X137915Y237709D01*
X138207Y237815D01*
X138487Y237945D01*
X138757Y238098D01*
X139016Y238275D01*
X139264Y238476D01*
X139501Y238700D01*
Y233800D01*
D02*
G37*
G36*
X324272Y238840D02*
X324350Y238836D01*
X326795Y238820D01*
Y236280D01*
X324245Y236256D01*
Y238845D01*
X324272Y238840D01*
D02*
G37*
G36*
X338811Y235010D02*
X338785Y235251D01*
X338708Y235467D01*
X338580Y235658D01*
X338400Y235823D01*
X338168Y235963D01*
X337886Y236077D01*
X337551Y236166D01*
X337166Y236229D01*
X336729Y236267D01*
X336241Y236280D01*
Y238820D01*
X336729Y238833D01*
X337166Y238871D01*
X337551Y238934D01*
X337886Y239023D01*
X338168Y239138D01*
X338400Y239277D01*
X338580Y239442D01*
X338708Y239633D01*
X338785Y239849D01*
X338811Y240090D01*
Y235010D01*
D02*
G37*
G36*
X324267Y233825D02*
X324319Y233808D01*
X324400Y233793D01*
X324510Y233780D01*
X324816Y233760D01*
X325777Y233743D01*
Y231203D01*
X324245Y231255D01*
Y233844D01*
X324267Y233825D01*
D02*
G37*
G36*
X155256Y221255D02*
X155228Y221260D01*
X155150Y221264D01*
X152705Y221280D01*
Y223820D01*
X155256Y223845D01*
Y221255D01*
D02*
G37*
G36*
X206255Y223221D02*
X206206Y222974D01*
X206124Y222345D01*
X206066Y221537D01*
X206020Y219380D01*
X203480Y218936D01*
X203466Y219287D01*
X203426Y219609D01*
X203358Y219900D01*
X203264Y220162D01*
X203143Y220394D01*
X202994Y220596D01*
X202819Y220768D01*
X202616Y220910D01*
X202387Y221022D01*
X202130Y221105D01*
X206310Y223423D01*
X206255Y223221D01*
D02*
G37*
G36*
X318849Y221159D02*
X318633Y221082D01*
X318442Y220953D01*
X318277Y220773D01*
X318137Y220542D01*
X318023Y220259D01*
X317934Y219925D01*
X317871Y219540D01*
X317833Y219102D01*
X317820Y218614D01*
X315280D01*
X315267Y219102D01*
X315229Y219540D01*
X315166Y219925D01*
X315077Y220259D01*
X314963Y220542D01*
X314823Y220773D01*
X314658Y220953D01*
X314467Y221082D01*
X314251Y221159D01*
X314010Y221185D01*
X319090D01*
X318849Y221159D01*
D02*
G37*
G36*
X247359Y220415D02*
X247128Y220187D01*
X246922Y219947D01*
X246740Y219695D01*
X246582Y219431D01*
X246448Y219155D01*
X246339Y218867D01*
X246254Y218566D01*
X246194Y218254D01*
X246157Y217929D01*
X246145Y217593D01*
X243605Y217690D01*
X243594Y218024D01*
X243559Y218349D01*
X243502Y218664D01*
X243422Y218968D01*
X243319Y219263D01*
X243193Y219548D01*
X243045Y219823D01*
X242874Y220089D01*
X242679Y220344D01*
X242462Y220590D01*
X247359Y220415D01*
D02*
G37*
G36*
X301045Y213444D02*
X298455D01*
X298460Y213472D01*
X298464Y213550D01*
X298480Y215994D01*
X301020D01*
X301045Y213444D01*
D02*
G37*
G36*
X256044D02*
X253455D01*
X253460Y213472D01*
X253464Y213550D01*
X253480Y215994D01*
X256020D01*
X256044Y213444D01*
D02*
G37*
G36*
X246146Y215740D02*
X246044Y213444D01*
X243455D01*
X243484Y213482D01*
X243509Y213568D01*
X243532Y213705D01*
X243551Y213890D01*
X243591Y214745D01*
X243605Y216046D01*
X246146Y215740D01*
D02*
G37*
G36*
X231146D02*
X231045Y213444D01*
X228456D01*
X228484Y213482D01*
X228509Y213568D01*
X228532Y213705D01*
X228551Y213890D01*
X228592Y214745D01*
X228605Y216046D01*
X231146Y215740D01*
D02*
G37*
G36*
X211045Y213444D02*
X208456D01*
X208460Y213472D01*
X208465Y213550D01*
X208480Y215994D01*
X211020D01*
X211045Y213444D01*
D02*
G37*
G36*
X206044D02*
X203455D01*
X203460Y213472D01*
X203464Y213550D01*
X203480Y215994D01*
X206020D01*
X206044Y213444D01*
D02*
G37*
G36*
X392615Y204646D02*
X392538Y204510D01*
X392471Y204343D01*
X392412Y204143D01*
X392363Y203912D01*
X392322Y203649D01*
X392268Y203027D01*
X392250Y202278D01*
X388250D01*
X388246Y202668D01*
X388178Y203649D01*
X388138Y203912D01*
X388088Y204143D01*
X388030Y204343D01*
X387962Y204510D01*
X387886Y204646D01*
X387800Y204750D01*
X392700D01*
X392615Y204646D01*
D02*
G37*
G36*
X327561Y200460D02*
X327535Y200701D01*
X327458Y200917D01*
X327330Y201108D01*
X327150Y201273D01*
X326918Y201413D01*
X326636Y201527D01*
X326301Y201616D01*
X325916Y201679D01*
X325479Y201717D01*
X324991Y201730D01*
Y204270D01*
X325479Y204283D01*
X325916Y204321D01*
X326301Y204384D01*
X326636Y204473D01*
X326918Y204587D01*
X327150Y204727D01*
X327330Y204892D01*
X327458Y205083D01*
X327535Y205299D01*
X327561Y205540D01*
Y200460D01*
D02*
G37*
G36*
X170954Y197951D02*
X170729Y197714D01*
X170519Y197467D01*
X170325Y197213D01*
X170147Y196949D01*
X169984Y196676D01*
X169837Y196395D01*
X169705Y196104D01*
X169589Y195805D01*
X169488Y195497D01*
X169403Y195181D01*
X166887Y199386D01*
X167187Y199323D01*
X167482Y199293D01*
X167771Y199296D01*
X168055Y199331D01*
X168334Y199400D01*
X168607Y199502D01*
X168875Y199636D01*
X169138Y199804D01*
X169395Y200004D01*
X169648Y200237D01*
X170954Y197951D01*
D02*
G37*
G36*
X178456Y198055D02*
X178411Y198102D01*
X178318Y198143D01*
X178175Y198180D01*
X177985Y198212D01*
X177745Y198239D01*
X176733Y198290D01*
X175814Y198300D01*
Y200840D01*
X176307Y200853D01*
X176747Y200891D01*
X177135Y200954D01*
X177470Y201043D01*
X177753Y201157D01*
X177984Y201297D01*
X178163Y201462D01*
X178289Y201653D01*
X178363Y201869D01*
X178385Y202110D01*
X178456Y198055D01*
D02*
G37*
G36*
X296040Y198028D02*
X296035Y197950D01*
X296020Y195505D01*
X293480D01*
X293455Y198055D01*
X296044D01*
X296040Y198028D01*
D02*
G37*
G36*
X286040D02*
X286035Y197950D01*
X286020Y195505D01*
X283480D01*
X283455Y198055D01*
X286044D01*
X286040Y198028D01*
D02*
G37*
G36*
X281040D02*
X281036Y197950D01*
X281020Y195505D01*
X278480D01*
X278456Y198055D01*
X281045D01*
X281040Y198028D01*
D02*
G37*
G36*
X271040D02*
X271036Y197950D01*
X271020Y195505D01*
X268480D01*
X268456Y198055D01*
X271045D01*
X271040Y198028D01*
D02*
G37*
G36*
X241040D02*
X241036Y197950D01*
X241020Y195505D01*
X238480D01*
X238456Y198055D01*
X241045D01*
X241040Y198028D01*
D02*
G37*
G36*
X236040D02*
X236035Y197950D01*
X236020Y195505D01*
X233480D01*
X233455Y198055D01*
X236044D01*
X236040Y198028D01*
D02*
G37*
G36*
X216040D02*
X216036Y197950D01*
X216020Y195505D01*
X213480D01*
X213455Y198055D01*
X216044D01*
X216040Y198028D01*
D02*
G37*
G36*
X333049Y198035D02*
X332833Y197958D01*
X332642Y197830D01*
X332477Y197650D01*
X332337Y197418D01*
X332223Y197136D01*
X332134Y196801D01*
X332071Y196416D01*
X332033Y195979D01*
X332020Y195490D01*
X329480D01*
X329467Y195979D01*
X329429Y196416D01*
X329366Y196801D01*
X329277Y197136D01*
X329162Y197418D01*
X329023Y197650D01*
X328858Y197830D01*
X328667Y197958D01*
X328451Y198035D01*
X328210Y198061D01*
X333290D01*
X333049Y198035D01*
D02*
G37*
G36*
X221015Y198018D02*
X220989Y197931D01*
X220966Y197794D01*
X220946Y197608D01*
X220904Y196752D01*
X220890Y195451D01*
X218350Y195414D01*
X218456Y198055D01*
X221045D01*
X221015Y198018D01*
D02*
G37*
G36*
X378533Y199771D02*
X378571Y199334D01*
X378634Y198948D01*
X378723Y198614D01*
X378837Y198332D01*
X378977Y198100D01*
X379142Y197920D01*
X379333Y197792D01*
X379549Y197715D01*
X379790Y197689D01*
X378576D01*
X378665Y195163D01*
X375835D01*
X375862Y195231D01*
X375887Y195375D01*
X375909Y195596D01*
X375957Y196720D01*
X375965Y197689D01*
X374710D01*
X374951Y197715D01*
X375167Y197792D01*
X375358Y197920D01*
X375523Y198100D01*
X375662Y198332D01*
X375777Y198614D01*
X375866Y198948D01*
X375929Y199334D01*
X375967Y199771D01*
X375980Y200259D01*
X378520D01*
X378533Y199771D01*
D02*
G37*
G36*
X296032Y193771D02*
X296070Y193334D01*
X296134Y192948D01*
X296223Y192614D01*
X296337Y192331D01*
X296477Y192100D01*
X296642Y191920D01*
X296833Y191792D01*
X297048Y191714D01*
X297290Y191689D01*
X292210D01*
X292451Y191714D01*
X292667Y191792D01*
X292857Y191920D01*
X293022Y192100D01*
X293162Y192331D01*
X293277Y192614D01*
X293365Y192948D01*
X293429Y193334D01*
X293467Y193771D01*
X293480Y194259D01*
X296020D01*
X296032Y193771D01*
D02*
G37*
G36*
X332033Y193271D02*
X332071Y192834D01*
X332134Y192449D01*
X332223Y192114D01*
X332337Y191832D01*
X332477Y191600D01*
X332642Y191420D01*
X332833Y191292D01*
X333049Y191215D01*
X333290Y191189D01*
X328210D01*
X328451Y191215D01*
X328667Y191292D01*
X328858Y191420D01*
X329023Y191600D01*
X329162Y191832D01*
X329277Y192114D01*
X329366Y192449D01*
X329429Y192834D01*
X329467Y193271D01*
X329480Y193759D01*
X332020D01*
X332033Y193271D01*
D02*
G37*
G36*
X314245Y189799D02*
X314321Y189583D01*
X314448Y189392D01*
X314626Y189227D01*
X314855Y189088D01*
X315134Y188973D01*
X315302Y188928D01*
X315415Y188959D01*
X315707Y189065D01*
X315987Y189195D01*
X316257Y189348D01*
X316516Y189525D01*
X316764Y189726D01*
X317001Y189950D01*
Y185050D01*
X316764Y185274D01*
X316516Y185475D01*
X316257Y185652D01*
X315987Y185805D01*
X315707Y185935D01*
X315415Y186041D01*
X315302Y186072D01*
X315134Y186027D01*
X314855Y185912D01*
X314626Y185773D01*
X314448Y185608D01*
X314321Y185417D01*
X314245Y185201D01*
X314220Y184960D01*
Y186227D01*
X314139Y186230D01*
Y188770D01*
X314220Y188773D01*
Y190040D01*
X314245Y189799D01*
D02*
G37*
G36*
X247715Y184750D02*
X247389Y184741D01*
X247072Y184708D01*
X246764Y184650D01*
X246465Y184568D01*
X246174Y184461D01*
X245893Y184330D01*
X245621Y184174D01*
X245357Y183994D01*
X245103Y183790D01*
X244857Y183561D01*
X243061Y185357D01*
X243290Y185602D01*
X243494Y185857D01*
X243674Y186121D01*
X243830Y186393D01*
X243961Y186674D01*
X244068Y186965D01*
X244150Y187264D01*
X244208Y187572D01*
X244241Y187889D01*
X244250Y188215D01*
X247715Y184750D01*
D02*
G37*
G36*
X200439Y185143D02*
X200210Y184897D01*
X200006Y184643D01*
X199826Y184379D01*
X199670Y184107D01*
X199539Y183826D01*
X199432Y183535D01*
X199350Y183236D01*
X199292Y182928D01*
X199259Y182611D01*
X199250Y182285D01*
X195785Y185750D01*
X196111Y185759D01*
X196428Y185792D01*
X196736Y185850D01*
X197035Y185932D01*
X197326Y186039D01*
X197607Y186170D01*
X197879Y186326D01*
X198143Y186506D01*
X198398Y186710D01*
X198643Y186939D01*
X200439Y185143D01*
D02*
G37*
G36*
X400530Y171781D02*
X400490Y171775D01*
X400370Y171770D01*
X396530Y171750D01*
Y175750D01*
X397290Y175770D01*
X397970Y175829D01*
X398570Y175927D01*
X399090Y176065D01*
X399530Y176243D01*
X399890Y176459D01*
X400170Y176715D01*
X400370Y177011D01*
X400490Y177345D01*
X400530Y177720D01*
Y171781D01*
D02*
G37*
G36*
X215540Y175840D02*
X215653Y175805D01*
X215801Y175775D01*
X215985Y175749D01*
X216459Y175708D01*
X217435Y175678D01*
X217832Y175676D01*
X218848Y171676D01*
X218460Y171670D01*
X217782Y171622D01*
X217492Y171580D01*
X217234Y171526D01*
X217009Y171460D01*
X216817Y171382D01*
X216658Y171292D01*
X216531Y171190D01*
X216437Y171076D01*
X215462Y175878D01*
X215540Y175840D01*
D02*
G37*
G36*
X230853Y172370D02*
X230886Y171964D01*
X230940Y171607D01*
X231016Y171297D01*
X231113Y171035D01*
X231232Y170821D01*
X231373Y170654D01*
X231535Y170535D01*
X231719Y170463D01*
X231925Y170439D01*
X227220D01*
X227425Y170463D01*
X227610Y170535D01*
X227772Y170654D01*
X227913Y170821D01*
X228032Y171035D01*
X228129Y171297D01*
X228205Y171607D01*
X228259Y171964D01*
X228291Y172370D01*
X228302Y172822D01*
X230842D01*
X230853Y172370D01*
D02*
G37*
G36*
X253220Y170470D02*
X249440Y170439D01*
X249681Y170467D01*
X249897Y170545D01*
X250088Y170675D01*
X250253Y170856D01*
X250392Y171087D01*
X250507Y171370D01*
X250596Y171703D01*
X250659Y172088D01*
X250697Y172523D01*
X250710Y173010D01*
X253250D01*
X253220Y170470D01*
D02*
G37*
G36*
X272306Y172527D02*
X272406Y171384D01*
X272467Y171105D01*
X272540Y170876D01*
X272628Y170698D01*
X272728Y170571D01*
X272842Y170495D01*
X272969Y170470D01*
X268489Y170439D01*
X268730Y170466D01*
X268946Y170545D01*
X269137Y170674D01*
X269302Y170855D01*
X269442Y171086D01*
X269556Y171369D01*
X269645Y171702D01*
X269708Y172087D01*
X269746Y172523D01*
X269759Y173010D01*
X272299D01*
X272306Y172527D01*
D02*
G37*
G36*
X266375Y172523D02*
X266413Y172087D01*
X266477Y171702D01*
X266566Y171369D01*
X266680Y171086D01*
X266820Y170854D01*
X266985Y170674D01*
X267175Y170545D01*
X267391Y170466D01*
X267632Y170439D01*
X263030Y170470D01*
X263181Y170495D01*
X263316Y170571D01*
X263434Y170698D01*
X263537Y170876D01*
X263624Y171105D01*
X263696Y171384D01*
X263751Y171714D01*
X263791Y172095D01*
X263822Y173010D01*
X266362D01*
X266375Y172523D01*
D02*
G37*
G36*
X201265Y169469D02*
X200763Y168948D01*
X199972Y168015D01*
X199685Y167602D01*
X199469Y167224D01*
X199326Y166883D01*
X199254Y166578D01*
Y166308D01*
X199326Y166075D01*
X199469Y165877D01*
X195877Y169469D01*
X196075Y169326D01*
X196308Y169254D01*
X196578D01*
X196883Y169326D01*
X197224Y169469D01*
X197602Y169685D01*
X198015Y169972D01*
X198464Y170331D01*
X199469Y171265D01*
X201265Y169469D01*
D02*
G37*
G36*
X387969Y160720D02*
X382970Y160689D01*
X383165Y160721D01*
X383340Y160814D01*
X383495Y160967D01*
X383629Y161182D01*
X383742Y161458D01*
X383835Y161794D01*
X383907Y162192D01*
X383959Y162650D01*
X383989Y163169D01*
X384000Y163750D01*
X388000D01*
X387969Y160720D01*
D02*
G37*
G36*
X207061Y160210D02*
X207036Y160452D01*
X206958Y160667D01*
X206830Y160858D01*
X206650Y161023D01*
X206419Y161163D01*
X206136Y161277D01*
X205802Y161366D01*
X205416Y161429D01*
X204979Y161467D01*
X204491Y161480D01*
Y164020D01*
X204979Y164033D01*
X205416Y164071D01*
X205802Y164135D01*
X206136Y164223D01*
X206419Y164338D01*
X206650Y164477D01*
X206830Y164643D01*
X206958Y164833D01*
X207036Y165049D01*
X207061Y165290D01*
Y160210D01*
D02*
G37*
G36*
X199465Y165049D02*
X199542Y164833D01*
X199670Y164643D01*
X199850Y164477D01*
X200082Y164338D01*
X200364Y164223D01*
X200698Y164135D01*
X201084Y164071D01*
X201521Y164033D01*
X202009Y164020D01*
Y161480D01*
X201521Y161467D01*
X201084Y161429D01*
X200698Y161366D01*
X200364Y161277D01*
X200082Y161163D01*
X199850Y161023D01*
X199670Y160858D01*
X199542Y160667D01*
X199465Y160452D01*
X199439Y160210D01*
Y165290D01*
X199465Y165049D01*
D02*
G37*
G36*
X294561Y150460D02*
X294535Y150701D01*
X294458Y150917D01*
X294330Y151108D01*
X294150Y151273D01*
X293918Y151412D01*
X293636Y151527D01*
X293301Y151616D01*
X292916Y151679D01*
X292479Y151717D01*
X292405Y151719D01*
X292360Y151718D01*
X292036Y151680D01*
X291724Y151618D01*
X291426Y151531D01*
X291142Y151419D01*
X290870Y151282D01*
X290612Y151120D01*
X290368Y150933D01*
X290136Y150721D01*
X289918Y150485D01*
X289568Y155372D01*
X289822Y155163D01*
X290084Y154976D01*
X290356Y154810D01*
X290636Y154667D01*
X290925Y154546D01*
X291223Y154446D01*
X291530Y154369D01*
X291845Y154314D01*
X292170Y154281D01*
X292277Y154277D01*
X292479Y154283D01*
X292916Y154321D01*
X293301Y154384D01*
X293636Y154473D01*
X293918Y154587D01*
X294150Y154727D01*
X294330Y154892D01*
X294458Y155083D01*
X294535Y155299D01*
X294561Y155540D01*
Y150460D01*
D02*
G37*
G36*
X310311Y150710D02*
X310285Y150951D01*
X310208Y151167D01*
X310080Y151358D01*
X309900Y151523D01*
X309668Y151663D01*
X309386Y151777D01*
X309051Y151866D01*
X308666Y151929D01*
X308229Y151967D01*
X307740Y151980D01*
Y154520D01*
X308229Y154533D01*
X308666Y154571D01*
X309051Y154634D01*
X309386Y154723D01*
X309668Y154838D01*
X309900Y154977D01*
X310080Y155142D01*
X310208Y155333D01*
X310285Y155549D01*
X310311Y155790D01*
Y150710D01*
D02*
G37*
G36*
X303465Y155549D02*
X303542Y155333D01*
X303670Y155142D01*
X303850Y154977D01*
X304082Y154838D01*
X304364Y154723D01*
X304699Y154634D01*
X305084Y154571D01*
X305521Y154533D01*
X306010Y154520D01*
Y151980D01*
X305521Y151967D01*
X305084Y151929D01*
X304699Y151866D01*
X304364Y151777D01*
X304082Y151663D01*
X303850Y151523D01*
X303670Y151358D01*
X303542Y151167D01*
X303465Y150951D01*
X303439Y150710D01*
Y155790D01*
X303465Y155549D01*
D02*
G37*
G36*
X163561Y144710D02*
X163535Y144951D01*
X163458Y145167D01*
X163330Y145358D01*
X163150Y145523D01*
X162918Y145663D01*
X162636Y145777D01*
X162302Y145866D01*
X161916Y145929D01*
X161479Y145967D01*
X160991Y145980D01*
Y148520D01*
X161479Y148533D01*
X161916Y148571D01*
X162302Y148634D01*
X162636Y148723D01*
X162918Y148838D01*
X163150Y148977D01*
X163330Y149142D01*
X163458Y149333D01*
X163535Y149549D01*
X163561Y149790D01*
Y144710D01*
D02*
G37*
G36*
X155715Y149549D02*
X155792Y149333D01*
X155920Y149142D01*
X156100Y148977D01*
X156332Y148838D01*
X156614Y148723D01*
X156948Y148634D01*
X157334Y148571D01*
X157771Y148533D01*
X158259Y148520D01*
Y145980D01*
X157771Y145967D01*
X157334Y145929D01*
X156948Y145866D01*
X156614Y145777D01*
X156332Y145663D01*
X156100Y145523D01*
X155920Y145358D01*
X155792Y145167D01*
X155715Y144951D01*
X155689Y144710D01*
Y149790D01*
X155715Y149549D01*
D02*
G37*
%LPC*%
G36*
X125290Y378290D02*
X120020D01*
Y372020D01*
X125290D01*
Y378290D01*
D02*
G37*
G36*
X117480D02*
X112210D01*
Y372020D01*
X117480D01*
Y378290D01*
D02*
G37*
G36*
X125290Y369480D02*
X120020D01*
Y363210D01*
X125290D01*
Y369480D01*
D02*
G37*
G36*
X117480D02*
X112210D01*
Y363210D01*
X117480D01*
Y369480D01*
D02*
G37*
%LPD*%
G36*
X356226Y339764D02*
X356025Y339516D01*
X355848Y339257D01*
X355695Y338987D01*
X355565Y338707D01*
X355459Y338415D01*
X355376Y338112D01*
X355317Y337799D01*
X355297Y337614D01*
X355321Y337345D01*
X355384Y336964D01*
X355473Y336634D01*
X355588Y336355D01*
X355727Y336126D01*
X355892Y335948D01*
X356083Y335821D01*
X356299Y335745D01*
X356540Y335720D01*
X351460D01*
X351701Y335745D01*
X351917Y335821D01*
X352108Y335948D01*
X352273Y336126D01*
X352412Y336355D01*
X352527Y336634D01*
X352616Y336964D01*
X352679Y337345D01*
X352703Y337614D01*
X352683Y337799D01*
X352624Y338112D01*
X352541Y338415D01*
X352435Y338707D01*
X352305Y338987D01*
X352152Y339257D01*
X351975Y339516D01*
X351774Y339764D01*
X351550Y340000D01*
X356450D01*
X356226Y339764D01*
D02*
G37*
G36*
X340283Y337777D02*
X340321Y337345D01*
X340384Y336964D01*
X340473Y336634D01*
X340588Y336354D01*
X340727Y336126D01*
X340892Y335948D01*
X341083Y335821D01*
X341299Y335745D01*
X341540Y335719D01*
X336460D01*
X336701Y335745D01*
X336917Y335821D01*
X337108Y335948D01*
X337273Y336126D01*
X337412Y336354D01*
X337527Y336634D01*
X337616Y336964D01*
X337679Y337345D01*
X337717Y337777D01*
X337730Y338259D01*
X340270D01*
X340283Y337777D01*
D02*
G37*
G36*
X35119Y285932D02*
X35177Y285864D01*
X35812Y285202D01*
X37091Y283914D01*
X34262Y281086D01*
X34045Y281299D01*
X33371Y281896D01*
X33251Y281980D01*
X33150Y282039D01*
X33069Y282071D01*
X33007Y282078D01*
X32964Y282059D01*
X35101Y285961D01*
X35119Y285932D01*
D02*
G37*
G36*
X138811Y268085D02*
X138785Y268326D01*
X138708Y268542D01*
X138580Y268733D01*
X138400Y268898D01*
X138168Y269037D01*
X137886Y269152D01*
X137551Y269241D01*
X137166Y269304D01*
X136729Y269342D01*
X136241Y269355D01*
Y271895D01*
X136729Y271908D01*
X137166Y271946D01*
X137551Y272009D01*
X137886Y272098D01*
X138168Y272213D01*
X138400Y272352D01*
X138580Y272517D01*
X138708Y272708D01*
X138785Y272924D01*
X138811Y273165D01*
Y268085D01*
D02*
G37*
G36*
X132715Y261799D02*
X132792Y261583D01*
X132920Y261392D01*
X133100Y261227D01*
X133332Y261087D01*
X133614Y260973D01*
X133949Y260884D01*
X134334Y260821D01*
X134771Y260783D01*
X135260Y260770D01*
Y258230D01*
X134771Y258217D01*
X134334Y258179D01*
X133949Y258116D01*
X133614Y258027D01*
X133332Y257913D01*
X133100Y257773D01*
X132920Y257608D01*
X132792Y257417D01*
X132715Y257201D01*
X132689Y256960D01*
Y262040D01*
X132715Y261799D01*
D02*
G37*
G36*
X68549Y253284D02*
X68333Y253205D01*
X68142Y253076D01*
X67977Y252895D01*
X67838Y252663D01*
X67723Y252381D01*
X67634Y252047D01*
X67571Y251663D01*
X67533Y251227D01*
X67520Y250741D01*
X64980D01*
X64978Y251223D01*
X64852Y253179D01*
X64818Y253255D01*
X64781Y253281D01*
X68790Y253311D01*
X68549Y253284D01*
D02*
G37*
G36*
X67533Y244777D02*
X67571Y244345D01*
X67634Y243964D01*
X67723Y243634D01*
X67838Y243354D01*
X67977Y243126D01*
X68142Y242948D01*
X68333Y242821D01*
X68549Y242745D01*
X68790Y242719D01*
X63710D01*
X63951Y242745D01*
X64167Y242821D01*
X64358Y242948D01*
X64523Y243126D01*
X64662Y243354D01*
X64777Y243634D01*
X64866Y243964D01*
X64929Y244345D01*
X64967Y244777D01*
X64980Y245259D01*
X67520D01*
X67533Y244777D01*
D02*
G37*
G36*
X371219Y250530D02*
X371225Y250508D01*
X371231Y250442D01*
X371245Y249732D01*
X371247Y249131D01*
X372461Y247750D01*
X369201Y245419D01*
X369193Y245449D01*
X369156Y245505D01*
X369091Y245587D01*
X368875Y245830D01*
X367836Y246898D01*
X369849Y248312D01*
X367250D01*
X367248Y248739D01*
X367143Y250358D01*
X367110Y250471D01*
X367073Y250538D01*
X367031Y250561D01*
X371219Y250530D01*
D02*
G37*
G36*
X113533Y245771D02*
X113571Y245334D01*
X113634Y244949D01*
X113723Y244614D01*
X113837Y244332D01*
X113977Y244100D01*
X114142Y243920D01*
X114333Y243792D01*
X114549Y243715D01*
X114790Y243689D01*
X109710D01*
X109951Y243715D01*
X110167Y243792D01*
X110358Y243920D01*
X110523Y244100D01*
X110662Y244332D01*
X110777Y244614D01*
X110866Y244949D01*
X110929Y245334D01*
X110967Y245771D01*
X110980Y246259D01*
X113520D01*
X113533Y245771D01*
D02*
G37*
G36*
X68549Y219785D02*
X68333Y219708D01*
X68142Y219580D01*
X67977Y219400D01*
X67838Y219168D01*
X67723Y218886D01*
X67634Y218551D01*
X67571Y218166D01*
X67533Y217729D01*
X67520Y217241D01*
X64980D01*
X64967Y217729D01*
X64929Y218166D01*
X64866Y218551D01*
X64777Y218886D01*
X64662Y219168D01*
X64523Y219400D01*
X64358Y219580D01*
X64167Y219708D01*
X63951Y219785D01*
X63710Y219811D01*
X68790D01*
X68549Y219785D01*
D02*
G37*
G36*
X83299Y220035D02*
X83083Y219958D01*
X82892Y219830D01*
X82727Y219650D01*
X82587Y219418D01*
X82473Y219136D01*
X82384Y218801D01*
X82321Y218416D01*
X82283Y217979D01*
X82270Y217491D01*
X79730D01*
X79717Y217979D01*
X79679Y218416D01*
X79616Y218801D01*
X79527Y219136D01*
X79412Y219418D01*
X79273Y219650D01*
X79108Y219830D01*
X78917Y219958D01*
X78701Y220035D01*
X78460Y220061D01*
X83540D01*
X83299Y220035D01*
D02*
G37*
G36*
X503311Y214000D02*
X503281Y214285D01*
X503190Y214540D01*
X503038Y214765D01*
X502826Y214960D01*
X502553Y215125D01*
X502220Y215260D01*
X501826Y215365D01*
X501371Y215440D01*
X500856Y215485D01*
X500280Y215500D01*
Y218500D01*
X500856Y218515D01*
X501371Y218560D01*
X501826Y218635D01*
X502220Y218740D01*
X502553Y218875D01*
X502826Y219040D01*
X503038Y219235D01*
X503190Y219460D01*
X503281Y219715D01*
X503311Y220000D01*
Y214000D01*
D02*
G37*
G36*
X510465Y213531D02*
X510210Y213440D01*
X509985Y213288D01*
X509790Y213076D01*
X509625Y212803D01*
X509490Y212470D01*
X509385Y212076D01*
X509310Y211621D01*
X509299Y211500D01*
X509310Y211378D01*
X509385Y210924D01*
X509490Y210530D01*
X509625Y210197D01*
X509790Y209924D01*
X509985Y209712D01*
X510210Y209560D01*
X510465Y209469D01*
X510750Y209439D01*
X504750D01*
X505035Y209469D01*
X505290Y209560D01*
X505515Y209712D01*
X505710Y209924D01*
X505875Y210197D01*
X506010Y210530D01*
X506115Y210924D01*
X506190Y211378D01*
X506201Y211500D01*
X506190Y211621D01*
X506115Y212076D01*
X506010Y212470D01*
X505875Y212803D01*
X505710Y213076D01*
X505515Y213288D01*
X505290Y213440D01*
X505035Y213531D01*
X504750Y213561D01*
X510750D01*
X510465Y213531D01*
D02*
G37*
G36*
X114549Y220755D02*
X114333Y220679D01*
X114142Y220552D01*
X113977Y220374D01*
X113837Y220145D01*
X113723Y219866D01*
X113634Y219536D01*
X113571Y219155D01*
X113533Y218723D01*
X113520Y218241D01*
X110980D01*
X110967Y218723D01*
X110929Y219155D01*
X110866Y219536D01*
X110777Y219866D01*
X110662Y220145D01*
X110523Y220374D01*
X110358Y220552D01*
X110167Y220679D01*
X109951Y220755D01*
X109710Y220781D01*
X114790D01*
X114549Y220755D01*
D02*
G37*
G36*
X116033Y207021D02*
X116071Y206584D01*
X116134Y206199D01*
X116223Y205864D01*
X116337Y205582D01*
X116477Y205350D01*
X116642Y205170D01*
X116833Y205042D01*
X117049Y204965D01*
X117290Y204939D01*
X112210D01*
X112451Y204965D01*
X112667Y205042D01*
X112858Y205170D01*
X113023Y205350D01*
X113162Y205582D01*
X113277Y205864D01*
X113366Y206199D01*
X113429Y206584D01*
X113467Y207021D01*
X113480Y207509D01*
X116020D01*
X116033Y207021D01*
D02*
G37*
G36*
X117049Y196035D02*
X116833Y195958D01*
X116642Y195830D01*
X116477Y195650D01*
X116337Y195418D01*
X116223Y195136D01*
X116134Y194801D01*
X116071Y194416D01*
X116033Y193979D01*
X116027Y193750D01*
X116033Y193521D01*
X116071Y193084D01*
X116134Y192698D01*
X116223Y192364D01*
X116337Y192082D01*
X116477Y191850D01*
X116642Y191670D01*
X116833Y191542D01*
X117049Y191465D01*
X117290Y191439D01*
X112210D01*
X112451Y191465D01*
X112667Y191542D01*
X112858Y191670D01*
X113023Y191850D01*
X113162Y192082D01*
X113277Y192364D01*
X113366Y192698D01*
X113429Y193084D01*
X113467Y193521D01*
X113473Y193750D01*
X113467Y193979D01*
X113429Y194416D01*
X113366Y194801D01*
X113277Y195136D01*
X113162Y195418D01*
X113023Y195650D01*
X112858Y195830D01*
X112667Y195958D01*
X112451Y196035D01*
X112210Y196061D01*
X117290D01*
X117049Y196035D01*
D02*
G37*
G36*
X102311Y160960D02*
X102285Y161201D01*
X102208Y161417D01*
X102080Y161608D01*
X101900Y161773D01*
X101668Y161912D01*
X101386Y162027D01*
X101051Y162116D01*
X100666Y162179D01*
X100229Y162217D01*
X99740Y162230D01*
Y164770D01*
X100229Y164783D01*
X100666Y164821D01*
X101051Y164884D01*
X101386Y164973D01*
X101668Y165088D01*
X101900Y165227D01*
X102080Y165392D01*
X102208Y165583D01*
X102285Y165799D01*
X102311Y166040D01*
Y160960D01*
D02*
G37*
G36*
X80266Y164933D02*
X81200Y164142D01*
X81613Y163855D01*
X81990Y163640D01*
X82332Y163496D01*
X82637Y163424D01*
X82907D01*
X83140Y163496D01*
X83338Y163640D01*
X79745Y160047D01*
X79889Y160245D01*
X79961Y160478D01*
Y160748D01*
X79889Y161053D01*
X79745Y161395D01*
X79530Y161772D01*
X79243Y162185D01*
X78883Y162634D01*
X77949Y163640D01*
X79745Y165436D01*
X80266Y164933D01*
D02*
G37*
G36*
X87300Y162159D02*
X87377Y161943D01*
X87505Y161752D01*
X87685Y161587D01*
X87917Y161448D01*
X88199Y161333D01*
X88534Y161244D01*
X88919Y161181D01*
X89356Y161143D01*
X89845Y161130D01*
Y158590D01*
X89356Y158577D01*
X88919Y158539D01*
X88534Y158476D01*
X88199Y158387D01*
X87917Y158272D01*
X87685Y158133D01*
X87505Y157968D01*
X87377Y157777D01*
X87300Y157561D01*
X87274Y157320D01*
Y162400D01*
X87300Y162159D01*
D02*
G37*
G36*
X110973Y149273D02*
X111011Y148837D01*
X111074Y148452D01*
X111163Y148119D01*
X111278Y147836D01*
X111417Y147605D01*
X111582Y147424D01*
X111773Y147295D01*
X111989Y147216D01*
X112230Y147189D01*
X108031Y147219D01*
X108104Y147245D01*
X108171Y147321D01*
X108229Y147448D01*
X108280Y147626D01*
X108323Y147854D01*
X108358Y148134D01*
X108404Y148845D01*
X108420Y149760D01*
X110960D01*
X110973Y149273D01*
D02*
G37*
G36*
X510283Y135521D02*
X510321Y135084D01*
X510384Y134699D01*
X510473Y134364D01*
X510588Y134082D01*
X510727Y133850D01*
X510892Y133670D01*
X511083Y133542D01*
X511299Y133465D01*
X511540Y133439D01*
X506460D01*
X506701Y133465D01*
X506917Y133542D01*
X507108Y133670D01*
X507273Y133850D01*
X507412Y134082D01*
X507527Y134364D01*
X507616Y134699D01*
X507679Y135084D01*
X507717Y135521D01*
X507730Y136010D01*
X510270D01*
X510283Y135521D01*
D02*
G37*
G36*
X504561Y111460D02*
X504535Y111701D01*
X504458Y111917D01*
X504330Y112108D01*
X504150Y112273D01*
X503918Y112413D01*
X503636Y112527D01*
X503301Y112616D01*
X502916Y112679D01*
X502479Y112717D01*
X501991Y112730D01*
Y115270D01*
X502479Y115283D01*
X502916Y115321D01*
X503301Y115384D01*
X503636Y115473D01*
X503918Y115588D01*
X504150Y115727D01*
X504330Y115892D01*
X504458Y116083D01*
X504535Y116299D01*
X504561Y116540D01*
Y111460D01*
D02*
G37*
G36*
X496495Y116039D02*
X496571Y115878D01*
X496698Y115735D01*
X496876Y115612D01*
X497104Y115507D01*
X497384Y115422D01*
X497714Y115355D01*
X498095Y115308D01*
X498527Y115280D01*
X499010Y115270D01*
Y112730D01*
X498523Y112717D01*
X498087Y112679D01*
X497702Y112616D01*
X497368Y112527D01*
X497086Y112413D01*
X496854Y112273D01*
X496674Y112108D01*
X496544Y111917D01*
X496466Y111701D01*
X496439Y111460D01*
X496469Y116220D01*
X496495Y116039D01*
D02*
G37*
G36*
X493049Y108285D02*
X492833Y108208D01*
X492642Y108080D01*
X492477Y107900D01*
X492337Y107668D01*
X492223Y107386D01*
X492134Y107051D01*
X492071Y106666D01*
X492033Y106229D01*
X492020Y105740D01*
X489480D01*
X489467Y106229D01*
X489429Y106666D01*
X489366Y107051D01*
X489277Y107386D01*
X489162Y107668D01*
X489023Y107900D01*
X488858Y108080D01*
X488667Y108208D01*
X488451Y108285D01*
X488210Y108311D01*
X493290D01*
X493049Y108285D01*
D02*
G37*
G36*
X492033Y102271D02*
X492071Y101834D01*
X492134Y101449D01*
X492223Y101114D01*
X492337Y100832D01*
X492477Y100600D01*
X492642Y100420D01*
X492833Y100292D01*
X493049Y100215D01*
X493290Y100189D01*
X488210D01*
X488451Y100215D01*
X488667Y100292D01*
X488858Y100420D01*
X489023Y100600D01*
X489162Y100832D01*
X489277Y101114D01*
X489366Y101449D01*
X489429Y101834D01*
X489467Y102271D01*
X489480Y102760D01*
X492020D01*
X492033Y102271D01*
D02*
G37*
D10*
X208500Y498500D02*
Y499500D01*
X205020Y502980D02*
X208500Y499500D01*
Y497500D02*
Y498500D01*
X196689Y517169D02*
X205020Y508838D01*
Y502980D02*
Y508838D01*
Y488730D02*
X216250Y477500D01*
X205020Y494020D02*
X208500Y497500D01*
X205020Y488730D02*
Y494020D01*
X188071Y528821D02*
X188932Y527960D01*
X189180Y524677D02*
Y525050D01*
Y524677D02*
X196689Y517169D01*
X188932Y525298D02*
Y527960D01*
Y525298D02*
X189180Y525050D01*
X199980Y502980D02*
Y506750D01*
X196500Y499500D02*
X199980Y502980D01*
X196500Y498500D02*
Y499500D01*
Y497500D02*
Y498500D01*
X199980Y486642D02*
X212658Y473965D01*
X212714D01*
X196500Y497500D02*
X199980Y494020D01*
Y486642D02*
Y494020D01*
X181861Y520889D02*
X184523D01*
X181000Y521750D02*
X181861Y520889D01*
X184714Y520698D02*
X186032D01*
X199980Y506750D01*
X184523Y520889D02*
X184714Y520698D01*
X154250Y529500D02*
X172290Y547540D01*
X154250Y487770D02*
Y529500D01*
X167250Y549628D02*
Y565886D01*
X172290Y547540D02*
Y567974D01*
X149210Y485682D02*
Y531588D01*
X165936Y548314D01*
X167250Y549628D01*
X170980Y483770D02*
X195838D01*
X209179Y470429D01*
X170980Y478730D02*
X193750D01*
X165500Y475250D02*
X166500D01*
X193750Y478730D02*
X205587Y466893D01*
X166500Y475250D02*
X167500D01*
X123074Y583040D02*
X157224D01*
X172290Y567974D01*
X125162Y578000D02*
X155136D01*
X167250Y565886D01*
X167500Y487250D02*
X170980Y483770D01*
X166500Y487250D02*
X167500D01*
X205587Y466893D02*
X205644D01*
X167500Y475250D02*
X170980Y478730D01*
X106690Y566656D02*
X123074Y583040D01*
X111730Y562497D02*
Y564568D01*
X113195Y561033D02*
X120317D01*
X111730Y562497D02*
X113195Y561033D01*
X106690Y555258D02*
Y566656D01*
X83750Y534100D02*
X85532D01*
X111730Y564568D02*
X125162Y578000D01*
X120317Y561033D02*
X121850Y559500D01*
X85532Y534100D02*
X106690Y555258D01*
X149210Y485682D02*
X156162Y478730D01*
X162020D02*
X165500Y475250D01*
X162020Y483770D02*
X165500Y487250D01*
X166500D01*
X154250Y487770D02*
X158250Y483770D01*
X162020D01*
X156162Y478730D02*
X162020D01*
D11*
X493500Y217000D02*
X507750D01*
Y206000D02*
Y217000D01*
D16*
X287500Y153000D02*
X298750D01*
X287250Y152750D02*
X287500Y153000D01*
X268000Y167500D02*
X268299D01*
X267822D02*
X268000D01*
X131750Y234000D02*
X134000Y236250D01*
X142000D01*
X180500Y223750D02*
Y251062D01*
X155230Y198480D02*
X180500Y223750D01*
X151500Y196250D02*
X153730Y198480D01*
X155230D01*
X162950Y252550D02*
X179012D01*
X180500Y251062D01*
X209750Y225750D02*
X219000Y235000D01*
X209750Y205750D02*
Y225750D01*
X219000Y235000D02*
Y235000D01*
X202980Y223293D02*
Y224500D01*
X204750Y205750D02*
Y221523D01*
X202980Y223293D02*
X204750Y221523D01*
X229875Y221625D02*
X236500Y228250D01*
X229875Y205875D02*
Y221625D01*
X81000Y211107D02*
Y223500D01*
X73322Y203428D02*
X81000Y211107D01*
X166000Y184500D02*
X186500D01*
X214750Y195238D02*
Y205750D01*
X213262Y193750D02*
X214750Y195238D01*
X195750Y193750D02*
X213262D01*
X186500Y184500D02*
X195750Y193750D01*
X209750Y179750D02*
X227330D01*
X193000Y164000D02*
X197230Y168230D01*
X198230D01*
X209750Y179750D01*
X202500Y189000D02*
X218132D01*
X195750Y182250D02*
X202500Y189000D01*
X219620Y190488D02*
Y205620D01*
X218132Y189000D02*
X219620Y190488D01*
X198554Y175480D02*
X207534Y184460D01*
X225619D01*
X234750Y193591D01*
X187855Y175480D02*
X198554D01*
X181750Y169374D02*
X187855Y175480D01*
X181750Y156750D02*
Y169374D01*
X227330Y179750D02*
X239750Y192171D01*
X219620Y205620D02*
X219750Y205750D01*
X234750Y193591D02*
Y205750D01*
X66250Y217000D02*
Y223250D01*
X57500Y208250D02*
X66250Y217000D01*
X179750Y199700D02*
Y205750D01*
X179620Y199570D02*
X179750Y199700D01*
X170777Y199570D02*
X179620D01*
X167207Y196000D02*
X170777Y199570D01*
X166000Y196000D02*
X167207D01*
X98250Y152250D02*
X108500D01*
X83525Y159860D02*
X90640D01*
X98250Y152250D01*
X64500Y173750D02*
X65500D01*
X72290Y166960D01*
X76425D01*
X83525Y159860D01*
X109690Y144560D02*
X111500Y142750D01*
X109690Y144560D02*
Y151060D01*
X108500Y152250D02*
X109690Y151060D01*
X80250Y175000D02*
X85250D01*
X96750Y163500D02*
X106250D01*
X85250Y175000D02*
X96750Y163500D01*
X64500Y189750D02*
X65500D01*
X80250Y175000D01*
X143125Y270625D02*
X143250Y270750D01*
X112875Y270625D02*
X143125D01*
X112750Y270500D02*
X112875Y270625D01*
X86750Y299250D02*
X147750D01*
X77750Y308250D02*
X86750Y299250D01*
X149250Y300750D02*
Y312470D01*
X77750Y308250D02*
Y319412D01*
X147750Y299250D02*
X149250Y300750D01*
X114750Y187000D02*
Y200500D01*
Y187000D02*
X115750Y186000D01*
X114750Y200500D02*
Y210250D01*
X112250Y212750D02*
X114750Y210250D01*
X112250Y212750D02*
Y224250D01*
Y240250D02*
Y246793D01*
X110000Y249043D02*
X112250Y246793D01*
X110000Y249043D02*
Y250250D01*
X127250Y259500D02*
X137500D01*
X142250Y254750D01*
X143250D01*
X81000Y239500D02*
X82000D01*
X94520Y252020D01*
Y255270D01*
X98750Y259500D01*
X66250Y239250D02*
Y255500D01*
X70250Y259500D01*
X234750Y342707D02*
Y359350D01*
X231250Y339207D02*
X234750Y342707D01*
X231250Y338000D02*
Y339207D01*
X204880Y350601D02*
Y359220D01*
Y350601D02*
X219981Y335500D01*
X220750D01*
X59000Y384250D02*
Y399500D01*
X54500Y384500D02*
X58750D01*
X59000Y384250D01*
X47710Y385129D02*
X54500D01*
X75000Y384250D02*
X76850Y382400D01*
Y374330D02*
Y382400D01*
Y374330D02*
X80180Y371000D01*
X91500D01*
X91500Y371000D01*
X43040Y389800D02*
X47710Y385129D01*
X28500Y389800D02*
X43040D01*
X27750Y389050D02*
X28500Y389800D01*
X298750Y153000D02*
X299000Y153250D01*
X314750D01*
X342750Y238000D02*
Y246000D01*
X348520Y251770D01*
X349520D01*
X351750Y254000D01*
Y255000D01*
X316550Y237550D02*
X342300D01*
X342750Y238000D01*
X341195Y217055D02*
X361755D01*
X316550Y232550D02*
X316626Y232473D01*
X325777D01*
X341195Y217055D01*
X354750Y299260D02*
Y316250D01*
X353250Y285000D02*
X354250D01*
X360434Y291184D01*
Y295609D01*
X361287Y296463D01*
X345480Y289990D02*
X354750Y299260D01*
X299750Y205750D02*
Y216750D01*
X285250Y231250D02*
X299750Y216750D01*
X310750Y187250D02*
X311000Y187500D01*
X319500D01*
X294750Y187250D02*
X294750Y187250D01*
X294750Y187250D02*
Y205750D01*
X330750Y186750D02*
Y203000D01*
X323690D02*
X331500D01*
X322970Y203720D02*
X323690Y203000D01*
X316550Y210140D02*
X322970Y203720D01*
X316550Y210140D02*
Y222550D01*
X268299Y167500D02*
X271029Y170230D01*
X265092D02*
Y176967D01*
X352250Y269000D02*
X353250D01*
X335800Y252550D02*
X352250Y269000D01*
X316550Y252550D02*
X335800D01*
X345480Y275230D02*
Y289990D01*
X327800Y257550D02*
X345480Y275230D01*
X244500Y386250D02*
X278632D01*
X293132Y371750D01*
X293132D01*
X294620Y370262D01*
X253500Y397250D02*
X275315D01*
X299750Y372815D01*
X300450Y332550D02*
X316550D01*
X292500Y340500D02*
X300450Y332550D01*
X296250Y399250D02*
X298250D01*
X301980Y395520D01*
Y393520D02*
Y395520D01*
Y393520D02*
X307250Y388250D01*
Y352750D02*
Y388250D01*
X303750Y339500D02*
Y349250D01*
X307250Y352750D01*
X305700Y337550D02*
X316550D01*
X303750Y339500D02*
X305700Y337550D01*
X339000Y333500D02*
Y344500D01*
X316550Y257550D02*
X327800D01*
X337750Y274500D02*
Y316250D01*
X316550Y262550D02*
X316577Y262577D01*
X325826D01*
X337750Y274500D01*
Y316250D02*
X337750Y316250D01*
X354000Y333000D02*
Y342500D01*
Y333000D02*
X354750Y332250D01*
X337750Y332250D02*
X339000Y333500D01*
X299750Y359350D02*
Y372815D01*
X294620Y359480D02*
Y370262D01*
X265043Y456500D02*
X266250D01*
X261329Y452786D02*
X265043Y456500D01*
X132750Y234000D02*
X135480Y231270D01*
X131750Y234000D02*
X132750D01*
X143200Y222550D02*
X162950D01*
X135480Y230270D02*
Y231270D01*
Y230270D02*
X143200Y222550D01*
X284750Y188500D02*
Y205750D01*
X271029Y170230D02*
Y174779D01*
X284750Y188500D01*
X265092Y170230D02*
X267822Y167500D01*
X265092Y176967D02*
X279750Y191625D01*
Y205750D01*
X251980Y169480D02*
Y175465D01*
X269750Y193235D01*
Y205750D01*
X108800Y333300D02*
X145041D01*
X145507Y333766D01*
X142197Y340030D02*
X142703Y340536D01*
X74770Y340030D02*
X142197D01*
X68500Y346300D02*
X74770Y340030D01*
X151298Y337550D02*
X162950D01*
X148311Y340536D02*
X151298Y337550D01*
X142703Y340536D02*
X148311D01*
X142681Y320900D02*
X154201Y332420D01*
X108500Y320900D02*
X142681D01*
X108500Y333600D02*
X108800Y333300D01*
X149250Y312470D02*
X154200Y317420D01*
X162820D01*
X152780Y322420D02*
X162820D01*
X162950Y322550D01*
X110230Y309930D02*
X140290D01*
X152780Y322420D01*
X108500Y308200D02*
X110230Y309930D01*
X162820Y317420D02*
X162950Y317550D01*
X154201Y332420D02*
X162820D01*
X162950Y332550D01*
Y327550D02*
X163080Y327680D01*
X171699D01*
X177147Y333127D01*
Y335147D01*
X178000Y336000D01*
X52500Y333600D02*
X60500D01*
X46503Y327603D02*
X52500Y333600D01*
X41603Y327603D02*
X46503D01*
X40750Y326750D02*
X41603Y327603D01*
X163000Y312500D02*
X176500D01*
X180647Y316647D02*
Y323897D01*
X176500Y312500D02*
X180647Y316647D01*
X162950Y312550D02*
X163000Y312500D01*
X180647Y323897D02*
X181500Y324750D01*
X446250Y103500D02*
X447750Y105000D01*
X446250Y91500D02*
Y103500D01*
X204750Y359350D02*
X204880Y359220D01*
X244875Y205875D02*
Y222875D01*
X245000Y223000D01*
X244750Y205750D02*
X244875Y205875D01*
X509000Y130000D02*
Y137750D01*
X500750Y146000D02*
X509000Y137750D01*
X491000Y112250D02*
X492750Y114000D01*
X509000D01*
X490750Y112000D02*
X491000Y112250D01*
X490750Y95750D02*
Y112000D01*
X461750Y106750D02*
Y116500D01*
X467000Y121750D01*
X468500D01*
X446250Y91500D02*
X447000Y90750D01*
X461750D01*
X417603Y121812D02*
X424890Y114525D01*
X417603Y121812D02*
Y125647D01*
X416750Y126500D02*
X417603Y125647D01*
X199750Y347500D02*
Y359350D01*
X189250Y337000D02*
X199750Y347500D01*
X208802Y235302D02*
X259750Y286250D01*
X260037Y237330D02*
Y238537D01*
X161500Y342680D02*
Y353500D01*
X204500Y244500D02*
X254750Y294750D01*
X161630Y342550D02*
X162950D01*
X161500Y342680D02*
X161630Y342550D01*
X254750Y294750D02*
Y359350D01*
X239750Y192171D02*
Y205750D01*
X179620Y359480D02*
X179750Y359350D01*
X60500Y320900D02*
X76262D01*
X170000Y146000D02*
X171000D01*
X179620Y359480D02*
Y365880D01*
X60500Y333600D02*
X61350Y332750D01*
X174751Y370750D02*
X176751Y368750D01*
X361755Y217055D02*
X377250Y201560D01*
X179500Y381750D02*
X189750Y371500D01*
X176751Y368750D02*
X179620Y365880D01*
X60500Y346300D02*
X68500D01*
X179500Y381750D02*
Y383750D01*
X377250Y193750D02*
Y201560D01*
X76262Y320900D02*
X77750Y319412D01*
X171000Y146000D02*
X181750Y156750D01*
X189750Y359350D02*
Y371500D01*
X134750Y370750D02*
X174751D01*
X176751Y368750D02*
X176751D01*
X236000Y176500D02*
X247750Y188250D01*
X233250Y176500D02*
X236000D01*
X229572Y172822D02*
X233250Y176500D01*
X254750Y232043D02*
X260037Y237330D01*
X254750Y205750D02*
Y232043D01*
X194249Y162750D02*
X211500D01*
X193000Y164000D02*
X194249Y162750D01*
X196698Y235302D02*
X208802D01*
X289620Y205880D02*
Y214880D01*
X273000Y231500D02*
X289620Y214880D01*
X259750Y286250D02*
Y359350D01*
X239750Y303500D02*
Y359350D01*
X208500Y272250D02*
X239750Y303500D01*
X192560Y239440D02*
X196698Y235302D01*
X192000Y246750D02*
X192560Y246190D01*
Y239440D02*
Y246190D01*
X228125Y166625D02*
X229572Y168072D01*
X228000Y166500D02*
X228125Y166625D01*
X158000Y410676D02*
Y431124D01*
X163125Y436250D01*
X205335D01*
X105428Y375178D02*
Y380179D01*
X108280Y383030D02*
X135000D01*
X105428Y380179D02*
X108280Y383030D01*
X264793Y466750D02*
X266000D01*
X262850Y464808D02*
X264793Y466750D01*
X103000Y372750D02*
X105428Y375178D01*
X101250Y371000D02*
X103000Y372750D01*
X103000D01*
X91500Y361000D02*
Y371000D01*
X100500Y346300D02*
X108500D01*
X98770Y348030D02*
X100500Y346300D01*
X98770Y348030D02*
Y353730D01*
X91500Y361000D02*
X98770Y353730D01*
X91500Y371000D02*
X101250D01*
X134750Y370750D02*
X135000Y371000D01*
Y383030D01*
X187020Y470770D02*
X187410Y470380D01*
Y469750D02*
Y470380D01*
X198250Y382543D02*
Y383750D01*
X194750Y379043D02*
X198250Y382543D01*
X250184Y443750D02*
X257500D01*
X190491Y457230D02*
X191103Y456618D01*
X190250Y457230D02*
X190491D01*
X187410Y469750D02*
X192352Y464808D01*
X194750Y359350D02*
Y379043D01*
X229572Y168072D02*
Y172822D01*
X229750Y205750D02*
X229875Y205875D01*
X151250Y147250D02*
X168750D01*
X170000Y146000D01*
X289620Y205880D02*
X289750Y205750D01*
X294620Y359480D02*
X294750Y359350D01*
X201000Y410750D02*
Y423000D01*
X204000Y426000D01*
X243233Y450701D02*
X250184Y443750D01*
X246043Y413750D02*
X247250D01*
X243543Y416250D02*
X246043Y413750D01*
X234250Y416250D02*
X246750Y428750D01*
X233250Y416250D02*
X234250D01*
X215250D02*
X233250D01*
X246750Y428750D02*
Y432858D01*
X235978Y443629D02*
X246750Y432858D01*
X239514Y447165D02*
X257020Y429659D01*
Y428730D02*
Y429659D01*
Y428730D02*
X259250Y426500D01*
X260250D01*
X122400Y448800D02*
X124378Y450778D01*
X128722D01*
X137500Y442000D01*
X122400Y442000D02*
Y448800D01*
Y440800D02*
Y442000D01*
Y432800D02*
Y440800D01*
X209227Y426000D02*
X219786Y436559D01*
X204000Y426000D02*
X209227D01*
X234250Y416250D02*
X243543D01*
X224000Y429250D02*
Y430451D01*
X229416Y435866D01*
X189500Y426250D02*
X194960Y431710D01*
X207866D01*
X216250Y440094D01*
X169750Y426250D02*
X189500D01*
X229416Y435866D02*
Y436050D01*
X228907Y436559D02*
X229416Y436050D01*
X132000Y408000D02*
X146500D01*
X127500Y412500D02*
X132000Y408000D01*
X127500Y412500D02*
Y413500D01*
X147689Y409188D02*
X156512D01*
X158000Y410676D01*
X146500Y408000D02*
X147689Y409188D01*
X205335Y436250D02*
X212714Y443629D01*
X208995Y447165D02*
X209179D01*
X205080Y443250D02*
X208995Y447165D01*
X179500Y443250D02*
X205080D01*
X186173Y447826D02*
X202585D01*
X197121Y456618D02*
X200713Y453025D01*
X191103Y456618D02*
X197121D01*
X205460Y450701D02*
X205644D01*
X202585Y447826D02*
X205460Y450701D01*
X180250Y453750D02*
X186173Y447826D01*
X200897Y453025D02*
X202108Y454236D01*
X200713Y453025D02*
X200897D01*
X237147Y431853D02*
X238000Y431000D01*
X237147Y431853D02*
Y435206D01*
X232442Y439910D02*
Y440094D01*
Y439910D02*
X237147Y435206D01*
X243050Y450701D02*
X243233D01*
X248034Y452786D02*
X261329D01*
X246585Y454236D02*
X248034Y452786D01*
X169500Y426000D02*
X169750Y426250D01*
X246585Y463358D02*
X248035Y464808D01*
X262850D01*
X243050Y466893D02*
X249026Y472870D01*
X260370D01*
X265750Y478250D01*
X239514Y470429D02*
X246692Y477608D01*
X253607D01*
X265500Y489500D01*
X247647Y482148D02*
X255250Y489750D01*
X235978Y473964D02*
X244162Y482148D01*
X247647D01*
X245000Y490154D02*
Y490250D01*
X232442Y477596D02*
X245000Y490154D01*
X233600Y485728D02*
Y489600D01*
X234500Y490500D01*
X232442Y477500D02*
Y477596D01*
X228907Y481036D02*
X233600Y485728D01*
X218336Y482485D02*
X219786Y481036D01*
X218336Y482485D02*
Y482669D01*
X219786Y484119D01*
Y492786D01*
X224500Y497500D01*
Y498500D01*
X275750Y561000D02*
X285750D01*
X286750Y560000D01*
X200658Y464808D02*
X202108Y463358D01*
X192352Y464808D02*
X200658D01*
D21*
X127250Y282500D02*
D03*
Y259500D02*
D03*
X98750Y282500D02*
D03*
Y259500D02*
D03*
X70250Y282500D02*
D03*
Y259500D02*
D03*
X343750Y540250D02*
D03*
Y563250D02*
D03*
D22*
X346750Y186750D02*
D03*
X330750D02*
D03*
X331000Y170500D02*
D03*
X347000D02*
D03*
X474750Y95750D02*
D03*
X490750D02*
D03*
X446250Y91500D02*
D03*
X430250D02*
D03*
X111500Y142750D02*
D03*
X95500D02*
D03*
X98750Y200500D02*
D03*
X114750D02*
D03*
X367750Y255000D02*
D03*
X351750D02*
D03*
X59000Y384250D02*
D03*
X75000D02*
D03*
X59000Y399500D02*
D03*
X75000D02*
D03*
X294750Y187250D02*
D03*
X310750D02*
D03*
X111500Y413500D02*
D03*
X127500D02*
D03*
X286750Y560000D02*
D03*
X302750D02*
D03*
X166500Y445000D02*
D03*
X150500D02*
D03*
X278750Y509750D02*
D03*
X294750D02*
D03*
X196500Y498500D02*
D03*
X180500D02*
D03*
X208500D02*
D03*
X224500D02*
D03*
D23*
X66250Y239250D02*
D03*
Y223250D02*
D03*
X49750Y238750D02*
D03*
Y222750D02*
D03*
X81000Y239500D02*
D03*
Y223500D02*
D03*
X143250Y254750D02*
D03*
Y270750D02*
D03*
X151500Y196250D02*
D03*
Y180250D02*
D03*
X507750Y190000D02*
D03*
Y206000D02*
D03*
Y233000D02*
D03*
Y217000D02*
D03*
X461750Y106750D02*
D03*
Y90750D02*
D03*
X509000Y130000D02*
D03*
Y114000D02*
D03*
X112250Y240250D02*
D03*
Y224250D02*
D03*
X64500Y189750D02*
D03*
Y173750D02*
D03*
X314750Y137250D02*
D03*
Y153250D02*
D03*
X299000D02*
D03*
Y137250D02*
D03*
X44250Y137000D02*
D03*
Y153000D02*
D03*
X28500Y153000D02*
D03*
Y137000D02*
D03*
X368500Y269250D02*
D03*
Y285250D02*
D03*
X383500Y157250D02*
D03*
Y141250D02*
D03*
X337750Y316250D02*
D03*
Y332250D02*
D03*
X353250Y269000D02*
D03*
Y285000D02*
D03*
X354750Y316250D02*
D03*
Y332250D02*
D03*
X211500Y146750D02*
D03*
Y162750D02*
D03*
X151250Y163250D02*
D03*
Y147250D02*
D03*
X260250Y410500D02*
D03*
Y426500D02*
D03*
X188500Y410250D02*
D03*
Y426250D02*
D03*
X166500Y475250D02*
D03*
Y459250D02*
D03*
Y487250D02*
D03*
Y503250D02*
D03*
X232750Y541750D02*
D03*
Y525750D02*
D03*
X217500Y541750D02*
D03*
Y525750D02*
D03*
X263500Y541750D02*
D03*
Y525750D02*
D03*
X248000Y541750D02*
D03*
Y525750D02*
D03*
X363250Y566750D02*
D03*
Y550750D02*
D03*
D24*
X118500Y308200D02*
D03*
Y320900D02*
D03*
Y333600D02*
D03*
Y346300D02*
D03*
D25*
X60500Y308200D02*
D03*
Y320900D02*
D03*
Y333600D02*
D03*
Y346300D02*
D03*
D26*
X447750Y124050D02*
D03*
Y105000D02*
D03*
X424890Y114525D02*
D03*
D27*
X64475Y159860D02*
D03*
X83525D02*
D03*
X74000Y137000D02*
D03*
D28*
X115750Y186000D02*
D03*
X96750D02*
D03*
X106250Y163500D02*
D03*
D29*
X468500Y121750D02*
D03*
X491000Y131250D02*
D03*
Y112250D02*
D03*
D30*
X342750Y238000D02*
D03*
X358750D02*
D03*
X347500Y203000D02*
D03*
X331500D02*
D03*
X134750Y370750D02*
D03*
X118750D02*
D03*
X289000Y487500D02*
D03*
X305000D02*
D03*
X122400Y432800D02*
D03*
X106400D02*
D03*
X122400Y448800D02*
D03*
X106400D02*
D03*
D31*
X296250Y399250D02*
D03*
Y419250D02*
D03*
D32*
X327000Y366250D02*
D03*
Y382250D02*
D03*
X377250Y193750D02*
D03*
Y177750D02*
D03*
X268000Y150500D02*
D03*
Y166500D02*
D03*
X248250Y150500D02*
D03*
Y166500D02*
D03*
X228000Y150500D02*
D03*
Y166500D02*
D03*
X131750Y234000D02*
D03*
Y218000D02*
D03*
X215250Y416250D02*
D03*
Y400250D02*
D03*
X96500Y498119D02*
D03*
Y482119D02*
D03*
X80250Y498119D02*
D03*
Y482119D02*
D03*
X91500Y387000D02*
D03*
Y371000D02*
D03*
X233250Y416250D02*
D03*
Y400250D02*
D03*
X509750Y279500D02*
D03*
Y295500D02*
D03*
D33*
X193000Y146000D02*
D03*
X170000D02*
D03*
Y164000D02*
D03*
X193000D02*
D03*
X169500Y408000D02*
D03*
X146500D02*
D03*
Y426000D02*
D03*
X169500D02*
D03*
D34*
X159500Y383750D02*
D03*
X179500D02*
D03*
D35*
X313250Y463750D02*
D03*
X284250D02*
D03*
D36*
X122750Y471500D02*
D03*
Y500500D02*
D03*
D37*
X219786Y481036D02*
D03*
X216250Y477500D02*
D03*
X202108Y463358D02*
D03*
X205644Y466893D02*
D03*
X212714Y473965D02*
D03*
X209179Y470429D02*
D03*
X235978Y443629D02*
D03*
X239514Y447165D02*
D03*
X232442Y440094D02*
D03*
X228907Y436559D02*
D03*
X243050Y450701D02*
D03*
X246585Y454236D02*
D03*
D38*
X228907Y481036D02*
D03*
X232442Y477500D02*
D03*
X246585Y463358D02*
D03*
X243050Y466893D02*
D03*
X235978Y473964D02*
D03*
X239514Y470429D02*
D03*
X202108Y454236D02*
D03*
X205644Y450701D02*
D03*
X219786Y436559D02*
D03*
X216250Y440094D02*
D03*
X209179Y447165D02*
D03*
X212714Y443629D02*
D03*
D39*
X224347Y458797D02*
D03*
D40*
X179750Y359350D02*
D03*
X184750D02*
D03*
X189750D02*
D03*
X194750D02*
D03*
X199750D02*
D03*
X204750D02*
D03*
X209750D02*
D03*
X214750D02*
D03*
X219750D02*
D03*
X224750D02*
D03*
X229750D02*
D03*
X234750D02*
D03*
X239750D02*
D03*
X244750D02*
D03*
X249750D02*
D03*
X254750D02*
D03*
X259750D02*
D03*
X264750D02*
D03*
X269750D02*
D03*
X274750D02*
D03*
X279750D02*
D03*
X284750D02*
D03*
X289750D02*
D03*
X294750D02*
D03*
X299750D02*
D03*
Y205750D02*
D03*
X294750D02*
D03*
X289750D02*
D03*
X284750D02*
D03*
X279750D02*
D03*
X274750D02*
D03*
X269750D02*
D03*
X264750D02*
D03*
X259750D02*
D03*
X254750D02*
D03*
X249750D02*
D03*
X244750D02*
D03*
X239750D02*
D03*
X234750D02*
D03*
X229750D02*
D03*
X224750D02*
D03*
X219750D02*
D03*
X214750D02*
D03*
X209750D02*
D03*
X204750D02*
D03*
X199750D02*
D03*
X194750D02*
D03*
X189750D02*
D03*
X184750D02*
D03*
X179750D02*
D03*
D41*
X162950Y222550D02*
D03*
Y227550D02*
D03*
Y232550D02*
D03*
Y237550D02*
D03*
Y242550D02*
D03*
Y247550D02*
D03*
Y252550D02*
D03*
Y257550D02*
D03*
Y262550D02*
D03*
Y267550D02*
D03*
Y272550D02*
D03*
Y277550D02*
D03*
Y282550D02*
D03*
Y287550D02*
D03*
Y292550D02*
D03*
Y297550D02*
D03*
Y302550D02*
D03*
Y307550D02*
D03*
Y312550D02*
D03*
Y317550D02*
D03*
Y322550D02*
D03*
Y327550D02*
D03*
Y332550D02*
D03*
Y337550D02*
D03*
Y342550D02*
D03*
X316550D02*
D03*
Y337550D02*
D03*
Y332550D02*
D03*
Y327550D02*
D03*
Y322550D02*
D03*
Y317550D02*
D03*
Y312550D02*
D03*
Y307550D02*
D03*
Y302550D02*
D03*
Y297550D02*
D03*
Y292550D02*
D03*
Y287550D02*
D03*
Y282550D02*
D03*
Y277550D02*
D03*
Y272550D02*
D03*
Y267550D02*
D03*
Y262550D02*
D03*
Y257550D02*
D03*
Y252550D02*
D03*
Y247550D02*
D03*
Y242550D02*
D03*
Y237550D02*
D03*
Y232550D02*
D03*
Y227550D02*
D03*
Y222550D02*
D03*
D42*
X406500Y174750D02*
D03*
Y193750D02*
D03*
X429500D02*
D03*
Y184250D02*
D03*
Y174750D02*
D03*
X406250Y140500D02*
D03*
Y159500D02*
D03*
X429250D02*
D03*
Y150000D02*
D03*
Y140500D02*
D03*
D43*
X439750Y641750D02*
D03*
D44*
X473750Y547250D02*
D03*
X456750D02*
D03*
X439750D02*
D03*
X422750D02*
D03*
X405750D02*
D03*
D45*
X498750Y376500D02*
D03*
X398750D02*
D03*
D46*
X423435Y488750D02*
D03*
X352065D02*
D03*
D88*
X279250Y161000D02*
X288750Y170500D01*
X262500Y119000D02*
X279250Y135750D01*
Y161000D01*
X288750Y170500D02*
X331000D01*
X262500Y45750D02*
Y119000D01*
X94000Y30850D02*
X247600D01*
X262500Y45750D01*
X214312Y172980D02*
X215008Y173676D01*
X213500Y172980D02*
X214312D01*
X215008Y173676D02*
X219824D01*
X227000Y166500D01*
X35677Y282500D02*
X70250D01*
X30727Y287450D02*
X35677Y282500D01*
X27750Y287450D02*
X30727D01*
X98750Y282500D02*
X127250D01*
X70250D02*
X98750D01*
X44250Y153000D02*
Y162938D01*
X47250Y165938D01*
Y166750D01*
X28500Y153000D02*
X44250D01*
X44250Y153000D01*
X57100Y81650D02*
X94000D01*
X28500Y110250D02*
X57100Y81650D01*
X28500Y110250D02*
Y137000D01*
X74000Y122000D02*
Y137000D01*
Y122000D02*
X83000Y113000D01*
X158087Y100000D02*
X158250D01*
X145087Y113000D02*
X158087Y100000D01*
X83000Y113000D02*
X145087D01*
X398500Y58500D02*
X400750Y56250D01*
X377250Y58500D02*
X398500D01*
X326500Y72500D02*
X363250D01*
X377250Y58500D01*
X304000Y50000D02*
X326500Y72500D01*
X384100Y81650D02*
X400750D01*
X299000Y137250D02*
X300000D01*
X314375Y122875D01*
X342875D01*
X384100Y81650D01*
X331000Y170500D02*
Y171500D01*
X343750Y184250D01*
X345250D01*
X346750Y185750D01*
Y186750D01*
X179296Y53954D02*
X183250Y50000D01*
X96296Y53954D02*
X179296D01*
X94000Y56250D02*
X96296Y53954D01*
X367750Y255000D02*
X369250Y253500D01*
Y248312D02*
Y253500D01*
Y248312D02*
X372500Y245062D01*
Y244250D02*
Y245062D01*
X367750Y255000D02*
X368125Y255375D01*
Y268875D01*
X368500Y269250D01*
X390250Y188000D02*
Y195500D01*
X227000Y166500D02*
X228000D01*
X327000Y366250D02*
X328250Y365000D01*
X348000D01*
X350500Y367500D02*
Y381850D01*
X348000Y365000D02*
X350500Y367500D01*
X326000Y366250D02*
X327000D01*
X316550Y356800D02*
X326000Y366250D01*
X316550Y343150D02*
Y356800D01*
X304000Y439500D02*
X304250D01*
X282750Y460750D02*
X304000Y439500D01*
X282750Y460750D02*
Y463750D01*
X283282Y464718D02*
Y468032D01*
Y464718D02*
X284250Y463750D01*
X283282Y468032D02*
X289000Y473750D01*
X272500Y496250D02*
X278750D01*
X280500D01*
X289000Y473750D02*
Y488500D01*
Y487500D02*
Y488500D01*
X280500Y496250D02*
X283328Y493422D01*
X284078D01*
X289000Y488500D01*
X120369Y498119D02*
X122750Y500500D01*
X396000Y173750D02*
X403500D01*
X386000Y158750D02*
Y163750D01*
X396000Y173750D01*
X384500Y157250D02*
X386000Y158750D01*
X383500Y157250D02*
X384500D01*
X372000Y130750D02*
X382500Y141250D01*
X371750Y130750D02*
X372000D01*
X390250Y195500D02*
Y207250D01*
X403500Y174750D02*
X406500D01*
X390250Y188000D02*
X403500Y174750D01*
X382500Y141250D02*
X383500D01*
X405875Y140875D02*
X406250Y140500D01*
X383875Y140875D02*
X405875D01*
X383500Y141250D02*
X383875Y140875D01*
X445000Y518750D02*
X445574Y519324D01*
X450824D01*
X456750Y525250D01*
Y547250D01*
X388500Y193750D02*
X390250Y195500D01*
X166000Y517250D02*
X166250Y517000D01*
Y503500D02*
Y517000D01*
Y503500D02*
X166500Y503250D01*
X166375Y459125D02*
X166500Y459250D01*
X151125Y459125D02*
X166375D01*
X151000Y459000D02*
X151125Y459125D01*
X217375Y513375D02*
Y525625D01*
X217500Y525750D01*
X217250Y513250D02*
X217375Y513375D01*
X247875Y512875D02*
Y525625D01*
X247750Y512750D02*
X247875Y512875D01*
X166500Y445000D02*
Y459250D01*
X224500Y498500D02*
X260063D01*
X271314Y509750D01*
X278750Y498000D02*
Y509750D01*
Y498000D02*
X280500Y496250D01*
X271314Y509750D02*
X278750D01*
X263250Y525500D02*
X263500Y525750D01*
X263250Y513000D02*
Y525500D01*
X263000Y512750D02*
X263250Y513000D01*
X247875Y525625D02*
X248000Y525750D01*
X232625Y525625D02*
X232750Y525750D01*
X232625Y512875D02*
Y525625D01*
X232500Y512750D02*
X232625Y512875D01*
X120500Y500500D02*
X122750D01*
X115000Y506000D02*
X120500Y500500D01*
X115000Y506000D02*
Y517750D01*
X96500Y498119D02*
X120369D01*
X80250D02*
X96500D01*
Y521450D01*
X109150Y534100D01*
X95989Y559500D02*
X96450D01*
X87034Y550545D02*
X95989Y559500D01*
X80295Y550545D02*
X87034D01*
X70750Y541000D02*
X80295Y550545D01*
X70750Y525500D02*
Y541000D01*
X80250Y498119D02*
Y516000D01*
X70750Y525500D02*
X80250Y516000D01*
X180500Y498500D02*
Y499500D01*
X176750Y503250D02*
X180500Y499500D01*
X166500Y503250D02*
X176750D01*
X377250Y193750D02*
X388500D01*
X363250Y540593D02*
Y550750D01*
X343750Y540250D02*
X345750Y538250D01*
X360907D01*
X363250Y540593D01*
Y566750D02*
X364250D01*
X377625Y580125D01*
X382125D01*
D89*
X228125Y166625D02*
X228125Y166625D01*
X248746Y167246D02*
X267746D01*
X49750Y238750D02*
Y247750D01*
X57500Y255500D01*
X48950Y223550D02*
X49750Y222750D01*
X28550Y223550D02*
X48950D01*
X27750Y224350D02*
X28550Y223550D01*
X95500Y142750D02*
X95625Y142625D01*
Y125875D02*
Y142625D01*
Y125875D02*
X95750Y125750D01*
X94500Y143750D02*
X95500Y142750D01*
X84250Y143750D02*
X94500D01*
X64475Y159860D02*
X73185Y151150D01*
X76850D01*
X84250Y143750D01*
X472000Y222750D02*
Y258500D01*
X496500Y234000D01*
X506750D01*
X507750Y233000D01*
X267746Y167246D02*
X268000Y167500D01*
X248125Y166625D02*
X248746Y167246D01*
X228125Y166625D02*
X248125D01*
X435750Y112050D02*
X447750Y124050D01*
X430250Y92500D02*
X435750Y98000D01*
X430250Y91500D02*
Y92500D01*
X435750Y98000D02*
Y112050D01*
X472000Y148300D02*
Y222750D01*
X447750Y124050D02*
X472000Y148300D01*
X445679Y173821D02*
Y191071D01*
Y156571D02*
Y173821D01*
X429500Y174750D02*
X444750D01*
X445679Y173821D01*
X443000Y193750D02*
X445679Y191071D01*
X443000Y193750D02*
X472000Y222750D01*
X429500Y193750D02*
X443000D01*
X429250Y159500D02*
X442750D01*
X445679Y156571D01*
Y143429D02*
Y156571D01*
X442750Y140500D02*
X445679Y143429D01*
X429250Y140500D02*
X442750D01*
X416750Y184250D02*
X429500D01*
X416500Y150000D02*
X429250D01*
X248000Y541750D02*
X263500D01*
X232750D02*
X248000D01*
X217500D02*
X232750D01*
D90*
X472000Y258500D02*
Y300375D01*
X398750Y376500D02*
X400323Y378073D01*
Y460558D01*
X423435Y483670D01*
Y488750D01*
X472000Y300375D02*
Y314750D01*
X483750Y326500D01*
Y361500D01*
X498750Y376500D01*
X476875Y295500D02*
X509750D01*
X472000Y300375D02*
X476875Y295500D01*
X422750Y547250D02*
X423000Y547000D01*
Y489185D02*
Y547000D01*
Y489185D02*
X423435Y488750D01*
X382125Y580125D02*
X390750Y571500D01*
X356750Y605500D02*
X382125Y580125D01*
X390750Y553108D02*
Y571500D01*
X405750Y547250D02*
Y552858D01*
X405500Y553108D02*
X405750Y552858D01*
X390750Y553108D02*
X405500D01*
X326000Y605500D02*
X356750D01*
X241500Y576000D02*
X271000Y605500D01*
X326000D01*
D91*
X94000Y81650D02*
D03*
Y56250D02*
D03*
X400750Y81650D02*
D03*
Y56250D02*
D03*
X27750Y224350D02*
D03*
Y198950D02*
D03*
X350500Y432650D02*
D03*
Y407250D02*
D03*
D92*
X94000Y30850D02*
D03*
X400750D02*
D03*
X27750Y249750D02*
D03*
X350500Y381850D02*
D03*
D93*
X147250Y559500D02*
D03*
D94*
X134550Y534100D02*
D03*
X121850Y559500D02*
D03*
X109150Y534100D02*
D03*
X96450Y559500D02*
D03*
X83750Y534100D02*
D03*
X71050Y559500D02*
D03*
X58350Y534100D02*
D03*
D95*
X169000Y672000D02*
D03*
X143600D02*
D03*
X36500D02*
D03*
X61900D02*
D03*
D96*
X180200Y592500D02*
D03*
X25300D02*
D03*
D97*
X45600Y623000D02*
D03*
X159900D02*
D03*
D98*
X233250Y50000D02*
D03*
X208250Y100000D02*
D03*
X183250Y50000D02*
D03*
X158250Y100000D02*
D03*
X279000D02*
D03*
X304000Y50000D02*
D03*
X329000Y100000D02*
D03*
X354000Y50000D02*
D03*
X241500Y576000D02*
D03*
X216500Y626000D02*
D03*
D99*
X40250Y451750D02*
D03*
Y36500D02*
D03*
X486750Y38500D02*
D03*
Y484000D02*
D03*
D100*
X326000Y655500D02*
D03*
X422000Y258500D02*
D03*
D101*
X326000Y605500D02*
D03*
D102*
X472000Y258500D02*
D03*
D103*
X27750Y287450D02*
D03*
Y312850D02*
D03*
Y338250D02*
D03*
Y363650D02*
D03*
D104*
Y389050D02*
D03*
D105*
X287250Y152750D02*
D03*
X142000Y236250D02*
D03*
X202980Y224500D02*
D03*
X219000Y235000D02*
D03*
X236500Y228250D02*
D03*
X73322Y203428D02*
D03*
X166000Y184500D02*
D03*
X195750Y182250D02*
D03*
X213500Y172980D02*
D03*
X57500Y208250D02*
D03*
X166000Y196000D02*
D03*
X57500Y255500D02*
D03*
X95750Y125750D02*
D03*
X112750Y270500D02*
D03*
X181500Y324750D02*
D03*
X110000Y250250D02*
D03*
X231250Y338000D02*
D03*
X220750Y335500D02*
D03*
X47250Y166750D02*
D03*
X372500Y244250D02*
D03*
X361287Y296463D02*
D03*
X285250Y231250D02*
D03*
X319500Y187500D02*
D03*
X292500Y340500D02*
D03*
X339000Y344500D02*
D03*
X304250Y439500D02*
D03*
X354000Y342500D02*
D03*
X253500Y397250D02*
D03*
X244500Y386250D02*
D03*
X266250Y456500D02*
D03*
X272500Y496250D02*
D03*
X493500Y217000D02*
D03*
X145507Y333766D02*
D03*
X178000Y336000D02*
D03*
X40750Y326750D02*
D03*
X135000Y383030D02*
D03*
X245000Y223000D02*
D03*
X500750Y146000D02*
D03*
X416750Y126500D02*
D03*
X189250Y337000D02*
D03*
X260037Y238537D02*
D03*
X161500Y353500D02*
D03*
X247750Y188250D02*
D03*
X273000Y231500D02*
D03*
X208500Y272250D02*
D03*
X204500Y244500D02*
D03*
X192000Y246750D02*
D03*
X371750Y130750D02*
D03*
X266000Y466750D02*
D03*
X145750Y355500D02*
D03*
X445000Y518750D02*
D03*
X187020Y470770D02*
D03*
X232750Y458750D02*
D03*
X224250Y467250D02*
D03*
X215500Y459000D02*
D03*
X390250Y207250D02*
D03*
X198250Y383750D02*
D03*
X257500Y443750D02*
D03*
X190250Y457230D02*
D03*
X201000Y410750D02*
D03*
X247250Y413750D02*
D03*
X166000Y517250D02*
D03*
X137500Y442000D02*
D03*
X224000Y429250D02*
D03*
X179500Y443250D02*
D03*
X180250Y453750D02*
D03*
X151000Y459000D02*
D03*
X238000Y431000D02*
D03*
X217250Y513250D02*
D03*
X247750Y512750D02*
D03*
X188071Y528821D02*
D03*
X265750Y478250D02*
D03*
X265500Y489500D02*
D03*
X255250Y489750D02*
D03*
X245000Y490250D02*
D03*
X234500Y490500D02*
D03*
X275750Y561000D02*
D03*
X263000Y512750D02*
D03*
X232500D02*
D03*
X115000Y517750D02*
D03*
X181000Y521750D02*
D03*
D106*
X204750Y317000D02*
D03*
X232250Y242750D02*
D03*
X511001Y675751D02*
D03*
Y657751D02*
D03*
Y639751D02*
D03*
Y621751D02*
D03*
Y603751D02*
D03*
X502001Y675751D02*
D03*
X506501Y666751D02*
D03*
X502001Y657751D02*
D03*
X506501Y648751D02*
D03*
X502001Y639751D02*
D03*
X506501Y630751D02*
D03*
X502001Y621751D02*
D03*
X506501Y612751D02*
D03*
X502001Y603751D02*
D03*
X376001Y675751D02*
D03*
X380501Y666751D02*
D03*
X376001Y657751D02*
D03*
X380501Y648751D02*
D03*
X376001Y639751D02*
D03*
X380501Y630751D02*
D03*
X376001Y621751D02*
D03*
X380501Y612751D02*
D03*
X376001Y603751D02*
D03*
X367001Y675751D02*
D03*
X371501Y666751D02*
D03*
X367001Y657751D02*
D03*
X371501Y648751D02*
D03*
X367001Y639751D02*
D03*
X371501Y630751D02*
D03*
X367001Y621751D02*
D03*
X371501Y612751D02*
D03*
M02*
