G04*
G04 #@! TF.GenerationSoftware,Altium Limited,Altium Designer,20.0.13 (296)*
G04*
G04 Layer_Color=65535*
%FSLAX44Y44*%
%MOMM*%
G71*
G01*
G75*
%ADD10C,0.2500*%
%ADD11C,0.2000*%
%ADD12C,0.1500*%
%ADD13C,0.6096*%
%ADD14C,0.3000*%
%ADD15C,0.0000*%
%ADD16C,0.1524*%
%ADD17C,0.1270*%
%ADD18C,0.1520*%
%ADD19C,0.2540*%
D10*
X390250Y425500D02*
G03*
X390250Y425500I-1250J0D01*
G01*
X358800Y77000D02*
G03*
X358800Y77000I-1250J0D01*
G01*
D11*
X370500Y457250D02*
G03*
X370500Y457250I-50000J0D01*
G01*
X165749Y338251D02*
G03*
X165749Y338251I-1000J0D01*
G01*
X486750Y123750D02*
G03*
X486750Y123750I-50000J0D01*
G01*
X316000Y149500D02*
G03*
X316000Y149500I-1000J0D01*
G01*
X485750Y452000D02*
Y474500D01*
X381750Y452000D02*
X485750D01*
X381750D02*
Y474500D01*
X267750Y398750D02*
Y408750D01*
X303000Y381750D02*
X306000D01*
X303000Y390750D02*
X306000D01*
X317000Y398500D02*
X324000D01*
X320500Y395000D02*
Y402000D01*
X236500Y229500D02*
Y232500D01*
X227500Y229500D02*
Y232500D01*
X262750Y214000D02*
Y217000D01*
X271750Y214000D02*
Y217000D01*
X241750Y213750D02*
Y216750D01*
X250750Y213750D02*
Y216750D01*
X142250Y269250D02*
X145250D01*
X142250Y260250D02*
X145250D01*
X47000Y262500D02*
Y265500D01*
X56000Y262500D02*
Y265500D01*
X26500Y262750D02*
Y265750D01*
X35500Y262750D02*
Y265750D01*
X293750Y241300D02*
X296750D01*
X293750D02*
Y257200D01*
X296750D01*
X272000Y184250D02*
Y187250D01*
X263000Y184250D02*
Y187250D01*
X191300Y215250D02*
Y218250D01*
X207200D01*
Y215250D02*
Y218250D01*
X81250Y372750D02*
Y375750D01*
X90250Y372750D02*
Y375750D01*
X125000Y285500D02*
X128000D01*
X125000Y276500D02*
X128000D01*
X145750Y332000D02*
Y335000D01*
X154750Y332000D02*
Y335000D01*
Y303750D02*
Y306750D01*
X145750Y303750D02*
Y306750D01*
X126500Y317250D02*
X129500D01*
X126500Y308250D02*
X129500D01*
X126500Y331500D02*
X129500D01*
X126500Y322500D02*
X129500D01*
X495500Y120250D02*
Y127250D01*
X492000Y123750D02*
X499000D01*
X204000Y22750D02*
Y25750D01*
X213000Y22750D02*
Y25750D01*
X182500Y22750D02*
Y25750D01*
X173500Y22750D02*
Y25750D01*
X308500Y284500D02*
X311500D01*
X308500Y275500D02*
X311500D01*
X182500Y373500D02*
X185500D01*
X182500Y382500D02*
X185500D01*
X67000Y372750D02*
Y375750D01*
X76000Y372750D02*
Y375750D01*
X154500Y382500D02*
X157500D01*
X154500Y373500D02*
X157500D01*
X197750Y22750D02*
Y25750D01*
X188750Y22750D02*
Y25750D01*
X308000Y337000D02*
X311000D01*
X308000Y346000D02*
X311000D01*
X89250Y154000D02*
X92250D01*
X89250Y145000D02*
X92250D01*
X90000Y205250D02*
X93000D01*
X90000Y214250D02*
X93000D01*
X111000Y269250D02*
X114000D01*
X111000Y260250D02*
X114000D01*
X116000Y292500D02*
X119000D01*
X116000Y301500D02*
X119000D01*
X214250Y383000D02*
X217250D01*
X214250Y374000D02*
X217250D01*
X90500Y17550D02*
Y42950D01*
X166700D01*
Y17550D02*
Y42950D01*
X90500Y17550D02*
X166700D01*
X27300Y210400D02*
X52700D01*
Y83400D02*
Y210400D01*
X27300Y83400D02*
Y210400D01*
Y83400D02*
X52700D01*
X305000Y62000D02*
X355000D01*
X305000Y44000D02*
X355000D01*
Y62000D01*
X305000Y44000D02*
Y62000D01*
X489253Y441998D02*
Y433001D01*
X493752D01*
X495252Y434501D01*
Y440499D01*
X493752Y441998D01*
X489253D01*
X498251D02*
Y433001D01*
X502749D01*
X504249Y434501D01*
Y440499D01*
X502749Y441998D01*
X498251D01*
X507248Y433001D02*
X510247D01*
X508747D01*
Y441998D01*
X507248Y440499D01*
X259003Y390248D02*
Y384250D01*
X262002Y381251D01*
X265002Y384250D01*
Y390248D01*
X268001D02*
Y381251D01*
X272499D01*
X273999Y382751D01*
Y388749D01*
X272499Y390248D01*
X268001D01*
X276998Y381251D02*
X279997D01*
X278497D01*
Y390248D01*
X276998Y388749D01*
X292754Y367752D02*
Y376749D01*
X297252D01*
X298752Y375249D01*
Y372250D01*
X297252Y370751D01*
X292754D01*
X295753D02*
X298752Y367752D01*
X307749D02*
X301751D01*
X307749Y373750D01*
Y375249D01*
X306250Y376749D01*
X303251D01*
X301751Y375249D01*
X310748D02*
X312248Y376749D01*
X315247D01*
X316746Y375249D01*
Y373750D01*
X315247Y372250D01*
X313747D01*
X315247D01*
X316746Y370751D01*
Y369251D01*
X315247Y367752D01*
X312248D01*
X310748Y369251D01*
X364752Y412999D02*
X363252Y414498D01*
X360253D01*
X358754Y412999D01*
Y407001D01*
X360253Y405501D01*
X363252D01*
X364752Y407001D01*
X367751Y405501D02*
X370750D01*
X369250D01*
Y414498D01*
X367751Y412999D01*
X375248Y407001D02*
X376748Y405501D01*
X379747D01*
X381246Y407001D01*
Y412999D01*
X379747Y414498D01*
X376748D01*
X375248Y412999D01*
Y411499D01*
X376748Y410000D01*
X381246D01*
X208000Y553750D02*
X201336D01*
X252918Y550750D02*
Y557415D01*
X249585Y554082D02*
X256250D01*
X10502Y68499D02*
Y59502D01*
Y64000D01*
X16501D01*
Y68499D01*
Y59502D01*
X23998D02*
Y68499D01*
X19499Y64000D01*
X25498D01*
X443002Y18249D02*
Y9251D01*
Y13750D01*
X449001D01*
Y18249D01*
Y9251D01*
X452000Y16749D02*
X453499Y18249D01*
X456498D01*
X457998Y16749D01*
Y15250D01*
X456498Y13750D01*
X454999D01*
X456498D01*
X457998Y12250D01*
Y10751D01*
X456498Y9251D01*
X453499D01*
X452000Y10751D01*
X146000Y52249D02*
X151998D01*
X148999Y55248D02*
Y49250D01*
X160995Y56747D02*
X154997D01*
Y52249D01*
X157996Y53748D01*
X159496D01*
X160995Y52249D01*
Y49250D01*
X159496Y47750D01*
X156497D01*
X154997Y49250D01*
X73253Y16750D02*
X79251D01*
X82250Y19749D01*
X79251Y22748D01*
X73253D01*
X82250Y25747D02*
Y28746D01*
Y27247D01*
X76252D01*
Y25747D01*
X82250Y33245D02*
X76252D01*
Y37743D01*
X77751Y39243D01*
X82250D01*
X16250Y195750D02*
Y204747D01*
X20749D01*
X22248Y203248D01*
Y200249D01*
X20749Y198749D01*
X16250D01*
X19249D02*
X22248Y195750D01*
X243497Y514501D02*
Y523498D01*
X238998D01*
X237499Y521999D01*
Y516001D01*
X238998Y514501D01*
X243497D01*
X228501Y516001D02*
X230001Y514501D01*
X233000D01*
X234499Y516001D01*
Y521999D01*
X233000Y523498D01*
X230001D01*
X228501Y521999D01*
Y519000D01*
X231500D01*
X225502Y523498D02*
X222503D01*
X224003D01*
Y514501D01*
X225502Y516001D01*
X12698Y369675D02*
Y360678D01*
Y365177D01*
X18696D01*
Y369675D01*
Y360678D01*
X27693D02*
X21695D01*
X27693Y366676D01*
Y368176D01*
X26194Y369675D01*
X23195D01*
X21695Y368176D01*
X493002Y402248D02*
Y393251D01*
Y397750D01*
X499000D01*
Y402248D01*
Y393251D01*
X501999D02*
X504998D01*
X503498D01*
Y402248D01*
X501999Y400749D01*
X259752Y370499D02*
Y363001D01*
X261251Y361502D01*
X264251D01*
X265750Y363001D01*
Y370499D01*
X268749Y361502D02*
X271748D01*
X270249D01*
Y370499D01*
X268749Y368999D01*
X59251Y172253D02*
X68249Y178251D01*
X59251D02*
X68249Y172253D01*
X60751Y181250D02*
X59251Y182749D01*
Y185748D01*
X60751Y187248D01*
X62250D01*
X63750Y185748D01*
Y184249D01*
Y185748D01*
X65250Y187248D01*
X66749D01*
X68249Y185748D01*
Y182749D01*
X66749Y181250D01*
X341749Y328997D02*
X332751Y322999D01*
X341749D02*
X332751Y328997D01*
Y314002D02*
Y320000D01*
X338750Y314002D01*
X340249D01*
X341749Y315502D01*
Y318501D01*
X340249Y320000D01*
X16998Y255003D02*
X8001D01*
Y259502D01*
X9501Y261001D01*
X12500D01*
X14000Y259502D01*
Y255003D01*
Y258002D02*
X16998Y261001D01*
Y269998D02*
Y264000D01*
X11000Y269998D01*
X9501D01*
X8001Y268499D01*
Y265500D01*
X9501Y264000D01*
X16998Y272998D02*
Y275997D01*
Y274497D01*
X8001D01*
X9501Y272998D01*
X70498Y252504D02*
X61501D01*
Y257003D01*
X63001Y258502D01*
X66000D01*
X67499Y257003D01*
Y252504D01*
Y255503D02*
X70498Y258502D01*
Y267499D02*
Y261501D01*
X64500Y267499D01*
X63001D01*
X61501Y266000D01*
Y263001D01*
X63001Y261501D01*
Y270498D02*
X61501Y271998D01*
Y274997D01*
X63001Y276496D01*
X68999D01*
X70498Y274997D01*
Y271998D01*
X68999Y270498D01*
X63001D01*
X137754Y353002D02*
Y361998D01*
X142252D01*
X143752Y360499D01*
Y357500D01*
X142252Y356001D01*
X137754D01*
X140753D02*
X143752Y353002D01*
X146751D02*
X149750D01*
X148250D01*
Y361998D01*
X146751Y360499D01*
X154248Y354501D02*
X155748Y353002D01*
X158747D01*
X160246Y354501D01*
Y360499D01*
X158747Y361998D01*
X155748D01*
X154248Y360499D01*
Y358999D01*
X155748Y357500D01*
X160246D01*
X396498Y34754D02*
X387501D01*
Y39252D01*
X389001Y40752D01*
X392000D01*
X393499Y39252D01*
Y34754D01*
Y37753D02*
X396498Y40752D01*
Y43751D02*
Y46750D01*
Y45250D01*
X387501D01*
X389001Y43751D01*
X387501Y51248D02*
Y57246D01*
X389001D01*
X394999Y51248D01*
X396498D01*
X449999Y33754D02*
X441001D01*
Y38252D01*
X442501Y39752D01*
X445500D01*
X447000Y38252D01*
Y33754D01*
Y36753D02*
X449999Y39752D01*
Y42751D02*
Y45750D01*
Y44250D01*
X441001D01*
X442501Y42751D01*
X441001Y56246D02*
X442501Y53247D01*
X445500Y50248D01*
X448499D01*
X449999Y51748D01*
Y54747D01*
X448499Y56246D01*
X447000D01*
X445500Y54747D01*
Y50248D01*
X224751Y36496D02*
X233748D01*
Y31998D01*
X232249Y30498D01*
X229250D01*
X227750Y31998D01*
Y36496D01*
Y33497D02*
X224751Y30498D01*
Y27499D02*
Y24500D01*
Y26000D01*
X233748D01*
X232249Y27499D01*
X233748Y14004D02*
Y20002D01*
X229250D01*
X230749Y17003D01*
Y15503D01*
X229250Y14004D01*
X226251D01*
X224751Y15503D01*
Y18502D01*
X226251Y20002D01*
X498002Y336749D02*
Y327752D01*
X504000D01*
X506999D02*
X509998D01*
X508499D01*
Y336749D01*
X506999Y335249D01*
X222248Y242248D02*
Y248247D01*
X217750D01*
Y245247D01*
Y248247D01*
X213251D01*
X222248Y239249D02*
X213251D01*
Y233251D01*
Y230252D02*
Y227253D01*
Y228753D01*
X222248D01*
X220749Y230252D01*
X87502Y285249D02*
X86002Y286749D01*
X83003D01*
X81504Y285249D01*
Y279251D01*
X83003Y277751D01*
X86002D01*
X87502Y279251D01*
X96499Y277751D02*
X90501D01*
X96499Y283750D01*
Y285249D01*
X95000Y286749D01*
X92001D01*
X90501Y285249D01*
X105496Y286749D02*
X102497Y285249D01*
X99498Y282250D01*
Y279251D01*
X100998Y277751D01*
X103997D01*
X105496Y279251D01*
Y280751D01*
X103997Y282250D01*
X99498D01*
X86502Y316249D02*
X85002Y317749D01*
X82003D01*
X80504Y316249D01*
Y310251D01*
X82003Y308752D01*
X85002D01*
X86502Y310251D01*
X95499Y308752D02*
X89501D01*
X95499Y314750D01*
Y316249D01*
X94000Y317749D01*
X91000D01*
X89501Y316249D01*
X102997Y308752D02*
Y317749D01*
X98498Y313250D01*
X104496D01*
X87002Y330999D02*
X85502Y332499D01*
X82503D01*
X81004Y330999D01*
Y325001D01*
X82503Y323502D01*
X85502D01*
X87002Y325001D01*
X95999Y323502D02*
X90001D01*
X95999Y329500D01*
Y330999D01*
X94500Y332499D01*
X91501D01*
X90001Y330999D01*
X98998D02*
X100498Y332499D01*
X103497D01*
X104996Y330999D01*
Y329500D01*
X103497Y328000D01*
X101997D01*
X103497D01*
X104996Y326501D01*
Y325001D01*
X103497Y323502D01*
X100498D01*
X98998Y325001D01*
X235499Y207998D02*
X236999Y209498D01*
Y212497D01*
X235499Y213996D01*
X229501D01*
X228001Y212497D01*
Y209498D01*
X229501Y207998D01*
X228001Y199001D02*
Y204999D01*
X234000Y199001D01*
X235499D01*
X236999Y200501D01*
Y203500D01*
X235499Y204999D01*
X228001Y190004D02*
Y196002D01*
X234000Y190004D01*
X235499D01*
X236999Y191503D01*
Y194502D01*
X235499Y196002D01*
X478501Y72252D02*
X477001Y70752D01*
Y67753D01*
X478501Y66253D01*
X484499D01*
X485998Y67753D01*
Y70752D01*
X484499Y72252D01*
X485998Y81249D02*
Y75251D01*
X480000Y81249D01*
X478501D01*
X477001Y79749D01*
Y76750D01*
X478501Y75251D01*
X485998Y84248D02*
Y87247D01*
Y85747D01*
X477001D01*
X478501Y84248D01*
X500001Y98752D02*
X498501Y97252D01*
Y94253D01*
X500001Y92754D01*
X505999D01*
X507499Y94253D01*
Y97252D01*
X505999Y98752D01*
X507499Y107749D02*
Y101751D01*
X501500Y107749D01*
X500001D01*
X498501Y106250D01*
Y103251D01*
X500001Y101751D01*
Y110748D02*
X498501Y112248D01*
Y115247D01*
X500001Y116746D01*
X505999D01*
X507499Y115247D01*
Y112248D01*
X505999Y110748D01*
X500001D01*
X108249Y379748D02*
X109748Y381248D01*
Y384247D01*
X108249Y385746D01*
X102251D01*
X100751Y384247D01*
Y381248D01*
X102251Y379748D01*
X100751Y376749D02*
Y373750D01*
Y375250D01*
X109748D01*
X108249Y376749D01*
Y369252D02*
X109748Y367752D01*
Y364753D01*
X108249Y363254D01*
X106749D01*
X105250Y364753D01*
X103750Y363254D01*
X102251D01*
X100751Y364753D01*
Y367752D01*
X102251Y369252D01*
X103750D01*
X105250Y367752D01*
X106749Y369252D01*
X108249D01*
X105250Y367752D02*
Y364753D01*
X333502Y282749D02*
X332002Y284249D01*
X329003D01*
X327504Y282749D01*
Y276751D01*
X329003Y275252D01*
X332002D01*
X333502Y276751D01*
X336501Y275252D02*
X339500D01*
X338000D01*
Y284249D01*
X336501Y282749D01*
X343998Y284249D02*
X349996D01*
Y282749D01*
X343998Y276751D01*
Y275252D01*
X249999Y191748D02*
X251499Y193248D01*
Y196247D01*
X249999Y197746D01*
X244001D01*
X242501Y196247D01*
Y193248D01*
X244001Y191748D01*
X242501Y188749D02*
Y185750D01*
Y187250D01*
X251499D01*
X249999Y188749D01*
X242501Y176753D02*
X251499D01*
X247000Y181252D01*
Y175254D01*
X138252Y250999D02*
X136752Y252499D01*
X133753D01*
X132254Y250999D01*
Y245001D01*
X133753Y243501D01*
X136752D01*
X138252Y245001D01*
X141251Y243501D02*
X144250D01*
X142750D01*
Y252499D01*
X141251Y250999D01*
X148748D02*
X150248Y252499D01*
X153247D01*
X154746Y250999D01*
Y249499D01*
X153247Y248000D01*
X151747D01*
X153247D01*
X154746Y246500D01*
Y245001D01*
X153247Y243501D01*
X150248D01*
X148748Y245001D01*
X101754Y244501D02*
Y253499D01*
X106252D01*
X107752Y251999D01*
Y249000D01*
X106252Y247500D01*
X101754D01*
X104753D02*
X107752Y244501D01*
X110751D02*
X113750D01*
X112250D01*
Y253499D01*
X110751Y251999D01*
X122747Y244501D02*
Y253499D01*
X118248Y249000D01*
X124246D01*
X173002Y116999D02*
Y109501D01*
X174502Y108001D01*
X177501D01*
X179000Y109501D01*
Y116999D01*
X187998Y108001D02*
X181999D01*
X187998Y114000D01*
Y115499D01*
X186498Y116999D01*
X183499D01*
X181999Y115499D01*
X267251Y126996D02*
X276248D01*
Y122498D01*
X274749Y120998D01*
X271750D01*
X270250Y122498D01*
Y126996D01*
Y123997D02*
X267251Y120998D01*
Y117999D02*
Y115000D01*
Y116500D01*
X276248D01*
X274749Y117999D01*
Y110502D02*
X276248Y109002D01*
Y106003D01*
X274749Y104504D01*
X273249D01*
X271750Y106003D01*
Y107503D01*
Y106003D01*
X270250Y104504D01*
X268751D01*
X267251Y106003D01*
Y109002D01*
X268751Y110502D01*
X281001Y127247D02*
X289999D01*
Y122748D01*
X288499Y121249D01*
X285500D01*
X284000Y122748D01*
Y127247D01*
Y124248D02*
X281001Y121249D01*
Y118250D02*
Y115251D01*
Y116750D01*
X289999D01*
X288499Y118250D01*
X281001Y110752D02*
Y107753D01*
Y109253D01*
X289999D01*
X288499Y110752D01*
X295002Y127246D02*
X303999D01*
Y122748D01*
X302499Y121248D01*
X299500D01*
X298001Y122748D01*
Y127246D01*
Y124247D02*
X295002Y121248D01*
Y118249D02*
Y115250D01*
Y116750D01*
X303999D01*
X302499Y118249D01*
Y110752D02*
X303999Y109252D01*
Y106253D01*
X302499Y104754D01*
X296501D01*
X295002Y106253D01*
Y109252D01*
X296501Y110752D01*
X302499D01*
X119124Y221486D02*
Y230483D01*
X123623D01*
X125122Y228984D01*
Y225984D01*
X123623Y224485D01*
X119124D01*
X122123D02*
X125122Y221486D01*
X128121D02*
X131120D01*
X129621D01*
Y230483D01*
X128121Y228984D01*
X141617Y221486D02*
X135619D01*
X141617Y227484D01*
Y228984D01*
X140117Y230483D01*
X137118D01*
X135619Y228984D01*
X48502Y382497D02*
X57498D01*
Y377999D01*
X55999Y376499D01*
X53000D01*
X51501Y377999D01*
Y382497D01*
Y379498D02*
X48502Y376499D01*
X57498Y367502D02*
Y373500D01*
X53000D01*
X54500Y370501D01*
Y369002D01*
X53000Y367502D01*
X50001D01*
X48502Y369002D01*
Y372001D01*
X50001Y373500D01*
X241502Y34498D02*
X250499D01*
Y29999D01*
X248999Y28500D01*
X246000D01*
X244501Y29999D01*
Y34498D01*
Y31498D02*
X241502Y28500D01*
Y19502D02*
Y25501D01*
X247500Y19502D01*
X248999D01*
X250499Y21002D01*
Y24001D01*
X248999Y25501D01*
X256252Y34248D02*
X265249D01*
Y29750D01*
X263749Y28250D01*
X260750D01*
X259251Y29750D01*
Y34248D01*
Y31249D02*
X256252Y28250D01*
Y25251D02*
Y22252D01*
Y23751D01*
X265249D01*
X263749Y25251D01*
X131252Y73502D02*
Y82499D01*
X135751D01*
X137250Y80999D01*
Y78000D01*
X135751Y76501D01*
X131252D01*
X134251D02*
X137250Y73502D01*
X140250Y75001D02*
X141749Y73502D01*
X144748D01*
X146248Y75001D01*
Y80999D01*
X144748Y82499D01*
X141749D01*
X140250Y80999D01*
Y79500D01*
X141749Y78000D01*
X146248D01*
X67002Y108001D02*
Y116999D01*
X71501D01*
X73000Y115499D01*
Y112500D01*
X71501Y111000D01*
X67002D01*
X70002D02*
X73000Y108001D01*
X75999Y115499D02*
X77499Y116999D01*
X80498D01*
X81998Y115499D01*
Y114000D01*
X80498Y112500D01*
X81998Y111000D01*
Y109501D01*
X80498Y108001D01*
X77499D01*
X75999Y109501D01*
Y111000D01*
X77499Y112500D01*
X75999Y114000D01*
Y115499D01*
X77499Y112500D02*
X80498D01*
X101002Y108502D02*
Y117499D01*
X105501D01*
X107001Y115999D01*
Y113000D01*
X105501Y111501D01*
X101002D01*
X104002D02*
X107001Y108502D01*
X110000Y117499D02*
X115998D01*
Y115999D01*
X110000Y110001D01*
Y108502D01*
X109502Y50501D02*
Y59499D01*
X114001D01*
X115500Y57999D01*
Y55000D01*
X114001Y53500D01*
X109502D01*
X112501D02*
X115500Y50501D01*
X124498Y59499D02*
X121498Y57999D01*
X118499Y55000D01*
Y52001D01*
X119999Y50501D01*
X122998D01*
X124498Y52001D01*
Y53500D01*
X122998Y55000D01*
X118499D01*
X372748Y93997D02*
Y90998D01*
Y92497D01*
X363751D01*
Y93997D01*
Y90998D01*
X371249Y80501D02*
X372748Y82001D01*
Y85000D01*
X371249Y86499D01*
X365251D01*
X363751Y85000D01*
Y82001D01*
X365251Y80501D01*
X363751Y77502D02*
Y74503D01*
Y76003D01*
X372748D01*
X371249Y77502D01*
X379249Y168748D02*
X370252D01*
Y164249D01*
X371751Y162750D01*
X377749D01*
X379249Y164249D01*
Y168748D01*
X377749Y159750D02*
X379249Y158251D01*
Y155252D01*
X377749Y153752D01*
X376250D01*
X374750Y155252D01*
Y156751D01*
Y155252D01*
X373251Y153752D01*
X371751D01*
X370252Y155252D01*
Y158251D01*
X371751Y159750D01*
X448749Y347248D02*
X439751D01*
Y342749D01*
X441251Y341250D01*
X447249D01*
X448749Y342749D01*
Y347248D01*
X439751Y338251D02*
Y335252D01*
Y336751D01*
X448749D01*
X447249Y338251D01*
X369751Y57999D02*
X368251Y59499D01*
X365252D01*
X363752Y57999D01*
Y52001D01*
X365252Y50501D01*
X368251D01*
X369751Y52001D01*
X372749Y57999D02*
X374249Y59499D01*
X377248D01*
X378748Y57999D01*
Y56500D01*
X377248Y55000D01*
X378748Y53500D01*
Y52001D01*
X377248Y50501D01*
X374249D01*
X372749Y52001D01*
Y53500D01*
X374249Y55000D01*
X372749Y56500D01*
Y57999D01*
X374249Y55000D02*
X377248D01*
X84250Y299749D02*
X82751Y301248D01*
X79752D01*
X78252Y299749D01*
Y293751D01*
X79752Y292251D01*
X82751D01*
X84250Y293751D01*
X87249Y301248D02*
X93248D01*
Y299749D01*
X87249Y293751D01*
Y292251D01*
X124502Y168249D02*
X123002Y169749D01*
X120003D01*
X118504Y168249D01*
Y162251D01*
X120003Y160751D01*
X123002D01*
X124502Y162251D01*
X127501Y160751D02*
X130500D01*
X129000D01*
Y169749D01*
X127501Y168249D01*
X140996Y160751D02*
X134998D01*
X140996Y166749D01*
Y168249D01*
X139497Y169749D01*
X136498D01*
X134998Y168249D01*
X288750Y162499D02*
X287251Y163999D01*
X284252D01*
X282752Y162499D01*
Y156501D01*
X284252Y155001D01*
X287251D01*
X288750Y156501D01*
X291749D02*
X293249Y155001D01*
X296248D01*
X297748Y156501D01*
Y162499D01*
X296248Y163999D01*
X293249D01*
X291749Y162499D01*
Y161000D01*
X293249Y159500D01*
X297748D01*
X177501Y215250D02*
X176001Y213751D01*
Y210752D01*
X177501Y209252D01*
X183499D01*
X184998Y210752D01*
Y213751D01*
X183499Y215250D01*
X184998Y222748D02*
X176001D01*
X180500Y218249D01*
Y224248D01*
X284501Y344749D02*
X283001Y346249D01*
X280002D01*
X278502Y344749D01*
Y338751D01*
X280002Y337251D01*
X283001D01*
X284501Y338751D01*
X287500Y344749D02*
X288999Y346249D01*
X291998D01*
X293498Y344749D01*
Y343250D01*
X291998Y341750D01*
X290499D01*
X291998D01*
X293498Y340251D01*
Y338751D01*
X291998Y337251D01*
X288999D01*
X287500Y338751D01*
X332500Y244001D02*
X333999Y242501D01*
X336998D01*
X338498Y244001D01*
Y249999D01*
X336998Y251499D01*
X333999D01*
X332500Y249999D01*
X323503Y251499D02*
X329501D01*
X323503Y245501D01*
Y244001D01*
X325002Y242501D01*
X328001D01*
X329501Y244001D01*
X267252Y84999D02*
X265752Y86498D01*
X262753D01*
X261254Y84999D01*
Y79001D01*
X262753Y77501D01*
X265752D01*
X267252Y79001D01*
X270251Y77501D02*
X273250D01*
X271750D01*
Y86498D01*
X270251Y84999D01*
X277748D02*
X279248Y86498D01*
X282247D01*
X283746Y84999D01*
Y79001D01*
X282247Y77501D01*
X279248D01*
X277748Y79001D01*
Y84999D01*
X45500Y71749D02*
X44001Y73249D01*
X41002D01*
X39502Y71749D01*
Y65751D01*
X41002Y64251D01*
X44001D01*
X45500Y65751D01*
X54498Y73249D02*
X48499D01*
Y68750D01*
X51499Y70250D01*
X52998D01*
X54498Y68750D01*
Y65751D01*
X52998Y64251D01*
X49999D01*
X48499Y65751D01*
D12*
X493737Y142345D02*
G03*
X509650Y142450I7877J12168D01*
G01*
X509762Y173454D02*
G03*
X493850Y173350I-7877J-12168D01*
G01*
X74595Y140013D02*
G03*
X74700Y124100I12168J-7877D01*
G01*
X105704Y123988D02*
G03*
X105600Y139900I-12168J7877D01*
G01*
X118595Y190263D02*
G03*
X118700Y174350I12168J-7877D01*
G01*
X149705Y174237D02*
G03*
X149600Y190150I-12168J7877D01*
G01*
X61596Y86513D02*
G03*
X61700Y70600I12168J-7877D01*
G01*
X92704Y70487D02*
G03*
X92600Y86400I-12168J7877D01*
G01*
X361738Y12345D02*
G03*
X377650Y12450I7877J12168D01*
G01*
X377762Y43454D02*
G03*
X361850Y43350I-7877J-12168D01*
G01*
X273654Y151237D02*
G03*
X273550Y167150I-12168J7877D01*
G01*
X242546Y167262D02*
G03*
X242650Y151350I12168J-7877D01*
G01*
X254405Y73238D02*
G03*
X254300Y89150I-12168J7877D01*
G01*
X223295Y89263D02*
G03*
X223400Y73350I12168J-7877D01*
G01*
X417500Y31750D02*
Y62500D01*
X401500D02*
X417500D01*
X401500Y31750D02*
Y62500D01*
Y31750D02*
X417500D01*
X407250Y45000D02*
X411500D01*
X407250D02*
Y49000D01*
X411500D01*
Y45000D02*
Y49000D01*
X435750Y31750D02*
Y62500D01*
X419750D02*
X435750D01*
X419750Y31750D02*
Y62500D01*
Y31750D02*
X435750D01*
X425500Y45000D02*
X429750D01*
X425500D02*
Y49000D01*
X429750D01*
Y45000D02*
Y49000D01*
X509750Y142500D02*
Y173250D01*
X493750Y142500D02*
Y173250D01*
X499050Y156350D02*
X504350D01*
X499050Y159150D02*
X504350D01*
X74750Y124000D02*
X105500D01*
X74750Y140000D02*
X105500D01*
X88600Y129400D02*
Y134700D01*
X91400Y129400D02*
Y134700D01*
X95000Y86250D02*
X125750D01*
X95000Y70250D02*
Y86250D01*
Y70250D02*
X125750D01*
Y86250D01*
X112500Y76000D02*
Y80250D01*
X108500Y76000D02*
X112500D01*
X108500D02*
Y80250D01*
X112500D01*
X95000Y103250D02*
X125750D01*
X95000Y87250D02*
Y103250D01*
Y87250D02*
X125750D01*
Y103250D01*
X112500Y93000D02*
Y97250D01*
X108500Y93000D02*
X112500D01*
X108500D02*
Y97250D01*
X112500D01*
X64250Y103250D02*
X95000D01*
X64250Y87250D02*
Y103250D01*
Y87250D02*
X95000D01*
Y103250D01*
X81750Y93000D02*
Y97250D01*
X77750Y93000D02*
X81750D01*
X77750D02*
Y97250D01*
X81750D01*
X85750Y56750D02*
X89750D01*
X85750Y52500D02*
Y56750D01*
Y52500D02*
X89750D01*
Y56750D01*
X103000Y46750D02*
Y62750D01*
X72250Y46750D02*
X103000D01*
X72250D02*
Y62750D01*
X103000D01*
X118750Y174250D02*
X149500D01*
X118750Y190250D02*
X149500D01*
X132600Y179650D02*
Y184950D01*
X135400Y179650D02*
Y184950D01*
X61750Y70500D02*
X92500D01*
X61750Y86500D02*
X92500D01*
X75600Y75900D02*
Y81200D01*
X78400Y75900D02*
Y81200D01*
X362250Y115000D02*
X368000D01*
X362250D02*
Y120500D01*
X368000D01*
Y115000D02*
Y120500D01*
X375250Y99750D02*
Y135750D01*
X355250Y99750D02*
X375250D01*
X355250Y135750D02*
X375250D01*
X355250Y99750D02*
Y135750D01*
X338750Y115000D02*
X344500D01*
X338750D02*
Y120500D01*
X344500D01*
Y115000D02*
Y120500D01*
X351750Y99750D02*
Y135750D01*
X331750Y99750D02*
X351750D01*
X331750Y135750D02*
X351750D01*
X331750Y99750D02*
Y135750D01*
X315750Y115000D02*
X321500D01*
X315750D02*
Y120500D01*
X321500D01*
Y115000D02*
Y120500D01*
X328750Y99750D02*
Y135750D01*
X308750Y99750D02*
X328750D01*
X308750Y135750D02*
X328750D01*
X308750Y99750D02*
Y135750D01*
X377750Y12500D02*
Y43250D01*
X361750Y12500D02*
Y43250D01*
X367050Y26350D02*
X372350D01*
X367050Y29150D02*
X372350D01*
X242750Y167250D02*
X273500D01*
X242750Y151250D02*
X273500D01*
X259650Y156550D02*
Y161850D01*
X256850Y156550D02*
Y161850D01*
X223500Y89250D02*
X254250D01*
X223500Y73250D02*
X254250D01*
X240400Y78550D02*
Y83850D01*
X237600Y78550D02*
Y83850D01*
X117750Y193750D02*
X153750D01*
X117750D02*
Y213750D01*
X153750Y193750D02*
Y213750D01*
X117750D02*
X153750D01*
X133000Y206500D02*
X138500D01*
X133000Y200750D02*
Y206500D01*
Y200750D02*
X138500D01*
Y206500D01*
D13*
X426430Y340330D02*
G03*
X426430Y340330I-1500J0D01*
G01*
D14*
X188250Y438250D02*
G03*
X188250Y438250I-1500J0D01*
G01*
X198230Y504250D02*
Y536000D01*
X263000D01*
X198000Y416000D02*
Y475040D01*
X255380Y461070D02*
Y536000D01*
X198230Y461070D02*
X263000D01*
X198000Y416000D02*
X263000D01*
Y536000D01*
D15*
X152910Y160850D02*
G03*
X152910Y160850I-3810J0D01*
G01*
D16*
X290500Y212000D02*
Y221500D01*
X290300Y202250D02*
X306500D01*
X290400Y231220D02*
X306600D01*
X370250Y190250D02*
X500250D01*
X370250Y320250D02*
X500250D01*
X289750Y178500D02*
Y188000D01*
X289550Y168750D02*
X305750D01*
X289650Y197720D02*
X305850D01*
D17*
X183750Y275250D02*
Y278550D01*
Y275250D02*
X187050D01*
X251450D02*
X254750D01*
Y278550D01*
Y342950D02*
Y346250D01*
X251450D02*
X254750D01*
X183750D02*
X187050D01*
X183750Y342950D02*
Y346250D01*
X347450Y337800D02*
X416050D01*
X347450Y396200D02*
X416050D01*
X176750Y396450D02*
Y455250D01*
Y486250D02*
Y610450D01*
X16750Y396450D02*
Y455250D01*
Y486250D02*
Y610450D01*
X176750D01*
X16750Y396450D02*
X176750D01*
X218000Y91250D02*
Y161250D01*
X148000Y91250D02*
X218000D01*
X148000D02*
Y154610D01*
X154640Y161250D01*
X218000D01*
X338250Y170500D02*
X348250D01*
X338250Y142500D02*
X348250D01*
D18*
X500020Y190250D02*
Y217150D01*
Y190250D02*
X500250D01*
X500020Y293350D02*
Y320250D01*
X500250D01*
X370480Y190250D02*
Y217150D01*
X370250Y190250D02*
X370480D01*
Y293350D02*
Y320250D01*
X370250D02*
X370480D01*
X370250D02*
X370480D01*
D19*
X326886Y308648D02*
Y331762D01*
X291834D02*
X326886D01*
X291834Y289852D02*
Y331762D01*
Y289852D02*
X309106D01*
X326886D02*
Y296710D01*
X319520Y289852D02*
X326886D01*
X108136Y177648D02*
Y200762D01*
X73084D02*
X108136D01*
X73084Y158852D02*
Y200762D01*
Y158852D02*
X90356D01*
X108136D02*
Y165710D01*
X100770Y158852D02*
X108136D01*
M02*
