G04*
G04 #@! TF.GenerationSoftware,Altium Limited,Altium Designer,20.0.13 (296)*
G04*
G04 Layer_Physical_Order=2*
G04 Layer_Color=36540*
%FSLAX44Y44*%
%MOMM*%
G71*
G01*
G75*
%ADD14C,0.3000*%
%ADD19C,0.2540*%
%ADD79C,1.4000*%
%ADD80C,4.5000*%
%ADD81C,2.5000*%
%ADD83C,2.4450*%
%ADD85C,1.3980*%
%ADD87C,1.5000*%
%ADD89R,1.5000X1.5000*%
%ADD90C,0.8000*%
%ADD91C,0.7000*%
G36*
X515432Y3569D02*
X36848D01*
X36786Y4839D01*
X39159Y5072D01*
X43879Y6504D01*
X48229Y8829D01*
X52042Y11958D01*
X55171Y15771D01*
X57496Y20121D01*
X58928Y24841D01*
X59286Y28480D01*
X9214D01*
X9572Y24841D01*
X11004Y20121D01*
X13329Y15771D01*
X16458Y11958D01*
X20271Y8829D01*
X24621Y6504D01*
X29341Y5072D01*
X31714Y4839D01*
X31652Y3569D01*
X3569D01*
Y467371D01*
X4839Y467559D01*
X5593Y465072D01*
X6964Y462507D01*
X8809Y460259D01*
X11057Y458414D01*
X13622Y457043D01*
X16406Y456199D01*
X18030Y456039D01*
Y470750D01*
Y485461D01*
X16406Y485301D01*
X13622Y484457D01*
X11057Y483086D01*
X8809Y481241D01*
X6964Y478993D01*
X5593Y476428D01*
X4839Y473941D01*
X3569Y474129D01*
Y567681D01*
X515431D01*
X515432Y3569D01*
D02*
G37*
%LPC*%
G36*
X163000Y559983D02*
X160481Y559652D01*
X158133Y558679D01*
X156117Y557132D01*
X154571Y555117D01*
X153598Y552769D01*
X153267Y550250D01*
X153598Y547731D01*
X154571Y545383D01*
X156117Y543368D01*
X158133Y541821D01*
X160481Y540848D01*
X163000Y540517D01*
X165519Y540848D01*
X167867Y541821D01*
X169883Y543368D01*
X171429Y545383D01*
X172402Y547731D01*
X172733Y550250D01*
X172402Y552769D01*
X171429Y555117D01*
X169883Y557132D01*
X167867Y558679D01*
X165519Y559652D01*
X163000Y559983D01*
D02*
G37*
G36*
X137600D02*
X135081Y559652D01*
X132733Y558679D01*
X130717Y557132D01*
X129171Y555117D01*
X128198Y552769D01*
X127867Y550250D01*
X128198Y547731D01*
X129171Y545383D01*
X130717Y543368D01*
X132733Y541821D01*
X135081Y540848D01*
X137600Y540517D01*
X140119Y540848D01*
X142467Y541821D01*
X144482Y543368D01*
X146029Y545383D01*
X147002Y547731D01*
X147333Y550250D01*
X147002Y552769D01*
X146029Y555117D01*
X144482Y557132D01*
X142467Y558679D01*
X140119Y559652D01*
X137600Y559983D01*
D02*
G37*
G36*
X55900D02*
X53381Y559652D01*
X51033Y558679D01*
X49018Y557132D01*
X47471Y555117D01*
X46498Y552769D01*
X46167Y550250D01*
X46498Y547731D01*
X47471Y545383D01*
X49018Y543368D01*
X51033Y541821D01*
X53381Y540848D01*
X55900Y540517D01*
X58419Y540848D01*
X60767Y541821D01*
X62783Y543368D01*
X64329Y545383D01*
X65302Y547731D01*
X65633Y550250D01*
X65302Y552769D01*
X64329Y555117D01*
X62783Y557132D01*
X60767Y558679D01*
X58419Y559652D01*
X55900Y559983D01*
D02*
G37*
G36*
X30500D02*
X27981Y559652D01*
X25633Y558679D01*
X23617Y557132D01*
X22071Y555117D01*
X21098Y552769D01*
X20767Y550250D01*
X21098Y547731D01*
X22071Y545383D01*
X23617Y543368D01*
X25633Y541821D01*
X27981Y540848D01*
X30500Y540517D01*
X33019Y540848D01*
X35367Y541821D01*
X37382Y543368D01*
X38929Y545383D01*
X39902Y547731D01*
X40233Y550250D01*
X39902Y552769D01*
X38929Y555117D01*
X37382Y557132D01*
X35367Y558679D01*
X33019Y559652D01*
X30500Y559983D01*
D02*
G37*
G36*
X211270Y504488D02*
Y490770D01*
X224988D01*
X224822Y492448D01*
X223962Y495283D01*
X222566Y497896D01*
X220686Y500186D01*
X218396Y502066D01*
X215783Y503462D01*
X212948Y504322D01*
X211270Y504488D01*
D02*
G37*
G36*
X208730D02*
X207052Y504322D01*
X204217Y503462D01*
X201604Y502066D01*
X199314Y500186D01*
X197434Y497896D01*
X196038Y495283D01*
X195178Y492448D01*
X195012Y490770D01*
X208730D01*
Y504488D01*
D02*
G37*
G36*
X321770Y491705D02*
Y483520D01*
X329955D01*
X329794Y484740D01*
X328833Y487061D01*
X327304Y489054D01*
X325311Y490583D01*
X322990Y491544D01*
X321770Y491705D01*
D02*
G37*
G36*
X319230D02*
X318009Y491544D01*
X315689Y490583D01*
X313696Y489054D01*
X312167Y487061D01*
X311206Y484740D01*
X311045Y483520D01*
X319230D01*
Y491705D01*
D02*
G37*
G36*
X153900Y519588D02*
X150322Y519236D01*
X146882Y518192D01*
X143712Y516498D01*
X140933Y514217D01*
X138652Y511438D01*
X136958Y508268D01*
X135914Y504828D01*
X135562Y501250D01*
X135914Y497672D01*
X136958Y494232D01*
X138652Y491062D01*
X140933Y488283D01*
X143712Y486002D01*
X146882Y484308D01*
X150322Y483264D01*
X153900Y482912D01*
X157478Y483264D01*
X160918Y484308D01*
X164088Y486002D01*
X166867Y488283D01*
X169148Y491062D01*
X170842Y494232D01*
X171886Y497672D01*
X172238Y501250D01*
X171886Y504828D01*
X170842Y508268D01*
X169148Y511438D01*
X166867Y514217D01*
X164088Y516498D01*
X160918Y518192D01*
X157478Y519236D01*
X153900Y519588D01*
D02*
G37*
G36*
X39600D02*
X36022Y519236D01*
X32582Y518192D01*
X29412Y516498D01*
X26633Y514217D01*
X24352Y511438D01*
X22658Y508268D01*
X21614Y504828D01*
X21262Y501250D01*
X21614Y497672D01*
X22658Y494232D01*
X24352Y491062D01*
X26633Y488283D01*
X29412Y486002D01*
X32582Y484308D01*
X36022Y483264D01*
X39600Y482912D01*
X43178Y483264D01*
X46618Y484308D01*
X49788Y486002D01*
X52567Y488283D01*
X54848Y491062D01*
X56542Y494232D01*
X57586Y497672D01*
X57938Y501250D01*
X57586Y504828D01*
X56542Y508268D01*
X54848Y511438D01*
X52567Y514217D01*
X49788Y516498D01*
X46618Y518192D01*
X43178Y519236D01*
X39600Y519588D01*
D02*
G37*
G36*
X224988Y488230D02*
X211270D01*
Y474512D01*
X212948Y474678D01*
X215783Y475538D01*
X218396Y476934D01*
X220686Y478814D01*
X222566Y481104D01*
X223962Y483717D01*
X224822Y486552D01*
X224988Y488230D01*
D02*
G37*
G36*
X208730D02*
X195012D01*
X195178Y486552D01*
X196038Y483717D01*
X197434Y481104D01*
X199314Y478814D01*
X201604Y476934D01*
X204217Y475538D01*
X207052Y474678D01*
X208730Y474512D01*
Y488230D01*
D02*
G37*
G36*
X329955Y480980D02*
X321770D01*
Y472795D01*
X322990Y472956D01*
X325311Y473917D01*
X327304Y475446D01*
X328833Y477439D01*
X329794Y479760D01*
X329955Y480980D01*
D02*
G37*
G36*
X319230D02*
X311045D01*
X311206Y479760D01*
X312167Y477439D01*
X313696Y475446D01*
X315689Y473917D01*
X318009Y472956D01*
X319230Y472795D01*
Y480980D01*
D02*
G37*
G36*
X175470Y485461D02*
Y472020D01*
X188911D01*
X188751Y473644D01*
X187907Y476428D01*
X186536Y478993D01*
X184691Y481241D01*
X182443Y483086D01*
X179878Y484457D01*
X177094Y485301D01*
X175470Y485461D01*
D02*
G37*
G36*
X172930D02*
X171306Y485301D01*
X168522Y484457D01*
X165957Y483086D01*
X163709Y481241D01*
X161864Y478993D01*
X160493Y476428D01*
X159649Y473644D01*
X159489Y472020D01*
X172930D01*
Y485461D01*
D02*
G37*
G36*
X20570D02*
Y472020D01*
X34011D01*
X33851Y473644D01*
X33007Y476428D01*
X31636Y478993D01*
X29791Y481241D01*
X27543Y483086D01*
X24978Y484457D01*
X22194Y485301D01*
X20570Y485461D01*
D02*
G37*
G36*
X188911Y469480D02*
X175470D01*
Y456039D01*
X177094Y456199D01*
X179878Y457043D01*
X182443Y458414D01*
X184691Y460259D01*
X186536Y462507D01*
X187907Y465072D01*
X188751Y467856D01*
X188911Y469480D01*
D02*
G37*
G36*
X34011Y469480D02*
X20570D01*
Y456039D01*
X22194Y456199D01*
X24978Y457043D01*
X27543Y458414D01*
X29791Y460259D01*
X31636Y462507D01*
X33007Y465072D01*
X33851Y467856D01*
X34011Y469480D01*
D02*
G37*
G36*
X172930Y469480D02*
X159489D01*
X159649Y467856D01*
X160493Y465072D01*
X161864Y462507D01*
X163709Y460259D01*
X165957Y458414D01*
X168522Y457043D01*
X171306Y456199D01*
X172930Y456039D01*
Y469480D01*
D02*
G37*
G36*
X150240Y446740D02*
X132260D01*
Y428760D01*
X150240D01*
Y446740D01*
D02*
G37*
G36*
X115850Y446818D02*
X113503Y446509D01*
X111316Y445603D01*
X109438Y444162D01*
X107997Y442284D01*
X107091Y440097D01*
X106782Y437750D01*
X107091Y435403D01*
X107997Y433216D01*
X109438Y431338D01*
X111316Y429897D01*
X113503Y428991D01*
X115850Y428682D01*
X118197Y428991D01*
X120384Y429897D01*
X122262Y431338D01*
X123703Y433216D01*
X124609Y435403D01*
X124918Y437750D01*
X124609Y440097D01*
X123703Y442284D01*
X122262Y444162D01*
X120384Y445603D01*
X118197Y446509D01*
X115850Y446818D01*
D02*
G37*
G36*
X65050D02*
X62703Y446509D01*
X60516Y445603D01*
X58638Y444162D01*
X57197Y442284D01*
X56291Y440097D01*
X55982Y437750D01*
X56291Y435403D01*
X57197Y433216D01*
X58638Y431338D01*
X60516Y429897D01*
X62703Y428991D01*
X65050Y428682D01*
X67397Y428991D01*
X69584Y429897D01*
X71462Y431338D01*
X72903Y433216D01*
X73809Y435403D01*
X74118Y437750D01*
X73809Y440097D01*
X72903Y442284D01*
X71462Y444162D01*
X69584Y445603D01*
X67397Y446509D01*
X65050Y446818D01*
D02*
G37*
G36*
X235000Y454125D02*
X231215Y453627D01*
X227687Y452166D01*
X224659Y449841D01*
X222334Y446813D01*
X220873Y443285D01*
X220375Y439500D01*
X220873Y435715D01*
X222334Y432188D01*
X224659Y429159D01*
X227687Y426834D01*
X231215Y425373D01*
X235000Y424875D01*
X238785Y425373D01*
X242313Y426834D01*
X245341Y429159D01*
X247666Y432188D01*
X249127Y435715D01*
X249625Y439500D01*
X249127Y443285D01*
X247666Y446813D01*
X245341Y449841D01*
X242313Y452166D01*
X238785Y453627D01*
X235000Y454125D01*
D02*
G37*
G36*
X329500Y441250D02*
X311500D01*
Y423250D01*
X329500D01*
Y441250D01*
D02*
G37*
G36*
X90450Y446818D02*
X88103Y446509D01*
X85916Y445603D01*
X84038Y444162D01*
X82597Y442284D01*
X81691Y440097D01*
X81382Y437750D01*
X81691Y435403D01*
X82597Y433216D01*
X84038Y431338D01*
X85916Y429897D01*
X86881Y429497D01*
Y417115D01*
X85611Y416863D01*
X85603Y416884D01*
X84162Y418762D01*
X82284Y420203D01*
X80097Y421109D01*
X77750Y421418D01*
X75403Y421109D01*
X73216Y420203D01*
X71338Y418762D01*
X69897Y416884D01*
X68991Y414697D01*
X68682Y412350D01*
X68991Y410003D01*
X69897Y407816D01*
X71338Y405938D01*
X73216Y404497D01*
X75403Y403591D01*
X77750Y403282D01*
X80097Y403591D01*
X82284Y404497D01*
X84162Y405938D01*
X85603Y407816D01*
X85611Y407837D01*
X86881Y407585D01*
Y388300D01*
X87153Y386934D01*
X87927Y385777D01*
X131310Y342393D01*
X131132Y341500D01*
X131598Y339159D01*
X132924Y337174D01*
X133916Y336512D01*
Y321590D01*
X123195Y310869D01*
X122472Y309787D01*
X122218Y308511D01*
Y288698D01*
X122472Y287422D01*
X123195Y286340D01*
X130142Y279393D01*
X131224Y278670D01*
X132500Y278416D01*
X148262D01*
X148924Y277424D01*
X150909Y276098D01*
X153250Y275632D01*
X155591Y276098D01*
X157576Y277424D01*
X158902Y279409D01*
X159368Y281750D01*
X158902Y284091D01*
X157576Y286076D01*
X155591Y287402D01*
X153250Y287868D01*
X150909Y287402D01*
X148924Y286076D01*
X148262Y285084D01*
X133881D01*
X128886Y290079D01*
Y307130D01*
X139607Y317852D01*
X140330Y318933D01*
X140584Y320209D01*
Y336512D01*
X141576Y337174D01*
X142902Y339159D01*
X143368Y341500D01*
X142902Y343841D01*
X141576Y345826D01*
X139591Y347152D01*
X137250Y347617D01*
X136357Y347440D01*
X94019Y389778D01*
Y407585D01*
X95289Y407837D01*
X95297Y407816D01*
X96738Y405938D01*
X98616Y404497D01*
X100803Y403591D01*
X103150Y403282D01*
X105497Y403591D01*
X107684Y404497D01*
X109562Y405938D01*
X111003Y407816D01*
X111909Y410003D01*
X112218Y412350D01*
X111909Y414697D01*
X111003Y416884D01*
X109562Y418762D01*
X107684Y420203D01*
X105497Y421109D01*
X103150Y421418D01*
X100803Y421109D01*
X98616Y420203D01*
X96738Y418762D01*
X95297Y416884D01*
X95289Y416863D01*
X94019Y417115D01*
Y429497D01*
X94984Y429897D01*
X96862Y431338D01*
X98303Y433216D01*
X99209Y435403D01*
X99518Y437750D01*
X99209Y440097D01*
X98303Y442284D01*
X96862Y444162D01*
X94984Y445603D01*
X92797Y446509D01*
X90450Y446818D01*
D02*
G37*
G36*
X53620Y421795D02*
Y413620D01*
X61795D01*
X61635Y414838D01*
X60675Y417156D01*
X59147Y419147D01*
X57156Y420674D01*
X54838Y421635D01*
X53620Y421795D01*
D02*
G37*
G36*
X51080Y421795D02*
X49862Y421635D01*
X47544Y420674D01*
X45553Y419147D01*
X44026Y417156D01*
X43065Y414838D01*
X42905Y413620D01*
X51080D01*
Y421795D01*
D02*
G37*
G36*
X128550Y421418D02*
X126203Y421109D01*
X124016Y420203D01*
X122138Y418762D01*
X120697Y416884D01*
X119791Y414697D01*
X119482Y412350D01*
X119791Y410003D01*
X120697Y407816D01*
X122138Y405938D01*
X124016Y404497D01*
X126203Y403591D01*
X128550Y403282D01*
X130897Y403591D01*
X133084Y404497D01*
X134962Y405938D01*
X136403Y407816D01*
X137309Y410003D01*
X137618Y412350D01*
X137309Y414697D01*
X136403Y416884D01*
X134962Y418762D01*
X133084Y420203D01*
X130897Y421109D01*
X128550Y421418D01*
D02*
G37*
G36*
X61795Y411080D02*
X53620D01*
Y402905D01*
X54838Y403065D01*
X57156Y404026D01*
X59147Y405553D01*
X60675Y407544D01*
X61635Y409862D01*
X61795Y411080D01*
D02*
G37*
G36*
X51080D02*
X42905D01*
X43065Y409862D01*
X44026Y407544D01*
X45553Y405553D01*
X47544Y404026D01*
X49862Y403065D01*
X51080Y402905D01*
Y411080D01*
D02*
G37*
G36*
X460250Y399118D02*
X457909Y398652D01*
X455924Y397326D01*
X454598Y395341D01*
X454132Y393000D01*
X454310Y392107D01*
X394227Y332023D01*
X393453Y330866D01*
X393181Y329500D01*
Y112250D01*
X393453Y110884D01*
X394227Y109727D01*
X407431Y96522D01*
Y26832D01*
X406674Y26326D01*
X405348Y24341D01*
X404883Y22000D01*
X405348Y19659D01*
X406674Y17674D01*
X408659Y16348D01*
X411000Y15883D01*
X413341Y16348D01*
X415326Y17674D01*
X416652Y19659D01*
X417118Y22000D01*
X416652Y24341D01*
X415326Y26326D01*
X414569Y26832D01*
Y98000D01*
X414297Y99366D01*
X413523Y100523D01*
X400319Y113728D01*
Y328022D01*
X459357Y387060D01*
X460250Y386883D01*
X462591Y387348D01*
X464576Y388674D01*
X465902Y390659D01*
X466367Y393000D01*
X465902Y395341D01*
X464576Y397326D01*
X462591Y398652D01*
X460250Y399118D01*
D02*
G37*
G36*
X148000Y398618D02*
X145659Y398152D01*
X143674Y396826D01*
X142348Y394841D01*
X141882Y392500D01*
X142348Y390159D01*
X143674Y388174D01*
X145659Y386848D01*
X148000Y386382D01*
X150341Y386848D01*
X152326Y388174D01*
X153652Y390159D01*
X154117Y392500D01*
X153652Y394841D01*
X152326Y396826D01*
X150341Y398152D01*
X148000Y398618D01*
D02*
G37*
G36*
X482020Y387286D02*
Y363520D01*
X505786D01*
X505428Y367159D01*
X503996Y371879D01*
X501671Y376229D01*
X498542Y380042D01*
X494729Y383171D01*
X490379Y385496D01*
X485659Y386928D01*
X482020Y387286D01*
D02*
G37*
G36*
X479480D02*
X475841Y386928D01*
X471121Y385496D01*
X466771Y383171D01*
X462958Y380042D01*
X459829Y376229D01*
X457504Y371879D01*
X456072Y367159D01*
X455714Y363520D01*
X479480D01*
Y387286D01*
D02*
G37*
G36*
X99250Y361868D02*
X96909Y361402D01*
X94924Y360076D01*
X93598Y358091D01*
X93132Y355750D01*
X93598Y353409D01*
X94924Y351424D01*
X96909Y350098D01*
X99250Y349632D01*
X101591Y350098D01*
X103576Y351424D01*
X104902Y353409D01*
X105367Y355750D01*
X104902Y358091D01*
X103576Y360076D01*
X101591Y361402D01*
X99250Y361868D01*
D02*
G37*
G36*
X505786Y360980D02*
X482020D01*
Y337214D01*
X485659Y337572D01*
X490379Y339004D01*
X494729Y341329D01*
X498542Y344458D01*
X501671Y348271D01*
X503996Y352621D01*
X505428Y357341D01*
X505786Y360980D01*
D02*
G37*
G36*
X479480D02*
X455714D01*
X456072Y357341D01*
X457504Y352621D01*
X459829Y348271D01*
X462958Y344458D01*
X466771Y341329D01*
X471121Y339004D01*
X475841Y337572D01*
X479480Y337214D01*
Y360980D01*
D02*
G37*
G36*
X35520Y355036D02*
Y331270D01*
X59286D01*
X58928Y334909D01*
X57496Y339629D01*
X55171Y343979D01*
X52042Y347792D01*
X48229Y350921D01*
X43879Y353246D01*
X39159Y354678D01*
X35520Y355036D01*
D02*
G37*
G36*
X32980D02*
X29341Y354678D01*
X24621Y353246D01*
X20271Y350921D01*
X16458Y347792D01*
X13329Y343979D01*
X11004Y339629D01*
X9572Y334909D01*
X9214Y331270D01*
X32980D01*
Y355036D01*
D02*
G37*
G36*
X59286Y328730D02*
X35520D01*
Y304964D01*
X39159Y305322D01*
X43879Y306754D01*
X48229Y309079D01*
X52042Y312208D01*
X55171Y316021D01*
X57496Y320371D01*
X58928Y325091D01*
X59286Y328730D01*
D02*
G37*
G36*
X32980D02*
X9214D01*
X9572Y325091D01*
X11004Y320371D01*
X13329Y316021D01*
X16458Y312208D01*
X20271Y309079D01*
X24621Y306754D01*
X29341Y305322D01*
X32980Y304964D01*
Y328730D01*
D02*
G37*
G36*
X197000Y309618D02*
X194659Y309152D01*
X192674Y307826D01*
X191348Y305841D01*
X190882Y303500D01*
X191115Y302330D01*
X189619Y300834D01*
X142488D01*
X141826Y301826D01*
X139841Y303152D01*
X137500Y303617D01*
X135159Y303152D01*
X133174Y301826D01*
X131848Y299841D01*
X131383Y297500D01*
X131848Y295159D01*
X133174Y293174D01*
X135159Y291848D01*
X137500Y291383D01*
X139841Y291848D01*
X141826Y293174D01*
X142488Y294166D01*
X191000D01*
X192276Y294420D01*
X193358Y295142D01*
X195830Y297615D01*
X197000Y297383D01*
X199341Y297848D01*
X201326Y299174D01*
X202652Y301159D01*
X203118Y303500D01*
X202652Y305841D01*
X201326Y307826D01*
X199341Y309152D01*
X197000Y309618D01*
D02*
G37*
G36*
X197500Y290868D02*
X195159Y290402D01*
X193174Y289076D01*
X192512Y288084D01*
X190250D01*
X188974Y287830D01*
X187892Y287108D01*
X168619Y267834D01*
X95738D01*
X95076Y268826D01*
X93091Y270152D01*
X90750Y270618D01*
X88409Y270152D01*
X86424Y268826D01*
X85098Y266841D01*
X84633Y264500D01*
X85098Y262159D01*
X86424Y260174D01*
X88409Y258848D01*
X90750Y258382D01*
X93091Y258848D01*
X95076Y260174D01*
X95738Y261166D01*
X170000D01*
X171276Y261420D01*
X172358Y262143D01*
X191368Y281153D01*
X192752Y281056D01*
X193174Y280424D01*
X195159Y279098D01*
X197500Y278633D01*
X199841Y279098D01*
X201826Y280424D01*
X203152Y282409D01*
X203618Y284750D01*
X203152Y287091D01*
X201826Y289076D01*
X199841Y290402D01*
X197500Y290868D01*
D02*
G37*
G36*
X301500Y272868D02*
X299159Y272402D01*
X297174Y271076D01*
X295848Y269091D01*
X295382Y266750D01*
X295848Y264409D01*
X297174Y262424D01*
X299159Y261098D01*
X301500Y260632D01*
X303841Y261098D01*
X305826Y262424D01*
X307152Y264409D01*
X307617Y266750D01*
X307152Y269091D01*
X305826Y271076D01*
X303841Y272402D01*
X301500Y272868D01*
D02*
G37*
G36*
X50750Y248118D02*
X48409Y247652D01*
X46424Y246326D01*
X45098Y244341D01*
X44632Y242000D01*
X45098Y239659D01*
X46424Y237674D01*
X48409Y236348D01*
X50750Y235882D01*
X53091Y236348D01*
X55076Y237674D01*
X56402Y239659D01*
X56867Y242000D01*
X56402Y244341D01*
X55076Y246326D01*
X53091Y247652D01*
X50750Y248118D01*
D02*
G37*
G36*
X207250Y399118D02*
X204909Y398652D01*
X202924Y397326D01*
X201598Y395341D01*
X201133Y393000D01*
X201598Y390659D01*
X202924Y388674D01*
X203916Y388012D01*
Y338886D01*
X204170Y337610D01*
X204893Y336529D01*
X208416Y333005D01*
Y283131D01*
X179893Y254608D01*
X179170Y253526D01*
X178916Y252250D01*
Y233488D01*
X177924Y232826D01*
X177262Y231834D01*
X175381D01*
X157135Y250080D01*
X157367Y251250D01*
X156902Y253591D01*
X155576Y255576D01*
X153591Y256902D01*
X151250Y257367D01*
X148909Y256902D01*
X146924Y255576D01*
X145598Y253591D01*
X145133Y251250D01*
X145598Y248909D01*
X146924Y246924D01*
X148909Y245598D01*
X151250Y245133D01*
X152420Y245365D01*
X171642Y226143D01*
X172724Y225420D01*
X174000Y225166D01*
X177262D01*
X177924Y224174D01*
X179909Y222848D01*
X182250Y222383D01*
X184591Y222848D01*
X186576Y224174D01*
X187902Y226159D01*
X188368Y228500D01*
X188240Y229141D01*
X189503Y230403D01*
X250339Y229823D01*
X251034Y228784D01*
X253018Y227458D01*
X255359Y226992D01*
X257700Y227458D01*
X259685Y228784D01*
X260197Y229549D01*
X261461Y229156D01*
X260952Y194417D01*
X172545Y106010D01*
X170750Y106368D01*
X168409Y105902D01*
X166424Y104576D01*
X165098Y102591D01*
X164632Y100250D01*
X165098Y97909D01*
X166424Y95924D01*
X168409Y94598D01*
X170750Y94132D01*
X173091Y94598D01*
X175076Y95924D01*
X176402Y97909D01*
X176868Y100250D01*
X176759Y100794D01*
X178763Y102798D01*
X180141Y102380D01*
X180331Y101426D01*
X181658Y99441D01*
X183642Y98115D01*
X184202Y98004D01*
X184571Y96788D01*
X170392Y82609D01*
X170376Y82625D01*
X167512Y79271D01*
X165207Y75511D01*
X163519Y71436D01*
X163204Y70124D01*
X163170Y70073D01*
X163063Y69537D01*
X162720Y68109D01*
X161174Y67076D01*
X159848Y65091D01*
X159382Y62750D01*
X159848Y60409D01*
X161174Y58424D01*
X163159Y57098D01*
X165500Y56632D01*
X167841Y57098D01*
X169826Y58424D01*
X171152Y60409D01*
X171383Y61571D01*
X172670Y61923D01*
X173666Y61209D01*
Y34000D01*
X173920Y32724D01*
X174643Y31643D01*
X178893Y27392D01*
X179974Y26670D01*
X181250Y26416D01*
X224021D01*
X224021Y26416D01*
X238250D01*
X239526Y26670D01*
X240607Y27392D01*
X289543Y76328D01*
X289543Y76328D01*
X289575Y76296D01*
X290805Y78138D01*
X291237Y80309D01*
X291237D01*
X291197Y80351D01*
X296449Y200497D01*
X296411Y200744D01*
X296527Y202500D01*
X296534D01*
X296482Y203328D01*
X296460Y203743D01*
X296476Y203436D01*
X296482Y203328D01*
X296483Y203325D01*
X296476Y203436D01*
X296412Y204698D01*
X291193Y311783D01*
X291193Y312641D01*
X290939Y313917D01*
X290217Y314998D01*
X289492Y315723D01*
X289492Y315723D01*
X289484Y315731D01*
X289484Y315732D01*
X285635Y319580D01*
X285868Y320750D01*
X285402Y323091D01*
X284076Y325076D01*
X282091Y326402D01*
X279750Y326867D01*
X277409Y326402D01*
X275424Y325076D01*
X274098Y323091D01*
X273633Y320750D01*
X274098Y318409D01*
X275424Y316424D01*
X277409Y315098D01*
X279750Y314632D01*
X280920Y314865D01*
X284543Y311242D01*
X285347Y294755D01*
X284102Y294204D01*
X269834Y308472D01*
Y347898D01*
X270826Y348560D01*
X272152Y350545D01*
X272617Y352886D01*
X272152Y355227D01*
X270826Y357212D01*
X268841Y358538D01*
X266500Y359004D01*
X264159Y358538D01*
X262174Y357212D01*
X260848Y355227D01*
X260382Y352886D01*
X260848Y350545D01*
X262174Y348560D01*
X263166Y347898D01*
Y310379D01*
X261993Y309893D01*
X250334Y321552D01*
Y366512D01*
X251326Y367174D01*
X252652Y369159D01*
X253118Y371500D01*
X252652Y373841D01*
X251326Y375826D01*
X249341Y377152D01*
X247000Y377617D01*
X244659Y377152D01*
X242674Y375826D01*
X241348Y373841D01*
X240882Y371500D01*
X241348Y369159D01*
X242674Y367174D01*
X243666Y366512D01*
Y343459D01*
X242396Y342780D01*
X241091Y343652D01*
X238750Y344118D01*
X236409Y343652D01*
X234424Y342326D01*
X233098Y340341D01*
X232633Y338000D01*
X232865Y336830D01*
X231514Y335479D01*
X230590Y334607D01*
X229386Y334445D01*
X228878Y334462D01*
X228294Y335336D01*
X226309Y336662D01*
X223968Y337128D01*
X221627Y336662D01*
X219642Y335336D01*
X218316Y333351D01*
X217850Y331010D01*
X218316Y328669D01*
X219642Y326684D01*
X220634Y326022D01*
Y317303D01*
Y310563D01*
X220888Y309287D01*
X221611Y308206D01*
X224986Y304830D01*
X224177Y303843D01*
X223341Y304402D01*
X221000Y304867D01*
X218659Y304402D01*
X216674Y303076D01*
X216354Y302597D01*
X215084Y302982D01*
Y334386D01*
X214830Y335662D01*
X214107Y336744D01*
X210584Y340267D01*
Y388012D01*
X211576Y388674D01*
X212902Y390659D01*
X213368Y393000D01*
X212902Y395341D01*
X211576Y397326D01*
X209591Y398652D01*
X207250Y399118D01*
D02*
G37*
G36*
X306750Y166618D02*
X304409Y166152D01*
X302424Y164826D01*
X301098Y162841D01*
X300632Y160500D01*
X301098Y158159D01*
X302424Y156174D01*
X304409Y154848D01*
X306750Y154382D01*
X309091Y154848D01*
X311076Y156174D01*
X312402Y158159D01*
X312868Y160500D01*
X312402Y162841D01*
X311076Y164826D01*
X309091Y166152D01*
X306750Y166618D01*
D02*
G37*
G36*
X41270Y156859D02*
Y148170D01*
X49959D01*
X49782Y149521D01*
X48770Y151963D01*
X47161Y154061D01*
X45063Y155670D01*
X42621Y156682D01*
X41270Y156859D01*
D02*
G37*
G36*
X38730D02*
X37379Y156682D01*
X34937Y155670D01*
X32839Y154061D01*
X31230Y151963D01*
X30218Y149521D01*
X30041Y148170D01*
X38730D01*
Y156859D01*
D02*
G37*
G36*
X156500Y157137D02*
X154159Y156672D01*
X152174Y155346D01*
X150848Y153361D01*
X150382Y151020D01*
X150848Y148679D01*
X152174Y146694D01*
X154159Y145368D01*
X156500Y144902D01*
X158841Y145368D01*
X160826Y146694D01*
X162152Y148679D01*
X162617Y151020D01*
X162152Y153361D01*
X160826Y155346D01*
X158841Y156672D01*
X156500Y157137D01*
D02*
G37*
G36*
X49959Y145630D02*
X41270D01*
Y136941D01*
X42621Y137118D01*
X45063Y138130D01*
X47161Y139739D01*
X48770Y141837D01*
X49782Y144279D01*
X49959Y145630D01*
D02*
G37*
G36*
X38730D02*
X30041D01*
X30218Y144279D01*
X31230Y141837D01*
X32839Y139739D01*
X34937Y138130D01*
X37379Y137118D01*
X38730Y136941D01*
Y145630D01*
D02*
G37*
G36*
X169500Y148868D02*
X167159Y148402D01*
X165174Y147076D01*
X163848Y145091D01*
X163382Y142750D01*
X163613Y141590D01*
X163250Y140367D01*
X160909Y139902D01*
X158924Y138576D01*
X157598Y136591D01*
X157133Y134250D01*
X157598Y131909D01*
X158924Y129924D01*
X160909Y128598D01*
X163250Y128132D01*
X165591Y128598D01*
X167576Y129924D01*
X168902Y131909D01*
X169368Y134250D01*
X169137Y135410D01*
X169500Y136632D01*
X171841Y137098D01*
X173826Y138424D01*
X175152Y140409D01*
X175618Y142750D01*
X175152Y145091D01*
X173826Y147076D01*
X171841Y148402D01*
X169500Y148868D01*
D02*
G37*
G36*
X413020Y133205D02*
Y125020D01*
X421205D01*
X421044Y126240D01*
X420083Y128561D01*
X418554Y130554D01*
X416561Y132083D01*
X414240Y133044D01*
X413020Y133205D01*
D02*
G37*
G36*
X410480Y133205D02*
X409260Y133044D01*
X406939Y132083D01*
X404946Y130554D01*
X403417Y128561D01*
X402456Y126240D01*
X402295Y125020D01*
X410480D01*
Y133205D01*
D02*
G37*
G36*
X30750Y235618D02*
X28409Y235152D01*
X26424Y233826D01*
X25098Y231841D01*
X24632Y229500D01*
X25098Y227159D01*
X26424Y225174D01*
X27278Y224604D01*
X26892Y223334D01*
X22000D01*
X20724Y223080D01*
X19642Y222358D01*
X16892Y219608D01*
X16170Y218526D01*
X15916Y217250D01*
Y183250D01*
X16170Y181974D01*
X16892Y180893D01*
X26332Y171453D01*
X27414Y170730D01*
X28690Y170476D01*
X30658D01*
X30745Y169820D01*
X31702Y167509D01*
X33224Y165525D01*
X35209Y164002D01*
X37520Y163045D01*
X40000Y162718D01*
X42480Y163045D01*
X44791Y164002D01*
X46775Y165525D01*
X48298Y167509D01*
X49255Y169820D01*
X49582Y172300D01*
X49255Y174780D01*
X48298Y177091D01*
X46775Y179076D01*
X44791Y180598D01*
X42480Y181556D01*
X40000Y181882D01*
X37520Y181556D01*
X35209Y180598D01*
X33224Y179076D01*
X31742Y177144D01*
X30071D01*
X22584Y184631D01*
Y215869D01*
X23381Y216666D01*
X142369D01*
X161331Y197704D01*
X161266Y197582D01*
X160643Y196596D01*
X158409Y196152D01*
X156424Y194826D01*
X155098Y192841D01*
X154633Y190500D01*
X155098Y188159D01*
X156424Y186174D01*
X158409Y184848D01*
X160750Y184382D01*
X163091Y184848D01*
X165076Y186174D01*
X166402Y188159D01*
X166868Y190500D01*
X166734Y191173D01*
X167814Y192253D01*
X168250Y192166D01*
X209266D01*
X209652Y190896D01*
X208424Y190076D01*
X207762Y189084D01*
X176000D01*
X174724Y188830D01*
X173643Y188107D01*
X126892Y141357D01*
X126170Y140276D01*
X125916Y139000D01*
Y122616D01*
X125889Y122560D01*
X124642Y122323D01*
X124573Y122669D01*
X124263Y124225D01*
X122937Y126209D01*
X120953Y127535D01*
X118612Y128001D01*
X116271Y127535D01*
X115437Y126978D01*
X49500Y192915D01*
Y207200D01*
X30500D01*
Y188200D01*
X44785D01*
X112414Y120571D01*
X112808Y120308D01*
X112960Y119542D01*
X114286Y117558D01*
X116271Y116232D01*
X118612Y115766D01*
X120953Y116232D01*
X122937Y117558D01*
X123642Y118612D01*
X124838Y118117D01*
X124666Y117250D01*
Y116881D01*
X120119Y112334D01*
X116881D01*
X98858Y130358D01*
X97776Y131080D01*
X96500Y131334D01*
X47391D01*
X46115Y131080D01*
X45033Y130358D01*
X44567Y129891D01*
X42480Y130756D01*
X40000Y131082D01*
X37520Y130756D01*
X35209Y129798D01*
X33224Y128275D01*
X31702Y126291D01*
X30745Y123980D01*
X30418Y121500D01*
X30745Y119020D01*
X31702Y116709D01*
X33224Y114725D01*
X35209Y113202D01*
X37520Y112245D01*
X40000Y111918D01*
X42480Y112245D01*
X44791Y113202D01*
X46775Y114725D01*
X48298Y116709D01*
X49255Y119020D01*
X49582Y121500D01*
X49332Y123396D01*
X50214Y124666D01*
X90574D01*
X90699Y123396D01*
X89393Y123136D01*
X87409Y121810D01*
X86082Y119825D01*
X85617Y117484D01*
X86082Y115143D01*
X87409Y113159D01*
X89393Y111832D01*
X91734Y111367D01*
X94075Y111832D01*
X96060Y113159D01*
X97386Y115143D01*
X97852Y117484D01*
X97386Y119825D01*
X96060Y121810D01*
X94075Y123136D01*
X92770Y123396D01*
X92895Y124666D01*
X95119D01*
X113142Y106643D01*
X114224Y105920D01*
X115500Y105666D01*
X121500D01*
X122776Y105920D01*
X123857Y106643D01*
X130358Y113142D01*
X131080Y114224D01*
X131334Y115500D01*
Y115869D01*
X131608Y116143D01*
X132330Y117224D01*
X132584Y118500D01*
Y137619D01*
X177381Y182416D01*
X207762D01*
X208424Y181424D01*
X210409Y180098D01*
X212750Y179632D01*
X215091Y180098D01*
X217076Y181424D01*
X218402Y183409D01*
X218867Y185750D01*
X218402Y188091D01*
X217076Y190076D01*
X215848Y190896D01*
X216234Y192166D01*
X221119D01*
X227666Y185619D01*
Y180238D01*
X226674Y179576D01*
X225348Y177591D01*
X224883Y175250D01*
X225348Y172909D01*
X226674Y170924D01*
X228659Y169598D01*
X231000Y169132D01*
X233341Y169598D01*
X235326Y170924D01*
X236652Y172909D01*
X237118Y175250D01*
X236652Y177591D01*
X235326Y179576D01*
X234334Y180238D01*
Y187000D01*
X234080Y188276D01*
X233358Y189358D01*
X224858Y197857D01*
X223776Y198580D01*
X222500Y198834D01*
X169631D01*
X146108Y222358D01*
X145026Y223080D01*
X143750Y223334D01*
X34608D01*
X34222Y224604D01*
X35076Y225174D01*
X36402Y227159D01*
X36867Y229500D01*
X36402Y231841D01*
X35076Y233826D01*
X33091Y235152D01*
X30750Y235618D01*
D02*
G37*
G36*
X470750Y132750D02*
X452750D01*
Y114750D01*
X470750D01*
Y132750D01*
D02*
G37*
G36*
X410480Y122480D02*
X402295D01*
X402456Y121259D01*
X403417Y118939D01*
X404946Y116946D01*
X406939Y115417D01*
X409260Y114455D01*
X410480Y114295D01*
Y122480D01*
D02*
G37*
G36*
X421205D02*
X413020D01*
Y114295D01*
X414240Y114455D01*
X416561Y115417D01*
X418554Y116946D01*
X420083Y118939D01*
X421044Y121259D01*
X421205Y122480D01*
D02*
G37*
G36*
X382750Y111117D02*
X380409Y110652D01*
X378424Y109326D01*
X377098Y107341D01*
X376632Y105000D01*
X377098Y102659D01*
X378424Y100674D01*
X380409Y99348D01*
X382750Y98883D01*
X385091Y99348D01*
X387076Y100674D01*
X388402Y102659D01*
X388867Y105000D01*
X388402Y107341D01*
X387076Y109326D01*
X385091Y110652D01*
X382750Y111117D01*
D02*
G37*
G36*
X301500Y103368D02*
X299159Y102902D01*
X297174Y101576D01*
X295848Y99591D01*
X295382Y97250D01*
X295848Y94909D01*
X297174Y92924D01*
X299159Y91598D01*
X301500Y91132D01*
X303841Y91598D01*
X305826Y92924D01*
X307152Y94909D01*
X307617Y97250D01*
X307152Y99591D01*
X305826Y101576D01*
X303841Y102902D01*
X301500Y103368D01*
D02*
G37*
G36*
X40000Y105682D02*
X37520Y105356D01*
X35209Y104398D01*
X33224Y102875D01*
X31702Y100891D01*
X30745Y98580D01*
X30418Y96100D01*
X30745Y93620D01*
X31702Y91309D01*
X33224Y89325D01*
X35209Y87802D01*
X37520Y86845D01*
X40000Y86518D01*
X42480Y86845D01*
X44791Y87802D01*
X46775Y89325D01*
X48298Y91309D01*
X49255Y93620D01*
X49582Y96100D01*
X49255Y98580D01*
X48298Y100891D01*
X46775Y102875D01*
X44791Y104398D01*
X42480Y105356D01*
X40000Y105682D01*
D02*
G37*
G36*
X379250Y96617D02*
X376909Y96152D01*
X374924Y94826D01*
X373598Y92841D01*
X373133Y90500D01*
X373598Y88159D01*
X374924Y86174D01*
X376909Y84848D01*
X379250Y84382D01*
X381591Y84848D01*
X383576Y86174D01*
X384902Y88159D01*
X385368Y90500D01*
X384902Y92841D01*
X383576Y94826D01*
X381591Y96152D01*
X379250Y96617D01*
D02*
G37*
G36*
X353750Y61118D02*
X351409Y60652D01*
X349424Y59326D01*
X348098Y57341D01*
X347632Y55000D01*
X348098Y52659D01*
X349424Y50674D01*
X351409Y49348D01*
X353750Y48882D01*
X356091Y49348D01*
X358076Y50674D01*
X359402Y52659D01*
X359868Y55000D01*
X359402Y57341D01*
X358076Y59326D01*
X356091Y60652D01*
X353750Y61118D01*
D02*
G37*
G36*
X338000Y59618D02*
X335659Y59152D01*
X333674Y57826D01*
X332348Y55841D01*
X331883Y53500D01*
X332348Y51159D01*
X333674Y49174D01*
X335659Y47848D01*
X338000Y47382D01*
X340341Y47848D01*
X342326Y49174D01*
X343652Y51159D01*
X344118Y53500D01*
X343652Y55841D01*
X342326Y57826D01*
X340341Y59152D01*
X338000Y59618D01*
D02*
G37*
G36*
X482020Y56786D02*
Y33020D01*
X505786D01*
X505428Y36659D01*
X503996Y41379D01*
X501671Y45729D01*
X498542Y49542D01*
X494729Y52671D01*
X490379Y54996D01*
X485659Y56428D01*
X482020Y56786D01*
D02*
G37*
G36*
X479480D02*
X475841Y56428D01*
X471121Y54996D01*
X466771Y52671D01*
X462958Y49542D01*
X459829Y45729D01*
X457504Y41379D01*
X456072Y36659D01*
X455714Y33020D01*
X479480D01*
Y56786D01*
D02*
G37*
G36*
X129870Y40209D02*
Y31520D01*
X138559D01*
X138382Y32871D01*
X137370Y35313D01*
X135761Y37411D01*
X133663Y39020D01*
X131221Y40032D01*
X129870Y40209D01*
D02*
G37*
G36*
X127330D02*
X125979Y40032D01*
X123537Y39020D01*
X121439Y37411D01*
X119830Y35313D01*
X118818Y32871D01*
X118641Y31520D01*
X127330D01*
Y40209D01*
D02*
G37*
G36*
X35520Y54786D02*
Y31020D01*
X59286D01*
X58928Y34659D01*
X57496Y39379D01*
X55171Y43729D01*
X52042Y47542D01*
X48229Y50671D01*
X43879Y52996D01*
X39159Y54428D01*
X35520Y54786D01*
D02*
G37*
G36*
X32980D02*
X29341Y54428D01*
X24621Y52996D01*
X20271Y50671D01*
X16458Y47542D01*
X13329Y43729D01*
X11004Y39379D01*
X9572Y34659D01*
X9214Y31020D01*
X32980D01*
Y54786D01*
D02*
G37*
G36*
X112700Y39750D02*
X93700D01*
Y20750D01*
X112700D01*
Y39750D01*
D02*
G37*
G36*
X154000Y39832D02*
X151520Y39506D01*
X149209Y38548D01*
X147225Y37025D01*
X145702Y35041D01*
X144745Y32730D01*
X144418Y30250D01*
X144745Y27770D01*
X145702Y25459D01*
X147225Y23475D01*
X149209Y21952D01*
X151520Y20995D01*
X154000Y20668D01*
X156480Y20995D01*
X158791Y21952D01*
X160775Y23475D01*
X162298Y25459D01*
X163256Y27770D01*
X163582Y30250D01*
X163256Y32730D01*
X162298Y35041D01*
X160775Y37025D01*
X158791Y38548D01*
X156480Y39506D01*
X154000Y39832D01*
D02*
G37*
G36*
X138559Y28980D02*
X129870D01*
Y20291D01*
X131221Y20468D01*
X133663Y21480D01*
X135761Y23089D01*
X137370Y25187D01*
X138382Y27629D01*
X138559Y28980D01*
D02*
G37*
G36*
X127330D02*
X118641D01*
X118818Y27629D01*
X119830Y25187D01*
X121439Y23089D01*
X123537Y21480D01*
X125979Y20468D01*
X127330Y20291D01*
Y28980D01*
D02*
G37*
G36*
X387250Y26118D02*
X384909Y25652D01*
X382924Y24326D01*
X381598Y22341D01*
X381133Y20000D01*
X381598Y17659D01*
X382924Y15674D01*
X384909Y14348D01*
X387250Y13882D01*
X389591Y14348D01*
X391576Y15674D01*
X392902Y17659D01*
X393368Y20000D01*
X392902Y22341D01*
X391576Y24326D01*
X389591Y25652D01*
X387250Y26118D01*
D02*
G37*
G36*
X505786Y30480D02*
X482020D01*
Y6714D01*
X485659Y7072D01*
X490379Y8504D01*
X494729Y10829D01*
X498542Y13958D01*
X501671Y17771D01*
X503996Y22121D01*
X505428Y26841D01*
X505786Y30480D01*
D02*
G37*
G36*
X479480D02*
X455714D01*
X456072Y26841D01*
X457504Y22121D01*
X459829Y17771D01*
X462958Y13958D01*
X466771Y10829D01*
X471121Y8504D01*
X475841Y7072D01*
X479480Y6714D01*
Y30480D01*
D02*
G37*
G36*
X229250Y17118D02*
X226909Y16652D01*
X224924Y15326D01*
X223598Y13341D01*
X223132Y11000D01*
X223598Y8659D01*
X224924Y6674D01*
X226909Y5348D01*
X229250Y4882D01*
X231591Y5348D01*
X233576Y6674D01*
X234902Y8659D01*
X235368Y11000D01*
X234902Y13341D01*
X233576Y15326D01*
X231591Y16652D01*
X229250Y17118D01*
D02*
G37*
%LPD*%
G36*
X241859Y322920D02*
X242112Y321791D01*
X242269Y321278D01*
X242445Y320800D01*
X242642Y320356D01*
X242858Y319947D01*
X243095Y319572D01*
X243351Y319232D01*
X243627Y318926D01*
X241825Y317137D01*
X241521Y317415D01*
X241183Y317674D01*
X240810Y317913D01*
X240402Y318133D01*
X239960Y318332D01*
X239483Y318512D01*
X238971Y318673D01*
X237844Y318934D01*
X237228Y319035D01*
X241762Y323537D01*
X241859Y322920D01*
D02*
G37*
G36*
X279706Y183727D02*
X275467Y110704D01*
X275463Y110695D01*
X232553Y71038D01*
X232512Y70981D01*
X232233Y70767D01*
X231616Y69964D01*
X231376Y69756D01*
X228532Y66095D01*
X227345Y66638D01*
X227367Y66750D01*
X226902Y69091D01*
X225576Y71076D01*
X223591Y72402D01*
X221250Y72867D01*
X218909Y72402D01*
X216924Y71076D01*
X215598Y69091D01*
X215133Y66750D01*
X215598Y64409D01*
X216924Y62424D01*
X218909Y61098D01*
X221250Y60633D01*
X222941Y60969D01*
X223653Y59816D01*
X220559Y55834D01*
X197988D01*
X197326Y56826D01*
X195341Y58152D01*
X193000Y58618D01*
X190659Y58152D01*
X188674Y56826D01*
X187348Y54841D01*
X186882Y52500D01*
X187348Y50159D01*
X188674Y48174D01*
X190659Y46848D01*
X193000Y46382D01*
X194821Y46745D01*
X195585Y45602D01*
X195578Y45591D01*
X195112Y43250D01*
X195578Y40909D01*
X196904Y38924D01*
X198889Y37598D01*
X201230Y37132D01*
X203571Y37598D01*
X205556Y38924D01*
X206218Y39916D01*
X226198D01*
Y39866D01*
X228465Y40317D01*
X229657Y41114D01*
X229960Y41279D01*
X246533Y55099D01*
X246682Y55284D01*
X247267Y55733D01*
X247466Y55991D01*
X247511Y56024D01*
X283897Y95102D01*
X285145Y94579D01*
X284541Y80756D01*
X236869Y33084D01*
X224021D01*
X224021Y33084D01*
X182631D01*
X180334Y35381D01*
Y61262D01*
X181326Y61924D01*
X182652Y63909D01*
X183118Y66250D01*
X182652Y68591D01*
X181326Y70576D01*
X179341Y71902D01*
X177000Y72368D01*
X174659Y71902D01*
X172674Y70576D01*
X171348Y68591D01*
X171316Y68429D01*
X169940Y68022D01*
X169632Y68339D01*
X170427Y70961D01*
X172410Y74671D01*
X174992Y77817D01*
X175107Y77894D01*
X272563Y175350D01*
X272580Y175333D01*
X275511Y178764D01*
X277869Y182612D01*
X278450Y184015D01*
X279706Y183727D01*
D02*
G37*
G36*
X191837Y107791D02*
X191559Y107486D01*
X191300Y107146D01*
X191061Y106772D01*
X190842Y106364D01*
X190643Y105922D01*
X190464Y105446D01*
X190304Y104935D01*
X190043Y103810D01*
X189942Y103197D01*
X185439Y107730D01*
X186058Y107827D01*
X187190Y108081D01*
X187704Y108238D01*
X188183Y108415D01*
X188627Y108612D01*
X189036Y108829D01*
X189410Y109065D01*
X189748Y109322D01*
X190052Y109598D01*
X191837Y107791D01*
D02*
G37*
%LPC*%
G36*
X247000Y108368D02*
X244659Y107902D01*
X242674Y106576D01*
X241348Y104591D01*
X240882Y102250D01*
X241348Y99909D01*
X242674Y97924D01*
X244659Y96598D01*
X247000Y96132D01*
X249341Y96598D01*
X251326Y97924D01*
X252652Y99909D01*
X253118Y102250D01*
X252652Y104591D01*
X251326Y106576D01*
X249341Y107902D01*
X247000Y108368D01*
D02*
G37*
%LPD*%
D14*
X396750Y329500D02*
X460250Y393000D01*
X396750Y112250D02*
Y329500D01*
X411000Y22000D02*
Y98000D01*
X396750Y112250D02*
X411000Y98000D01*
X90450Y388300D02*
Y437750D01*
Y388300D02*
X137250Y341500D01*
D19*
X185983Y103767D02*
G03*
X186245Y103995I-1534J2024D01*
G01*
X278777Y287486D02*
G03*
X278052Y289118I-2536J-150D01*
G01*
X166250Y68797D02*
G03*
X165500Y62750I24001J-6047D01*
G01*
X244398Y57660D02*
G03*
X245071Y58296I-4648J5590D01*
G01*
X282586Y98586D02*
G03*
X282546Y98544I1821J-1771D01*
G01*
X277964Y108467D02*
G03*
X278046Y108546I-1724J1866D01*
G01*
X226198Y43250D02*
G03*
X227824Y43839I-0J2540D01*
G01*
X234816Y68589D02*
G03*
X234009Y67710I4934J-5339D01*
G01*
X220948Y52500D02*
G03*
X222954Y53482I-0J2540D01*
G01*
X287185Y78685D02*
G03*
X287858Y80310I-1625J1625D01*
G01*
X277303Y191518D02*
G03*
X277645Y195668I-25059J4150D01*
G01*
X270205Y177707D02*
G03*
X277303Y191518I-17960J17960D01*
G01*
X172749Y80252D02*
G03*
X166250Y68797I17502J-17502D01*
G01*
X266106Y183856D02*
G03*
X269344Y191673I-7818J7818D01*
G01*
X230500Y324021D02*
G03*
X232335Y314543I25400J0D01*
G01*
X269344Y267013D02*
G03*
X261904Y284973I-25400J0D01*
G01*
X232973Y332224D02*
G03*
X230500Y326250I5976J-5974D01*
G01*
X243778Y316972D02*
G03*
X243789Y316961I3222J3199D01*
G01*
X274248Y285549D02*
G03*
X273499Y287236I-2537J-117D01*
G01*
X283317Y289365D02*
G03*
X282594Y290997I-2536J-148D01*
G01*
X288620Y202500D02*
G03*
X288594Y203339I-13620J0D01*
G01*
X284080Y202500D02*
G03*
X284062Y203073I-9080J0D01*
G01*
X293160Y202500D02*
G03*
X293138Y203400I-18160J0D01*
G01*
X284023Y200575D02*
G03*
X284080Y202500I-32562J1925D01*
G01*
X282594Y98594D02*
G03*
X283317Y100245I-1814J1778D01*
G01*
X293119Y200642D02*
G03*
X293160Y202500I-41657J1858D01*
G01*
X288569Y200557D02*
G03*
X288620Y202500I-37108J1943D01*
G01*
X278054Y108554D02*
G03*
X278777Y110196I-1814J1778D01*
G01*
X189209Y233740D02*
G03*
X187398Y233014I-32J-2540D01*
G01*
X151250Y251250D02*
X174000Y228500D01*
X182250D01*
X244386Y286364D02*
X264804Y265946D01*
X244386Y286364D02*
Y290145D01*
X223968Y310563D02*
Y317303D01*
Y310563D02*
X244386Y290145D01*
X264804Y255425D02*
Y265946D01*
X223968Y317303D02*
Y331010D01*
X177000Y34000D02*
Y66250D01*
X186245Y103995D02*
X266106Y183856D01*
X278046Y289124D02*
X278052Y289118D01*
X278777Y287486D02*
X284062Y203073D01*
X222954Y53482D02*
X234009Y67710D01*
X231000Y175250D02*
Y187000D01*
X222500Y195500D02*
X231000Y187000D01*
X168250Y195500D02*
X222500D01*
X176000Y185750D02*
X212750D01*
X22000Y220000D02*
X143750D01*
X168250Y195500D01*
X19250Y183250D02*
Y217250D01*
X22000Y220000D01*
X38490Y173810D02*
X40000Y172300D01*
X28690Y173810D02*
X38490D01*
X19250Y183250D02*
X28690Y173810D01*
X115500Y109000D02*
X121500D01*
X47391Y128000D02*
X96500D01*
X115500Y109000D01*
X40000Y121500D02*
X40891D01*
X47391Y128000D01*
X128000Y115500D02*
Y117250D01*
X121500Y109000D02*
X128000Y115500D01*
X129250Y118500D02*
Y139000D01*
X128000Y117250D02*
X129250Y118500D01*
Y139000D02*
X176000Y185750D01*
X177000Y34000D02*
X181250Y29750D01*
X117567Y122928D02*
X118612Y121883D01*
X40000Y197700D02*
X114772Y122928D01*
X117567D01*
X227824Y43839D02*
X244398Y57660D01*
X234816Y68589D02*
X277964Y108467D01*
X193000Y52500D02*
X220948D01*
X282593Y98594D02*
X282594Y98594D01*
X201230Y43250D02*
X226198D01*
X245071Y58296D02*
X282546Y98544D01*
X278053Y108553D02*
X278054Y108554D01*
X282586Y98586D02*
X282593Y98594D01*
X278046Y108546D02*
X278053Y108553D01*
X181250Y29750D02*
X224021D01*
X224021Y29750D01*
X287134Y313366D02*
Y313366D01*
X287862Y311640D02*
X293138Y203400D01*
X287859Y311702D02*
X287862Y311640D01*
X279750Y320750D02*
X287126Y313374D01*
Y313374D02*
Y313374D01*
Y313374D02*
X287134Y313366D01*
X287859Y311702D02*
X287859Y312641D01*
X224021Y29750D02*
X238250D01*
X287134Y313366D02*
X287859Y312641D01*
X238250Y29750D02*
X287185Y78685D01*
X274248Y285542D02*
X277645Y207214D01*
X277645Y195668D02*
Y207214D01*
X172749Y80252D02*
X270205Y177707D01*
X232335Y314543D02*
X261904Y284973D01*
X269344Y191673D02*
Y267013D01*
X264804Y229717D02*
Y255425D01*
X264266Y193016D02*
X264804Y229717D01*
X171500Y100250D02*
X264266Y193016D01*
X170750Y100250D02*
X171500D01*
X232973Y332224D02*
X238750Y338000D01*
X230500Y324021D02*
Y326250D01*
X237799Y322994D02*
X243778Y316972D01*
X243789Y316961D02*
X273498Y287236D01*
X274248Y285549D02*
X274248Y285542D01*
X283317Y289365D02*
X288594Y203339D01*
X276040Y291131D02*
X278046Y289124D01*
X266500Y307091D02*
Y352886D01*
X282586Y291005D02*
X282594Y290997D01*
X266500Y307091D02*
X282586Y291005D01*
X247000Y320171D02*
X276040Y291131D01*
X247000Y320171D02*
Y371500D01*
X283317Y100245D02*
X288569Y200557D01*
X287858Y80310D02*
X293119Y200642D01*
X278777Y110196D02*
X284023Y200575D01*
X187390Y233006D02*
X187398Y233014D01*
X189209Y233740D02*
X255359Y233109D01*
X182884Y228500D02*
X187390Y233006D01*
X190250Y284750D02*
X197500D01*
X170000Y264500D02*
X190250Y284750D01*
X207250Y338886D02*
Y393000D01*
Y338886D02*
X211750Y334386D01*
Y281750D02*
Y334386D01*
X182250Y228500D02*
Y252250D01*
X211750Y281750D01*
X182250Y228500D02*
X182884D01*
X125552Y288698D02*
X132500Y281750D01*
X137250Y320209D02*
Y341500D01*
X125552Y308511D02*
X137250Y320209D01*
X125552Y288698D02*
Y308511D01*
X132500Y281750D02*
X153250D01*
X90750Y264500D02*
X170000D01*
X137500Y297500D02*
X191000D01*
X197000Y303500D01*
D79*
X320500Y482250D02*
D03*
X411750Y123750D02*
D03*
D80*
X34250Y29750D02*
D03*
X480750Y31750D02*
D03*
X34250Y330000D02*
D03*
X480750Y362250D02*
D03*
D81*
X210000Y489500D02*
D03*
D83*
X19300Y470750D02*
D03*
X174200D02*
D03*
D85*
X52350Y412350D02*
D03*
X90450Y437750D02*
D03*
D87*
X128600Y30250D02*
D03*
X40000Y121500D02*
D03*
Y146900D02*
D03*
Y172300D02*
D03*
D89*
Y197700D02*
D03*
D90*
X504001Y562000D02*
D03*
Y542000D02*
D03*
Y522000D02*
D03*
Y502000D02*
D03*
Y482000D02*
D03*
X494001Y562000D02*
D03*
X499001Y552000D02*
D03*
X494001Y542000D02*
D03*
X499001Y532000D02*
D03*
X494001Y522000D02*
D03*
X499001Y512000D02*
D03*
X494001Y502000D02*
D03*
X499001Y492000D02*
D03*
X494001Y482000D02*
D03*
X374001Y562000D02*
D03*
Y542000D02*
D03*
Y522000D02*
D03*
Y502000D02*
D03*
Y482000D02*
D03*
X364001Y562000D02*
D03*
X369001Y552000D02*
D03*
X364001Y542000D02*
D03*
X369001Y532000D02*
D03*
X364001Y522000D02*
D03*
X369001Y512000D02*
D03*
X364001Y502000D02*
D03*
X369001Y492000D02*
D03*
X364001Y482000D02*
D03*
X151250Y251250D02*
D03*
X460250Y393000D02*
D03*
X411000Y22000D02*
D03*
X177000Y66250D02*
D03*
X185983Y103767D02*
D03*
X231000Y175250D02*
D03*
X212750Y185750D02*
D03*
X118612Y121883D02*
D03*
X165500Y62750D02*
D03*
X201230Y43250D02*
D03*
X193000Y52500D02*
D03*
X238750Y338000D02*
D03*
X223968Y331010D02*
D03*
X237799Y322994D02*
D03*
X255359Y233109D02*
D03*
X170750Y100250D02*
D03*
X279750Y320750D02*
D03*
X266500Y352886D02*
D03*
X247000Y371500D02*
D03*
X197500Y284750D02*
D03*
X182250Y228500D02*
D03*
X153250Y281750D02*
D03*
X90750Y264500D02*
D03*
X197000Y303500D02*
D03*
X137500Y297500D02*
D03*
X207250Y393000D02*
D03*
X137250Y341500D02*
D03*
D91*
X200500Y405500D02*
D03*
X256000Y122500D02*
D03*
X277000Y49750D02*
D03*
X329000Y183500D02*
D03*
X328250Y217000D02*
D03*
X193250Y330250D02*
D03*
M02*
