G04*
G04 #@! TF.GenerationSoftware,Altium Limited,Altium Designer,20.0.13 (296)*
G04*
G04 Layer_Physical_Order=1*
G04 Layer_Color=255*
%FSLAX44Y44*%
%MOMM*%
G71*
G01*
G75*
%ADD12C,0.2500*%
%ADD14C,0.3000*%
%ADD15C,0.2540*%
%ADD21R,0.7000X0.9000*%
%ADD22R,0.9000X0.7000*%
%ADD23R,1.4000X1.0000*%
%ADD24R,1.0000X0.8000*%
%ADD25R,0.8000X1.0000*%
%ADD26R,1.3000X1.1000*%
%ADD27R,1.5000X0.9000*%
%ADD28R,1.0000X1.4000*%
%ADD29R,1.5000X2.4000*%
%ADD30R,2.2000X0.6000*%
%ADD31R,2.4000X1.5000*%
G04:AMPARAMS|DCode=32|XSize=0.28mm|YSize=0.69mm|CornerRadius=0.07mm|HoleSize=0mm|Usage=FLASHONLY|Rotation=45.000|XOffset=0mm|YOffset=0mm|HoleType=Round|Shape=RoundedRectangle|*
%AMROUNDEDRECTD32*
21,1,0.2800,0.5500,0,0,45.0*
21,1,0.1400,0.6900,0,0,45.0*
1,1,0.1400,0.2439,-0.1450*
1,1,0.1400,0.1450,-0.2439*
1,1,0.1400,-0.2439,0.1450*
1,1,0.1400,-0.1450,0.2439*
%
%ADD32ROUNDEDRECTD32*%
G04:AMPARAMS|DCode=33|XSize=0.28mm|YSize=0.69mm|CornerRadius=0.07mm|HoleSize=0mm|Usage=FLASHONLY|Rotation=135.000|XOffset=0mm|YOffset=0mm|HoleType=Round|Shape=RoundedRectangle|*
%AMROUNDEDRECTD33*
21,1,0.2800,0.5500,0,0,135.0*
21,1,0.1400,0.6900,0,0,135.0*
1,1,0.1400,0.1450,0.2439*
1,1,0.1400,0.2439,0.1450*
1,1,0.1400,-0.1450,-0.2439*
1,1,0.1400,-0.2439,-0.1450*
%
%ADD33ROUNDEDRECTD33*%
%ADD34P,3.2329X4X90.0*%
G04:AMPARAMS|DCode=35|XSize=1.56mm|YSize=0.28mm|CornerRadius=0.035mm|HoleSize=0mm|Usage=FLASHONLY|Rotation=90.000|XOffset=0mm|YOffset=0mm|HoleType=Round|Shape=RoundedRectangle|*
%AMROUNDEDRECTD35*
21,1,1.5600,0.2100,0,0,90.0*
21,1,1.4900,0.2800,0,0,90.0*
1,1,0.0700,0.1050,0.7450*
1,1,0.0700,0.1050,-0.7450*
1,1,0.0700,-0.1050,-0.7450*
1,1,0.0700,-0.1050,0.7450*
%
%ADD35ROUNDEDRECTD35*%
G04:AMPARAMS|DCode=36|XSize=1.56mm|YSize=0.28mm|CornerRadius=0.035mm|HoleSize=0mm|Usage=FLASHONLY|Rotation=180.000|XOffset=0mm|YOffset=0mm|HoleType=Round|Shape=RoundedRectangle|*
%AMROUNDEDRECTD36*
21,1,1.5600,0.2100,0,0,180.0*
21,1,1.4900,0.2800,0,0,180.0*
1,1,0.0700,-0.7450,0.1050*
1,1,0.0700,0.7450,0.1050*
1,1,0.0700,0.7450,-0.1050*
1,1,0.0700,-0.7450,-0.1050*
%
%ADD36ROUNDEDRECTD36*%
%ADD37R,1.2000X0.6000*%
%ADD38R,10.4500X8.3000*%
%ADD39R,1.0500X3.2000*%
%ADD40R,1.1000X1.2500*%
%ADD41R,4.0000X7.0000*%
%ADD42R,2.7940X3.8100*%
%ADD80C,0.5000*%
%ADD81C,0.4000*%
%ADD82C,1.0000*%
%ADD83C,1.6000*%
%ADD84R,1.6000X1.6000*%
%ADD85C,4.5000*%
%ADD86C,1.4000*%
%ADD87R,1.4000X1.4000*%
%ADD88R,1.4000X1.4000*%
%ADD89C,2.5000*%
%ADD90C,3.2500*%
%ADD91C,2.4450*%
%ADD92C,1.5300*%
%ADD93C,1.3980*%
%ADD94R,1.3980X1.3980*%
%ADD95C,1.5000*%
%ADD96R,1.5000X1.5000*%
%ADD97R,1.5000X1.5000*%
%ADD98C,0.7000*%
%ADD99C,0.8000*%
G36*
X521432Y3569D02*
X3569D01*
X3568Y575432D01*
X521431D01*
X521432Y3569D01*
D02*
G37*
%LPC*%
G36*
X169000Y567733D02*
X166481Y567402D01*
X164133Y566429D01*
X162118Y564882D01*
X160571Y562867D01*
X159598Y560519D01*
X159267Y558000D01*
X159598Y555481D01*
X160571Y553133D01*
X162118Y551117D01*
X164133Y549571D01*
X166481Y548598D01*
X169000Y548267D01*
X171519Y548598D01*
X173867Y549571D01*
X175882Y551117D01*
X177429Y553133D01*
X178402Y555481D01*
X178733Y558000D01*
X178402Y560519D01*
X177429Y562867D01*
X175882Y564882D01*
X173867Y566429D01*
X171519Y567402D01*
X169000Y567733D01*
D02*
G37*
G36*
X143600D02*
X141081Y567402D01*
X138733Y566429D01*
X136718Y564882D01*
X135171Y562867D01*
X134198Y560519D01*
X133867Y558000D01*
X134198Y555481D01*
X135171Y553133D01*
X136718Y551117D01*
X138733Y549571D01*
X141081Y548598D01*
X143600Y548267D01*
X146119Y548598D01*
X148467Y549571D01*
X150482Y551117D01*
X152029Y553133D01*
X153001Y555481D01*
X153333Y558000D01*
X153001Y560519D01*
X152029Y562867D01*
X150482Y564882D01*
X148467Y566429D01*
X146119Y567402D01*
X143600Y567733D01*
D02*
G37*
G36*
X61900D02*
X59381Y567402D01*
X57033Y566429D01*
X55017Y564882D01*
X53471Y562867D01*
X52498Y560519D01*
X52167Y558000D01*
X52498Y555481D01*
X53471Y553133D01*
X55017Y551117D01*
X57033Y549571D01*
X59381Y548598D01*
X61900Y548267D01*
X64419Y548598D01*
X66766Y549571D01*
X68782Y551117D01*
X70329Y553133D01*
X71301Y555481D01*
X71633Y558000D01*
X71301Y560519D01*
X70329Y562867D01*
X68782Y564882D01*
X66766Y566429D01*
X64419Y567402D01*
X61900Y567733D01*
D02*
G37*
G36*
X36500D02*
X33981Y567402D01*
X31633Y566429D01*
X29617Y564882D01*
X28071Y562867D01*
X27098Y560519D01*
X26767Y558000D01*
X27098Y555481D01*
X28071Y553133D01*
X29617Y551117D01*
X31633Y549571D01*
X33981Y548598D01*
X36500Y548267D01*
X39019Y548598D01*
X41366Y549571D01*
X43382Y551117D01*
X44929Y553133D01*
X45901Y555481D01*
X46233Y558000D01*
X45901Y560519D01*
X44929Y562867D01*
X43382Y564882D01*
X41366Y566429D01*
X39019Y567402D01*
X36500Y567733D01*
D02*
G37*
G36*
X327270Y550955D02*
Y542770D01*
X335455D01*
X335294Y543991D01*
X334333Y546311D01*
X332804Y548304D01*
X330811Y549833D01*
X328490Y550794D01*
X327270Y550955D01*
D02*
G37*
G36*
X324730D02*
X323509Y550794D01*
X321189Y549833D01*
X319196Y548304D01*
X317667Y546311D01*
X316705Y543991D01*
X316545Y542770D01*
X324730D01*
Y550955D01*
D02*
G37*
G36*
X335455Y540230D02*
X327270D01*
Y532045D01*
X328490Y532206D01*
X330811Y533167D01*
X332804Y534696D01*
X334333Y536689D01*
X335294Y539010D01*
X335455Y540230D01*
D02*
G37*
G36*
X324730D02*
X316545D01*
X316705Y539010D01*
X317667Y536689D01*
X319196Y534696D01*
X321189Y533167D01*
X323509Y532206D01*
X324730Y532045D01*
Y540230D01*
D02*
G37*
G36*
X217770Y526988D02*
Y513270D01*
X231488D01*
X231322Y514948D01*
X230462Y517783D01*
X229066Y520396D01*
X227186Y522686D01*
X224896Y524566D01*
X222283Y525962D01*
X219448Y526822D01*
X217770Y526988D01*
D02*
G37*
G36*
X215230D02*
X213552Y526822D01*
X210716Y525962D01*
X208104Y524566D01*
X205814Y522686D01*
X203934Y520396D01*
X202538Y517783D01*
X201678Y514948D01*
X201512Y513270D01*
X215230D01*
Y526988D01*
D02*
G37*
G36*
X231488Y510730D02*
X217770D01*
Y497012D01*
X219448Y497178D01*
X222283Y498038D01*
X224896Y499434D01*
X227186Y501314D01*
X229066Y503604D01*
X230462Y506217D01*
X231322Y509052D01*
X231488Y510730D01*
D02*
G37*
G36*
X215230D02*
X201512D01*
X201678Y509052D01*
X202538Y506217D01*
X203934Y503604D01*
X205814Y501314D01*
X208104Y499434D01*
X210716Y498038D01*
X213552Y497178D01*
X215230Y497012D01*
Y510730D01*
D02*
G37*
G36*
X159900Y527338D02*
X156322Y526986D01*
X152882Y525943D01*
X149712Y524248D01*
X146933Y521967D01*
X144652Y519188D01*
X142958Y516018D01*
X141914Y512578D01*
X141562Y509000D01*
X141914Y505423D01*
X142958Y501982D01*
X144652Y498812D01*
X146933Y496033D01*
X149712Y493753D01*
X152882Y492058D01*
X156322Y491014D01*
X159900Y490662D01*
X163478Y491014D01*
X166918Y492058D01*
X170088Y493753D01*
X172867Y496033D01*
X175148Y498812D01*
X176842Y501982D01*
X177886Y505423D01*
X178238Y509000D01*
X177886Y512578D01*
X176842Y516018D01*
X175148Y519188D01*
X172867Y521967D01*
X170088Y524248D01*
X166918Y525943D01*
X163478Y526986D01*
X159900Y527338D01*
D02*
G37*
G36*
X45600D02*
X42023Y526986D01*
X38582Y525943D01*
X35412Y524248D01*
X32633Y521967D01*
X30352Y519188D01*
X28658Y516018D01*
X27614Y512578D01*
X27262Y509000D01*
X27614Y505423D01*
X28658Y501982D01*
X30352Y498812D01*
X32633Y496033D01*
X35412Y493753D01*
X38582Y492058D01*
X42023Y491014D01*
X45600Y490662D01*
X49178Y491014D01*
X52618Y492058D01*
X55788Y493753D01*
X58567Y496033D01*
X60848Y498812D01*
X62543Y501982D01*
X63586Y505423D01*
X63938Y509000D01*
X63586Y512578D01*
X62543Y516018D01*
X60848Y519188D01*
X58567Y521967D01*
X55788Y524248D01*
X52618Y525943D01*
X49178Y526986D01*
X45600Y527338D01*
D02*
G37*
G36*
X181470Y493211D02*
Y479770D01*
X194911D01*
X194751Y481394D01*
X193907Y484178D01*
X192536Y486743D01*
X190691Y488991D01*
X188442Y490836D01*
X185877Y492207D01*
X183094Y493051D01*
X181470Y493211D01*
D02*
G37*
G36*
X26570D02*
Y479770D01*
X40011D01*
X39851Y481394D01*
X39007Y484178D01*
X37636Y486743D01*
X35791Y488991D01*
X33543Y490836D01*
X30978Y492207D01*
X28194Y493051D01*
X26570Y493211D01*
D02*
G37*
G36*
X24030D02*
X22406Y493051D01*
X19622Y492207D01*
X17057Y490836D01*
X14809Y488991D01*
X12964Y486743D01*
X11593Y484178D01*
X10749Y481394D01*
X10589Y479770D01*
X24030D01*
Y493211D01*
D02*
G37*
G36*
X178930D02*
X177305Y493051D01*
X174522Y492207D01*
X171957Y490836D01*
X169709Y488991D01*
X167864Y486743D01*
X166493Y484178D01*
X165648Y481394D01*
X165488Y479770D01*
X178930D01*
Y493211D01*
D02*
G37*
G36*
X194911Y477230D02*
X181470D01*
Y463789D01*
X183094Y463949D01*
X185877Y464793D01*
X188442Y466164D01*
X190691Y468009D01*
X192536Y470257D01*
X193907Y472822D01*
X194751Y475605D01*
X194911Y477230D01*
D02*
G37*
G36*
X40011D02*
X26570D01*
Y463789D01*
X28194Y463949D01*
X30978Y464793D01*
X33543Y466164D01*
X35791Y468009D01*
X37636Y470257D01*
X39007Y472822D01*
X39851Y475605D01*
X40011Y477230D01*
D02*
G37*
G36*
X178930D02*
X165488D01*
X165648Y475605D01*
X166493Y472822D01*
X167864Y470257D01*
X169709Y468009D01*
X171957Y466164D01*
X174522Y464793D01*
X177305Y463949D01*
X178930Y463789D01*
Y477230D01*
D02*
G37*
G36*
X24030D02*
X10589D01*
X10749Y475605D01*
X11593Y472822D01*
X12964Y470257D01*
X14809Y468009D01*
X17057Y466164D01*
X19622Y464793D01*
X22406Y463949D01*
X24030Y463789D01*
Y477230D01*
D02*
G37*
G36*
X351790Y458040D02*
X345020D01*
Y450520D01*
X351790D01*
Y458040D01*
D02*
G37*
G36*
X342480D02*
X335710D01*
Y450520D01*
X342480D01*
Y458040D01*
D02*
G37*
G36*
X308790Y453040D02*
X304020D01*
Y447270D01*
X308790D01*
Y453040D01*
D02*
G37*
G36*
X301480D02*
X296710D01*
Y447270D01*
X301480D01*
Y453040D01*
D02*
G37*
G36*
X351790Y447980D02*
X345020D01*
Y440460D01*
X351790D01*
Y447980D01*
D02*
G37*
G36*
X342480D02*
X335710D01*
Y440460D01*
X342480D01*
Y447980D01*
D02*
G37*
G36*
X275750Y452608D02*
X273604Y452181D01*
X271785Y450965D01*
X270569Y449146D01*
X270142Y447000D01*
X270569Y444854D01*
X271785Y443035D01*
X273604Y441819D01*
X275750Y441392D01*
X277896Y441819D01*
X279715Y443035D01*
X279980Y443430D01*
X281250Y443245D01*
Y439500D01*
X292250D01*
Y452500D01*
X281250D01*
Y450754D01*
X279980Y450569D01*
X279715Y450965D01*
X277896Y452181D01*
X275750Y452608D01*
D02*
G37*
G36*
X308790Y444730D02*
X304020D01*
Y438960D01*
X308790D01*
Y444730D01*
D02*
G37*
G36*
X301480D02*
X296710D01*
Y438960D01*
X301480D01*
Y444730D01*
D02*
G37*
G36*
X156240Y454490D02*
X138260D01*
Y436510D01*
X156240D01*
Y454490D01*
D02*
G37*
G36*
X481540Y451790D02*
X475020D01*
Y434520D01*
X481540D01*
Y451790D01*
D02*
G37*
G36*
X447540D02*
X441020D01*
Y434520D01*
X447540D01*
Y451790D01*
D02*
G37*
G36*
X472480D02*
X465960D01*
Y434520D01*
X472480D01*
Y451790D01*
D02*
G37*
G36*
X438480D02*
X431960D01*
Y434520D01*
X438480D01*
Y451790D01*
D02*
G37*
G36*
X240960Y433790D02*
X239790D01*
X239690Y433790D01*
X234020D01*
Y427750D01*
Y421710D01*
X239690D01*
X239790Y421710D01*
X240960D01*
X241060Y421710D01*
X246730D01*
Y427750D01*
Y433790D01*
X241060D01*
X240960Y433790D01*
D02*
G37*
G36*
X270540Y433790D02*
X264770D01*
Y429020D01*
X270540D01*
Y433790D01*
D02*
G37*
G36*
X262230D02*
X256460D01*
Y429020D01*
X262230D01*
Y433790D01*
D02*
G37*
G36*
X249270D02*
Y429020D01*
X255040D01*
Y433790D01*
X249270D01*
D02*
G37*
G36*
X216230D02*
X210460D01*
Y429020D01*
X216230D01*
Y433790D01*
D02*
G37*
G36*
X369750Y442250D02*
X356750D01*
Y431250D01*
X359172D01*
Y428328D01*
X351250D01*
Y434500D01*
X336250D01*
Y418000D01*
X351250D01*
Y420172D01*
X360907D01*
X360907Y420172D01*
X362468Y420482D01*
X363791Y421366D01*
X366134Y423709D01*
X367018Y425032D01*
X367328Y426593D01*
X367328Y426593D01*
Y431250D01*
X369750D01*
Y442250D01*
D02*
G37*
G36*
X270540Y426480D02*
X264770D01*
Y421710D01*
X270540D01*
Y426480D01*
D02*
G37*
G36*
X262230D02*
X256460D01*
Y421710D01*
X262230D01*
Y426480D01*
D02*
G37*
G36*
X255040D02*
X249270D01*
Y421710D01*
X255040D01*
Y426480D01*
D02*
G37*
G36*
X225710Y433790D02*
X224540D01*
X224440Y433790D01*
X218770D01*
Y427750D01*
Y421710D01*
X224440D01*
X224540Y421710D01*
X225710D01*
X225810Y421710D01*
X231480D01*
Y427750D01*
Y433790D01*
X225810D01*
X225710Y433790D01*
D02*
G37*
G36*
X216230Y426480D02*
X210460D01*
Y421710D01*
X216230D01*
Y426480D01*
D02*
G37*
G36*
X57080Y429545D02*
X55862Y429385D01*
X53544Y428425D01*
X51553Y426897D01*
X50026Y424906D01*
X49065Y422588D01*
X48905Y421370D01*
X57080D01*
Y429545D01*
D02*
G37*
G36*
X335000Y500500D02*
X317000D01*
Y498560D01*
X271000D01*
X269173Y498320D01*
X267470Y497615D01*
X266008Y496493D01*
X245538Y476022D01*
X245285Y476127D01*
X241500Y476625D01*
X237715Y476127D01*
X234188Y474666D01*
X231159Y472342D01*
X228834Y469313D01*
X227373Y465785D01*
X226875Y462000D01*
X227373Y458215D01*
X228834Y454688D01*
X231159Y451659D01*
X234188Y449334D01*
X237715Y447873D01*
X241500Y447375D01*
X245285Y447873D01*
X248813Y449334D01*
X251842Y451659D01*
X254166Y454688D01*
X255627Y458215D01*
X256125Y462000D01*
X255627Y465785D01*
X255522Y466037D01*
X273925Y484440D01*
X317000D01*
Y482500D01*
X335000D01*
Y484440D01*
X353826D01*
X371999Y466267D01*
X363983Y458250D01*
X356750D01*
Y447250D01*
X369750D01*
Y452482D01*
X377132Y459864D01*
X378401Y459864D01*
X383690Y454576D01*
Y439108D01*
X383930Y437281D01*
X384636Y435578D01*
X385758Y434116D01*
X387220Y432994D01*
X388923Y432288D01*
X390750Y432048D01*
X398500D01*
Y415250D01*
X413000D01*
Y451250D01*
X398500D01*
X397810Y452234D01*
Y457500D01*
X397570Y459328D01*
X396865Y461030D01*
X395742Y462493D01*
X387118Y471118D01*
X361743Y496493D01*
X360280Y497615D01*
X358577Y498320D01*
X356750Y498560D01*
X335000D01*
Y500500D01*
D02*
G37*
G36*
X481540Y431980D02*
X475020D01*
Y414710D01*
X481540D01*
Y431980D01*
D02*
G37*
G36*
X472480D02*
X465960D01*
Y414710D01*
X472480D01*
Y431980D01*
D02*
G37*
G36*
X447540D02*
X441020D01*
Y414710D01*
X447540D01*
Y431980D01*
D02*
G37*
G36*
X438480D02*
X431960D01*
Y414710D01*
X438480D01*
Y431980D01*
D02*
G37*
G36*
X134550Y429168D02*
X132203Y428859D01*
X130016Y427953D01*
X128138Y426512D01*
X126697Y424634D01*
X125791Y422447D01*
X125482Y420100D01*
X125791Y417753D01*
X126697Y415566D01*
X128138Y413689D01*
X130016Y412248D01*
X132203Y411342D01*
X134550Y411033D01*
X136897Y411342D01*
X139084Y412248D01*
X140962Y413689D01*
X142403Y415566D01*
X143308Y417753D01*
X143617Y420100D01*
X143308Y422447D01*
X142403Y424634D01*
X140962Y426512D01*
X139084Y427953D01*
X136897Y428859D01*
X134550Y429168D01*
D02*
G37*
G36*
X57080Y418830D02*
X48905D01*
X49065Y417612D01*
X50026Y415294D01*
X51553Y413303D01*
X53544Y411776D01*
X55862Y410816D01*
X57080Y410655D01*
Y418830D01*
D02*
G37*
G36*
X464000Y451250D02*
X449500D01*
Y415250D01*
X452672D01*
Y412939D01*
X449135Y409402D01*
X447937D01*
X447146Y409931D01*
X445000Y410358D01*
X442854Y409931D01*
X441035Y408715D01*
X439819Y406896D01*
X439392Y404750D01*
X439819Y402604D01*
X441035Y400785D01*
X442854Y399569D01*
X445000Y399142D01*
X447146Y399569D01*
X448965Y400785D01*
X449273Y401246D01*
X450824D01*
X450824Y401246D01*
X452385Y401556D01*
X453708Y402440D01*
X459634Y408366D01*
X459634Y408366D01*
X460518Y409689D01*
X460828Y411250D01*
X460828Y411250D01*
Y415250D01*
X464000D01*
Y451250D01*
D02*
G37*
G36*
X300790Y402790D02*
X296020D01*
Y397020D01*
X300790D01*
Y402790D01*
D02*
G37*
G36*
X293480D02*
X288710D01*
Y397020D01*
X293480D01*
Y402790D01*
D02*
G37*
G36*
X224000Y417250D02*
X211000D01*
Y406250D01*
X213296D01*
Y403223D01*
X213284Y403215D01*
X212069Y401396D01*
X211642Y399250D01*
X212069Y397104D01*
X213284Y395285D01*
X215104Y394069D01*
X217250Y393642D01*
X219396Y394069D01*
X221215Y395285D01*
X222431Y397104D01*
X222857Y399250D01*
X222431Y401396D01*
X221453Y402859D01*
Y406250D01*
X224000D01*
Y417250D01*
D02*
G37*
G36*
X254500D02*
X241500D01*
Y406250D01*
X243797D01*
Y402723D01*
X243785Y402715D01*
X242569Y400896D01*
X242142Y398750D01*
X242569Y396604D01*
X243785Y394785D01*
X245604Y393569D01*
X247750Y393142D01*
X249896Y393569D01*
X251715Y394785D01*
X252931Y396604D01*
X253358Y398750D01*
X252931Y400896D01*
X251953Y402359D01*
Y406250D01*
X254500D01*
Y417250D01*
D02*
G37*
G36*
X239250D02*
X226250D01*
Y406250D01*
X228547D01*
Y402723D01*
X228535Y402715D01*
X227319Y400896D01*
X226892Y398750D01*
X227319Y396604D01*
X228535Y394785D01*
X230354Y393569D01*
X232500Y393142D01*
X234646Y393569D01*
X236465Y394785D01*
X237681Y396604D01*
X238108Y398750D01*
X237681Y400896D01*
X236703Y402359D01*
Y406250D01*
X239250D01*
Y417250D01*
D02*
G37*
G36*
X300790Y394480D02*
X296020D01*
Y388710D01*
X300790D01*
Y394480D01*
D02*
G37*
G36*
X293480D02*
X288710D01*
Y388710D01*
X293480D01*
Y394480D01*
D02*
G37*
G36*
X166000Y408858D02*
X163854Y408431D01*
X162035Y407215D01*
X160819Y405396D01*
X160392Y403250D01*
X160819Y401104D01*
X162035Y399285D01*
X162172Y399193D01*
Y394750D01*
X160000D01*
Y383750D01*
X173000D01*
Y385172D01*
X175000D01*
Y378000D01*
X186000D01*
Y391000D01*
X180767D01*
X179634Y392134D01*
X178311Y393018D01*
X176750Y393328D01*
X176750Y393328D01*
X173000D01*
Y394750D01*
X170329D01*
Y399828D01*
X171181Y401104D01*
X171608Y403250D01*
X171181Y405396D01*
X169965Y407215D01*
X168146Y408431D01*
X166000Y408858D01*
D02*
G37*
G36*
X368575Y396340D02*
X353335D01*
Y376020D01*
X368575D01*
Y396340D01*
D02*
G37*
G36*
X350795D02*
X335555D01*
Y376020D01*
X350795D01*
Y396340D01*
D02*
G37*
G36*
X488020Y395036D02*
Y371270D01*
X511786D01*
X511428Y374909D01*
X509996Y379629D01*
X507671Y383979D01*
X504542Y387792D01*
X500729Y390921D01*
X496379Y393246D01*
X491659Y394678D01*
X488020Y395036D01*
D02*
G37*
G36*
X485480D02*
X481841Y394678D01*
X477121Y393246D01*
X472771Y390921D01*
X468958Y387792D01*
X465829Y383979D01*
X463504Y379629D01*
X462072Y374909D01*
X461714Y371270D01*
X485480D01*
Y395036D01*
D02*
G37*
G36*
X97770Y374659D02*
Y369389D01*
X104040D01*
Y374659D01*
X97770D01*
D02*
G37*
G36*
X78980D02*
X72710D01*
Y369389D01*
X78980D01*
Y374659D01*
D02*
G37*
G36*
X157224Y472354D02*
X123074D01*
X121806Y472101D01*
X120731Y471383D01*
X104347Y455000D01*
X103629Y453924D01*
X103456Y453057D01*
X102507Y452543D01*
X102107Y452491D01*
X100984Y453353D01*
X98797Y454259D01*
X96450Y454568D01*
X94103Y454259D01*
X91916Y453353D01*
X90038Y451912D01*
X88597Y450034D01*
X87691Y447847D01*
X87382Y445500D01*
X87691Y443153D01*
X87745Y443024D01*
X85345Y440624D01*
X80295D01*
X80121Y440589D01*
X79335Y441374D01*
X79207Y441702D01*
X79809Y443153D01*
X80118Y445500D01*
X79809Y447847D01*
X78903Y450034D01*
X77462Y451912D01*
X75584Y453353D01*
X73397Y454259D01*
X71050Y454568D01*
X68703Y454259D01*
X66516Y453353D01*
X64638Y451912D01*
X63197Y450034D01*
X62291Y447847D01*
X61982Y445500D01*
X62291Y443153D01*
X63197Y440966D01*
X64638Y439089D01*
X66516Y437648D01*
X68703Y436742D01*
X71050Y436433D01*
X72857Y436670D01*
X73450Y435468D01*
X67866Y429884D01*
X66982Y428561D01*
X66982Y428560D01*
X66672Y427000D01*
X66672Y427000D01*
Y426885D01*
X65469Y426477D01*
X65147Y426897D01*
X63156Y428425D01*
X60838Y429385D01*
X59620Y429545D01*
Y420100D01*
Y410655D01*
X60838Y410816D01*
X63156Y411776D01*
X65147Y413303D01*
X65469Y413723D01*
X66672Y413315D01*
Y411500D01*
X66672Y411500D01*
X66982Y409939D01*
X67866Y408616D01*
X76171Y400311D01*
Y390119D01*
X73250D01*
Y378119D01*
X87250D01*
Y380040D01*
X89500D01*
Y378119D01*
X103500D01*
Y380040D01*
X108750D01*
Y377000D01*
X136750D01*
Y396000D01*
X119078D01*
Y399954D01*
X120181Y401604D01*
X120608Y403750D01*
X120181Y405896D01*
X118965Y407715D01*
X117146Y408931D01*
X115000Y409358D01*
X112854Y408931D01*
X111035Y407715D01*
X109819Y405896D01*
X109392Y403750D01*
X109819Y401604D01*
X110922Y399954D01*
Y396000D01*
X108750D01*
Y388197D01*
X103500D01*
Y390119D01*
X100578D01*
Y405761D01*
X106348Y411530D01*
X106803Y411342D01*
X109150Y411033D01*
X111497Y411342D01*
X113684Y412248D01*
X115562Y413689D01*
X117003Y415566D01*
X117908Y417753D01*
X118217Y420100D01*
X117908Y422447D01*
X117003Y424634D01*
X115562Y426512D01*
X113684Y427953D01*
X111497Y428859D01*
X109150Y429168D01*
X106803Y428859D01*
X104616Y427953D01*
X102738Y426512D01*
X101297Y424634D01*
X100391Y422447D01*
X100082Y420100D01*
X100391Y417753D01*
X100580Y417298D01*
X93616Y410334D01*
X93616Y410334D01*
X92732Y409011D01*
X92422Y407450D01*
X92422Y407450D01*
Y390119D01*
X89500D01*
Y388197D01*
X87250D01*
Y390119D01*
X84328D01*
Y402000D01*
X84328Y402000D01*
X84018Y403561D01*
X83134Y404884D01*
X74829Y413189D01*
Y414976D01*
X74966Y415052D01*
X76098Y415304D01*
X77338Y413689D01*
X79216Y412248D01*
X81403Y411342D01*
X83750Y411033D01*
X86097Y411342D01*
X88284Y412248D01*
X90162Y413689D01*
X91603Y415566D01*
X92508Y417753D01*
X92817Y420100D01*
X92515Y422397D01*
X109033Y438915D01*
X109752Y439990D01*
X110004Y441258D01*
Y443847D01*
X111274Y444408D01*
X111419Y444311D01*
X111926Y443972D01*
X111927Y443972D01*
X111927Y443972D01*
X112470Y443864D01*
X113012Y443756D01*
X113091Y443153D01*
X113997Y440966D01*
X115438Y439089D01*
X117316Y437648D01*
X119503Y436742D01*
X121850Y436433D01*
X124197Y436742D01*
X126384Y437648D01*
X128262Y439089D01*
X129703Y440966D01*
X130609Y443153D01*
X130918Y445500D01*
X130609Y447847D01*
X129703Y450034D01*
X128262Y451912D01*
X126384Y453353D01*
X124197Y454259D01*
X122170Y454526D01*
X121550Y455702D01*
X126534Y460686D01*
X153764D01*
X163936Y450514D01*
Y437000D01*
X163593Y436657D01*
X163593Y436657D01*
X146867Y419931D01*
X146148Y418856D01*
X145896Y417588D01*
Y371682D01*
X146148Y370414D01*
X146867Y369339D01*
X153819Y362387D01*
X154894Y361668D01*
X156162Y361416D01*
X160000D01*
Y355750D01*
X173000D01*
Y361416D01*
X181982D01*
X182661Y360146D01*
X181839Y358916D01*
X181412Y356770D01*
X181839Y354624D01*
X183055Y352805D01*
X184874Y351589D01*
X187020Y351162D01*
X187239Y351206D01*
X188761Y349683D01*
X188392Y348468D01*
X188104Y348411D01*
X186285Y347195D01*
X185069Y345376D01*
X184942Y344739D01*
X183534Y344170D01*
X182396Y344931D01*
X180250Y345358D01*
X178104Y344931D01*
X176285Y343715D01*
X175069Y341896D01*
X174642Y339750D01*
X175069Y337604D01*
X176285Y335785D01*
X176712Y335499D01*
X176689Y333987D01*
X175535Y333215D01*
X174319Y331396D01*
X173892Y329250D01*
X174319Y327104D01*
X174586Y326704D01*
X173988Y325584D01*
X172000D01*
Y337500D01*
X170578D01*
Y339750D01*
X173000D01*
Y350750D01*
X160000D01*
Y349203D01*
X154609D01*
X153146Y350181D01*
X151000Y350608D01*
X148854Y350181D01*
X147035Y348965D01*
X145819Y347146D01*
X145392Y345000D01*
X145819Y342854D01*
X147035Y341035D01*
X148854Y339819D01*
X151000Y339392D01*
X153146Y339819D01*
X154965Y341035D01*
X154973Y341047D01*
X160000D01*
Y339750D01*
X162422D01*
Y337500D01*
X161000D01*
Y324763D01*
X160768Y324608D01*
X156631Y320471D01*
X155540Y320040D01*
X155540Y320040D01*
Y320040D01*
X155540Y320040D01*
X147770D01*
Y312000D01*
Y303960D01*
X154666D01*
Y301500D01*
X138000D01*
Y297334D01*
X133381D01*
X133000Y297715D01*
Y306000D01*
X122000D01*
Y293000D01*
X128285D01*
X129642Y291642D01*
X130724Y290920D01*
X132000Y290666D01*
X138000D01*
Y286500D01*
X155000D01*
Y291854D01*
X156512D01*
X157788Y292108D01*
X158870Y292831D01*
X159190Y293151D01*
X160460Y292625D01*
Y285960D01*
X168230D01*
Y294000D01*
Y302040D01*
X161334D01*
Y304500D01*
X178000D01*
Y308916D01*
X182000D01*
Y306750D01*
X195000D01*
Y313035D01*
X196341Y314376D01*
X199865D01*
X200391Y313106D01*
X198642Y311357D01*
X197920Y310276D01*
X197666Y309000D01*
Y301194D01*
X197245Y300856D01*
X197035Y300715D01*
X196993Y300653D01*
X196695Y300414D01*
X195540Y300764D01*
Y302290D01*
X189770D01*
Y296250D01*
Y290210D01*
X195540D01*
Y292736D01*
X196810Y293121D01*
X197035Y292785D01*
X198854Y291569D01*
X201000Y291142D01*
X203146Y291569D01*
X204965Y292785D01*
X206181Y294604D01*
X206608Y296750D01*
X206181Y298896D01*
X204965Y300715D01*
X204334Y301137D01*
Y307619D01*
X205381Y308666D01*
X207152D01*
X208250Y308250D01*
X208250Y308016D01*
Y296250D01*
X222250D01*
Y298916D01*
X226250D01*
Y296250D01*
X240250D01*
Y298916D01*
X241808D01*
X242069Y297604D01*
X243285Y295785D01*
X245104Y294569D01*
X247250Y294142D01*
X249396Y294569D01*
X251215Y295785D01*
X251940Y296869D01*
X253210Y296484D01*
Y290460D01*
X258980D01*
Y296500D01*
Y302540D01*
X253499D01*
X253210Y302540D01*
X251963Y302596D01*
X251215Y303715D01*
X249396Y304931D01*
X247250Y305358D01*
X245345Y304979D01*
X244819Y305330D01*
X244004Y305492D01*
X243484Y306769D01*
X249107Y312393D01*
X249830Y313474D01*
X250084Y314750D01*
Y316221D01*
X251257Y316707D01*
X253750Y314214D01*
Y307000D01*
X266750D01*
Y318000D01*
X259389D01*
X259377Y318017D01*
X253443Y323951D01*
X253919Y325271D01*
X254205Y325298D01*
X254387Y325215D01*
X255354Y324569D01*
X257500Y324142D01*
X259646Y324569D01*
X261465Y325785D01*
X262681Y327604D01*
X263108Y329750D01*
X262681Y331896D01*
X261465Y333715D01*
X260766Y334182D01*
X261151Y335452D01*
X261329D01*
X262605Y335706D01*
X263687Y336429D01*
X264499Y337241D01*
X266250Y336892D01*
X268396Y337319D01*
X270215Y338535D01*
X271431Y340354D01*
X271858Y342500D01*
X271431Y344646D01*
X270215Y346465D01*
X269498Y346945D01*
Y348472D01*
X269965Y348785D01*
X271181Y350604D01*
X271608Y352750D01*
X271181Y354896D01*
X269965Y356715D01*
X268225Y357878D01*
X268144Y358173D01*
X268134Y359228D01*
X269715Y360285D01*
X270931Y362104D01*
X271358Y364250D01*
X270931Y366396D01*
X269715Y368215D01*
X268194Y369232D01*
X268087Y370314D01*
X268163Y370664D01*
X269465Y371535D01*
X270681Y373354D01*
X271108Y375500D01*
X270681Y377646D01*
X269465Y379465D01*
X267646Y380681D01*
X265500Y381108D01*
X263920Y380793D01*
X263295Y381964D01*
X271980Y390649D01*
X273250Y390123D01*
Y389250D01*
X274671D01*
Y384000D01*
X274671Y384000D01*
X274982Y382439D01*
X275866Y381116D01*
X285422Y371561D01*
Y355750D01*
X283500D01*
Y341750D01*
X284671D01*
Y335750D01*
X283000D01*
Y324643D01*
X282922Y324250D01*
X282922Y324250D01*
Y303046D01*
X281819Y301396D01*
X281392Y299250D01*
X281819Y297104D01*
X283035Y295285D01*
X284854Y294069D01*
X287000Y293642D01*
X289146Y294069D01*
X290490Y294967D01*
X291760Y294362D01*
Y290770D01*
X298030D01*
Y296040D01*
X292997D01*
X292577Y296588D01*
X292222Y297310D01*
X292608Y299250D01*
X292181Y301396D01*
X291078Y303046D01*
Y307750D01*
X302000D01*
Y335750D01*
X292828D01*
Y341750D01*
X295500D01*
Y355750D01*
X293578D01*
Y369172D01*
X296704D01*
X298354Y368069D01*
X300500Y367642D01*
X302646Y368069D01*
X304465Y369285D01*
X305681Y371104D01*
X306108Y373250D01*
X305681Y375396D01*
X304465Y377215D01*
X302646Y378431D01*
X300500Y378858D01*
X298354Y378431D01*
X296704Y377328D01*
X291189D01*
X282828Y385690D01*
Y389250D01*
X284250D01*
Y402250D01*
X273250D01*
Y399829D01*
X271314D01*
X269753Y399518D01*
X269557Y399388D01*
X268384Y399874D01*
X268181Y400896D01*
X267328Y402171D01*
Y406250D01*
X270000D01*
Y417250D01*
X257000D01*
Y406250D01*
X259172D01*
Y402807D01*
X259035Y402715D01*
X257819Y400896D01*
X257392Y398750D01*
X257819Y396604D01*
X259035Y394785D01*
X260854Y393569D01*
X261627Y393415D01*
X261996Y392200D01*
X258374Y388578D01*
X230000D01*
Y391000D01*
X219000D01*
Y382715D01*
X217428Y381143D01*
X216705Y380061D01*
X216452Y378786D01*
Y371500D01*
X215978Y371026D01*
X215947Y370979D01*
X215600Y370632D01*
X214682Y370357D01*
X214133Y370303D01*
X208334Y376103D01*
Y378000D01*
X214000D01*
Y391000D01*
X208334D01*
Y394838D01*
X208082Y396106D01*
X208081Y396106D01*
X207363Y397181D01*
X199032Y405512D01*
X192698Y411846D01*
X193252Y412675D01*
X193679Y414821D01*
X193252Y416967D01*
X192036Y418786D01*
X190217Y420002D01*
X188071Y420429D01*
X185925Y420002D01*
X184106Y418786D01*
X182890Y416967D01*
X182463Y414821D01*
X182604Y414116D01*
X181706Y413218D01*
X181000Y413358D01*
X178854Y412931D01*
X177035Y411716D01*
X175819Y409896D01*
X175392Y407750D01*
X175819Y405604D01*
X177035Y403785D01*
X178854Y402569D01*
X181000Y402142D01*
X183146Y402569D01*
X184445Y403437D01*
X184647Y403397D01*
X195774Y392270D01*
X195247Y391000D01*
X191000D01*
Y378000D01*
X196666D01*
Y373763D01*
X195838Y373084D01*
X173000D01*
Y378750D01*
X160000D01*
Y374502D01*
X158730Y373976D01*
X157564Y375143D01*
Y414128D01*
X174633Y431197D01*
X175351Y432272D01*
X175603Y433540D01*
Y453974D01*
X175351Y455242D01*
X174633Y456317D01*
X159567Y471383D01*
X158492Y472101D01*
X158281Y472143D01*
X157224Y472354D01*
D02*
G37*
G36*
X104040Y366849D02*
X97770D01*
Y361579D01*
X104040D01*
Y366849D01*
D02*
G37*
G36*
X78980D02*
X72710D01*
Y361579D01*
X78980D01*
Y366849D01*
D02*
G37*
G36*
X88960Y374659D02*
X87790D01*
X87690Y374659D01*
X81520D01*
Y368119D01*
X80250D01*
D01*
X81520D01*
Y361579D01*
X87690D01*
X87790Y361579D01*
X88960D01*
X89060Y361579D01*
X95230D01*
Y368119D01*
Y374659D01*
X89060D01*
X88960Y374659D01*
D02*
G37*
G36*
X137290Y367540D02*
X124020D01*
Y358770D01*
X137290D01*
Y367540D01*
D02*
G37*
G36*
X121480D02*
X108210D01*
Y358770D01*
X121480D01*
Y367540D01*
D02*
G37*
G36*
X368575Y373480D02*
X353335D01*
Y353160D01*
X368575D01*
Y373480D01*
D02*
G37*
G36*
X350795D02*
X335555D01*
Y353160D01*
X350795D01*
Y373480D01*
D02*
G37*
G36*
X312040Y356290D02*
X306770D01*
Y350020D01*
X312040D01*
Y356290D01*
D02*
G37*
G36*
X304230D02*
X298960D01*
Y350020D01*
X304230D01*
Y356290D01*
D02*
G37*
G36*
X137290Y356230D02*
X124020D01*
Y347460D01*
X137290D01*
Y356230D01*
D02*
G37*
G36*
X121480D02*
X108210D01*
Y347460D01*
X121480D01*
Y356230D01*
D02*
G37*
G36*
X511786Y368730D02*
X488020D01*
Y344964D01*
X491659Y345323D01*
X496379Y346754D01*
X500729Y349080D01*
X504542Y352209D01*
X507671Y356021D01*
X509996Y360372D01*
X511428Y365092D01*
X511786Y368730D01*
D02*
G37*
G36*
X485480D02*
X461714D01*
X462072Y365092D01*
X463504Y360372D01*
X465829Y356021D01*
X468958Y352209D01*
X472771Y349080D01*
X477121Y346754D01*
X481841Y345323D01*
X485480Y344964D01*
Y368730D01*
D02*
G37*
G36*
X312040Y347480D02*
X306770D01*
Y341210D01*
X312040D01*
Y347480D01*
D02*
G37*
G36*
X304230D02*
X298960D01*
Y341210D01*
X304230D01*
Y347480D01*
D02*
G37*
G36*
X41520Y362786D02*
Y339020D01*
X65286D01*
X64928Y342659D01*
X63496Y347379D01*
X61171Y351729D01*
X58042Y355541D01*
X54229Y358671D01*
X49879Y360996D01*
X45159Y362428D01*
X41520Y362786D01*
D02*
G37*
G36*
X38980D02*
X35341Y362428D01*
X30621Y360996D01*
X26271Y358671D01*
X22458Y355541D01*
X19329Y351729D01*
X17004Y347379D01*
X15572Y342659D01*
X15214Y339020D01*
X38980D01*
Y362786D01*
D02*
G37*
G36*
X112940Y342340D02*
X107670D01*
Y336070D01*
X112940D01*
Y342340D01*
D02*
G37*
G36*
X105130D02*
X99860D01*
Y336070D01*
X105130D01*
Y342340D01*
D02*
G37*
G36*
X156540Y338040D02*
X151770D01*
Y332270D01*
X156540D01*
Y338040D01*
D02*
G37*
G36*
X149230D02*
X144460D01*
Y332270D01*
X149230D01*
Y338040D01*
D02*
G37*
G36*
X156540Y329730D02*
X151770D01*
Y323960D01*
X156540D01*
Y329730D01*
D02*
G37*
G36*
X149230D02*
X144460D01*
Y323960D01*
X149230D01*
Y329730D01*
D02*
G37*
G36*
X331540Y336290D02*
X322770D01*
Y323020D01*
X331540D01*
Y336290D01*
D02*
G37*
G36*
X320230D02*
X311460D01*
Y323020D01*
X320230D01*
Y336290D01*
D02*
G37*
G36*
X128400Y341800D02*
X116400D01*
Y327800D01*
X119066D01*
Y325800D01*
X116400D01*
Y311800D01*
X128400D01*
Y325800D01*
X125734D01*
Y327800D01*
X128400D01*
Y330726D01*
X129573Y331212D01*
X132040Y328745D01*
X131892Y328000D01*
X132319Y325854D01*
X133535Y324035D01*
X135354Y322819D01*
X137500Y322392D01*
X139646Y322819D01*
X141465Y324035D01*
X142681Y325854D01*
X143108Y328000D01*
X142681Y330146D01*
X141465Y331965D01*
X139646Y333181D01*
X137500Y333608D01*
X136755Y333460D01*
X131080Y339135D01*
X129998Y339858D01*
X128722Y340112D01*
X128400D01*
Y341800D01*
D02*
G37*
G36*
X112940Y333530D02*
X106400D01*
X99860D01*
Y327610D01*
X99860Y327260D01*
Y326340D01*
X99860Y325990D01*
Y320070D01*
X106400D01*
X112940D01*
Y325990D01*
X112940Y326340D01*
Y327260D01*
X112940Y327610D01*
Y333530D01*
D02*
G37*
G36*
X145230Y320040D02*
X137460D01*
Y313270D01*
X145230D01*
Y320040D01*
D02*
G37*
G36*
X65286Y336480D02*
X41520D01*
Y312714D01*
X45159Y313072D01*
X49879Y314504D01*
X54229Y316829D01*
X58042Y319958D01*
X61171Y323771D01*
X63496Y328121D01*
X64928Y332841D01*
X65286Y336480D01*
D02*
G37*
G36*
X38980D02*
X15214D01*
X15572Y332841D01*
X17004Y328121D01*
X19329Y323771D01*
X22458Y319958D01*
X26271Y316829D01*
X30621Y314504D01*
X35341Y313072D01*
X38980Y312714D01*
Y336480D01*
D02*
G37*
G36*
X112940Y317530D02*
X107670D01*
Y311260D01*
X112940D01*
Y317530D01*
D02*
G37*
G36*
X105130D02*
X99860D01*
Y311260D01*
X105130D01*
Y317530D01*
D02*
G37*
G36*
X331540Y320480D02*
X322770D01*
Y307210D01*
X331540D01*
Y320480D01*
D02*
G37*
G36*
X320230D02*
X311460D01*
Y307210D01*
X320230D01*
Y320480D01*
D02*
G37*
G36*
X145230Y310730D02*
X137460D01*
Y303960D01*
X145230D01*
Y310730D01*
D02*
G37*
G36*
X117540Y306540D02*
X112770D01*
Y300770D01*
X117540D01*
Y306540D01*
D02*
G37*
G36*
X110230D02*
X105460D01*
Y300770D01*
X110230D01*
Y306540D01*
D02*
G37*
G36*
X261520Y302540D02*
Y297770D01*
X267290D01*
Y302540D01*
X261520D01*
D02*
G37*
G36*
X187230Y302290D02*
X181460D01*
Y297520D01*
X187230D01*
Y302290D01*
D02*
G37*
G36*
X178540Y302040D02*
X170770D01*
Y295270D01*
X178540D01*
Y302040D01*
D02*
G37*
G36*
X328840Y299040D02*
X320570D01*
Y292770D01*
X328840D01*
Y299040D01*
D02*
G37*
G36*
X318030D02*
X309760D01*
Y292770D01*
X318030D01*
Y299040D01*
D02*
G37*
G36*
X117540Y298230D02*
X112770D01*
Y292460D01*
X117540D01*
Y298230D01*
D02*
G37*
G36*
X110230D02*
X105460D01*
Y292460D01*
X110230D01*
Y298230D01*
D02*
G37*
G36*
X306840Y296040D02*
X300570D01*
Y290770D01*
X306840D01*
Y296040D01*
D02*
G37*
G36*
X267290Y295230D02*
X261520D01*
Y290460D01*
X267290D01*
Y295230D01*
D02*
G37*
G36*
X187230Y294980D02*
X181460D01*
Y290210D01*
X187230D01*
Y294980D01*
D02*
G37*
G36*
X240790Y292790D02*
X234520D01*
Y287520D01*
X240790D01*
Y292790D01*
D02*
G37*
G36*
X222790D02*
X216520D01*
Y287520D01*
X222790D01*
Y292790D01*
D02*
G37*
G36*
X213980D02*
X207710D01*
Y287520D01*
X213980D01*
Y292790D01*
D02*
G37*
G36*
X231980D02*
X225710D01*
Y287520D01*
X231980D01*
Y292790D01*
D02*
G37*
G36*
X76540Y292790D02*
X71770D01*
Y287020D01*
X76540D01*
Y292790D01*
D02*
G37*
G36*
X69230D02*
X64460D01*
Y287020D01*
X69230D01*
Y292790D01*
D02*
G37*
G36*
X178540Y292730D02*
X170770D01*
Y285960D01*
X178540D01*
Y292730D01*
D02*
G37*
G36*
X328840Y290230D02*
X320570D01*
Y283960D01*
X328840D01*
Y290230D01*
D02*
G37*
G36*
X318030D02*
X309760D01*
Y283960D01*
X318030D01*
Y290230D01*
D02*
G37*
G36*
X306840Y288230D02*
X300570D01*
Y282960D01*
X306840D01*
Y288230D01*
D02*
G37*
G36*
X240790Y284980D02*
X234520D01*
Y279710D01*
X240790D01*
Y284980D01*
D02*
G37*
G36*
X231980D02*
X225710D01*
Y279710D01*
X231980D01*
Y284980D01*
D02*
G37*
G36*
X222790D02*
X216520D01*
Y279710D01*
X222790D01*
Y284980D01*
D02*
G37*
G36*
X213980D02*
X207710D01*
Y279710D01*
X213980D01*
Y284980D01*
D02*
G37*
G36*
X60000Y292250D02*
X49000D01*
Y280150D01*
X47794Y279095D01*
X47599Y279134D01*
X37250D01*
Y284550D01*
X18250D01*
Y265550D01*
X37250D01*
Y272466D01*
X46218D01*
X49000Y269684D01*
Y264000D01*
X60000D01*
Y277000D01*
X57834D01*
Y279250D01*
X60000D01*
Y292250D01*
D02*
G37*
G36*
X76540Y284480D02*
X71770D01*
Y278710D01*
X76540D01*
Y284480D01*
D02*
G37*
G36*
X69230D02*
X64460D01*
Y278710D01*
X69230D01*
Y284480D01*
D02*
G37*
G36*
X99040Y279540D02*
X92770D01*
Y274270D01*
X99040D01*
Y279540D01*
D02*
G37*
G36*
X90230D02*
X83960D01*
Y274270D01*
X90230D01*
Y279540D01*
D02*
G37*
G36*
X167040Y279290D02*
X160770D01*
Y271020D01*
X167040D01*
Y279290D01*
D02*
G37*
G36*
X158230D02*
X151960D01*
Y271020D01*
X158230D01*
Y279290D01*
D02*
G37*
G36*
X278750Y294358D02*
X276604Y293931D01*
X274785Y292715D01*
X273569Y290896D01*
X273142Y288750D01*
X273569Y286604D01*
X274785Y284785D01*
X276604Y283569D01*
X278750Y283142D01*
X280896Y283569D01*
X281687Y284098D01*
X281935D01*
X292300Y273732D01*
Y269351D01*
X291030Y268825D01*
X284274Y275581D01*
X284358Y276000D01*
X283931Y278146D01*
X282715Y279965D01*
X280896Y281181D01*
X278750Y281608D01*
X276604Y281181D01*
X274785Y279965D01*
X273569Y278146D01*
X273142Y276000D01*
X273569Y273854D01*
X274785Y272035D01*
X276604Y270819D01*
X278750Y270392D01*
X279820Y270605D01*
X283267Y267158D01*
X282477Y266152D01*
X282386Y266208D01*
X282045Y266452D01*
X281863Y266535D01*
X280896Y267181D01*
X278750Y267608D01*
X276604Y267181D01*
X274785Y265965D01*
X273569Y264146D01*
X273142Y262000D01*
X273569Y259854D01*
X274785Y258035D01*
X276604Y256819D01*
X277923Y256557D01*
X278596Y256423D01*
X278700Y255196D01*
X277783Y255014D01*
X277250Y254658D01*
X276717Y255014D01*
X275800Y255196D01*
X273700D01*
X272783Y255014D01*
X272250Y254658D01*
X271717Y255014D01*
X270800Y255196D01*
X268700D01*
X267783Y255014D01*
X267250Y254658D01*
X266717Y255014D01*
X265800Y255196D01*
X263700D01*
X262783Y255014D01*
X262250Y254658D01*
X261717Y255014D01*
X260800Y255196D01*
X258700D01*
X257783Y255014D01*
X257250Y254658D01*
X256717Y255014D01*
X255800Y255196D01*
X253700D01*
X252783Y255014D01*
X252250Y254658D01*
X251717Y255014D01*
X250800Y255196D01*
X248700D01*
X247783Y255014D01*
X247250Y254658D01*
X246717Y255014D01*
X245800Y255196D01*
X243700D01*
X242783Y255014D01*
X242250Y254658D01*
X241717Y255014D01*
X240800Y255196D01*
X238700D01*
X237783Y255014D01*
X237250Y254658D01*
X236717Y255014D01*
X235800Y255196D01*
X233700D01*
X232783Y255014D01*
X232250Y254658D01*
X231717Y255014D01*
X230800Y255196D01*
X228700D01*
X227783Y255014D01*
X227250Y254658D01*
X226717Y255014D01*
X225800Y255196D01*
X223700D01*
X222783Y255014D01*
X222250Y254658D01*
X221717Y255014D01*
X220800Y255196D01*
X218700D01*
X217783Y255014D01*
X217250Y254658D01*
X216717Y255014D01*
X215800Y255196D01*
X213700D01*
X212783Y255014D01*
X212250Y254658D01*
X211717Y255014D01*
X210800Y255196D01*
X208700D01*
X207783Y255014D01*
X207250Y254658D01*
X206717Y255014D01*
X205800Y255196D01*
X203700D01*
X202783Y255014D01*
X202250Y254658D01*
X201717Y255014D01*
X200800Y255196D01*
X198700D01*
X198084Y255702D01*
Y263662D01*
X198642Y264220D01*
X200396Y264569D01*
X202215Y265785D01*
X203431Y267604D01*
X203858Y269750D01*
X203431Y271896D01*
X202215Y273715D01*
X200396Y274931D01*
X198250Y275358D01*
X196104Y274931D01*
X194285Y273715D01*
X193069Y271896D01*
X192642Y269750D01*
X192991Y267999D01*
X192392Y267401D01*
X191670Y266319D01*
X191416Y265043D01*
Y262208D01*
X190243Y261722D01*
X186500Y265465D01*
Y278750D01*
X172500D01*
Y260750D01*
X171506Y260084D01*
X168258D01*
X167040Y260210D01*
X167040Y261354D01*
Y268480D01*
X159500D01*
X151960D01*
X151960Y260210D01*
X150742Y260084D01*
X140750D01*
Y263750D01*
X139284D01*
X138898Y265020D01*
X138965Y265065D01*
X140181Y266884D01*
X140608Y269030D01*
X140181Y271176D01*
X138965Y272995D01*
X137146Y274211D01*
X135000Y274638D01*
X132854Y274211D01*
X131035Y272995D01*
X130613Y272364D01*
X108280D01*
X107004Y272110D01*
X105922Y271387D01*
X103071Y268536D01*
X102348Y267454D01*
X102094Y266179D01*
Y262560D01*
X100642Y261108D01*
X100642Y261108D01*
X99869Y260334D01*
X98500D01*
Y263000D01*
X84500D01*
Y260334D01*
X73834D01*
Y264000D01*
X76000D01*
Y277000D01*
X65000D01*
Y264000D01*
X67166D01*
Y258500D01*
X67420Y257224D01*
X68142Y256143D01*
X69642Y254643D01*
X70724Y253920D01*
X72000Y253666D01*
X84500D01*
Y251000D01*
X88166D01*
Y247000D01*
X88420Y245724D01*
X89142Y244643D01*
X95436Y238349D01*
Y234030D01*
X95500Y233708D01*
Y229204D01*
X76311D01*
X73500Y232015D01*
Y237300D01*
X47500D01*
Y227300D01*
X68785D01*
X70311Y225774D01*
X69825Y224600D01*
X47500D01*
Y214600D01*
X71425D01*
X71469Y214592D01*
X71513Y214600D01*
X73500D01*
Y214600D01*
X74672Y214363D01*
X77855Y211180D01*
X77189Y210050D01*
X76262Y210234D01*
X73500D01*
Y211900D01*
X47500D01*
Y201900D01*
X73500D01*
X74416Y201046D01*
Y200854D01*
X74040Y199740D01*
X73146Y199740D01*
X61770D01*
Y194200D01*
Y188660D01*
X74040D01*
Y191631D01*
X75310Y192016D01*
X75392Y191893D01*
X84392Y182892D01*
X85474Y182170D01*
X86750Y181916D01*
X126102D01*
X126628Y180646D01*
X123982Y178000D01*
X110750D01*
Y174284D01*
X109480Y173946D01*
X108465Y175465D01*
X106646Y176681D01*
X104500Y177108D01*
X102354Y176681D01*
X100704Y175578D01*
X98750D01*
Y178000D01*
X79750D01*
Y170374D01*
X78577Y169888D01*
X71837Y176627D01*
X70756Y177350D01*
X69480Y177604D01*
X36312D01*
X36048Y178241D01*
X34525Y180225D01*
X32541Y181748D01*
X30230Y182705D01*
X27750Y183032D01*
X25270Y182705D01*
X22959Y181748D01*
X20975Y180225D01*
X19452Y178241D01*
X18494Y175930D01*
X18168Y173450D01*
X18494Y170970D01*
X19452Y168659D01*
X20975Y166674D01*
X22959Y165152D01*
X23672Y164857D01*
Y127200D01*
X23672Y127200D01*
X23982Y125639D01*
X24866Y124316D01*
X39866Y109316D01*
X39866Y109316D01*
X41189Y108432D01*
X42750Y108122D01*
X46750D01*
Y102200D01*
X66750D01*
Y122200D01*
X46750D01*
Y116278D01*
X44440D01*
X31828Y128890D01*
Y164857D01*
X32541Y165152D01*
X34525Y166674D01*
X36048Y168659D01*
X36991Y170936D01*
X47954D01*
X48580Y169666D01*
X47544Y168315D01*
X46481Y165751D01*
X46286Y164270D01*
X67214D01*
X67019Y165751D01*
X65957Y168315D01*
X64921Y169666D01*
X65547Y170936D01*
X68099D01*
X79750Y159285D01*
Y151000D01*
X94375D01*
X94861Y149826D01*
X88142Y143108D01*
X87420Y142026D01*
X87166Y140750D01*
Y101000D01*
X81215D01*
X79512Y102703D01*
Y129072D01*
X79258Y130348D01*
X78536Y131430D01*
X70008Y139957D01*
X68926Y140680D01*
X67650Y140934D01*
X66193D01*
X65485Y142643D01*
X63882Y144732D01*
X61793Y146335D01*
X59361Y147343D01*
X56750Y147686D01*
X54140Y147343D01*
X51707Y146335D01*
X49618Y144732D01*
X48015Y142643D01*
X47008Y140210D01*
X46664Y137600D01*
X47008Y134989D01*
X48015Y132557D01*
X49618Y130468D01*
X51707Y128865D01*
X54140Y127857D01*
X56750Y127514D01*
X59361Y127857D01*
X61793Y128865D01*
X63882Y130468D01*
X65485Y132557D01*
X65689Y133050D01*
X67187Y133348D01*
X72844Y127691D01*
Y101322D01*
X73098Y100046D01*
X73821Y98964D01*
X76500Y96285D01*
Y87000D01*
X87166D01*
Y84500D01*
X87420Y83224D01*
X88142Y82142D01*
X90936Y79349D01*
Y74480D01*
X91000Y74158D01*
Y64750D01*
X103000D01*
Y78750D01*
X97604D01*
Y80730D01*
X97350Y82006D01*
X96628Y83088D01*
X93985Y85730D01*
X94199Y87000D01*
X104500D01*
Y88416D01*
X176304D01*
Y84300D01*
X176487Y83383D01*
X177006Y82606D01*
X177783Y82086D01*
X178700Y81904D01*
X180800D01*
X181717Y82086D01*
X182250Y82442D01*
X182783Y82086D01*
X183700Y81904D01*
X185800D01*
X186717Y82086D01*
X187250Y82443D01*
X187783Y82086D01*
X188700Y81904D01*
X190800D01*
X191717Y82086D01*
X192250Y82442D01*
X192783Y82086D01*
X193700Y81904D01*
X195800D01*
X196717Y82086D01*
X197250Y82443D01*
X197783Y82086D01*
X198700Y81904D01*
X200800D01*
X201717Y82086D01*
X202250Y82442D01*
X202783Y82086D01*
X202849Y80778D01*
X202732Y80584D01*
X132500D01*
X131224Y80330D01*
X130142Y79608D01*
X123869Y73334D01*
X119000D01*
Y78750D01*
X107000D01*
Y64750D01*
X119000D01*
Y66666D01*
X125250D01*
X126526Y66920D01*
X127607Y67642D01*
X133618Y73653D01*
X134305Y73566D01*
X134763Y72228D01*
X120869Y58334D01*
X119000D01*
Y62500D01*
X107000D01*
Y48500D01*
X119000D01*
Y51666D01*
X122250D01*
X122523Y51720D01*
X122975Y51245D01*
X123384Y50597D01*
X123166Y49500D01*
Y44381D01*
X120270Y41485D01*
X119000Y42011D01*
Y46500D01*
X107000D01*
Y32500D01*
X119000D01*
Y34416D01*
X121250D01*
X122526Y34670D01*
X123608Y35392D01*
X128857Y40642D01*
X129580Y41724D01*
X129834Y43000D01*
Y48119D01*
X146551Y64836D01*
X180575D01*
X181101Y63566D01*
X179392Y61858D01*
X178670Y60776D01*
X178416Y59500D01*
Y58040D01*
X171270D01*
Y50000D01*
Y41960D01*
X174586D01*
X175072Y40787D01*
X173785Y39500D01*
X161500D01*
Y36584D01*
X157750D01*
Y38750D01*
X144750D01*
Y27750D01*
X157750D01*
Y29916D01*
X161500D01*
Y24500D01*
X178500D01*
Y34785D01*
X182690Y38974D01*
X183960Y38449D01*
Y33270D01*
X191730D01*
Y40040D01*
X185400D01*
X184721Y41310D01*
X184830Y41474D01*
X185034Y42500D01*
X201500D01*
Y45416D01*
X205000D01*
Y43250D01*
X218000D01*
Y53876D01*
X218790D01*
X219730Y54063D01*
X221000Y53343D01*
Y46500D01*
X235000D01*
Y48037D01*
X237000D01*
Y46750D01*
X251000D01*
Y48037D01*
X253000D01*
Y46750D01*
X267000D01*
Y48412D01*
X272091D01*
X272604Y48069D01*
X274750Y47642D01*
X276896Y48069D01*
X278715Y49285D01*
X279931Y51104D01*
X280358Y53250D01*
X279931Y55396D01*
X278715Y57215D01*
X276896Y58431D01*
X274750Y58858D01*
X272604Y58431D01*
X271343Y57588D01*
X269603D01*
X269308Y58858D01*
X270107Y59392D01*
X287107Y76392D01*
X287830Y77474D01*
X288084Y78750D01*
Y81398D01*
X288700Y81904D01*
X290800D01*
X291717Y82086D01*
X292250Y82442D01*
X292783Y82086D01*
X293700Y81904D01*
X295800D01*
X296717Y82086D01*
X297250Y82443D01*
X297783Y82086D01*
X298700Y81904D01*
X300800D01*
X301717Y82086D01*
X302494Y82606D01*
X303014Y83383D01*
X303196Y84300D01*
Y99200D01*
X303084Y99763D01*
Y101258D01*
X304257Y101744D01*
X307166Y98836D01*
Y85000D01*
X307419Y83724D01*
X308142Y82642D01*
X314666Y76119D01*
Y70584D01*
X294000D01*
X292724Y70330D01*
X291642Y69608D01*
X289393Y67358D01*
X288670Y66276D01*
X288416Y65000D01*
Y59000D01*
X285750D01*
Y45000D01*
X297750D01*
Y59000D01*
X295084D01*
Y63619D01*
X295381Y63916D01*
X316512D01*
X317788Y64170D01*
X318869Y64893D01*
X320357Y66380D01*
X321080Y67462D01*
X321334Y68738D01*
Y78871D01*
X322507Y79356D01*
X334471Y67392D01*
X335553Y66670D01*
X336829Y66416D01*
X352250D01*
Y63750D01*
X366250D01*
Y75750D01*
X352250D01*
Y73084D01*
X338210D01*
X321334Y89960D01*
Y105104D01*
X324000D01*
X324917Y105286D01*
X325694Y105806D01*
X326214Y106583D01*
X326396Y107500D01*
Y109600D01*
X326214Y110517D01*
X326182Y110564D01*
X326722Y111372D01*
X326903Y112280D01*
X316550D01*
Y114820D01*
X327127D01*
X327452Y115216D01*
X335694D01*
X350213Y100697D01*
X351294Y99975D01*
X352570Y99721D01*
X360374D01*
X373075Y87020D01*
X372549Y85750D01*
X370250D01*
Y73750D01*
X384250D01*
Y75672D01*
X386811D01*
X388922Y73561D01*
Y58689D01*
X386616Y56384D01*
X385732Y55061D01*
X385421Y53500D01*
X385421Y53500D01*
Y44500D01*
X383250D01*
Y33500D01*
X396250D01*
Y44500D01*
X393578D01*
Y51811D01*
X394689Y52922D01*
X399750D01*
Y52000D01*
X415750D01*
Y62000D01*
X399750D01*
Y61079D01*
X397078D01*
Y75250D01*
X397078Y75250D01*
X396768Y76811D01*
X395884Y78134D01*
X394028Y79990D01*
X394328Y81500D01*
X394328Y81500D01*
Y89454D01*
X395431Y91104D01*
X395858Y93250D01*
X395431Y95396D01*
X394215Y97215D01*
X392396Y98431D01*
X390250Y98858D01*
X388104Y98431D01*
X386285Y97215D01*
X385069Y95396D01*
X384642Y93250D01*
X385069Y91104D01*
X386172Y89454D01*
Y83828D01*
X384250D01*
Y85750D01*
X380584D01*
Y87560D01*
X380330Y88836D01*
X379608Y89917D01*
X364113Y105412D01*
X363031Y106135D01*
X361755Y106389D01*
X353951D01*
X352360Y107980D01*
X352886Y109250D01*
X364230D01*
X365500Y109250D01*
X365770Y109250D01*
X373785D01*
X378499Y104536D01*
X378392Y104000D01*
X378819Y101854D01*
X380035Y100035D01*
X381854Y98819D01*
X384000Y98392D01*
X386146Y98819D01*
X387965Y100035D01*
X389181Y101854D01*
X389608Y104000D01*
X389181Y106146D01*
X387965Y107965D01*
X386146Y109181D01*
X384000Y109608D01*
X383047Y109418D01*
X378500Y113965D01*
Y120250D01*
X365770D01*
X364500Y120250D01*
X364230Y120250D01*
X351500D01*
Y118449D01*
X350230Y118235D01*
X343064Y125401D01*
Y127584D01*
X344184Y128183D01*
X344354Y128069D01*
X346500Y127642D01*
X348283Y127997D01*
X348772Y127670D01*
X350048Y127416D01*
X351500D01*
Y125250D01*
X364230D01*
X364500Y125250D01*
X365741Y125250D01*
X378500D01*
Y129183D01*
X380310D01*
X381586Y129437D01*
X382668Y130160D01*
X383249Y130741D01*
X385000Y130392D01*
X387146Y130819D01*
X388965Y132035D01*
X390181Y133854D01*
X390608Y136000D01*
X390181Y138146D01*
X388965Y139965D01*
X387146Y141181D01*
X385000Y141608D01*
X382854Y141181D01*
X381035Y139965D01*
X379819Y138146D01*
X379548Y136785D01*
X378500Y136250D01*
X376526D01*
X376484Y136259D01*
X376439Y136250D01*
X365770D01*
X365500Y136250D01*
X364259Y136250D01*
X351500D01*
X351500Y136250D01*
Y136250D01*
X350596Y137020D01*
X350465Y137215D01*
X348646Y138431D01*
X346500Y138858D01*
X344354Y138431D01*
X343298Y139019D01*
X344075Y140216D01*
X353550D01*
X354826Y140470D01*
X355908Y141193D01*
X356215Y141500D01*
X364500D01*
Y141500D01*
X365500Y141500D01*
Y141500D01*
X378500D01*
Y152500D01*
X375334D01*
Y153500D01*
X375080Y154776D01*
X374357Y155858D01*
X373985Y156230D01*
X374511Y157500D01*
X378500D01*
Y160166D01*
X382197D01*
X382285Y160035D01*
X384104Y158819D01*
X386250Y158392D01*
X388396Y158819D01*
X390215Y160035D01*
X391431Y161854D01*
X391858Y164000D01*
X391431Y166146D01*
X390215Y167965D01*
X388396Y169181D01*
X386250Y169608D01*
X384104Y169181D01*
X382285Y167965D01*
X381529Y166834D01*
X378500D01*
Y168500D01*
X365500D01*
Y168500D01*
X364500Y168500D01*
Y168500D01*
X361084D01*
Y170363D01*
X361715Y170785D01*
X362931Y172604D01*
X363358Y174750D01*
X362931Y176896D01*
X361715Y178715D01*
X359896Y179931D01*
X357750Y180358D01*
X355604Y179931D01*
X353785Y178715D01*
X352569Y176896D01*
X352142Y174750D01*
X352569Y172604D01*
X353785Y170785D01*
X354416Y170363D01*
Y168500D01*
X351500D01*
Y158334D01*
X344750D01*
X343474Y158080D01*
X342392Y157358D01*
X336919Y151884D01*
X326902D01*
X326396Y152500D01*
Y154600D01*
X326214Y155517D01*
X325858Y156050D01*
X326214Y156583D01*
X326396Y157500D01*
Y159600D01*
X326214Y160517D01*
X325857Y161050D01*
X326214Y161583D01*
X326396Y162500D01*
Y164600D01*
X326214Y165517D01*
X325858Y166050D01*
X326214Y166583D01*
X326396Y167500D01*
Y169600D01*
X326214Y170517D01*
X325857Y171050D01*
X326214Y171583D01*
X326396Y172500D01*
Y174600D01*
X326214Y175517D01*
X325858Y176050D01*
X326214Y176583D01*
X326396Y177500D01*
Y179600D01*
X326214Y180517D01*
X325857Y181050D01*
X326214Y181583D01*
X326396Y182500D01*
Y184600D01*
X326214Y185517D01*
X325857Y186050D01*
X326214Y186583D01*
X326396Y187500D01*
Y189600D01*
X326214Y190517D01*
X325858Y191050D01*
X326214Y191583D01*
X326396Y192500D01*
Y194600D01*
X326214Y195517D01*
X325857Y196050D01*
X326214Y196583D01*
X326396Y197500D01*
Y199600D01*
X326214Y200517D01*
X325858Y201050D01*
X326214Y201583D01*
X326396Y202500D01*
Y204600D01*
X326214Y205517D01*
X325857Y206050D01*
X326214Y206583D01*
X326396Y207500D01*
Y209600D01*
X326214Y210517D01*
X325858Y211050D01*
X326214Y211583D01*
X326396Y212500D01*
Y214600D01*
X326214Y215517D01*
X325857Y216050D01*
X326214Y216583D01*
X326396Y217500D01*
Y219600D01*
X326860Y220166D01*
X328262D01*
X329538Y220420D01*
X330620Y221143D01*
X332108Y222630D01*
X332830Y223712D01*
X333084Y224988D01*
Y250500D01*
X332830Y251776D01*
X332108Y252857D01*
X322634Y262331D01*
Y264500D01*
X328300D01*
Y278500D01*
X310300D01*
Y264500D01*
X315966D01*
Y260950D01*
X316220Y259674D01*
X316942Y258593D01*
X326416Y249119D01*
Y232326D01*
X325146Y231661D01*
X324917Y231814D01*
X324000Y231996D01*
X320628D01*
Y249950D01*
X320628Y249950D01*
X320318Y251511D01*
X319434Y252834D01*
X319434Y252834D01*
X306378Y265889D01*
Y271500D01*
X306378Y271500D01*
X306300Y271894D01*
Y279500D01*
X298068D01*
X295781Y281787D01*
X296267Y282960D01*
X298030D01*
Y288230D01*
X291760D01*
Y287467D01*
X290587Y286981D01*
X286508Y291060D01*
X285185Y291944D01*
X283624Y292254D01*
X283624Y292254D01*
X283023D01*
X282715Y292715D01*
X280896Y293931D01*
X278750Y294358D01*
D02*
G37*
G36*
X99040Y271730D02*
X92770D01*
Y266460D01*
X99040D01*
Y271730D01*
D02*
G37*
G36*
X90230D02*
X83960D01*
Y266460D01*
X90230D01*
Y271730D01*
D02*
G37*
G36*
X354520Y272114D02*
Y262920D01*
X363714D01*
X363519Y264401D01*
X362457Y266965D01*
X360767Y269167D01*
X358565Y270857D01*
X356002Y271919D01*
X354520Y272114D01*
D02*
G37*
G36*
X351980D02*
X350499Y271919D01*
X347934Y270857D01*
X345733Y269167D01*
X344043Y266965D01*
X342981Y264401D01*
X342786Y262920D01*
X351980D01*
Y272114D01*
D02*
G37*
G36*
X363714Y260380D02*
X354520D01*
Y251186D01*
X356002Y251381D01*
X358565Y252443D01*
X360767Y254133D01*
X362457Y256334D01*
X363519Y258899D01*
X363714Y260380D01*
D02*
G37*
G36*
X351980D02*
X342786D01*
X342981Y258899D01*
X344043Y256334D01*
X345733Y254133D01*
X347934Y252443D01*
X350499Y251381D01*
X351980Y251186D01*
Y260380D01*
D02*
G37*
G36*
X27750Y259232D02*
X25270Y258906D01*
X22959Y257948D01*
X20975Y256425D01*
X19452Y254441D01*
X18494Y252130D01*
X18168Y249650D01*
X18494Y247170D01*
X19452Y244859D01*
X20975Y242875D01*
X22959Y241352D01*
X25270Y240394D01*
X27750Y240068D01*
X30230Y240394D01*
X32541Y241352D01*
X34525Y242875D01*
X36048Y244859D01*
X37005Y247170D01*
X37332Y249650D01*
X37005Y252130D01*
X36048Y254441D01*
X34525Y256425D01*
X32541Y257948D01*
X30230Y258906D01*
X27750Y259232D01*
D02*
G37*
G36*
X430000Y451250D02*
X415500D01*
Y415250D01*
X415939D01*
Y395800D01*
X407465D01*
Y363685D01*
X390257Y346478D01*
X389135Y345015D01*
X388430Y343312D01*
X388190Y341485D01*
Y301500D01*
X373250D01*
Y227500D01*
X417250D01*
Y301500D01*
X402310D01*
Y338561D01*
X417450Y353700D01*
X439405D01*
Y395800D01*
X430060D01*
Y433000D01*
X430000Y433458D01*
Y451250D01*
D02*
G37*
G36*
X353250Y246336D02*
X350639Y245993D01*
X348207Y244985D01*
X346118Y243382D01*
X344515Y241293D01*
X343507Y238860D01*
X343164Y236250D01*
X343507Y233639D01*
X344515Y231207D01*
X346118Y229118D01*
X348207Y227515D01*
X350639Y226507D01*
X353250Y226164D01*
X355860Y226507D01*
X358293Y227515D01*
X360382Y229118D01*
X361985Y231207D01*
X362993Y233639D01*
X363336Y236250D01*
X362993Y238860D01*
X361985Y241293D01*
X360382Y243382D01*
X358293Y244985D01*
X355860Y245993D01*
X353250Y246336D01*
D02*
G37*
G36*
X29020Y234209D02*
Y225520D01*
X37709D01*
X37531Y226871D01*
X36520Y229313D01*
X34911Y231411D01*
X32813Y233020D01*
X30371Y234032D01*
X29020Y234209D01*
D02*
G37*
G36*
X26480D02*
X25129Y234032D01*
X22687Y233020D01*
X20589Y231411D01*
X18980Y229313D01*
X17968Y226871D01*
X17790Y225520D01*
X26480D01*
Y234209D01*
D02*
G37*
G36*
X37709Y222980D02*
X29020D01*
Y214291D01*
X30371Y214468D01*
X32813Y215480D01*
X34911Y217089D01*
X36520Y219187D01*
X37531Y221629D01*
X37709Y222980D01*
D02*
G37*
G36*
X26480D02*
X17790D01*
X17968Y221629D01*
X18980Y219187D01*
X20589Y217089D01*
X22687Y215480D01*
X25129Y214468D01*
X26480Y214291D01*
Y222980D01*
D02*
G37*
G36*
X363250Y220850D02*
X343250D01*
Y200850D01*
X363250D01*
Y220850D01*
D02*
G37*
G36*
X59230Y199740D02*
X46960D01*
Y195470D01*
X59230D01*
Y199740D01*
D02*
G37*
G36*
X27750Y208432D02*
X25270Y208106D01*
X22959Y207148D01*
X20975Y205625D01*
X19452Y203641D01*
X18494Y201330D01*
X18168Y198850D01*
X18494Y196370D01*
X19452Y194059D01*
X20975Y192075D01*
X22959Y190552D01*
X25270Y189594D01*
X27750Y189268D01*
X30230Y189594D01*
X32541Y190552D01*
X34525Y192075D01*
X36048Y194059D01*
X37005Y196370D01*
X37332Y198850D01*
X37005Y201330D01*
X36048Y203641D01*
X34525Y205625D01*
X32541Y207148D01*
X30230Y208106D01*
X27750Y208432D01*
D02*
G37*
G36*
X59230Y192930D02*
X46960D01*
Y188660D01*
X59230D01*
Y192930D01*
D02*
G37*
G36*
X517290Y172040D02*
X511020D01*
Y166770D01*
X517290D01*
Y172040D01*
D02*
G37*
G36*
X508480D02*
X502210D01*
Y166770D01*
X508480D01*
Y172040D01*
D02*
G37*
G36*
X517290Y164230D02*
X511020D01*
Y158960D01*
X517290D01*
Y164230D01*
D02*
G37*
G36*
X508480D02*
X502210D01*
Y158960D01*
X508480D01*
Y164230D01*
D02*
G37*
G36*
X67214Y161730D02*
X58020D01*
Y152536D01*
X59502Y152731D01*
X62066Y153793D01*
X64267Y155483D01*
X65957Y157684D01*
X67019Y160248D01*
X67214Y161730D01*
D02*
G37*
G36*
X55480D02*
X46286D01*
X46481Y160248D01*
X47544Y157684D01*
X49233Y155483D01*
X51435Y153793D01*
X53999Y152731D01*
X55480Y152536D01*
Y161730D01*
D02*
G37*
G36*
X423270Y153955D02*
Y145770D01*
X431455D01*
X431295Y146990D01*
X430333Y149311D01*
X428804Y151304D01*
X426811Y152833D01*
X424491Y153794D01*
X423270Y153955D01*
D02*
G37*
G36*
X420730D02*
X419510Y153794D01*
X417189Y152833D01*
X415196Y151304D01*
X413667Y149311D01*
X412706Y146990D01*
X412545Y145770D01*
X420730D01*
Y153955D01*
D02*
G37*
G36*
X431455Y143230D02*
X423270D01*
Y135045D01*
X424491Y135206D01*
X426811Y136167D01*
X428804Y137696D01*
X430333Y139689D01*
X431295Y142010D01*
X431455Y143230D01*
D02*
G37*
G36*
X420730D02*
X412545D01*
X412706Y142010D01*
X413667Y139689D01*
X415196Y137696D01*
X417189Y136167D01*
X419510Y135206D01*
X420730Y135045D01*
Y143230D01*
D02*
G37*
G36*
X517250Y301500D02*
X473250D01*
Y249959D01*
X473190Y249500D01*
Y197549D01*
X467008Y191367D01*
X465886Y189905D01*
X465180Y188202D01*
X464940Y186375D01*
Y153500D01*
X463000D01*
Y135500D01*
X467412D01*
Y102401D01*
X444850Y79838D01*
X442758D01*
X442373Y79914D01*
X441500Y80088D01*
X438750D01*
Y81000D01*
X422750D01*
Y72040D01*
X422210D01*
Y67770D01*
X430750D01*
Y65230D01*
X422210D01*
Y60960D01*
X422750D01*
Y52000D01*
X438750D01*
Y52412D01*
X442162D01*
Y46580D01*
X441920Y46338D01*
X439124D01*
X438500Y46370D01*
Y46750D01*
X436513D01*
X436469Y46759D01*
X436426Y46750D01*
X422500D01*
Y37790D01*
X421960D01*
Y33520D01*
X430500D01*
Y30980D01*
X421960D01*
Y26710D01*
X422500D01*
Y17750D01*
X438500D01*
Y18162D01*
X443821D01*
X444694Y18336D01*
X445576Y18511D01*
X445576Y18511D01*
X445577Y18511D01*
X446289Y18987D01*
X447065Y19506D01*
X449994Y22434D01*
X449994Y22434D01*
X449994Y22434D01*
X450467Y23142D01*
X450989Y23923D01*
X450989Y23923D01*
X450989Y23923D01*
X451159Y24777D01*
X451338Y25679D01*
X451338Y25679D01*
X451338Y25679D01*
Y44679D01*
Y59929D01*
Y73349D01*
X475244Y97256D01*
X476239Y98744D01*
X476588Y100500D01*
Y131764D01*
X477762Y132250D01*
X485006Y125006D01*
X486494Y124011D01*
X488250Y123662D01*
X502250D01*
Y122250D01*
X516250D01*
Y134250D01*
X502250D01*
Y132838D01*
X490150D01*
X481000Y141989D01*
Y153500D01*
X479061D01*
Y174440D01*
X509750D01*
X511577Y174680D01*
X513280Y175386D01*
X513429Y175500D01*
X516750D01*
Y181042D01*
X516810Y181500D01*
X516750Y181959D01*
Y187500D01*
X513429D01*
X513280Y187615D01*
X511577Y188320D01*
X509750Y188561D01*
X485967D01*
X485580Y189132D01*
X485395Y189831D01*
X486365Y191095D01*
X487070Y192798D01*
X487311Y194625D01*
Y227500D01*
X517250D01*
Y301500D01*
D02*
G37*
G36*
X516250Y118250D02*
X502250D01*
Y115857D01*
X502117Y115835D01*
X501932Y115819D01*
X499000D01*
X497635Y115547D01*
X496477Y114774D01*
X494968Y113265D01*
X494500Y113358D01*
X492354Y112931D01*
X490535Y111715D01*
X489319Y109896D01*
X488892Y107750D01*
X489319Y105604D01*
X490535Y103785D01*
X492354Y102569D01*
X494500Y102142D01*
X496646Y102569D01*
X498465Y103785D01*
X499681Y105604D01*
X500108Y107750D01*
X500980Y108556D01*
X502250Y108339D01*
Y106250D01*
X505644D01*
X505666Y106117D01*
X505682Y105932D01*
Y99000D01*
X503250D01*
Y85000D01*
X515250D01*
Y99000D01*
X512819D01*
Y105932D01*
X512835Y106117D01*
X512857Y106250D01*
X516250D01*
Y118250D01*
D02*
G37*
G36*
X499790Y99540D02*
X494520D01*
Y93270D01*
X499790D01*
Y99540D01*
D02*
G37*
G36*
X491980D02*
X486710D01*
Y93270D01*
X491980D01*
Y99540D01*
D02*
G37*
G36*
X499790Y90730D02*
X494520D01*
Y84460D01*
X499790D01*
Y90730D01*
D02*
G37*
G36*
X491980D02*
X486710D01*
Y84460D01*
X491980D01*
Y90730D01*
D02*
G37*
G36*
X415750Y81000D02*
X399750D01*
Y71000D01*
X415750D01*
Y81000D01*
D02*
G37*
G36*
X384790Y70290D02*
X378520D01*
Y65020D01*
X384790D01*
Y70290D01*
D02*
G37*
G36*
X375980D02*
X369710D01*
Y65020D01*
X375980D01*
Y70290D01*
D02*
G37*
G36*
X103000Y62500D02*
X91000D01*
Y59453D01*
X87109D01*
X85646Y60431D01*
X83500Y60858D01*
X81354Y60431D01*
X79535Y59215D01*
X78319Y57396D01*
X77892Y55250D01*
X78319Y53104D01*
X79535Y51285D01*
X81354Y50069D01*
X83500Y49642D01*
X85646Y50069D01*
X87465Y51285D01*
X87473Y51297D01*
X91000D01*
Y48500D01*
X103000D01*
Y62500D01*
D02*
G37*
G36*
X384790Y62480D02*
X378520D01*
Y57210D01*
X384790D01*
Y62480D01*
D02*
G37*
G36*
X375980D02*
X369710D01*
Y57210D01*
X375980D01*
Y62480D01*
D02*
G37*
G36*
X331250Y59000D02*
X319250D01*
Y55607D01*
X319116Y55585D01*
X318932Y55568D01*
X314068D01*
X313883Y55585D01*
X313750Y55607D01*
Y59000D01*
X301750D01*
Y45000D01*
X303007D01*
X303533Y43730D01*
X298303Y38500D01*
X284350D01*
Y19500D01*
X303350D01*
Y33453D01*
X310273Y40377D01*
X311047Y41534D01*
X311318Y42900D01*
Y45000D01*
X313750D01*
Y48393D01*
X313883Y48415D01*
X314068Y48431D01*
X318932D01*
X319116Y48415D01*
X319250Y48393D01*
Y45000D01*
X331250D01*
Y59000D01*
D02*
G37*
G36*
X366790Y60290D02*
X360520D01*
Y55020D01*
X366790D01*
Y60290D01*
D02*
G37*
G36*
X357980D02*
X351710D01*
Y55020D01*
X357980D01*
Y60290D01*
D02*
G37*
G36*
X347790Y59540D02*
X342520D01*
Y53270D01*
X347790D01*
Y59540D01*
D02*
G37*
G36*
X339980D02*
X334710D01*
Y53270D01*
X339980D01*
Y59540D01*
D02*
G37*
G36*
X168730Y58040D02*
X160960D01*
Y51270D01*
X168730D01*
Y58040D01*
D02*
G37*
G36*
X158290Y55290D02*
X152520D01*
Y50520D01*
X158290D01*
Y55290D01*
D02*
G37*
G36*
X149980D02*
X144210D01*
Y50520D01*
X149980D01*
Y55290D01*
D02*
G37*
G36*
X366790Y52480D02*
X360520D01*
Y47210D01*
X366790D01*
Y52480D01*
D02*
G37*
G36*
X357980D02*
X351710D01*
Y47210D01*
X357980D01*
Y52480D01*
D02*
G37*
G36*
X347790Y50730D02*
X342520D01*
Y44460D01*
X347790D01*
Y50730D01*
D02*
G37*
G36*
X339980D02*
X334710D01*
Y44460D01*
X339980D01*
Y50730D01*
D02*
G37*
G36*
X252460Y43290D02*
X251540D01*
X251190Y43290D01*
X245270D01*
Y36750D01*
Y30210D01*
X251190D01*
X251540Y30210D01*
X252460D01*
X252810Y30210D01*
X258730D01*
Y36750D01*
Y43290D01*
X252810D01*
X252460Y43290D01*
D02*
G37*
G36*
X158290Y47980D02*
X152520D01*
Y43210D01*
X158290D01*
Y47980D01*
D02*
G37*
G36*
X149980D02*
X144210D01*
Y43210D01*
X149980D01*
Y47980D01*
D02*
G37*
G36*
X168730Y48730D02*
X160960D01*
Y41960D01*
X168730D01*
Y48730D01*
D02*
G37*
G36*
X488020Y64536D02*
Y40770D01*
X511786D01*
X511428Y44409D01*
X509996Y49129D01*
X507671Y53479D01*
X504542Y57292D01*
X500729Y60421D01*
X496379Y62746D01*
X491659Y64178D01*
X488020Y64536D01*
D02*
G37*
G36*
X485480D02*
X481841Y64178D01*
X477121Y62746D01*
X472771Y60421D01*
X468958Y57292D01*
X465829Y53479D01*
X463504Y49129D01*
X462072Y44409D01*
X461714Y40770D01*
X485480D01*
Y64536D01*
D02*
G37*
G36*
X41520Y62536D02*
Y38770D01*
X65286D01*
X64928Y42409D01*
X63496Y47129D01*
X61171Y51479D01*
X58042Y55292D01*
X54229Y58421D01*
X49879Y60746D01*
X45159Y62178D01*
X41520Y62536D01*
D02*
G37*
G36*
X38980D02*
X35341Y62178D01*
X30621Y60746D01*
X26271Y58421D01*
X22458Y55292D01*
X19329Y51479D01*
X17004Y47129D01*
X15572Y42409D01*
X15214Y38770D01*
X38980D01*
Y62536D01*
D02*
G37*
G36*
X261270Y43290D02*
Y38020D01*
X267540D01*
Y43290D01*
X261270D01*
D02*
G37*
G36*
X226730Y43040D02*
X220460D01*
Y37770D01*
X226730D01*
Y43040D01*
D02*
G37*
G36*
X415500Y46750D02*
X399500D01*
Y36750D01*
X415500D01*
Y46750D01*
D02*
G37*
G36*
X218540Y38790D02*
X212770D01*
Y34020D01*
X218540D01*
Y38790D01*
D02*
G37*
G36*
X210230D02*
X204460D01*
Y34020D01*
X210230D01*
Y38790D01*
D02*
G37*
G36*
X202040Y40040D02*
X194270D01*
Y33270D01*
X202040D01*
Y40040D01*
D02*
G37*
G36*
X320520Y38960D02*
Y30270D01*
X329210D01*
X329032Y31621D01*
X328020Y34063D01*
X326411Y36161D01*
X324313Y37770D01*
X321871Y38782D01*
X320520Y38960D01*
D02*
G37*
G36*
X317980D02*
X316629Y38782D01*
X314187Y37770D01*
X312089Y36161D01*
X310480Y34063D01*
X309468Y31621D01*
X309291Y30270D01*
X317980D01*
Y38960D01*
D02*
G37*
G36*
X267540Y35480D02*
X261270D01*
Y30210D01*
X267540D01*
Y35480D01*
D02*
G37*
G36*
X236460Y43290D02*
X235294Y43040D01*
X235190D01*
X229270D01*
Y36500D01*
Y29960D01*
X235294D01*
X235540Y29960D01*
X236706Y30210D01*
X236810D01*
X242730D01*
Y36750D01*
Y43290D01*
X236706D01*
X236460Y43290D01*
D02*
G37*
G36*
X226730Y35230D02*
X220460D01*
Y29960D01*
X226730D01*
Y35230D01*
D02*
G37*
G36*
X218540Y31480D02*
X212770D01*
Y26710D01*
X218540D01*
Y31480D01*
D02*
G37*
G36*
X210230D02*
X204460D01*
Y26710D01*
X210230D01*
Y31480D01*
D02*
G37*
G36*
X202040Y30730D02*
X194270D01*
Y23960D01*
X202040D01*
Y30730D01*
D02*
G37*
G36*
X191730D02*
X183960D01*
Y23960D01*
X191730D01*
Y30730D01*
D02*
G37*
G36*
X344650Y38582D02*
X342170Y38256D01*
X339859Y37298D01*
X337875Y35776D01*
X336352Y33791D01*
X335395Y31480D01*
X335068Y29000D01*
X335395Y26520D01*
X336352Y24209D01*
X337875Y22225D01*
X339859Y20702D01*
X342170Y19745D01*
X344650Y19418D01*
X347130Y19745D01*
X349441Y20702D01*
X351426Y22225D01*
X352948Y24209D01*
X353905Y26520D01*
X354232Y29000D01*
X353905Y31480D01*
X352948Y33791D01*
X351426Y35776D01*
X349441Y37298D01*
X347130Y38256D01*
X344650Y38582D01*
D02*
G37*
G36*
X103000Y46500D02*
X91000D01*
Y32500D01*
X92422D01*
Y29224D01*
X92035Y28965D01*
X90819Y27146D01*
X90392Y25000D01*
X90819Y22854D01*
X92035Y21035D01*
X93854Y19819D01*
X96000Y19392D01*
X98146Y19819D01*
X99965Y21035D01*
X101181Y22854D01*
X101608Y25000D01*
X101181Y27146D01*
X100578Y28048D01*
Y32500D01*
X103000D01*
Y46500D01*
D02*
G37*
G36*
X329210Y27730D02*
X320520D01*
Y19041D01*
X321871Y19219D01*
X324313Y20230D01*
X326411Y21840D01*
X328020Y23937D01*
X329032Y26379D01*
X329210Y27730D01*
D02*
G37*
G36*
X317980D02*
X309291D01*
X309468Y26379D01*
X310480Y23937D01*
X312089Y21840D01*
X314187Y20230D01*
X316629Y19219D01*
X317980Y19041D01*
Y27730D01*
D02*
G37*
G36*
X374000Y50358D02*
X371854Y49931D01*
X370035Y48715D01*
X368819Y46896D01*
X368392Y44750D01*
X368819Y42604D01*
X369922Y40954D01*
Y28954D01*
X369922Y28954D01*
X370232Y27393D01*
X371116Y26070D01*
X377195Y19991D01*
X378518Y19107D01*
X380079Y18797D01*
X380079Y18797D01*
X383250D01*
Y17500D01*
X396250D01*
Y18797D01*
X399500D01*
Y17750D01*
X415500D01*
Y27750D01*
X399500D01*
Y26954D01*
X396250D01*
Y28500D01*
X383250D01*
Y26954D01*
X381768D01*
X378078Y30643D01*
Y40954D01*
X379181Y42604D01*
X379608Y44750D01*
X379181Y46896D01*
X377965Y48715D01*
X376146Y49931D01*
X374000Y50358D01*
D02*
G37*
G36*
X511786Y38230D02*
X488020D01*
Y14464D01*
X491659Y14822D01*
X496379Y16254D01*
X500729Y18579D01*
X504542Y21708D01*
X507671Y25521D01*
X509996Y29871D01*
X511428Y34591D01*
X511786Y38230D01*
D02*
G37*
G36*
X485480D02*
X461714D01*
X462072Y34591D01*
X463504Y29871D01*
X465829Y25521D01*
X468958Y21708D01*
X472771Y18579D01*
X477121Y16254D01*
X481841Y14822D01*
X485480Y14464D01*
Y38230D01*
D02*
G37*
G36*
X65286Y36230D02*
X41520D01*
Y12464D01*
X45159Y12822D01*
X49879Y14254D01*
X54229Y16579D01*
X58042Y19708D01*
X61171Y23521D01*
X63496Y27871D01*
X64928Y32591D01*
X65286Y36230D01*
D02*
G37*
G36*
X38980D02*
X15214D01*
X15572Y32591D01*
X17004Y27871D01*
X19329Y23521D01*
X22458Y19708D01*
X26271Y16579D01*
X30621Y14254D01*
X35341Y12822D01*
X38980Y12464D01*
Y36230D01*
D02*
G37*
%LPD*%
G36*
X283311Y444460D02*
X283285Y444701D01*
X283208Y444917D01*
X283079Y445107D01*
X282899Y445273D01*
X282668Y445412D01*
X282385Y445527D01*
X282051Y445616D01*
X281666Y445679D01*
X281229Y445717D01*
X280740Y445730D01*
Y448270D01*
X281229Y448283D01*
X281666Y448321D01*
X282051Y448384D01*
X282385Y448473D01*
X282668Y448587D01*
X282899Y448727D01*
X283079Y448892D01*
X283208Y449083D01*
X283285Y449299D01*
X283311Y449540D01*
Y444460D01*
D02*
G37*
G36*
X392732Y462589D02*
X382125Y466125D01*
X385661Y469661D01*
X392732Y462589D01*
D02*
G37*
G36*
X114905Y444710D02*
X114866Y444914D01*
X114797Y445096D01*
X114699Y445257D01*
X114572Y445397D01*
X114416Y445515D01*
X114230Y445612D01*
X114015Y445687D01*
X113771Y445740D01*
X113497Y445773D01*
X113195Y445783D01*
Y448283D01*
X113610Y448292D01*
X114345Y448365D01*
X114664Y448428D01*
X114952Y448509D01*
X115207Y448609D01*
X115431Y448726D01*
X115623Y448862D01*
X115783Y449015D01*
X115911Y449187D01*
X114905Y444710D01*
D02*
G37*
G36*
X235397Y373117D02*
X235297Y373078D01*
X235207Y373017D01*
X235128Y372933D01*
X235060Y372828D01*
X235002Y372700D01*
X234954Y372550D01*
X234918Y372378D01*
X234891Y372184D01*
X234876Y371967D01*
X234870Y371729D01*
X232330D01*
X232327Y372110D01*
X232226Y373507D01*
X232188Y373684D01*
X232145Y373827D01*
X232096Y373936D01*
X232041Y374010D01*
X235397Y373117D01*
D02*
G37*
G36*
X245525Y372790D02*
X245042Y372705D01*
X244142Y372475D01*
X243725Y372330D01*
X243330Y372164D01*
X242956Y371979D01*
X242604Y371774D01*
X242274Y371548D01*
X241966Y371303D01*
X241679Y371037D01*
X239846Y372796D01*
X240106Y373078D01*
X240346Y373385D01*
X240565Y373715D01*
X240764Y374070D01*
X240943Y374448D01*
X241101Y374850D01*
X241238Y375277D01*
X241356Y375727D01*
X241452Y376202D01*
X241529Y376700D01*
X245525Y372790D01*
D02*
G37*
G36*
X255737Y372284D02*
X255247Y372203D01*
X254334Y371981D01*
X253912Y371840D01*
X253514Y371678D01*
X253137Y371496D01*
X252784Y371294D01*
X252454Y371071D01*
X252146Y370829D01*
X251862Y370566D01*
X250066Y372362D01*
X250329Y372646D01*
X250572Y372954D01*
X250794Y373284D01*
X250996Y373637D01*
X251178Y374013D01*
X251340Y374412D01*
X251481Y374834D01*
X251603Y375279D01*
X251704Y375747D01*
X251784Y376237D01*
X255737Y372284D01*
D02*
G37*
G36*
X265987Y372034D02*
X265497Y371953D01*
X264584Y371731D01*
X264162Y371590D01*
X263763Y371428D01*
X263387Y371246D01*
X263034Y371044D01*
X262704Y370821D01*
X262396Y370579D01*
X262112Y370316D01*
X260316Y372112D01*
X260579Y372396D01*
X260821Y372704D01*
X261044Y373034D01*
X261246Y373387D01*
X261428Y373763D01*
X261590Y374162D01*
X261731Y374584D01*
X261852Y375029D01*
X261954Y375497D01*
X262034Y375987D01*
X265987Y372034D01*
D02*
G37*
G36*
X233795Y370127D02*
X231978Y368224D01*
X230096Y370106D01*
X230134Y370128D01*
X230206Y370185D01*
X230452Y370407D01*
X231999Y371923D01*
X233795Y370127D01*
D02*
G37*
G36*
X237354Y366712D02*
X235513Y364688D01*
X233631Y366570D01*
X233646Y366587D01*
X233907Y366853D01*
X235395Y368344D01*
X237354Y366712D01*
D02*
G37*
G36*
X215062Y366570D02*
X213180Y364688D01*
X213157Y364733D01*
X213099Y364810D01*
X213006Y364920D01*
X212288Y365684D01*
X211384Y366599D01*
X213152Y368366D01*
X215062Y366570D01*
D02*
G37*
G36*
X211526Y363035D02*
X209644Y361153D01*
X209624Y361184D01*
X209568Y361250D01*
X208996Y361850D01*
X207862Y362993D01*
X209545Y364845D01*
X211526Y363035D01*
D02*
G37*
G36*
X240866Y363056D02*
X239048Y361153D01*
X237167Y363034D01*
X237205Y363056D01*
X237277Y363114D01*
X237522Y363335D01*
X239070Y364852D01*
X240866Y363056D01*
D02*
G37*
G36*
X266237Y360784D02*
X265747Y360704D01*
X264834Y360481D01*
X264412Y360340D01*
X264013Y360178D01*
X263637Y359996D01*
X263284Y359794D01*
X262954Y359572D01*
X262647Y359329D01*
X262362Y359066D01*
X260566Y360862D01*
X260829Y361147D01*
X261071Y361454D01*
X261294Y361784D01*
X261496Y362137D01*
X261678Y362514D01*
X261840Y362913D01*
X261981Y363335D01*
X262102Y363779D01*
X262203Y364247D01*
X262284Y364738D01*
X266237Y360784D01*
D02*
G37*
G36*
X244401Y359520D02*
X242584Y357617D01*
X240702Y359499D01*
X240741Y359521D01*
X240813Y359579D01*
X241058Y359800D01*
X242605Y361316D01*
X244401Y359520D01*
D02*
G37*
G36*
X207990Y359499D02*
X206108Y357617D01*
X206085Y357662D01*
X206028Y357739D01*
X205935Y357849D01*
X205217Y358613D01*
X204312Y359528D01*
X206080Y361295D01*
X207990Y359499D01*
D02*
G37*
G36*
X247937Y355985D02*
X246120Y354082D01*
X244238Y355964D01*
X244276Y355985D01*
X244348Y356043D01*
X244594Y356264D01*
X246141Y357781D01*
X247937Y355985D01*
D02*
G37*
G36*
X204455Y355964D02*
X202573Y354082D01*
X202553Y354113D01*
X202498Y354178D01*
X201925Y354778D01*
X200791Y355921D01*
X202474Y357774D01*
X204455Y355964D01*
D02*
G37*
G36*
X248420Y352361D02*
X248582Y352302D01*
X248783Y352249D01*
X249022Y352203D01*
X249615Y352133D01*
X250361Y352091D01*
X251260Y352077D01*
X251260Y349537D01*
X250579Y349525D01*
X249415Y349425D01*
X248933Y349338D01*
X248517Y349225D01*
X248167Y349088D01*
X247883Y348926D01*
X247665Y348738D01*
X247514Y348526D01*
X247428Y348289D01*
X248295Y352428D01*
X248420Y352361D01*
D02*
G37*
G36*
X201264Y348289D02*
X201179Y348526D01*
X201027Y348738D01*
X200810Y348926D01*
X200526Y349088D01*
X200176Y349225D01*
X199760Y349338D01*
X199277Y349425D01*
X198729Y349487D01*
X198114Y349525D01*
X197433Y349537D01*
X197433Y352077D01*
X197902Y352081D01*
X199671Y352203D01*
X199910Y352249D01*
X200110Y352302D01*
X200273Y352361D01*
X200397Y352428D01*
X201264Y348289D01*
D02*
G37*
G36*
X193033Y345442D02*
X193844Y344828D01*
X194240Y344579D01*
X194630Y344367D01*
X195014Y344195D01*
X195392Y344060D01*
X195763Y343964D01*
X196128Y343907D01*
X196488Y343887D01*
X196001Y341348D01*
X195581Y341337D01*
X195166Y341303D01*
X194758Y341248D01*
X194357Y341171D01*
X193961Y341071D01*
X193571Y340950D01*
X193187Y340806D01*
X192810Y340640D01*
X192438Y340452D01*
X192073Y340242D01*
X192618Y345807D01*
X193033Y345442D01*
D02*
G37*
G36*
X199299Y342253D02*
X199647Y341959D01*
X199974Y341723D01*
X200278Y341544D01*
X200560Y341423D01*
X200821Y341360D01*
X201060Y341355D01*
X201277Y341408D01*
X201472Y341518D01*
X201645Y341686D01*
X199038Y338525D01*
X199002Y338633D01*
X198935Y338765D01*
X198834Y338922D01*
X198701Y339105D01*
X198337Y339545D01*
X197547Y340392D01*
X197218Y340725D01*
X198930Y342605D01*
X199299Y342253D01*
D02*
G37*
G36*
X247514Y341068D02*
X247665Y340855D01*
X247883Y340668D01*
X248167Y340506D01*
X248517Y340369D01*
X248933Y340256D01*
X249415Y340169D01*
X249964Y340106D01*
X250579Y340069D01*
X251260Y340056D01*
X251260Y337516D01*
X250791Y337513D01*
X249022Y337390D01*
X248783Y337345D01*
X248582Y337292D01*
X248420Y337232D01*
X248295Y337166D01*
X247428Y341305D01*
X247514Y341068D01*
D02*
G37*
G36*
X183797Y339747D02*
X184019Y338834D01*
X184160Y338412D01*
X184322Y338013D01*
X184504Y337637D01*
X184706Y337284D01*
X184928Y336954D01*
X185171Y336646D01*
X185434Y336362D01*
X183638Y334566D01*
X183354Y334829D01*
X183046Y335071D01*
X182716Y335294D01*
X182363Y335496D01*
X181987Y335678D01*
X181588Y335840D01*
X181166Y335981D01*
X180721Y336102D01*
X180253Y336203D01*
X179763Y336284D01*
X183716Y340237D01*
X183797Y339747D01*
D02*
G37*
G36*
X246198Y335470D02*
X246302Y335380D01*
X247484Y334243D01*
X248263Y333467D01*
X246346Y331793D01*
X246006Y332130D01*
X244430Y333536D01*
X244320Y333600D01*
X244238Y333631D01*
X246120Y335513D01*
X246137Y335514D01*
X246198Y335470D01*
D02*
G37*
G36*
X207990Y330095D02*
X207910Y330065D01*
X207802Y330004D01*
X207668Y329910D01*
X207507Y329784D01*
X206863Y329213D01*
X205978Y328352D01*
X204182Y330148D01*
X206108Y331977D01*
X207990Y330095D01*
D02*
G37*
G36*
X242606Y331939D02*
X242664Y331866D01*
X242885Y331621D01*
X244401Y330074D01*
X242605Y328278D01*
X240702Y330095D01*
X242584Y331977D01*
X242606Y331939D01*
D02*
G37*
G36*
X255394Y326955D02*
X254990Y327244D01*
X254188Y327733D01*
X253789Y327931D01*
X253393Y328099D01*
X252998Y328236D01*
X252605Y328343D01*
X252215Y328419D01*
X251826Y328465D01*
X251439Y328480D01*
Y331020D01*
X251826Y331035D01*
X252215Y331081D01*
X252605Y331157D01*
X252998Y331264D01*
X253393Y331401D01*
X253789Y331569D01*
X254188Y331767D01*
X254588Y331996D01*
X254990Y332256D01*
X255394Y332545D01*
Y326955D01*
D02*
G37*
G36*
X182010Y331755D02*
X182812Y331267D01*
X183211Y331069D01*
X183607Y330901D01*
X184002Y330764D01*
X184394Y330657D01*
X184785Y330581D01*
X185174Y330535D01*
X185561Y330520D01*
Y327980D01*
X185174Y327965D01*
X184785Y327919D01*
X184394Y327843D01*
X184002Y327736D01*
X183607Y327599D01*
X183211Y327431D01*
X182812Y327233D01*
X182412Y327004D01*
X182010Y326744D01*
X181606Y326455D01*
Y332045D01*
X182010Y331755D01*
D02*
G37*
G36*
X239070Y328403D02*
X239128Y328331D01*
X239349Y328085D01*
X240866Y326538D01*
X239070Y324742D01*
X237167Y326559D01*
X239048Y328441D01*
X239070Y328403D01*
D02*
G37*
G36*
X211526Y326559D02*
X211488Y326537D01*
X211416Y326480D01*
X211170Y326258D01*
X209623Y324742D01*
X207827Y326538D01*
X209644Y328441D01*
X211526Y326559D01*
D02*
G37*
G36*
X215062Y323024D02*
X215023Y323002D01*
X214951Y322944D01*
X214706Y322723D01*
X213158Y321206D01*
X211362Y323002D01*
X213180Y324905D01*
X215062Y323024D01*
D02*
G37*
G36*
X235543Y324824D02*
X235608Y324713D01*
X235706Y324574D01*
X235839Y324407D01*
X236441Y323731D01*
X237351Y322798D01*
X235676Y320881D01*
X233631Y323024D01*
X235513Y324905D01*
X235543Y324824D01*
D02*
G37*
G36*
X230357Y319436D02*
X230093Y319472D01*
X229827Y319474D01*
X229560Y319443D01*
X229290Y319378D01*
X229019Y319280D01*
X228745Y319148D01*
X228470Y318983D01*
X228329Y318882D01*
X228294Y318832D01*
X228110Y318502D01*
X227950Y318137D01*
X227814Y317739D01*
X227703Y317307D01*
X227616Y316840D01*
X227553Y316340D01*
X227514Y315805D01*
X227500Y315236D01*
X223045Y318617D01*
X223412Y318732D01*
X223773Y318868D01*
X224129Y319025D01*
X224478Y319202D01*
X224822Y319400D01*
X225491Y319857D01*
X225817Y320117D01*
X226196Y320464D01*
X226464Y320783D01*
X226695Y321103D01*
X226870Y321404D01*
X226990Y321686D01*
X227054Y321948D01*
X227063Y322190D01*
X227016Y322412D01*
X226914Y322615D01*
X226756Y322798D01*
X230357Y319436D01*
D02*
G37*
G36*
X218597Y319488D02*
X218559Y319466D01*
X218487Y319409D01*
X218241Y319187D01*
X216694Y317671D01*
X214898Y319467D01*
X216716Y321370D01*
X218597Y319488D01*
D02*
G37*
G36*
X184061Y309710D02*
X184035Y309951D01*
X183958Y310167D01*
X183830Y310357D01*
X183650Y310523D01*
X183418Y310662D01*
X183136Y310777D01*
X182801Y310865D01*
X182416Y310929D01*
X181979Y310967D01*
X181490Y310980D01*
Y313520D01*
X181979Y313533D01*
X182416Y313571D01*
X182801Y313634D01*
X183136Y313723D01*
X183418Y313837D01*
X183650Y313977D01*
X183830Y314142D01*
X183958Y314333D01*
X184035Y314548D01*
X184061Y314790D01*
Y309710D01*
D02*
G37*
G36*
X175965Y314548D02*
X176042Y314333D01*
X176170Y314142D01*
X176350Y313977D01*
X176581Y313837D01*
X176864Y313723D01*
X177198Y313634D01*
X177584Y313571D01*
X178021Y313533D01*
X178509Y313520D01*
Y310980D01*
X178021Y310967D01*
X177584Y310929D01*
X177198Y310865D01*
X176864Y310777D01*
X176581Y310662D01*
X176350Y310523D01*
X176170Y310357D01*
X176042Y310167D01*
X175965Y309951D01*
X175939Y309710D01*
Y314790D01*
X175965Y314548D01*
D02*
G37*
G36*
X240015Y306220D02*
X239513Y305699D01*
X238722Y304765D01*
X238435Y304352D01*
X238377Y304249D01*
X238448Y304142D01*
X238626Y303977D01*
X238854Y303838D01*
X239134Y303723D01*
X239464Y303634D01*
X239845Y303571D01*
X240277Y303533D01*
X240759Y303520D01*
Y300980D01*
X240277Y300967D01*
X239845Y300929D01*
X239464Y300866D01*
X239134Y300777D01*
X238854Y300662D01*
X238626Y300523D01*
X238448Y300358D01*
X238321Y300167D01*
X238245Y299951D01*
X238219Y299710D01*
Y303974D01*
X238076Y303633D01*
X238004Y303328D01*
Y303058D01*
X238076Y302825D01*
X238219Y302627D01*
X234627Y306220D01*
X234825Y306076D01*
X235058Y306004D01*
X235328D01*
X235633Y306076D01*
X235974Y306220D01*
X236352Y306435D01*
X236765Y306722D01*
X237214Y307082D01*
X238219Y308016D01*
X240015Y306220D01*
D02*
G37*
G36*
X228311Y299710D02*
X228285Y299951D01*
X228208Y300167D01*
X228079Y300358D01*
X227900Y300523D01*
X227668Y300662D01*
X227386Y300777D01*
X227051Y300866D01*
X226666Y300929D01*
X226229Y300967D01*
X225740Y300980D01*
Y303520D01*
X226229Y303533D01*
X226666Y303571D01*
X227051Y303634D01*
X227386Y303723D01*
X227668Y303838D01*
X227900Y303977D01*
X228079Y304142D01*
X228208Y304333D01*
X228285Y304549D01*
X228311Y304790D01*
Y299710D01*
D02*
G37*
G36*
X220215Y304549D02*
X220292Y304333D01*
X220420Y304142D01*
X220600Y303977D01*
X220832Y303838D01*
X221114Y303723D01*
X221448Y303634D01*
X221834Y303571D01*
X222271Y303533D01*
X222759Y303520D01*
Y300980D01*
X222271Y300967D01*
X221834Y300929D01*
X221448Y300866D01*
X221114Y300777D01*
X220832Y300662D01*
X220600Y300523D01*
X220420Y300358D01*
X220292Y300167D01*
X220215Y299951D01*
X220189Y299710D01*
Y304790D01*
X220215Y304549D01*
D02*
G37*
G36*
X152965Y297487D02*
X153042Y297271D01*
X153170Y297081D01*
X153350Y296915D01*
X153582Y296776D01*
X153864Y296661D01*
X154199Y296573D01*
X154584Y296509D01*
X155021Y296471D01*
X155510Y296458D01*
Y293918D01*
X155021Y293906D01*
X154584Y293867D01*
X154199Y293804D01*
X153864Y293715D01*
X153582Y293601D01*
X153350Y293461D01*
X153170Y293296D01*
X153042Y293106D01*
X152965Y292890D01*
X152939Y292648D01*
Y297728D01*
X152965Y297487D01*
D02*
G37*
G36*
X140061Y291460D02*
X140035Y291701D01*
X139958Y291917D01*
X139830Y292108D01*
X139650Y292273D01*
X139418Y292412D01*
X139136Y292527D01*
X138801Y292616D01*
X138416Y292679D01*
X137979Y292717D01*
X137491Y292730D01*
Y295270D01*
X137979Y295283D01*
X138416Y295321D01*
X138801Y295384D01*
X139136Y295473D01*
X139418Y295587D01*
X139650Y295727D01*
X139830Y295892D01*
X139958Y296083D01*
X140035Y296299D01*
X140061Y296540D01*
Y291460D01*
D02*
G37*
G36*
X126363Y338925D02*
X126434Y338741D01*
X126554Y338578D01*
X126720Y338438D01*
X126935Y338318D01*
X127197Y338221D01*
X127507Y338145D01*
X127864Y338091D01*
X128269Y338059D01*
X128722Y338048D01*
Y335508D01*
X128269Y335497D01*
X127864Y335465D01*
X127507Y335410D01*
X127197Y335335D01*
X126935Y335237D01*
X126720Y335118D01*
X126554Y334977D01*
X126434Y334815D01*
X126363Y334631D01*
X126339Y334425D01*
Y339130D01*
X126363Y338925D01*
D02*
G37*
G36*
X124124Y329842D02*
X124029Y329786D01*
X123945Y329693D01*
X123872Y329563D01*
X123810Y329396D01*
X123760Y329191D01*
X123721Y328949D01*
X123693Y328670D01*
X123670Y328000D01*
X121130D01*
X121124Y328354D01*
X121080Y328949D01*
X121040Y329191D01*
X120990Y329396D01*
X120928Y329563D01*
X120856Y329693D01*
X120771Y329786D01*
X120676Y329842D01*
X120570Y329861D01*
X124230D01*
X124124Y329842D01*
D02*
G37*
G36*
X123683Y325827D02*
X123721Y325395D01*
X123784Y325014D01*
X123873Y324684D01*
X123988Y324404D01*
X124127Y324176D01*
X124292Y323998D01*
X124483Y323871D01*
X124699Y323795D01*
X124940Y323769D01*
X119860D01*
X120101Y323795D01*
X120317Y323871D01*
X120508Y323998D01*
X120673Y324176D01*
X120813Y324404D01*
X120927Y324684D01*
X121016Y325014D01*
X121079Y325395D01*
X121117Y325827D01*
X121130Y326310D01*
X123670D01*
X123683Y325827D01*
D02*
G37*
G36*
X56799Y281285D02*
X56583Y281208D01*
X56392Y281080D01*
X56227Y280900D01*
X56087Y280668D01*
X55973Y280386D01*
X55884Y280051D01*
X55821Y279666D01*
X55783Y279229D01*
X55770Y278741D01*
X53230D01*
X53217Y279229D01*
X53179Y279666D01*
X53116Y280051D01*
X53027Y280386D01*
X52913Y280668D01*
X52773Y280900D01*
X52608Y281080D01*
X52417Y281208D01*
X52201Y281285D01*
X51960Y281311D01*
X57040D01*
X56799Y281285D01*
D02*
G37*
G36*
X55783Y277021D02*
X55821Y276584D01*
X55884Y276199D01*
X55973Y275864D01*
X56087Y275582D01*
X56227Y275350D01*
X56392Y275170D01*
X56583Y275042D01*
X56799Y274965D01*
X57040Y274939D01*
X51960D01*
X52201Y274965D01*
X52417Y275042D01*
X52608Y275170D01*
X52773Y275350D01*
X52913Y275582D01*
X53027Y275864D01*
X53116Y276199D01*
X53179Y276584D01*
X53217Y277021D01*
X53230Y277509D01*
X55770D01*
X55783Y277021D01*
D02*
G37*
G36*
X304269Y269531D02*
X304300Y265531D01*
X300300D01*
X300280Y266294D01*
X300220Y266978D01*
X300120Y267582D01*
X299980Y268105D01*
X299800Y268548D01*
X299580Y268911D01*
X299320Y269194D01*
X299020Y269396D01*
X298680Y269519D01*
X298300Y269561D01*
X304269Y269531D01*
D02*
G37*
G36*
X321599Y266535D02*
X321383Y266458D01*
X321192Y266330D01*
X321027Y266150D01*
X320887Y265918D01*
X320773Y265636D01*
X320684Y265301D01*
X320621Y264916D01*
X320583Y264479D01*
X320570Y263991D01*
X318030D01*
X318017Y264479D01*
X317979Y264916D01*
X317915Y265301D01*
X317827Y265636D01*
X317712Y265918D01*
X317573Y266150D01*
X317407Y266330D01*
X317217Y266458D01*
X317001Y266535D01*
X316760Y266561D01*
X321840D01*
X321599Y266535D01*
D02*
G37*
G36*
X72799Y266035D02*
X72583Y265958D01*
X72392Y265830D01*
X72227Y265650D01*
X72087Y265418D01*
X71973Y265136D01*
X71884Y264801D01*
X71821Y264416D01*
X71783Y263979D01*
X71770Y263491D01*
X69230D01*
X69217Y263979D01*
X69179Y264416D01*
X69116Y264801D01*
X69027Y265136D01*
X68913Y265418D01*
X68773Y265650D01*
X68608Y265830D01*
X68417Y265958D01*
X68201Y266035D01*
X67960Y266061D01*
X73040D01*
X72799Y266035D01*
D02*
G37*
G36*
X136283Y263777D02*
X136321Y263345D01*
X136384Y262964D01*
X136473Y262634D01*
X136587Y262354D01*
X136727Y262126D01*
X136892Y261948D01*
X137083Y261821D01*
X137299Y261745D01*
X137540Y261719D01*
X132460D01*
X132701Y261745D01*
X132917Y261821D01*
X133108Y261948D01*
X133273Y262126D01*
X133413Y262354D01*
X133527Y262634D01*
X133616Y262964D01*
X133679Y263345D01*
X133717Y263777D01*
X133730Y264259D01*
X136270D01*
X136283Y263777D01*
D02*
G37*
G36*
X281260Y264506D02*
X282062Y264017D01*
X282461Y263819D01*
X282857Y263651D01*
X283252Y263514D01*
X283645Y263407D01*
X284035Y263331D01*
X284424Y263285D01*
X284811Y263270D01*
Y260730D01*
X284424Y260715D01*
X284035Y260669D01*
X283645Y260593D01*
X283252Y260486D01*
X282857Y260349D01*
X282461Y260181D01*
X282062Y259983D01*
X281662Y259754D01*
X281260Y259494D01*
X280856Y259205D01*
Y264795D01*
X281260Y264506D01*
D02*
G37*
G36*
X96495Y259299D02*
X96571Y259083D01*
X96698Y258892D01*
X96876Y258727D01*
X97105Y258588D01*
X97384Y258473D01*
X97714Y258384D01*
X98095Y258321D01*
X98527Y258283D01*
X99010Y258270D01*
Y255730D01*
X98527Y255718D01*
X98095Y255679D01*
X97714Y255616D01*
X97384Y255527D01*
X97105Y255413D01*
X96876Y255273D01*
X96698Y255108D01*
X96571Y254917D01*
X96495Y254701D01*
X96469Y254460D01*
Y259540D01*
X96495Y259299D01*
D02*
G37*
G36*
X86561Y254460D02*
X86535Y254701D01*
X86458Y254917D01*
X86330Y255108D01*
X86150Y255273D01*
X85918Y255413D01*
X85635Y255527D01*
X85301Y255616D01*
X84916Y255679D01*
X84479Y255717D01*
X83990Y255730D01*
Y258270D01*
X84479Y258283D01*
X84916Y258321D01*
X85301Y258384D01*
X85635Y258473D01*
X85918Y258587D01*
X86150Y258727D01*
X86330Y258892D01*
X86458Y259083D01*
X86535Y259299D01*
X86561Y259540D01*
Y254460D01*
D02*
G37*
G36*
X138715Y259049D02*
X138792Y258833D01*
X138920Y258642D01*
X139100Y258477D01*
X139332Y258337D01*
X139614Y258223D01*
X139949Y258134D01*
X140334Y258071D01*
X140771Y258032D01*
X141260Y258020D01*
Y255480D01*
X140771Y255467D01*
X140334Y255429D01*
X139949Y255366D01*
X139614Y255277D01*
X139332Y255162D01*
X139100Y255023D01*
X138920Y254858D01*
X138792Y254667D01*
X138715Y254451D01*
X138689Y254210D01*
Y259290D01*
X138715Y259049D01*
D02*
G37*
G36*
X196045Y253045D02*
X193455D01*
X193460Y253072D01*
X193464Y253150D01*
X193480Y255595D01*
X196020D01*
X196045Y253045D01*
D02*
G37*
G36*
X191045D02*
X188456D01*
X188460Y253072D01*
X188465Y253150D01*
X188480Y255595D01*
X191020D01*
X191045Y253045D01*
D02*
G37*
G36*
X93799Y253036D02*
X93583Y252958D01*
X93392Y252830D01*
X93227Y252650D01*
X93087Y252419D01*
X92973Y252136D01*
X92884Y251802D01*
X92821Y251416D01*
X92783Y250979D01*
X92770Y250491D01*
X90230D01*
X90217Y250979D01*
X90179Y251416D01*
X90116Y251802D01*
X90027Y252136D01*
X89912Y252419D01*
X89773Y252650D01*
X89608Y252830D01*
X89417Y252958D01*
X89201Y253036D01*
X88960Y253061D01*
X94040D01*
X93799Y253036D01*
D02*
G37*
G36*
X100053Y237323D02*
X100091Y236888D01*
X100154Y236503D01*
X100243Y236170D01*
X100358Y235887D01*
X100497Y235655D01*
X100662Y235475D01*
X100853Y235345D01*
X101069Y235267D01*
X101310Y235239D01*
X97531Y235270D01*
X97525Y235295D01*
X97520Y235371D01*
X97503Y236514D01*
X97500Y237810D01*
X100040D01*
X100053Y237323D01*
D02*
G37*
G36*
X162783Y231998D02*
X162821Y231561D01*
X162884Y231175D01*
X162973Y230841D01*
X163088Y230558D01*
X163227Y230327D01*
X163392Y230147D01*
X163583Y230018D01*
X163799Y229941D01*
X164040Y229916D01*
X158960D01*
X159201Y229941D01*
X159417Y230018D01*
X159608Y230147D01*
X159773Y230327D01*
X159913Y230558D01*
X160027Y230841D01*
X160116Y231175D01*
X160179Y231561D01*
X160217Y231998D01*
X160230Y232486D01*
X162770D01*
X162783Y231998D01*
D02*
G37*
G36*
X155256Y222255D02*
X155228Y222260D01*
X155150Y222264D01*
X152705Y222280D01*
Y224820D01*
X155256Y224844D01*
Y222255D01*
D02*
G37*
G36*
X324276Y224830D02*
X324357Y224818D01*
X324489Y224806D01*
X325517Y224777D01*
X326815Y224770D01*
X326723Y222230D01*
X324245Y222255D01*
Y224844D01*
X324276Y224830D01*
D02*
G37*
G36*
X130636Y265020D02*
X130057Y263750D01*
X128750D01*
Y249750D01*
X140750D01*
Y253416D01*
X173370D01*
X174393Y252393D01*
X174393Y252392D01*
X176286Y250499D01*
Y245480D01*
X176304Y245390D01*
Y237900D01*
X176487Y236983D01*
X177006Y236206D01*
X177783Y235687D01*
X178700Y235504D01*
X180800D01*
X181717Y235687D01*
X181764Y235718D01*
X182572Y235178D01*
X183480Y234997D01*
Y245350D01*
X186020D01*
Y234997D01*
X186928Y235178D01*
X187736Y235718D01*
X187783Y235687D01*
X188700Y235504D01*
X190800D01*
X191717Y235687D01*
X192250Y236043D01*
X192783Y235687D01*
X193700Y235504D01*
X195800D01*
X196717Y235687D01*
X197250Y236043D01*
X197783Y235687D01*
X198700Y235504D01*
X200800D01*
X201717Y235687D01*
X202250Y236043D01*
X202783Y235687D01*
X203700Y235504D01*
X205800D01*
X206717Y235687D01*
X207250Y236043D01*
X207783Y235687D01*
X208700Y235504D01*
X210800D01*
X211717Y235687D01*
X212250Y236043D01*
X212783Y235687D01*
X213700Y235504D01*
X215800D01*
X216717Y235687D01*
X217250Y236043D01*
X217783Y235687D01*
X218700Y235504D01*
X220800D01*
X221717Y235687D01*
X222250Y236043D01*
X222783Y235687D01*
X223700Y235504D01*
X225800D01*
X226717Y235687D01*
X227250Y236043D01*
X227783Y235687D01*
X228700Y235504D01*
X230800D01*
X231717Y235687D01*
X232250Y236043D01*
X232783Y235687D01*
X233700Y235504D01*
X235800D01*
X236717Y235687D01*
X237250Y236043D01*
X237783Y235687D01*
X238700Y235504D01*
X240800D01*
X241717Y235687D01*
X242250Y236043D01*
X242783Y235687D01*
X243700Y235504D01*
X245800D01*
X246717Y235687D01*
X247250Y236043D01*
X247783Y235687D01*
X248700Y235504D01*
X250800D01*
X251717Y235687D01*
X252250Y236043D01*
X252783Y235687D01*
X253700Y235504D01*
X255800D01*
X256717Y235687D01*
X257250Y236043D01*
X257783Y235687D01*
X258700Y235504D01*
X260800D01*
X261717Y235687D01*
X262250Y236043D01*
X262783Y235687D01*
X263700Y235504D01*
X265800D01*
X266717Y235687D01*
X267250Y236043D01*
X267783Y235687D01*
X268700Y235504D01*
X270800D01*
X271717Y235687D01*
X272250Y236043D01*
X272783Y235687D01*
X273700Y235504D01*
X275800D01*
X276717Y235687D01*
X277250Y236043D01*
X277783Y235687D01*
X278700Y235504D01*
X280800D01*
X281717Y235687D01*
X282250Y236043D01*
X282783Y235687D01*
X283700Y235504D01*
X285800D01*
X286717Y235687D01*
X287250Y236043D01*
X287783Y235687D01*
X288700Y235504D01*
X290800D01*
X291717Y235687D01*
X292250Y236043D01*
X292783Y235687D01*
X293700Y235504D01*
X295800D01*
X296717Y235687D01*
X297250Y236043D01*
X297783Y235687D01*
X298700Y235504D01*
X300800D01*
X301717Y235687D01*
X302494Y236206D01*
X303014Y236983D01*
X303196Y237900D01*
Y252800D01*
X303084Y253363D01*
Y255852D01*
X304354Y256378D01*
X312472Y248261D01*
Y231996D01*
X309100D01*
X308183Y231814D01*
X307406Y231294D01*
X306886Y230517D01*
X306704Y229600D01*
Y227500D01*
X306886Y226583D01*
X307243Y226050D01*
X306886Y225517D01*
X306704Y224600D01*
Y222500D01*
X306199Y221884D01*
X302382D01*
X302181Y222896D01*
X300965Y224715D01*
X299146Y225931D01*
X297000Y226358D01*
X294854Y225931D01*
X293035Y224715D01*
X291819Y222896D01*
X291392Y220750D01*
X291819Y218604D01*
X293035Y216785D01*
X294854Y215569D01*
X297000Y215142D01*
X299020Y215544D01*
X299131Y215470D01*
X300407Y215216D01*
X306198D01*
X306704Y214600D01*
Y212500D01*
X306886Y211583D01*
X307243Y211050D01*
X306886Y210517D01*
X306704Y209600D01*
Y207500D01*
X306886Y206583D01*
X307243Y206050D01*
X306886Y205517D01*
X306704Y204600D01*
Y202500D01*
X306886Y201583D01*
X307243Y201050D01*
X306886Y200517D01*
X306704Y199600D01*
Y197500D01*
X306886Y196583D01*
X307243Y196050D01*
X306886Y195517D01*
X306704Y194600D01*
Y192500D01*
X306886Y191583D01*
X307243Y191050D01*
X306886Y190517D01*
X306704Y189600D01*
Y187500D01*
X306886Y186583D01*
X307243Y186050D01*
X306886Y185517D01*
X306704Y184600D01*
Y182500D01*
X306886Y181583D01*
X307243Y181050D01*
X306886Y180517D01*
X306704Y179600D01*
Y177500D01*
X306886Y176583D01*
X307243Y176050D01*
X306886Y175517D01*
X306704Y174600D01*
Y172500D01*
X306886Y171583D01*
X307243Y171050D01*
X306886Y170517D01*
X306704Y169600D01*
Y167500D01*
X306886Y166583D01*
X307243Y166050D01*
X306886Y165517D01*
X306704Y164600D01*
Y162500D01*
X306886Y161583D01*
X307243Y161050D01*
X306886Y160517D01*
X306704Y159600D01*
Y157500D01*
X306886Y156583D01*
X307243Y156050D01*
X306886Y155517D01*
X306704Y154600D01*
Y152500D01*
X306886Y151583D01*
X307243Y151050D01*
X306886Y150517D01*
X306704Y149600D01*
Y147500D01*
X306886Y146583D01*
X307243Y146050D01*
X306886Y145517D01*
X306704Y144600D01*
Y142500D01*
X306886Y141583D01*
X307243Y141050D01*
X306886Y140517D01*
X306704Y139600D01*
Y137500D01*
X306886Y136583D01*
X307243Y136050D01*
X306886Y135517D01*
X306704Y134600D01*
Y132500D01*
X306886Y131583D01*
X307243Y131050D01*
X306886Y130517D01*
X306704Y129600D01*
Y127500D01*
X306199Y126884D01*
X304050D01*
X303446Y126764D01*
X302775Y126630D01*
X302774Y126630D01*
X302774Y126630D01*
X302272Y126295D01*
X301693Y125908D01*
X298142Y122358D01*
X298142Y122358D01*
X298142Y122358D01*
X297882Y121968D01*
X297420Y121276D01*
X297419Y121276D01*
X296076Y120894D01*
X295646Y121181D01*
X293500Y121608D01*
X291354Y121181D01*
X289535Y119965D01*
X288319Y118146D01*
X287995Y116516D01*
X286691Y116024D01*
X285084Y117631D01*
Y120613D01*
X285715Y121035D01*
X286931Y122854D01*
X287358Y125000D01*
X286931Y127146D01*
X285715Y128965D01*
X283896Y130181D01*
X281750Y130608D01*
X279604Y130181D01*
X277785Y128965D01*
X276569Y127146D01*
X276142Y125000D01*
X276477Y123319D01*
X275377Y122527D01*
X275146Y122681D01*
X273000Y123108D01*
X270854Y122681D01*
X269035Y121465D01*
X267819Y119646D01*
X267392Y117500D01*
X267819Y115354D01*
X269035Y113535D01*
X270854Y112319D01*
X273000Y111892D01*
X273745Y112040D01*
X282519Y103266D01*
X282321Y101780D01*
X281805Y101467D01*
X281656Y101426D01*
X280800Y101596D01*
X278700D01*
X277783Y101413D01*
X277736Y101382D01*
X276927Y101922D01*
X276020Y102103D01*
Y91750D01*
X273480D01*
Y102103D01*
X272572Y101922D01*
X271764Y101382D01*
X271717Y101413D01*
X270800Y101596D01*
X268700D01*
X267783Y101413D01*
X267250Y101057D01*
X266717Y101413D01*
X265800Y101596D01*
X263700D01*
X262783Y101413D01*
X262250Y101057D01*
X261717Y101413D01*
X260800Y101596D01*
X258700D01*
X258084Y102102D01*
Y116662D01*
X260429Y119007D01*
X262183Y119356D01*
X264002Y120572D01*
X265218Y122391D01*
X265645Y124537D01*
X265218Y126683D01*
X264002Y128502D01*
X262183Y129718D01*
X260037Y130145D01*
X257891Y129718D01*
X256072Y128502D01*
X254856Y126683D01*
X254429Y124537D01*
X254778Y122786D01*
X252392Y120400D01*
X251670Y119319D01*
X251416Y118043D01*
Y111536D01*
X250241Y111180D01*
X250146Y111199D01*
X248965Y112965D01*
X247146Y114181D01*
X245000Y114608D01*
X242854Y114181D01*
X241035Y112965D01*
X239819Y111146D01*
X239392Y109000D01*
X239819Y106854D01*
X241035Y105035D01*
X241541Y104697D01*
Y102204D01*
X240800Y101596D01*
X238700D01*
X237783Y101413D01*
X237250Y101057D01*
X236717Y101413D01*
X235800Y101596D01*
X233700D01*
X233209Y101999D01*
Y109780D01*
X233965Y110285D01*
X235181Y112104D01*
X235608Y114250D01*
X235181Y116396D01*
X233965Y118215D01*
X232146Y119431D01*
X230000Y119858D01*
X227854Y119431D01*
X226035Y118215D01*
X224819Y116396D01*
X224392Y114250D01*
X224819Y112104D01*
X226035Y110285D01*
X226541Y109946D01*
Y102755D01*
X226020Y102327D01*
Y91750D01*
X223480D01*
Y102103D01*
X222572Y101922D01*
X221764Y101382D01*
X221717Y101413D01*
X220800Y101596D01*
X218700D01*
X217783Y101413D01*
X217250Y101057D01*
X216717Y101413D01*
X215800Y101596D01*
X213700D01*
X212783Y101413D01*
X212250Y101057D01*
X211717Y101413D01*
X210800Y101596D01*
X208700D01*
X208084Y102102D01*
Y105363D01*
X208715Y105785D01*
X209931Y107604D01*
X210358Y109750D01*
X209931Y111896D01*
X208715Y113715D01*
X206896Y114931D01*
X204750Y115358D01*
X202604Y114931D01*
X200785Y113715D01*
X199569Y111896D01*
X199142Y109750D01*
X199569Y107604D01*
X200785Y105785D01*
X201416Y105363D01*
Y102101D01*
X200800Y101596D01*
X198700D01*
X197783Y101413D01*
X197250Y101057D01*
X196717Y101413D01*
X195800Y101596D01*
X193700D01*
X192783Y101413D01*
X192250Y101057D01*
X191717Y101413D01*
X190800Y101596D01*
X188700D01*
X187783Y101413D01*
X187250Y101057D01*
X186717Y101413D01*
X185800Y101596D01*
X183700D01*
X182783Y101413D01*
X182250Y101057D01*
X181717Y101413D01*
X180800Y101596D01*
X178700D01*
X177783Y101413D01*
X177006Y100894D01*
X176487Y100117D01*
X176304Y99200D01*
Y95084D01*
X104500D01*
Y101000D01*
X93834D01*
Y139369D01*
X108631Y154166D01*
X110750D01*
Y151000D01*
X129750D01*
Y164000D01*
X129750D01*
Y165000D01*
X129750D01*
Y172233D01*
X131939Y174422D01*
X132954D01*
X134604Y173319D01*
X136750Y172892D01*
X138896Y173319D01*
X140715Y174535D01*
X141931Y176354D01*
X142358Y178500D01*
X141931Y180646D01*
X140715Y182465D01*
X138896Y183681D01*
X136750Y184108D01*
X134604Y183681D01*
X133263Y182785D01*
X132468Y182957D01*
X132016Y184301D01*
X133881Y186166D01*
X137250D01*
X138526Y186420D01*
X139607Y187143D01*
X140003Y187538D01*
X141203Y186942D01*
X141569Y185104D01*
X142785Y183285D01*
X144604Y182069D01*
X146750Y181642D01*
X148896Y182069D01*
X150715Y183285D01*
X151931Y185104D01*
X153146Y184811D01*
X153104Y184600D01*
Y182500D01*
X153287Y181583D01*
X153643Y181050D01*
X153287Y180517D01*
X153104Y179600D01*
Y177500D01*
X153287Y176583D01*
X153643Y176050D01*
X153287Y175517D01*
X153104Y174600D01*
Y172500D01*
X153287Y171583D01*
X153643Y171050D01*
X153287Y170517D01*
X153104Y169600D01*
Y167500D01*
X153287Y166583D01*
X153643Y166050D01*
X153287Y165517D01*
X153104Y164600D01*
Y162500D01*
X153287Y161583D01*
X153643Y161050D01*
X153287Y160517D01*
X153104Y159600D01*
Y157500D01*
X153287Y156583D01*
X153643Y156050D01*
X153287Y155517D01*
X153104Y154600D01*
Y152500D01*
X153287Y151583D01*
X153643Y151050D01*
X153287Y150517D01*
X153104Y149600D01*
Y147500D01*
X153287Y146583D01*
X153643Y146050D01*
X153287Y145517D01*
X153104Y144600D01*
Y142500D01*
X152598Y141884D01*
X145800D01*
X144524Y141630D01*
X143442Y140907D01*
X138619Y136084D01*
X135600D01*
Y140050D01*
X123600D01*
Y126050D01*
X135600D01*
Y129416D01*
X140000D01*
X141276Y129670D01*
X142358Y130393D01*
X147181Y135216D01*
X152599D01*
X153104Y134600D01*
Y132500D01*
X153287Y131583D01*
X153643Y131050D01*
X153287Y130517D01*
X153104Y129600D01*
Y127500D01*
X153287Y126583D01*
X153643Y126050D01*
X153287Y125517D01*
X153104Y124600D01*
Y122500D01*
X153287Y121583D01*
X153643Y121050D01*
X153287Y120517D01*
X153104Y119600D01*
Y117500D01*
X153287Y116583D01*
X153318Y116536D01*
X152778Y115728D01*
X152597Y114820D01*
X162950D01*
X173303D01*
X173122Y115728D01*
X172582Y116536D01*
X172614Y116583D01*
X172796Y117500D01*
Y119600D01*
X172614Y120517D01*
X172257Y121050D01*
X172614Y121583D01*
X172796Y122500D01*
Y124600D01*
X172614Y125517D01*
X172258Y126050D01*
X172614Y126583D01*
X172796Y127500D01*
Y129600D01*
X172614Y130517D01*
X172257Y131050D01*
X172614Y131583D01*
X172796Y132500D01*
Y134600D01*
X172614Y135517D01*
X172258Y136050D01*
X172614Y136583D01*
X172796Y137500D01*
Y139600D01*
X172614Y140517D01*
X172257Y141050D01*
X172614Y141583D01*
X172796Y142500D01*
Y144600D01*
X172614Y145517D01*
X172258Y146050D01*
X172614Y146583D01*
X172796Y147500D01*
Y149600D01*
X172614Y150517D01*
X172257Y151050D01*
X172614Y151583D01*
X172796Y152500D01*
Y154600D01*
X172614Y155517D01*
X172258Y156050D01*
X172614Y156583D01*
X172796Y157500D01*
Y159600D01*
X172614Y160517D01*
X172257Y161050D01*
X172614Y161583D01*
X172796Y162500D01*
Y164600D01*
X172614Y165517D01*
X172258Y166050D01*
X172614Y166583D01*
X172796Y167500D01*
Y169600D01*
X172614Y170517D01*
X172257Y171050D01*
X172614Y171583D01*
X172796Y172500D01*
Y174600D01*
X172614Y175517D01*
X172258Y176050D01*
X172614Y176583D01*
X172796Y177500D01*
Y179600D01*
X172614Y180517D01*
X172257Y181050D01*
X172614Y181583D01*
X172796Y182500D01*
Y184600D01*
X172614Y185517D01*
X172257Y186050D01*
X172614Y186583D01*
X172796Y187500D01*
Y189600D01*
X172614Y190517D01*
X172258Y191050D01*
X172614Y191583D01*
X172796Y192500D01*
Y194600D01*
X172614Y195517D01*
X172257Y196050D01*
X172614Y196583D01*
X172796Y197500D01*
Y199600D01*
X172614Y200517D01*
X172258Y201050D01*
X172614Y201583D01*
X172796Y202500D01*
Y204600D01*
X172614Y205517D01*
X172257Y206050D01*
X172614Y206583D01*
X172796Y207500D01*
Y209600D01*
X172614Y210517D01*
X172258Y211050D01*
X172614Y211583D01*
X172796Y212500D01*
Y214600D01*
X172614Y215517D01*
X172257Y216050D01*
X172614Y216583D01*
X172796Y217500D01*
Y219600D01*
X172614Y220517D01*
X172258Y221050D01*
X172614Y221583D01*
X172796Y222500D01*
Y224600D01*
X172614Y225517D01*
X172257Y226050D01*
X172614Y226583D01*
X172796Y227500D01*
Y229600D01*
X172614Y230517D01*
X172094Y231294D01*
X171317Y231814D01*
X170400Y231996D01*
X164834D01*
Y235113D01*
X165465Y235535D01*
X166681Y237354D01*
X167108Y239500D01*
X166681Y241646D01*
X165465Y243465D01*
X163646Y244681D01*
X161500Y245108D01*
X159354Y244681D01*
X157535Y243465D01*
X156319Y241646D01*
X155892Y239500D01*
X156319Y237354D01*
X157535Y235535D01*
X158166Y235113D01*
Y231996D01*
X155500D01*
X154583Y231814D01*
X153806Y231294D01*
X153287Y230517D01*
X153104Y229600D01*
Y227500D01*
X152598Y226884D01*
X142081D01*
X140358Y228608D01*
X139276Y229330D01*
X138000Y229584D01*
X121500D01*
Y237300D01*
X102104D01*
Y239730D01*
X101850Y241006D01*
X101128Y242087D01*
X94834Y248381D01*
Y251000D01*
X98500D01*
Y253666D01*
X101250D01*
X102526Y253920D01*
X103608Y254643D01*
X105357Y256392D01*
X105358Y256392D01*
X107786Y258821D01*
X108509Y259903D01*
X108763Y261178D01*
Y264798D01*
X109661Y265696D01*
X130139D01*
X130636Y265020D01*
D02*
G37*
G36*
X125763Y216308D02*
X125351Y216635D01*
X124539Y217186D01*
X124140Y217410D01*
X123745Y217600D01*
X123355Y217755D01*
X122969Y217875D01*
X122587Y217961D01*
X122210Y218013D01*
X121900Y218027D01*
X121527Y218017D01*
X121095Y217979D01*
X120714Y217916D01*
X120384Y217827D01*
X120105Y217713D01*
X119876Y217573D01*
X119698Y217408D01*
X119571Y217217D01*
X119495Y217001D01*
X119470Y216760D01*
Y221840D01*
X119495Y221599D01*
X119571Y221383D01*
X119698Y221192D01*
X119876Y221027D01*
X120105Y220888D01*
X120384Y220773D01*
X120714Y220684D01*
X121095Y220621D01*
X121527Y220583D01*
X122010Y220570D01*
Y219897D01*
X122072Y220570D01*
X122474Y220583D01*
X122875Y220623D01*
X123275Y220689D01*
X123673Y220782D01*
X124069Y220901D01*
X124464Y221046D01*
X124858Y221218D01*
X125250Y221416D01*
X125640Y221641D01*
X126030Y221893D01*
X125763Y216308D01*
D02*
G37*
G36*
X308855Y217256D02*
X308828Y217260D01*
X308750Y217264D01*
X306305Y217280D01*
Y219820D01*
X308855Y219845D01*
Y217256D01*
D02*
G37*
G36*
X155256D02*
X155228Y217260D01*
X155150Y217264D01*
X152705Y217280D01*
Y219820D01*
X155256Y219845D01*
Y217256D01*
D02*
G37*
G36*
X71495Y221049D02*
X71571Y220833D01*
X71698Y220642D01*
X71876Y220477D01*
X72104Y220338D01*
X72384Y220223D01*
X72714Y220134D01*
X73095Y220071D01*
X73527Y220033D01*
X74009Y220020D01*
Y217480D01*
X73527Y217472D01*
X72714Y217404D01*
X72384Y217344D01*
X72104Y217268D01*
X71876Y217174D01*
X71698Y217064D01*
X71571Y216936D01*
X71495Y216792D01*
X71469Y216631D01*
Y221290D01*
X71495Y221049D01*
D02*
G37*
G36*
X155256Y212255D02*
X155228Y212260D01*
X155150Y212264D01*
X152705Y212280D01*
Y214820D01*
X155256Y214844D01*
Y212255D01*
D02*
G37*
G36*
Y207256D02*
X155228Y207260D01*
X155150Y207264D01*
X152705Y207280D01*
Y209820D01*
X155256Y209845D01*
Y207256D01*
D02*
G37*
G36*
X119495Y209199D02*
X119571Y208983D01*
X119698Y208792D01*
X119876Y208627D01*
X120105Y208488D01*
X120384Y208373D01*
X120714Y208284D01*
X121095Y208221D01*
X121527Y208183D01*
X122010Y208170D01*
Y205630D01*
X121527Y205618D01*
X121095Y205579D01*
X120714Y205516D01*
X120384Y205427D01*
X120105Y205313D01*
X119876Y205173D01*
X119698Y205008D01*
X119571Y204817D01*
X119495Y204601D01*
X119470Y204360D01*
Y209440D01*
X119495Y209199D01*
D02*
G37*
G36*
X71495D02*
X71571Y208983D01*
X71698Y208792D01*
X71876Y208627D01*
X72104Y208488D01*
X72384Y208373D01*
X72714Y208284D01*
X73095Y208221D01*
X73527Y208183D01*
X74009Y208170D01*
Y205630D01*
X73527Y205618D01*
X73095Y205579D01*
X72714Y205516D01*
X72384Y205427D01*
X72104Y205313D01*
X71876Y205173D01*
X71698Y205008D01*
X71571Y204817D01*
X71495Y204601D01*
X71469Y204360D01*
Y209440D01*
X71495Y209199D01*
D02*
G37*
G36*
X155256Y202255D02*
X155228Y202260D01*
X155150Y202264D01*
X152705Y202280D01*
Y204820D01*
X155256Y204844D01*
Y202255D01*
D02*
G37*
G36*
X119495Y196499D02*
X119571Y196283D01*
X119698Y196092D01*
X119876Y195927D01*
X120105Y195788D01*
X120384Y195673D01*
X120714Y195585D01*
X121095Y195521D01*
X121527Y195483D01*
X122010Y195470D01*
Y192930D01*
X121527Y192917D01*
X121095Y192879D01*
X120714Y192816D01*
X120384Y192727D01*
X120105Y192613D01*
X119876Y192473D01*
X119698Y192308D01*
X119571Y192117D01*
X119495Y191901D01*
X119470Y191660D01*
Y196740D01*
X119495Y196499D01*
D02*
G37*
G36*
X148953Y189970D02*
X146096Y190688D01*
X146141Y190708D01*
X146181Y190748D01*
X146217Y190809D01*
X146248Y190891D01*
X146274Y190994D01*
X146295Y191118D01*
X146312Y191263D01*
X146331Y191615D01*
X146333Y191823D01*
X148873D01*
X148953Y189970D01*
D02*
G37*
G36*
X359033Y168527D02*
X359071Y168095D01*
X359134Y167714D01*
X359223Y167384D01*
X359338Y167105D01*
X359477Y166876D01*
X359642Y166698D01*
X359833Y166571D01*
X360049Y166495D01*
X360290Y166470D01*
X355210D01*
X355451Y166495D01*
X355667Y166571D01*
X355858Y166698D01*
X356023Y166876D01*
X356162Y167105D01*
X356277Y167384D01*
X356366Y167714D01*
X356429Y168095D01*
X356467Y168527D01*
X356480Y169010D01*
X359020D01*
X359033Y168527D01*
D02*
G37*
G36*
X376465Y165799D02*
X376542Y165583D01*
X376670Y165392D01*
X376850Y165227D01*
X377081Y165088D01*
X377364Y164973D01*
X377698Y164884D01*
X378084Y164821D01*
X378521Y164783D01*
X379009Y164770D01*
Y162230D01*
X378521Y162217D01*
X378084Y162179D01*
X377698Y162116D01*
X377364Y162027D01*
X377081Y161912D01*
X376850Y161773D01*
X376670Y161608D01*
X376542Y161417D01*
X376465Y161201D01*
X376439Y160960D01*
Y166040D01*
X376465Y165799D01*
D02*
G37*
G36*
X112811Y154960D02*
X112786Y155201D01*
X112708Y155417D01*
X112580Y155608D01*
X112400Y155773D01*
X112169Y155912D01*
X111886Y156027D01*
X111552Y156116D01*
X111166Y156179D01*
X110729Y156217D01*
X110241Y156230D01*
Y158770D01*
X110729Y158783D01*
X111166Y158821D01*
X111552Y158884D01*
X111886Y158973D01*
X112169Y159087D01*
X112400Y159227D01*
X112580Y159392D01*
X112708Y159583D01*
X112786Y159798D01*
X112811Y160040D01*
Y154960D01*
D02*
G37*
G36*
X373283Y152527D02*
X373321Y152095D01*
X373384Y151714D01*
X373473Y151384D01*
X373587Y151104D01*
X373727Y150876D01*
X373892Y150698D01*
X374083Y150571D01*
X374299Y150495D01*
X374540Y150469D01*
X369460D01*
X369701Y150495D01*
X369917Y150571D01*
X370107Y150698D01*
X370273Y150876D01*
X370412Y151104D01*
X370527Y151384D01*
X370616Y151714D01*
X370679Y152095D01*
X370717Y152527D01*
X370730Y153009D01*
X373270D01*
X373283Y152527D01*
D02*
G37*
G36*
X324272Y149840D02*
X324350Y149836D01*
X326795Y149820D01*
Y147280D01*
X324245Y147255D01*
Y149844D01*
X324272Y149840D01*
D02*
G37*
G36*
X353530Y143530D02*
X353505Y143293D01*
X353429Y143080D01*
X353302Y142893D01*
X353124Y142730D01*
X352895Y142593D01*
X352616Y142480D01*
X352286Y142393D01*
X351905Y142330D01*
X351473Y142293D01*
X350990Y142280D01*
Y144820D01*
X351476Y144833D01*
X351911Y144871D01*
X352295Y144934D01*
X352628Y145023D01*
X352910Y145138D01*
X353142Y145277D01*
X353323Y145442D01*
X353453Y145633D01*
X353532Y145849D01*
X353561Y146090D01*
X353530Y143530D01*
D02*
G37*
G36*
X324272Y144840D02*
X324350Y144836D01*
X326795Y144820D01*
Y142280D01*
X324245Y142256D01*
Y144845D01*
X324272Y144840D01*
D02*
G37*
G36*
Y139840D02*
X324350Y139836D01*
X326795Y139820D01*
Y137280D01*
X324245Y137255D01*
Y139844D01*
X324272Y139840D01*
D02*
G37*
G36*
X155256Y137255D02*
X155228Y137260D01*
X155150Y137264D01*
X152705Y137280D01*
Y139820D01*
X155256Y139844D01*
Y137255D01*
D02*
G37*
G36*
X133565Y135049D02*
X133642Y134833D01*
X133770Y134642D01*
X133950Y134477D01*
X134182Y134338D01*
X134464Y134223D01*
X134798Y134134D01*
X135184Y134071D01*
X135621Y134033D01*
X136110Y134020D01*
Y131480D01*
X135621Y131467D01*
X135184Y131429D01*
X134798Y131366D01*
X134464Y131277D01*
X134182Y131163D01*
X133950Y131023D01*
X133770Y130858D01*
X133642Y130667D01*
X133565Y130451D01*
X133539Y130210D01*
Y135290D01*
X133565Y135049D01*
D02*
G37*
G36*
X376495Y134138D02*
X376571Y134064D01*
X376698Y133999D01*
X376876Y133943D01*
X377105Y133895D01*
X377384Y133856D01*
X378095Y133804D01*
X379010Y133787D01*
Y131247D01*
X378523Y131234D01*
X378087Y131196D01*
X377703Y131133D01*
X377369Y131044D01*
X377086Y130930D01*
X376855Y130790D01*
X376674Y130625D01*
X376545Y130434D01*
X376467Y130218D01*
X376439Y129977D01*
X376470Y134220D01*
X376495Y134138D01*
D02*
G37*
G36*
X353561Y128210D02*
X353535Y128451D01*
X353458Y128667D01*
X353329Y128858D01*
X353149Y129023D01*
X352918Y129162D01*
X352635Y129277D01*
X352301Y129366D01*
X351916Y129429D01*
X351479Y129467D01*
X350990Y129480D01*
Y132020D01*
X351479Y132033D01*
X351916Y132071D01*
X352301Y132134D01*
X352635Y132223D01*
X352918Y132337D01*
X353149Y132477D01*
X353329Y132642D01*
X353458Y132833D01*
X353535Y133049D01*
X353561Y133290D01*
Y128210D01*
D02*
G37*
G36*
X308855Y122256D02*
X308828Y122260D01*
X308750Y122264D01*
X306305Y122280D01*
Y124820D01*
X308855Y124845D01*
Y122256D01*
D02*
G37*
G36*
X324272Y119840D02*
X324350Y119836D01*
X326795Y119820D01*
Y117280D01*
X324245Y117255D01*
Y119844D01*
X324272Y119840D01*
D02*
G37*
G36*
X353561Y112210D02*
X353535Y112451D01*
X353458Y112667D01*
X353329Y112858D01*
X353149Y113023D01*
X352918Y113162D01*
X352635Y113277D01*
X352301Y113366D01*
X351916Y113429D01*
X351479Y113467D01*
X350990Y113480D01*
Y116020D01*
X351479Y116033D01*
X351916Y116071D01*
X352301Y116134D01*
X352635Y116223D01*
X352918Y116337D01*
X353149Y116477D01*
X353329Y116642D01*
X353458Y116833D01*
X353535Y117049D01*
X353561Y117290D01*
Y112210D01*
D02*
G37*
G36*
X296390Y113969D02*
X296229Y113610D01*
X296087Y113242D01*
X295964Y112865D01*
X295775Y112085D01*
X295709Y111681D01*
X295633Y110848D01*
X295623Y110418D01*
X293083Y110067D01*
X293063Y110354D01*
X293001Y110655D01*
X292898Y110968D01*
X292754Y111294D01*
X292570Y111633D01*
X292344Y111985D01*
X292076Y112350D01*
X291768Y112728D01*
X291028Y113522D01*
X296570Y114319D01*
X296390Y113969D01*
D02*
G37*
G36*
X320299Y107159D02*
X320083Y107082D01*
X319892Y106953D01*
X319727Y106773D01*
X319587Y106542D01*
X319473Y106259D01*
X319384Y105925D01*
X319321Y105540D01*
X319283Y105103D01*
X319270Y104614D01*
X316730D01*
X316717Y105103D01*
X316679Y105540D01*
X316616Y105925D01*
X316527Y106259D01*
X316412Y106542D01*
X316273Y106773D01*
X316108Y106953D01*
X315917Y107082D01*
X315701Y107159D01*
X315460Y107185D01*
X320540D01*
X320299Y107159D01*
D02*
G37*
G36*
X301045Y99444D02*
X298455D01*
X298460Y99472D01*
X298464Y99550D01*
X298480Y101994D01*
X301020D01*
X301045Y99444D01*
D02*
G37*
G36*
X296044D02*
X293455D01*
X293460Y99472D01*
X293464Y99550D01*
X293480Y101994D01*
X296020D01*
X296044Y99444D01*
D02*
G37*
G36*
X256044D02*
X253455D01*
X253460Y99472D01*
X253464Y99550D01*
X253480Y101994D01*
X256020D01*
X256044Y99444D01*
D02*
G37*
G36*
X246146Y101740D02*
X246044Y99444D01*
X243455D01*
X243484Y99482D01*
X243509Y99568D01*
X243532Y99705D01*
X243551Y99890D01*
X243591Y100745D01*
X243605Y102046D01*
X246146Y101740D01*
D02*
G37*
G36*
X231146D02*
X231045Y99444D01*
X228456D01*
X228484Y99481D01*
X228509Y99568D01*
X228532Y99705D01*
X228551Y99890D01*
X228592Y100745D01*
X228605Y102046D01*
X231146Y101740D01*
D02*
G37*
G36*
X206020Y101994D02*
X206044Y99444D01*
X203455D01*
X203460Y99472D01*
X203464Y99550D01*
X203480Y101995D01*
X206020Y101994D01*
D02*
G37*
G36*
X178385Y89210D02*
X178359Y89451D01*
X178282Y89667D01*
X178153Y89858D01*
X177974Y90023D01*
X177742Y90162D01*
X177460Y90277D01*
X177125Y90366D01*
X176740Y90429D01*
X176303Y90467D01*
X175814Y90480D01*
Y93020D01*
X176303Y93033D01*
X176740Y93071D01*
X177125Y93134D01*
X177460Y93223D01*
X177742Y93337D01*
X177974Y93477D01*
X178153Y93642D01*
X178282Y93833D01*
X178359Y94049D01*
X178385Y94290D01*
Y89210D01*
D02*
G37*
G36*
X102465Y94049D02*
X102542Y93833D01*
X102671Y93642D01*
X102851Y93477D01*
X103082Y93337D01*
X103365Y93223D01*
X103699Y93134D01*
X104084Y93071D01*
X104521Y93033D01*
X105010Y93020D01*
Y90480D01*
X104521Y90467D01*
X104084Y90429D01*
X103699Y90366D01*
X103365Y90277D01*
X103082Y90162D01*
X102851Y90023D01*
X102671Y89858D01*
X102542Y89667D01*
X102465Y89451D01*
X102439Y89210D01*
Y94290D01*
X102465Y94049D01*
D02*
G37*
G36*
X211015Y84019D02*
X210989Y83937D01*
X210966Y83809D01*
X210946Y83635D01*
X210904Y82835D01*
X210890Y81620D01*
X208350D01*
X208456Y84055D01*
X211045D01*
X211015Y84019D01*
D02*
G37*
G36*
X286040Y84028D02*
X286035Y83950D01*
X286020Y81505D01*
X283480D01*
X283455Y84055D01*
X286044D01*
X286040Y84028D01*
D02*
G37*
G36*
X271040D02*
X271036Y83950D01*
X271020Y81505D01*
X268480D01*
X268456Y84055D01*
X271045D01*
X271040Y84028D01*
D02*
G37*
G36*
X241040D02*
X241036Y83950D01*
X241020Y81505D01*
X238480D01*
X238456Y84055D01*
X241045D01*
X241040Y84028D01*
D02*
G37*
G36*
X236040D02*
X236035Y83950D01*
X236020Y81505D01*
X233480D01*
X233455Y84055D01*
X236044D01*
X236040Y84028D01*
D02*
G37*
G36*
X221040D02*
X221036Y83950D01*
X221020Y81505D01*
X218480D01*
X218456Y84055D01*
X221045D01*
X221040Y84028D01*
D02*
G37*
G36*
X216040D02*
X216036Y83950D01*
X216020Y81505D01*
X213480D01*
X213455Y84055D01*
X216044D01*
X216040Y84028D01*
D02*
G37*
G36*
X378533Y85771D02*
X378571Y85334D01*
X378634Y84948D01*
X378723Y84614D01*
X378837Y84332D01*
X378977Y84100D01*
X379142Y83920D01*
X379333Y83792D01*
X379549Y83715D01*
X379790Y83689D01*
X378576D01*
X378665Y81163D01*
X375835D01*
X375862Y81231D01*
X375887Y81375D01*
X375909Y81596D01*
X375957Y82720D01*
X375965Y83689D01*
X374710D01*
X374951Y83715D01*
X375167Y83792D01*
X375358Y83920D01*
X375523Y84100D01*
X375662Y84332D01*
X375777Y84614D01*
X375866Y84948D01*
X375929Y85334D01*
X375967Y85771D01*
X375980Y86259D01*
X378520D01*
X378533Y85771D01*
D02*
G37*
G36*
X95553Y78777D02*
X95591Y78345D01*
X95654Y77964D01*
X95743Y77634D01*
X95857Y77354D01*
X95997Y77126D01*
X96162Y76948D01*
X96353Y76821D01*
X96569Y76745D01*
X96810Y76719D01*
X93031D01*
X93025Y76745D01*
X93020Y76821D01*
X93003Y77964D01*
X93000Y79259D01*
X95540D01*
X95553Y78777D01*
D02*
G37*
G36*
X248237Y70784D02*
X247747Y70703D01*
X246834Y70481D01*
X246412Y70340D01*
X246013Y70178D01*
X245637Y69996D01*
X245284Y69794D01*
X244954Y69571D01*
X244646Y69329D01*
X244362Y69066D01*
X242566Y70862D01*
X242829Y71146D01*
X243071Y71454D01*
X243294Y71784D01*
X243496Y72137D01*
X243678Y72513D01*
X243840Y72912D01*
X243981Y73334D01*
X244102Y73779D01*
X244203Y74247D01*
X244284Y74737D01*
X248237Y70784D01*
D02*
G37*
G36*
X116965Y72299D02*
X117042Y72083D01*
X117170Y71892D01*
X117350Y71727D01*
X117582Y71588D01*
X117864Y71473D01*
X118199Y71384D01*
X118584Y71321D01*
X119021Y71283D01*
X119509Y71270D01*
Y68730D01*
X119021Y68717D01*
X118584Y68679D01*
X118199Y68616D01*
X117864Y68527D01*
X117582Y68412D01*
X117350Y68273D01*
X117170Y68108D01*
X117042Y67917D01*
X116965Y67701D01*
X116939Y67460D01*
Y72540D01*
X116965Y72299D01*
D02*
G37*
G36*
X354311Y67210D02*
X354285Y67451D01*
X354208Y67667D01*
X354080Y67858D01*
X353900Y68023D01*
X353668Y68162D01*
X353386Y68277D01*
X353051Y68366D01*
X352666Y68429D01*
X352229Y68467D01*
X351740Y68480D01*
Y71020D01*
X352229Y71033D01*
X352666Y71071D01*
X353051Y71134D01*
X353386Y71223D01*
X353668Y71337D01*
X353900Y71477D01*
X354080Y71642D01*
X354208Y71833D01*
X354285Y72049D01*
X354311Y72290D01*
Y67210D01*
D02*
G37*
G36*
X293033Y59021D02*
X293071Y58584D01*
X293134Y58198D01*
X293223Y57864D01*
X293337Y57582D01*
X293477Y57350D01*
X293642Y57170D01*
X293833Y57042D01*
X294049Y56965D01*
X294290Y56939D01*
X289210D01*
X289451Y56965D01*
X289667Y57042D01*
X289858Y57170D01*
X290023Y57350D01*
X290163Y57582D01*
X290277Y57864D01*
X290366Y58198D01*
X290429Y58584D01*
X290467Y59021D01*
X290480Y59509D01*
X293020D01*
X293033Y59021D01*
D02*
G37*
G36*
X245283Y58771D02*
X245321Y58334D01*
X245384Y57949D01*
X245473Y57615D01*
X245588Y57332D01*
X245727Y57101D01*
X245892Y56921D01*
X246083Y56792D01*
X246299Y56715D01*
X246540Y56689D01*
X241460D01*
X241701Y56715D01*
X241917Y56792D01*
X242108Y56921D01*
X242273Y57101D01*
X242412Y57332D01*
X242527Y57615D01*
X242616Y57949D01*
X242679Y58334D01*
X242717Y58771D01*
X242730Y59260D01*
X245270D01*
X245283Y58771D01*
D02*
G37*
G36*
X230853Y58370D02*
X230886Y57965D01*
X230940Y57607D01*
X231016Y57297D01*
X231113Y57035D01*
X231232Y56821D01*
X231373Y56654D01*
X231535Y56535D01*
X231719Y56463D01*
X231925Y56439D01*
X227220D01*
X227425Y56463D01*
X227610Y56535D01*
X227772Y56654D01*
X227913Y56821D01*
X228032Y57035D01*
X228129Y57297D01*
X228205Y57607D01*
X228259Y57965D01*
X228291Y58370D01*
X228302Y58822D01*
X230842D01*
X230853Y58370D01*
D02*
G37*
G36*
X201265Y55469D02*
X200772Y54960D01*
X199996Y54048D01*
X199711Y53646D01*
X199497Y53280D01*
X199352Y52950D01*
X199277Y52655D01*
X199272Y52397D01*
X199336Y52175D01*
X199469Y51988D01*
X195988Y55469D01*
X196175Y55336D01*
X196397Y55272D01*
X196655Y55277D01*
X196950Y55352D01*
X197280Y55497D01*
X197646Y55711D01*
X198048Y55996D01*
X198486Y56349D01*
X199469Y57265D01*
X201265Y55469D01*
D02*
G37*
G36*
X116965Y57299D02*
X117042Y57083D01*
X117170Y56892D01*
X117350Y56727D01*
X117582Y56588D01*
X117864Y56473D01*
X118199Y56384D01*
X118584Y56321D01*
X119021Y56283D01*
X119509Y56270D01*
Y53730D01*
X119021Y53717D01*
X118584Y53679D01*
X118199Y53616D01*
X117864Y53527D01*
X117582Y53412D01*
X117350Y53273D01*
X117170Y53108D01*
X117042Y52917D01*
X116965Y52701D01*
X116939Y52460D01*
Y57540D01*
X116965Y57299D01*
D02*
G37*
G36*
X207061Y46210D02*
X207036Y46452D01*
X206958Y46667D01*
X206830Y46858D01*
X206650Y47023D01*
X206419Y47163D01*
X206136Y47277D01*
X205802Y47366D01*
X205416Y47429D01*
X204979Y47467D01*
X204491Y47480D01*
Y50020D01*
X204979Y50033D01*
X205416Y50071D01*
X205802Y50135D01*
X206136Y50223D01*
X206419Y50338D01*
X206650Y50477D01*
X206830Y50642D01*
X206958Y50833D01*
X207036Y51049D01*
X207061Y51290D01*
Y46210D01*
D02*
G37*
G36*
X199465Y51049D02*
X199542Y50833D01*
X199670Y50642D01*
X199850Y50477D01*
X200082Y50338D01*
X200364Y50223D01*
X200698Y50135D01*
X201084Y50071D01*
X201521Y50033D01*
X202009Y50020D01*
Y47480D01*
X201521Y47467D01*
X201084Y47429D01*
X200698Y47366D01*
X200364Y47277D01*
X200082Y47163D01*
X199850Y47023D01*
X199670Y46858D01*
X199542Y46667D01*
X199465Y46452D01*
X199439Y46210D01*
Y51290D01*
X199465Y51049D01*
D02*
G37*
G36*
X116965Y40049D02*
X117042Y39833D01*
X117170Y39642D01*
X117350Y39477D01*
X117582Y39337D01*
X117864Y39223D01*
X118199Y39134D01*
X118584Y39071D01*
X119021Y39033D01*
X119509Y39020D01*
Y36480D01*
X119021Y36467D01*
X118584Y36429D01*
X118199Y36366D01*
X117864Y36277D01*
X117582Y36163D01*
X117350Y36023D01*
X117170Y35858D01*
X117042Y35667D01*
X116965Y35451D01*
X116939Y35210D01*
Y40290D01*
X116965Y40049D01*
D02*
G37*
G36*
X163561Y30710D02*
X163535Y30951D01*
X163458Y31167D01*
X163330Y31358D01*
X163150Y31523D01*
X162918Y31663D01*
X162636Y31777D01*
X162302Y31866D01*
X161916Y31929D01*
X161479Y31967D01*
X160991Y31980D01*
Y34520D01*
X161479Y34533D01*
X161916Y34571D01*
X162302Y34634D01*
X162636Y34723D01*
X162918Y34838D01*
X163150Y34977D01*
X163330Y35142D01*
X163458Y35333D01*
X163535Y35549D01*
X163561Y35790D01*
Y30710D01*
D02*
G37*
G36*
X155715Y35549D02*
X155792Y35333D01*
X155920Y35142D01*
X156100Y34977D01*
X156332Y34838D01*
X156614Y34723D01*
X156948Y34634D01*
X157334Y34571D01*
X157771Y34533D01*
X158259Y34520D01*
Y31980D01*
X157771Y31967D01*
X157334Y31929D01*
X156948Y31866D01*
X156614Y31777D01*
X156332Y31663D01*
X156100Y31523D01*
X155920Y31358D01*
X155792Y31167D01*
X155715Y30951D01*
X155689Y30710D01*
Y35790D01*
X155715Y35549D01*
D02*
G37*
%LPC*%
G36*
X125290Y264290D02*
X120020D01*
Y258020D01*
X125290D01*
Y264290D01*
D02*
G37*
G36*
X117480D02*
X112210D01*
Y258020D01*
X117480D01*
Y264290D01*
D02*
G37*
G36*
X125290Y255480D02*
X120020D01*
Y249210D01*
X125290D01*
Y255480D01*
D02*
G37*
G36*
X117480D02*
X112210D01*
Y249210D01*
X117480D01*
Y255480D01*
D02*
G37*
G36*
X120140Y140590D02*
X114870D01*
Y134320D01*
X120140D01*
Y140590D01*
D02*
G37*
G36*
X112330D02*
X107060D01*
Y134320D01*
X112330D01*
Y140590D01*
D02*
G37*
G36*
X120140Y131780D02*
X113600D01*
X107060D01*
Y125610D01*
X107060Y125510D01*
Y124340D01*
X107060Y124240D01*
Y118070D01*
X113600D01*
X120140D01*
Y124240D01*
X120140Y124340D01*
Y125510D01*
X120140Y125610D01*
Y131780D01*
D02*
G37*
G36*
Y115530D02*
X114870D01*
Y109260D01*
X120140D01*
Y115530D01*
D02*
G37*
G36*
X112330D02*
X107060D01*
Y109260D01*
X112330D01*
Y115530D01*
D02*
G37*
G36*
X135600Y123800D02*
X123600D01*
Y109800D01*
X125916D01*
Y106387D01*
X125285Y105965D01*
X124069Y104146D01*
X123642Y102000D01*
X124069Y99854D01*
X125285Y98035D01*
X127104Y96819D01*
X129250Y96392D01*
X131396Y96819D01*
X133215Y98035D01*
X134431Y99854D01*
X134858Y102000D01*
X134431Y104146D01*
X133215Y105965D01*
X132584Y106387D01*
Y109800D01*
X135600D01*
Y112166D01*
X139119D01*
X145092Y106192D01*
X146174Y105470D01*
X147450Y105216D01*
X154937D01*
X155500Y105104D01*
X170400D01*
X171317Y105286D01*
X172094Y105806D01*
X172614Y106583D01*
X172796Y107500D01*
Y109600D01*
X172614Y110517D01*
X172582Y110564D01*
X173122Y111372D01*
X173303Y112280D01*
X162950D01*
X152373D01*
X152048Y111884D01*
X148831D01*
X142858Y117858D01*
X141776Y118580D01*
X140500Y118834D01*
X135600D01*
Y123800D01*
D02*
G37*
%LPD*%
G36*
X133565Y117799D02*
X133642Y117583D01*
X133770Y117392D01*
X133950Y117227D01*
X134182Y117087D01*
X134464Y116973D01*
X134798Y116884D01*
X135184Y116821D01*
X135621Y116783D01*
X136110Y116770D01*
Y114230D01*
X135621Y114217D01*
X135184Y114179D01*
X134798Y114116D01*
X134464Y114027D01*
X134182Y113912D01*
X133950Y113773D01*
X133770Y113608D01*
X133642Y113417D01*
X133565Y113201D01*
X133539Y112960D01*
Y118040D01*
X133565Y117799D01*
D02*
G37*
G36*
X131549Y111835D02*
X131333Y111758D01*
X131142Y111629D01*
X130977Y111449D01*
X130837Y111218D01*
X130723Y110935D01*
X130634Y110601D01*
X130571Y110216D01*
X130533Y109779D01*
X130520Y109290D01*
X127980D01*
X127967Y109779D01*
X127929Y110216D01*
X127866Y110601D01*
X127777Y110935D01*
X127662Y111218D01*
X127523Y111449D01*
X127358Y111629D01*
X127167Y111758D01*
X126951Y111835D01*
X126710Y111861D01*
X131790D01*
X131549Y111835D01*
D02*
G37*
G36*
X155256Y107255D02*
X155228Y107260D01*
X155150Y107264D01*
X152705Y107280D01*
Y109820D01*
X155256Y109845D01*
Y107255D01*
D02*
G37*
G36*
X482142Y189339D02*
X481502Y188564D01*
X480983Y187858D01*
X480585Y187219D01*
X480308Y186647D01*
X480152Y186143D01*
X480117Y185706D01*
X480203Y185337D01*
X480410Y185036D01*
X472000Y186375D01*
X483786Y191089D01*
X482142Y189339D01*
D02*
G37*
G36*
X436520Y44630D02*
X436670Y44550D01*
X436920Y44480D01*
X437270Y44419D01*
X437719Y44367D01*
X439669Y44269D01*
X441469Y44250D01*
Y39250D01*
X440519Y39245D01*
X436920Y39020D01*
X436670Y38949D01*
X436520Y38870D01*
X436469Y38780D01*
Y44720D01*
X436520Y44630D01*
D02*
G37*
G36*
X504311Y109250D02*
X504281Y109535D01*
X504190Y109790D01*
X504038Y110015D01*
X503826Y110210D01*
X503554Y110375D01*
X503220Y110510D01*
X502826Y110615D01*
X502372Y110690D01*
X501856Y110735D01*
X501281Y110750D01*
Y113750D01*
X501856Y113765D01*
X502372Y113810D01*
X502826Y113885D01*
X503220Y113990D01*
X503554Y114125D01*
X503826Y114290D01*
X504038Y114485D01*
X504190Y114710D01*
X504281Y114965D01*
X504311Y115250D01*
Y109250D01*
D02*
G37*
G36*
X511965Y108281D02*
X511710Y108190D01*
X511485Y108038D01*
X511290Y107826D01*
X511125Y107554D01*
X510990Y107220D01*
X510885Y106826D01*
X510810Y106372D01*
X510765Y105857D01*
X510750Y105281D01*
X507750D01*
X507735Y105857D01*
X507690Y106372D01*
X507615Y106826D01*
X507510Y107220D01*
X507375Y107554D01*
X507210Y107826D01*
X507015Y108038D01*
X506790Y108190D01*
X506535Y108281D01*
X506250Y108311D01*
X512250D01*
X511965Y108281D01*
D02*
G37*
G36*
X321311Y49000D02*
X321281Y49285D01*
X321190Y49540D01*
X321038Y49765D01*
X320826Y49960D01*
X320553Y50125D01*
X320220Y50260D01*
X319826Y50365D01*
X319371Y50440D01*
X318856Y50485D01*
X318281Y50500D01*
Y53500D01*
X318856Y53515D01*
X319371Y53560D01*
X319826Y53635D01*
X320220Y53740D01*
X320553Y53875D01*
X320826Y54040D01*
X321038Y54235D01*
X321190Y54460D01*
X321281Y54715D01*
X321311Y55000D01*
Y49000D01*
D02*
G37*
G36*
X311719Y54715D02*
X311810Y54460D01*
X311962Y54235D01*
X312174Y54040D01*
X312447Y53875D01*
X312780Y53740D01*
X313174Y53635D01*
X313629Y53560D01*
X314144Y53515D01*
X314720Y53500D01*
Y50500D01*
X314144Y50485D01*
X313629Y50440D01*
X313174Y50365D01*
X312780Y50260D01*
X312447Y50125D01*
X312174Y49960D01*
X311962Y49765D01*
X311810Y49540D01*
X311719Y49285D01*
X311689Y49000D01*
Y55000D01*
X311719Y54715D01*
D02*
G37*
D12*
X208500Y384500D02*
Y385500D01*
X205020Y388980D02*
X208500Y385500D01*
Y383500D02*
Y384500D01*
X196689Y403169D02*
X205020Y394838D01*
Y388980D02*
Y394838D01*
Y374730D02*
X216250Y363500D01*
X205020Y380020D02*
X208500Y383500D01*
X205020Y374730D02*
Y380020D01*
X188071Y414821D02*
X188932Y413960D01*
X189180Y410677D02*
Y411050D01*
Y410677D02*
X196689Y403169D01*
X188932Y411298D02*
Y413960D01*
Y411298D02*
X189180Y411050D01*
X199980Y388980D02*
Y392750D01*
X196500Y385500D02*
X199980Y388980D01*
X196500Y384500D02*
Y385500D01*
Y383500D02*
Y384500D01*
X199980Y372642D02*
X212658Y359965D01*
X212714D01*
X196500Y383500D02*
X199980Y380020D01*
Y372642D02*
Y380020D01*
X181861Y406889D02*
X184523D01*
X181000Y407750D02*
X181861Y406889D01*
X184714Y406698D02*
X186032D01*
X199980Y392750D01*
X184523Y406889D02*
X184714Y406698D01*
X154250Y415500D02*
X172290Y433540D01*
X154250Y373770D02*
Y415500D01*
X167250Y435628D02*
Y451886D01*
X172290Y433540D02*
Y453974D01*
X149210Y371682D02*
Y417588D01*
X165936Y434314D01*
X167250Y435628D01*
X170980Y369770D02*
X195838D01*
X209179Y356429D01*
X170980Y364730D02*
X193750D01*
X165500Y361250D02*
X166500D01*
X193750Y364730D02*
X205587Y352893D01*
X166500Y361250D02*
X167500D01*
X123074Y469040D02*
X157224D01*
X172290Y453974D01*
X125162Y464000D02*
X155136D01*
X167250Y451886D01*
X167500Y373250D02*
X170980Y369770D01*
X166500Y373250D02*
X167500D01*
X205587Y352893D02*
X205644D01*
X167500Y361250D02*
X170980Y364730D01*
X106690Y452656D02*
X123074Y469040D01*
X111730Y448497D02*
Y450569D01*
X113195Y447033D02*
X120317D01*
X111730Y448497D02*
X113195Y447033D01*
X106690Y441258D02*
Y452656D01*
X83750Y420100D02*
X85532D01*
X111730Y450569D02*
X125162Y464000D01*
X120317Y447033D02*
X121850Y445500D01*
X85532Y420100D02*
X106690Y441258D01*
X149210Y371682D02*
X156162Y364730D01*
X162020D02*
X165500Y361250D01*
X162020Y369770D02*
X165500Y373250D01*
X166500D01*
X154250Y373770D02*
X158250Y369770D01*
X162020D01*
X156162Y364730D02*
X162020D01*
D14*
X494500Y107750D02*
X499000Y112250D01*
X509250D01*
Y92000D02*
Y112250D01*
X307750Y52000D02*
X325250D01*
X307750Y42900D02*
Y52000D01*
X293850Y29000D02*
X307750Y42900D01*
D15*
X260000Y61750D02*
X279750Y81500D01*
X258810Y60560D02*
X260000Y61750D01*
X228125Y52625D02*
X229572Y54072D01*
X228000Y52500D02*
X228125Y52625D01*
X258810Y53940D02*
Y60560D01*
Y53940D02*
X260000Y52750D01*
X260000Y61750D02*
X267750D01*
X284750Y78750D01*
Y91750D01*
X158000Y296676D02*
Y317125D01*
X163125Y322250D01*
X205335D01*
X67650Y137600D02*
X76178Y129072D01*
X56750Y137600D02*
X67650D01*
X76178Y101322D02*
Y129072D01*
X90500Y140750D02*
X107250Y157500D01*
X90500Y84500D02*
Y140750D01*
X105428Y261178D02*
Y266179D01*
X108280Y269030D02*
X135000D01*
X105428Y266179D02*
X108280Y269030D01*
X260037Y123330D02*
Y124537D01*
X254750Y118043D02*
X260037Y123330D01*
X264793Y352750D02*
X266000D01*
X262850Y350807D02*
X264793Y352750D01*
X27750Y275050D02*
X28500Y275800D01*
X47599D01*
X52899Y270500D01*
X54500D01*
X27750Y173450D02*
X28570Y174270D01*
X69480D01*
X86250Y157500D01*
X89250D01*
X86750Y185250D02*
X128250D01*
X132500Y189500D02*
X137250D01*
X128250Y185250D02*
X132500Y189500D01*
X77750Y194250D02*
X86750Y185250D01*
X91500Y257000D02*
X91500Y257000D01*
X72000Y257000D02*
X91500D01*
X70500Y258500D02*
Y270500D01*
Y258500D02*
X72000Y257000D01*
X54500Y270500D02*
Y285750D01*
X254750Y91750D02*
Y118043D01*
X134750Y256750D02*
X174751D01*
X176751Y254750D01*
X176751D01*
X179620Y245480D02*
X179750Y245350D01*
X176751Y254750D02*
X179620Y251880D01*
Y245480D02*
Y251880D01*
X103000Y258750D02*
X105428Y261178D01*
X101250Y257000D02*
X103000Y258750D01*
X103000D01*
X91500Y247000D02*
Y257000D01*
X100500Y232300D02*
X108500D01*
X98770Y234030D02*
X100500Y232300D01*
X98770Y234030D02*
Y239730D01*
X91500Y247000D02*
X98770Y239730D01*
X91500Y257000D02*
X101250D01*
X134750Y256750D02*
X135000Y257000D01*
Y269030D01*
X187020Y356770D02*
X187410Y356380D01*
Y355750D02*
Y356380D01*
X236000Y62500D02*
X247750Y74250D01*
X372000Y114750D02*
X373000D01*
X383750Y104000D01*
X384000D01*
X346500Y133250D02*
X347548D01*
X281750Y116250D02*
Y125000D01*
X198250Y268543D02*
Y269750D01*
X194750Y265043D02*
X198250Y268543D01*
X250184Y329750D02*
X257500D01*
X265043Y342500D02*
X266250D01*
X190491Y343230D02*
X191103Y342617D01*
X190250Y343230D02*
X190491D01*
X187410Y355750D02*
X192352Y350807D01*
X161500Y228680D02*
Y239500D01*
X161630Y228550D02*
X162950D01*
X161500Y228680D02*
X161630Y228550D01*
X194750Y245350D02*
Y265043D01*
X189750Y245350D02*
Y257500D01*
X179500Y267750D02*
X189750Y257500D01*
X179500Y267750D02*
Y269750D01*
X140700Y223550D02*
X162950D01*
X121074Y226250D02*
X138000D01*
X140700Y223550D01*
X60500Y232300D02*
X68500D01*
X74930Y225870D01*
X120695D02*
X121074Y226250D01*
X74930Y225870D02*
X120695D01*
X108500Y219600D02*
X108800Y219300D01*
X127700D01*
X128000Y219000D01*
X162820Y198420D02*
X162950Y198550D01*
X154201Y198420D02*
X162820D01*
X147603Y191823D02*
X154201Y198420D01*
X147603Y188103D02*
Y191823D01*
X146750Y187250D02*
X147603Y188103D01*
X77750Y194250D02*
Y205412D01*
X60500Y206900D02*
X76262D01*
X77750Y205412D01*
X151300Y203550D02*
X162950D01*
X137250Y189500D02*
X151300Y203550D01*
X60500Y219600D02*
X61350Y218750D01*
X75000D01*
X93280Y200470D01*
X128970D01*
X149235Y208550D02*
X162950D01*
X134885Y194200D02*
X149235Y208550D01*
X142050Y213550D02*
X162950D01*
X128970Y200470D02*
X142050Y213550D01*
X108500Y194200D02*
X134885D01*
X139050Y218550D02*
X162950D01*
X127400Y206900D02*
X139050Y218550D01*
X108500Y206900D02*
X127400D01*
X107250Y157500D02*
X120250D01*
X94270Y74480D02*
X97000Y71750D01*
X94270Y74480D02*
Y80730D01*
X90500Y84500D02*
X94270Y80730D01*
X82500Y94000D02*
Y95000D01*
X76178Y101322D02*
X82500Y95000D01*
X129600Y133050D02*
X129900Y132750D01*
X140000D01*
X145800Y138550D02*
X162950D01*
X140000Y132750D02*
X145800Y138550D01*
X129250Y116450D02*
X129600Y116800D01*
X129250Y102000D02*
Y116450D01*
X129600Y116800D02*
X130900Y115500D01*
X140500D01*
X147450Y108550D02*
X162950D01*
X140500Y115500D02*
X147450Y108550D01*
X100750Y91750D02*
X179750D01*
X98500Y94000D02*
X100750Y91750D01*
X204750D02*
X204750Y91750D01*
Y109750D01*
X204750Y109750D01*
X184000Y61750D02*
X216909D01*
X181750Y59500D02*
X184000Y61750D01*
X216909D02*
X234750Y79591D01*
X194000Y50000D02*
X201210Y57210D01*
X218790D01*
X239750Y78171D01*
X229572Y58822D02*
X233250Y62500D01*
X236000D01*
X229572Y54072D02*
Y58822D01*
X113000Y71750D02*
X114750Y70000D01*
X125250D01*
X132500Y77250D01*
X145170Y68170D02*
X209011D01*
X132500Y77250D02*
X205250D01*
X122250Y55000D02*
X139960Y72710D01*
X193000Y50000D02*
X194000D01*
X207131Y72710D02*
X214750Y80329D01*
X139960Y72710D02*
X207131D01*
X126500Y49500D02*
X145170Y68170D01*
X209011D02*
X219750Y78909D01*
X209620Y91620D02*
X209750Y91750D01*
X209620Y81620D02*
Y91620D01*
X214750Y80329D02*
Y91750D01*
X205250Y77250D02*
X209620Y81620D01*
X219750Y78909D02*
Y91750D01*
X113000Y55500D02*
X113500Y55000D01*
X122250D01*
X126500Y43000D02*
Y49500D01*
X113000Y39500D02*
X114750Y37750D01*
X121250D01*
X126500Y43000D01*
X181750Y42750D02*
Y59500D01*
X229750Y91750D02*
X229875Y91875D01*
Y114125D01*
X230000Y114250D01*
X239750Y78171D02*
Y91750D01*
X234750Y79591D02*
Y91750D01*
X244750D02*
X244875Y91875D01*
Y108875D01*
X245000Y109000D01*
X151250Y33250D02*
X168750D01*
X170000Y32000D01*
X194249Y48750D02*
X211500D01*
X193000Y50000D02*
X194249Y48750D01*
X170000Y32000D02*
X171000D01*
X181750Y42750D01*
X244000Y52750D02*
Y61500D01*
X246750Y64250D01*
X254250D01*
X269750Y79750D02*
Y91750D01*
X254250Y64250D02*
X269750Y79750D01*
X279750Y81500D02*
Y91750D01*
X289620Y91880D02*
X289750Y91750D01*
X289620Y91880D02*
Y100880D01*
X273000Y117500D02*
X289620Y100880D01*
X281750Y116250D02*
X294750Y103250D01*
X310500Y85000D02*
Y100217D01*
X299750Y91750D02*
Y104670D01*
X294750Y91750D02*
Y103250D01*
X304940Y105777D02*
X310500Y100217D01*
X300500Y110341D02*
X304940Y105901D01*
X293500Y116000D02*
X294353Y115147D01*
X300500Y110341D02*
Y120000D01*
X304940Y105777D02*
Y105901D01*
X294353Y110067D02*
X299750Y104670D01*
X294353Y110067D02*
Y115147D01*
X300407Y218550D02*
X316550D01*
X298207Y220750D02*
X300407Y218550D01*
X297000Y220750D02*
X298207D01*
X329750Y224988D02*
Y250500D01*
X316550Y223550D02*
X316600Y223500D01*
X328262D01*
X329750Y224988D01*
X319300Y260950D02*
Y271500D01*
Y260950D02*
X329750Y250500D01*
X299750Y245350D02*
Y257250D01*
X292750Y264250D02*
X299750Y257250D01*
X290890Y264250D02*
X292750D01*
X278750Y276000D02*
X279140D01*
X290890Y264250D01*
X294620Y245480D02*
X294750Y245350D01*
X294620Y245480D02*
Y254100D01*
X286720Y262000D02*
X294620Y254100D01*
X278750Y262000D02*
X286720D01*
X316550Y143550D02*
X353550D01*
X357000Y147000D02*
X358000D01*
X353550Y143550D02*
X357000Y147000D01*
X316550Y118550D02*
X337075D01*
X361755Y103055D02*
X377250Y87560D01*
X352570Y103055D02*
X361755D01*
X337075Y118550D02*
X352570Y103055D01*
X316550Y108550D02*
X317870D01*
X318000Y108420D01*
Y88579D02*
Y108420D01*
X338300Y148550D02*
X344750Y155000D01*
X370500D02*
X372000Y153500D01*
X344750Y155000D02*
X370500D01*
X316550Y138550D02*
X338200D01*
X339730Y124020D02*
Y137020D01*
X349000Y114750D02*
X358000D01*
X338200Y138550D02*
X339730Y137020D01*
Y124020D02*
X349000Y114750D01*
X304050Y123550D02*
X316550D01*
X310500Y85000D02*
X318000Y77500D01*
X300500Y120000D02*
X304050Y123550D01*
X316550Y148550D02*
X338300D01*
X372000Y147000D02*
Y153500D01*
X377250Y79750D02*
Y87560D01*
X201000Y296750D02*
Y309000D01*
X204000Y312000D01*
X347548Y133250D02*
X350048Y130750D01*
X358000D01*
X243233Y336701D02*
X250184Y329750D01*
X357750Y163250D02*
X358000Y163000D01*
X357750Y163250D02*
Y174750D01*
X372000Y163000D02*
X372500Y163500D01*
X385750D01*
X386250Y164000D01*
X372000Y130750D02*
X373767Y132517D01*
X380310D01*
X383793Y136000D01*
X385000D01*
X246043Y299750D02*
X247250D01*
X243543Y302250D02*
X246043Y299750D01*
X234250Y302250D02*
X246750Y314750D01*
X233250Y302250D02*
X234250D01*
X215250D02*
X233250D01*
X246750Y314750D02*
Y318858D01*
X235978Y329630D02*
X246750Y318858D01*
X239514Y333165D02*
X257020Y315659D01*
Y314730D02*
Y315659D01*
Y314730D02*
X259250Y312500D01*
X260250D01*
X122400Y334800D02*
X124378Y336778D01*
X128722D01*
X137500Y328000D01*
X122400Y328000D02*
Y334800D01*
Y326800D02*
Y328000D01*
Y318800D02*
Y326800D01*
X209227Y312000D02*
X219786Y322559D01*
X204000Y312000D02*
X209227D01*
X234250Y302250D02*
X243543D01*
X224000Y315250D02*
Y316451D01*
X229416Y321866D01*
X189500Y312250D02*
X194960Y317710D01*
X207866D01*
X216250Y326094D01*
X169750Y312250D02*
X189500D01*
X229416Y321866D02*
Y322050D01*
X228907Y322559D02*
X229416Y322050D01*
X132000Y294000D02*
X146500D01*
X127500Y298500D02*
X132000Y294000D01*
X127500Y298500D02*
Y299500D01*
X147689Y295188D02*
X156512D01*
X158000Y296676D01*
X146500Y294000D02*
X147689Y295188D01*
X205335Y322250D02*
X212714Y329630D01*
X208995Y333165D02*
X209179D01*
X205080Y329250D02*
X208995Y333165D01*
X179500Y329250D02*
X205080D01*
X186173Y333826D02*
X202585D01*
X197121Y342617D02*
X200713Y339025D01*
X191103Y342617D02*
X197121D01*
X205460Y336701D02*
X205644D01*
X202585Y333826D02*
X205460Y336701D01*
X180250Y339750D02*
X186173Y333826D01*
X200897Y339025D02*
X202108Y340236D01*
X200713Y339025D02*
X200897D01*
X237147Y317853D02*
X238000Y317000D01*
X237147Y317853D02*
Y321206D01*
X232442Y325910D02*
Y326094D01*
Y325910D02*
X237147Y321206D01*
X243050Y336701D02*
X243233D01*
X261329Y338786D02*
X265043Y342500D01*
X248034Y338786D02*
X261329D01*
X246585Y340236D02*
X248034Y338786D01*
X169500Y312000D02*
X169750Y312250D01*
X246585Y349358D02*
X248035Y350807D01*
X262850D01*
X243050Y352893D02*
X249026Y358870D01*
X260370D01*
X265750Y364250D01*
X239514Y356429D02*
X246692Y363608D01*
X253607D01*
X265500Y375500D01*
X247647Y368148D02*
X255250Y375750D01*
X235978Y359964D02*
X244162Y368148D01*
X247647D01*
X245000Y376154D02*
Y376250D01*
X232442Y363596D02*
X245000Y376154D01*
X233600Y371729D02*
Y375600D01*
X234500Y376500D01*
X232442Y363500D02*
Y363596D01*
X228907Y367036D02*
X233600Y371729D01*
X218336Y368485D02*
X219786Y367036D01*
X218336Y368485D02*
Y368669D01*
X219786Y370119D01*
Y378786D01*
X224500Y383500D01*
Y384500D01*
X275750Y447000D02*
X285750D01*
X286750Y446000D01*
X200658Y350807D02*
X202108Y349358D01*
X192352Y350807D02*
X200658D01*
X318000Y77500D02*
Y88579D01*
Y68738D02*
Y77500D01*
X336829Y69750D02*
X359250D01*
X318000Y88579D02*
X336829Y69750D01*
X294000Y67250D02*
X316512D01*
X318000Y68738D01*
X291750Y65000D02*
X294000Y67250D01*
X291750Y52000D02*
Y65000D01*
D21*
X54500Y270500D02*
D03*
X70500D02*
D03*
X54500Y285750D02*
D03*
X70500D02*
D03*
X111500Y299500D02*
D03*
X127500D02*
D03*
X286750Y446000D02*
D03*
X302750D02*
D03*
X166500Y331000D02*
D03*
X150500D02*
D03*
X278750Y395750D02*
D03*
X294750D02*
D03*
X196500Y384500D02*
D03*
X180500D02*
D03*
X208500D02*
D03*
X224500D02*
D03*
D22*
X389750Y39000D02*
D03*
Y23000D02*
D03*
X372000Y147000D02*
D03*
Y163000D02*
D03*
X372000Y114750D02*
D03*
Y130750D02*
D03*
X358000Y114750D02*
D03*
Y130750D02*
D03*
Y147000D02*
D03*
Y163000D02*
D03*
X211500Y32750D02*
D03*
Y48750D02*
D03*
X151250Y49250D02*
D03*
Y33250D02*
D03*
X260250Y296500D02*
D03*
Y312500D02*
D03*
X188500Y296250D02*
D03*
Y312250D02*
D03*
X166500Y361250D02*
D03*
Y345250D02*
D03*
Y373250D02*
D03*
Y389250D02*
D03*
X232750Y427750D02*
D03*
Y411750D02*
D03*
X217500Y427750D02*
D03*
Y411750D02*
D03*
X263500Y427750D02*
D03*
Y411750D02*
D03*
X248000Y427750D02*
D03*
Y411750D02*
D03*
X363250Y452750D02*
D03*
Y436750D02*
D03*
D23*
X319300Y271500D02*
D03*
Y291500D02*
D03*
D24*
X299300Y273500D02*
D03*
Y289500D02*
D03*
X359250Y53750D02*
D03*
Y69750D02*
D03*
X377250Y79750D02*
D03*
Y63750D02*
D03*
X260000Y36750D02*
D03*
Y52750D02*
D03*
X244000Y36750D02*
D03*
Y52750D02*
D03*
X228000Y36500D02*
D03*
Y52500D02*
D03*
X215250Y302250D02*
D03*
Y286250D02*
D03*
X96500Y384119D02*
D03*
Y368119D02*
D03*
X80250Y384119D02*
D03*
Y368119D02*
D03*
X91500Y273000D02*
D03*
Y257000D02*
D03*
X233250Y302250D02*
D03*
Y286250D02*
D03*
X509250Y112250D02*
D03*
Y128250D02*
D03*
X509750Y165500D02*
D03*
Y181500D02*
D03*
D25*
X291750Y52000D02*
D03*
X307750D02*
D03*
X341250D02*
D03*
X325250D02*
D03*
X113000Y71750D02*
D03*
X97000D02*
D03*
X113000Y55500D02*
D03*
X97000D02*
D03*
X113000Y39500D02*
D03*
X97000D02*
D03*
X82500Y94000D02*
D03*
X98500D02*
D03*
X129600Y133050D02*
D03*
X113600D02*
D03*
X129600Y116800D02*
D03*
X113600D02*
D03*
X134750Y256750D02*
D03*
X118750D02*
D03*
X289500Y348750D02*
D03*
X305500D02*
D03*
X122400Y318800D02*
D03*
X106400D02*
D03*
X122400Y334800D02*
D03*
X106400D02*
D03*
X509250Y92000D02*
D03*
X493250D02*
D03*
D26*
X193000Y32000D02*
D03*
X170000D02*
D03*
Y50000D02*
D03*
X193000D02*
D03*
X169500Y294000D02*
D03*
X146500D02*
D03*
Y312000D02*
D03*
X169500D02*
D03*
D27*
X120250Y157500D02*
D03*
Y171500D02*
D03*
X89250D02*
D03*
Y157500D02*
D03*
D28*
X159500Y269750D02*
D03*
X179500D02*
D03*
D29*
X321500Y321750D02*
D03*
X292500D02*
D03*
D30*
X60500Y232300D02*
D03*
Y219600D02*
D03*
Y206900D02*
D03*
Y194200D02*
D03*
X108500Y232300D02*
D03*
Y219600D02*
D03*
Y206900D02*
D03*
Y194200D02*
D03*
D31*
X122750Y357500D02*
D03*
Y386500D02*
D03*
D32*
X219786Y367036D02*
D03*
X216250Y363500D02*
D03*
X202108Y349358D02*
D03*
X205644Y352893D02*
D03*
X212714Y359965D02*
D03*
X209179Y356429D02*
D03*
X235978Y329630D02*
D03*
X239514Y333165D02*
D03*
X232442Y326094D02*
D03*
X228907Y322559D02*
D03*
X243050Y336701D02*
D03*
X246585Y340236D02*
D03*
D33*
X228907Y367036D02*
D03*
X232442Y363500D02*
D03*
X246585Y349358D02*
D03*
X243050Y352893D02*
D03*
X235978Y359964D02*
D03*
X239514Y356429D02*
D03*
X202108Y340236D02*
D03*
X205644Y336701D02*
D03*
X219786Y322559D02*
D03*
X216250Y326094D02*
D03*
X209179Y333165D02*
D03*
X212714Y329630D02*
D03*
D34*
X224347Y344797D02*
D03*
D35*
X179750Y245350D02*
D03*
X184750D02*
D03*
X189750D02*
D03*
X194750D02*
D03*
X199750D02*
D03*
X204750D02*
D03*
X209750D02*
D03*
X214750D02*
D03*
X219750D02*
D03*
X224750D02*
D03*
X229750D02*
D03*
X234750D02*
D03*
X239750D02*
D03*
X244750D02*
D03*
X249750D02*
D03*
X254750D02*
D03*
X259750D02*
D03*
X264750D02*
D03*
X269750D02*
D03*
X274750D02*
D03*
X279750D02*
D03*
X284750D02*
D03*
X289750D02*
D03*
X294750D02*
D03*
X299750D02*
D03*
Y91750D02*
D03*
X294750D02*
D03*
X289750D02*
D03*
X284750D02*
D03*
X279750D02*
D03*
X274750D02*
D03*
X269750D02*
D03*
X264750D02*
D03*
X259750D02*
D03*
X254750D02*
D03*
X249750D02*
D03*
X244750D02*
D03*
X239750D02*
D03*
X234750D02*
D03*
X229750D02*
D03*
X224750D02*
D03*
X219750D02*
D03*
X214750D02*
D03*
X209750D02*
D03*
X204750D02*
D03*
X199750D02*
D03*
X194750D02*
D03*
X189750D02*
D03*
X184750D02*
D03*
X179750D02*
D03*
D36*
X162950Y108550D02*
D03*
Y113550D02*
D03*
Y118550D02*
D03*
Y123550D02*
D03*
Y128550D02*
D03*
Y133550D02*
D03*
Y138550D02*
D03*
Y143550D02*
D03*
Y148550D02*
D03*
Y153550D02*
D03*
Y158550D02*
D03*
Y163550D02*
D03*
Y168550D02*
D03*
Y173550D02*
D03*
Y178550D02*
D03*
Y183550D02*
D03*
Y188550D02*
D03*
Y193550D02*
D03*
Y198550D02*
D03*
Y203550D02*
D03*
Y208550D02*
D03*
Y213550D02*
D03*
Y218550D02*
D03*
Y223550D02*
D03*
Y228550D02*
D03*
X316550D02*
D03*
Y223550D02*
D03*
Y218550D02*
D03*
Y213550D02*
D03*
Y208550D02*
D03*
Y203550D02*
D03*
Y198550D02*
D03*
Y193550D02*
D03*
Y188550D02*
D03*
Y183550D02*
D03*
Y178550D02*
D03*
Y173550D02*
D03*
Y168550D02*
D03*
Y163550D02*
D03*
Y158550D02*
D03*
Y153550D02*
D03*
Y148550D02*
D03*
Y143550D02*
D03*
Y138550D02*
D03*
Y133550D02*
D03*
Y128550D02*
D03*
Y123550D02*
D03*
Y118550D02*
D03*
Y113550D02*
D03*
Y108550D02*
D03*
D37*
X407750Y57000D02*
D03*
Y76000D02*
D03*
X430750D02*
D03*
Y66500D02*
D03*
Y57000D02*
D03*
X407500Y22750D02*
D03*
Y41750D02*
D03*
X430500D02*
D03*
Y32250D02*
D03*
Y22750D02*
D03*
D38*
X439750Y527750D02*
D03*
D39*
X473750Y433250D02*
D03*
X456750D02*
D03*
X439750D02*
D03*
X422750D02*
D03*
X405750D02*
D03*
D40*
X343750Y426250D02*
D03*
Y449250D02*
D03*
D41*
X495250Y264500D02*
D03*
X395250D02*
D03*
D42*
X423435Y374750D02*
D03*
X352065D02*
D03*
D80*
X228125Y52625D02*
X259875D01*
X248000Y427750D02*
X263500D01*
X232750D02*
X248000D01*
X217500D02*
X232750D01*
X415750Y66500D02*
X430750D01*
X415750Y66500D02*
X415750Y66500D01*
X411750Y32250D02*
X430500D01*
X411250Y32750D02*
X411750Y32250D01*
X260000Y52750D02*
X260250Y53000D01*
X274500D01*
X274750Y53250D01*
X430500Y22750D02*
X443821D01*
X446750Y25679D01*
Y44679D01*
X430500Y41750D02*
X443821D01*
X446750Y44679D01*
Y59929D01*
X430750Y57000D02*
X443821D01*
X446750Y59929D01*
Y75250D01*
X430750Y76000D02*
X431250Y75500D01*
X441500D01*
X441750Y75250D01*
X446750D01*
X472000Y100500D02*
Y144500D01*
X446750Y75250D02*
X472000Y100500D01*
X488250Y128250D02*
X509250D01*
X472000Y144500D02*
X488250Y128250D01*
D81*
X27750Y127200D02*
Y173450D01*
Y127200D02*
X42750Y112200D01*
X56750D01*
X445000Y404750D02*
X445574Y405324D01*
X450824D01*
X456750Y411250D01*
Y433250D01*
X390250Y81500D02*
Y93250D01*
X388500Y79750D02*
X390250Y81500D01*
X287000Y299250D02*
Y324250D01*
X288500Y325750D02*
X288750Y325500D01*
X287000Y324250D02*
X288500Y325750D01*
X300500Y373250D02*
X300500Y373250D01*
X289500Y373250D02*
X300500D01*
X380079Y22875D02*
X389625D01*
X374000Y28954D02*
X380079Y22875D01*
X374000Y28954D02*
Y44750D01*
X130250Y178500D02*
X136750D01*
X123250Y171500D02*
X130250Y178500D01*
X120250Y171500D02*
X123250D01*
X96875Y55375D02*
X97000Y55500D01*
X83625Y55375D02*
X96875D01*
X83500Y55250D02*
X83625Y55375D01*
X96500Y39000D02*
X97000Y39500D01*
X96500Y25500D02*
Y39000D01*
X96000Y25000D02*
X96500Y25500D01*
X89250Y171500D02*
X89250Y171500D01*
X104500D01*
X104500Y171500D01*
X316550Y229150D02*
Y249950D01*
X300300Y273500D02*
X302300Y271500D01*
X299300Y273500D02*
X300300D01*
X302300Y264200D02*
Y271500D01*
Y264200D02*
X316550Y249950D01*
X298300Y273500D02*
X299300D01*
X283624Y288176D02*
X298300Y273500D01*
X279324Y288176D02*
X283624D01*
X278750Y288750D02*
X279324Y288176D01*
X166000Y403250D02*
X166250Y403000D01*
Y389500D02*
Y403000D01*
Y389500D02*
X166500Y389250D01*
X166375Y345125D02*
X166500Y345250D01*
X151125Y345125D02*
X166375D01*
X151000Y345000D02*
X151125Y345125D01*
X217375Y399375D02*
Y411625D01*
X217500Y411750D01*
X217250Y399250D02*
X217375Y399375D01*
X247875Y398875D02*
Y411625D01*
X247750Y398750D02*
X247875Y398875D01*
X166500Y331000D02*
Y345250D01*
X224500Y384500D02*
X260063D01*
X271314Y395750D01*
X289500Y348750D02*
Y373250D01*
X278750Y384000D02*
Y395750D01*
Y384000D02*
X289500Y373250D01*
X271314Y395750D02*
X278750D01*
X263250Y411500D02*
X263500Y411750D01*
X263250Y399000D02*
Y411500D01*
X263000Y398750D02*
X263250Y399000D01*
X247875Y411625D02*
X248000Y411750D01*
X232625Y411625D02*
X232750Y411750D01*
X232625Y398875D02*
Y411625D01*
X232500Y398750D02*
X232625Y398875D01*
X120500Y386500D02*
X122750D01*
X115000Y392000D02*
X120500Y386500D01*
X115000Y392000D02*
Y403750D01*
X96500Y384119D02*
X120369D01*
X122750Y386500D01*
X80250Y384119D02*
X96500D01*
Y407450D01*
X109150Y420100D01*
X95989Y445500D02*
X96450D01*
X87034Y436545D02*
X95989Y445500D01*
X80295Y436545D02*
X87034D01*
X70750Y427000D02*
X80295Y436545D01*
X70750Y411500D02*
Y427000D01*
X80250Y384119D02*
Y402000D01*
X70750Y411500D02*
X80250Y402000D01*
X180500Y384500D02*
Y385500D01*
X176750Y389250D02*
X180500Y385500D01*
X166500Y389250D02*
X176750D01*
X288750Y348000D02*
X289500Y348750D01*
X288750Y325500D02*
Y348000D01*
Y325500D02*
X292500Y321750D01*
X389625Y22875D02*
X389750Y23000D01*
X407375Y22875D02*
X407500Y22750D01*
X389875Y22875D02*
X407375D01*
X389750Y23000D02*
X389875Y22875D01*
X377250Y79750D02*
X388500D01*
X393000Y75250D01*
Y57000D02*
Y75250D01*
X389500Y39250D02*
X389750Y39000D01*
X389500Y39250D02*
Y53500D01*
X393000Y57000D01*
X407750D01*
X363250Y426593D02*
Y436750D01*
X343750Y426250D02*
X345750Y424250D01*
X360907D01*
X363250Y426593D01*
Y452750D02*
X364250D01*
X377625Y466125D01*
X382125D01*
D82*
X476875Y181500D02*
X509750D01*
X472000Y186375D02*
X476875Y181500D01*
X480250Y249500D02*
X495250Y264500D01*
X480250Y194625D02*
Y249500D01*
X472000Y186375D02*
X480250Y194625D01*
X472000Y144500D02*
Y186375D01*
X423435Y369670D02*
Y374750D01*
X395250Y341485D02*
X423435Y369670D01*
X395250Y264500D02*
Y341485D01*
X422750Y433250D02*
X423000Y433000D01*
Y375185D02*
Y433000D01*
Y375185D02*
X423435Y374750D01*
X382125Y466125D02*
X390750Y457500D01*
X356750Y491500D02*
X382125Y466125D01*
X390750Y439108D02*
Y457500D01*
X405750Y433250D02*
Y438858D01*
X405500Y439108D02*
X405750Y438858D01*
X390750Y439108D02*
X405500D01*
X326000Y491500D02*
X356750D01*
X241500Y462000D02*
X271000Y491500D01*
X326000D01*
D83*
X56750Y137600D02*
D03*
Y163000D02*
D03*
X353250Y261650D02*
D03*
Y236250D02*
D03*
D84*
X56750Y112200D02*
D03*
X353250Y210850D02*
D03*
D85*
X40250Y337750D02*
D03*
Y37500D02*
D03*
X486750Y39500D02*
D03*
Y370000D02*
D03*
D86*
X326000Y541500D02*
D03*
X422000Y144500D02*
D03*
D87*
X326000Y491500D02*
D03*
D88*
X472000Y144500D02*
D03*
D89*
X216500Y512000D02*
D03*
X241500Y462000D02*
D03*
D90*
X159900Y509000D02*
D03*
X45600D02*
D03*
D91*
X25300Y478500D02*
D03*
X180200D02*
D03*
D92*
X61900Y558000D02*
D03*
X36500D02*
D03*
X143600D02*
D03*
X169000D02*
D03*
D93*
X58350Y420100D02*
D03*
X71050Y445500D02*
D03*
X83750Y420100D02*
D03*
X96450Y445500D02*
D03*
X109150Y420100D02*
D03*
X121850Y445500D02*
D03*
X134550Y420100D02*
D03*
D94*
X147250Y445500D02*
D03*
D95*
X344650Y29000D02*
D03*
X319250D02*
D03*
X27750Y173450D02*
D03*
Y198850D02*
D03*
Y224250D02*
D03*
Y249650D02*
D03*
D96*
X293850Y29000D02*
D03*
D97*
X27750Y275050D02*
D03*
D98*
X135000Y269030D02*
D03*
X260037Y124537D02*
D03*
X266000Y352750D02*
D03*
X145750Y241500D02*
D03*
X445000Y404750D02*
D03*
X187020Y356770D02*
D03*
X247750Y74250D02*
D03*
X494500Y107750D02*
D03*
X232750Y344750D02*
D03*
X224250Y353250D02*
D03*
X215500Y345000D02*
D03*
X384000Y104000D02*
D03*
X346500Y133250D02*
D03*
X281750Y125000D02*
D03*
X390250Y93250D02*
D03*
X287000Y299250D02*
D03*
X198250Y269750D02*
D03*
X257500Y329750D02*
D03*
X266250Y342500D02*
D03*
X190250Y343230D02*
D03*
X300500Y373250D02*
D03*
X374000Y44750D02*
D03*
X161500Y239500D02*
D03*
X128000Y219000D02*
D03*
X146750Y187250D02*
D03*
X136750Y178500D02*
D03*
X83500Y55250D02*
D03*
X96000Y25000D02*
D03*
X104500Y171500D02*
D03*
X129250Y102000D02*
D03*
X204750Y109750D02*
D03*
X274750Y53250D02*
D03*
X230000Y114250D02*
D03*
X245000Y109000D02*
D03*
X273000Y117500D02*
D03*
X293500Y116000D02*
D03*
X297000Y220750D02*
D03*
X278750Y288750D02*
D03*
Y276000D02*
D03*
Y262000D02*
D03*
X201000Y296750D02*
D03*
X357750Y174750D02*
D03*
X386250Y164000D02*
D03*
X385000Y136000D02*
D03*
X247250Y299750D02*
D03*
X166000Y403250D02*
D03*
X137500Y328000D02*
D03*
X224000Y315250D02*
D03*
X179500Y329250D02*
D03*
X180250Y339750D02*
D03*
X151000Y345000D02*
D03*
X238000Y317000D02*
D03*
X217250Y399250D02*
D03*
X247750Y398750D02*
D03*
X188071Y414821D02*
D03*
X265750Y364250D02*
D03*
X265500Y375500D02*
D03*
X255250Y375750D02*
D03*
X245000Y376250D02*
D03*
X234500Y376500D02*
D03*
X275750Y447000D02*
D03*
X263000Y398750D02*
D03*
X232500D02*
D03*
X115000Y403750D02*
D03*
X181000Y407750D02*
D03*
D99*
X511001Y561751D02*
D03*
Y543751D02*
D03*
Y525751D02*
D03*
Y507751D02*
D03*
Y489751D02*
D03*
X502001Y561751D02*
D03*
X506501Y552751D02*
D03*
X502001Y543751D02*
D03*
X506501Y534751D02*
D03*
X502001Y525751D02*
D03*
X506501Y516751D02*
D03*
X502001Y507751D02*
D03*
X506501Y498751D02*
D03*
X502001Y489751D02*
D03*
X376001Y561751D02*
D03*
X380501Y552751D02*
D03*
X376001Y543751D02*
D03*
X380501Y534751D02*
D03*
X376001Y525751D02*
D03*
X380501Y516751D02*
D03*
X376001Y507751D02*
D03*
X380501Y498751D02*
D03*
X376001Y489751D02*
D03*
X367001Y561751D02*
D03*
X371501Y552751D02*
D03*
X367001Y543751D02*
D03*
X371501Y534751D02*
D03*
X367001Y525751D02*
D03*
X371501Y516751D02*
D03*
X367001Y507751D02*
D03*
X371501Y498751D02*
D03*
M02*
