G04*
G04 #@! TF.GenerationSoftware,Altium Limited,Altium Designer,20.0.13 (296)*
G04*
G04 Layer_Color=8421504*
%FSLAX44Y44*%
%MOMM*%
G71*
G01*
G75*
%ADD21R,1.1000X1.2500*%
%ADD22R,0.7000X0.9000*%
%ADD23R,0.9000X0.7000*%
%ADD24R,4.2000X0.6000*%
%ADD25R,2.2000X0.6000*%
%ADD26R,0.7620X0.7620*%
%ADD27R,0.7620X0.7620*%
%ADD28R,0.8000X1.1000*%
%ADD29R,1.1000X0.8000*%
%ADD30R,0.8000X1.0000*%
%ADD31R,1.4000X1.0000*%
%ADD32R,1.0000X0.8000*%
%ADD33R,1.3000X1.1000*%
%ADD34R,1.0000X1.4000*%
%ADD35R,1.5000X2.4000*%
%ADD36R,2.4000X1.5000*%
G04:AMPARAMS|DCode=37|XSize=0.28mm|YSize=0.69mm|CornerRadius=0.07mm|HoleSize=0mm|Usage=FLASHONLY|Rotation=45.000|XOffset=0mm|YOffset=0mm|HoleType=Round|Shape=RoundedRectangle|*
%AMROUNDEDRECTD37*
21,1,0.2800,0.5500,0,0,45.0*
21,1,0.1400,0.6900,0,0,45.0*
1,1,0.1400,0.2439,-0.1450*
1,1,0.1400,0.1450,-0.2439*
1,1,0.1400,-0.2439,0.1450*
1,1,0.1400,-0.1450,0.2439*
%
%ADD37ROUNDEDRECTD37*%
G04:AMPARAMS|DCode=38|XSize=0.28mm|YSize=0.69mm|CornerRadius=0.07mm|HoleSize=0mm|Usage=FLASHONLY|Rotation=135.000|XOffset=0mm|YOffset=0mm|HoleType=Round|Shape=RoundedRectangle|*
%AMROUNDEDRECTD38*
21,1,0.2800,0.5500,0,0,135.0*
21,1,0.1400,0.6900,0,0,135.0*
1,1,0.1400,0.1450,0.2439*
1,1,0.1400,0.2439,0.1450*
1,1,0.1400,-0.1450,-0.2439*
1,1,0.1400,-0.2439,-0.1450*
%
%ADD38ROUNDEDRECTD38*%
%ADD39P,3.2329X4X90.0*%
G04:AMPARAMS|DCode=40|XSize=1.56mm|YSize=0.28mm|CornerRadius=0.035mm|HoleSize=0mm|Usage=FLASHONLY|Rotation=90.000|XOffset=0mm|YOffset=0mm|HoleType=Round|Shape=RoundedRectangle|*
%AMROUNDEDRECTD40*
21,1,1.5600,0.2100,0,0,90.0*
21,1,1.4900,0.2800,0,0,90.0*
1,1,0.0700,0.1050,0.7450*
1,1,0.0700,0.1050,-0.7450*
1,1,0.0700,-0.1050,-0.7450*
1,1,0.0700,-0.1050,0.7450*
%
%ADD40ROUNDEDRECTD40*%
G04:AMPARAMS|DCode=41|XSize=1.56mm|YSize=0.28mm|CornerRadius=0.035mm|HoleSize=0mm|Usage=FLASHONLY|Rotation=180.000|XOffset=0mm|YOffset=0mm|HoleType=Round|Shape=RoundedRectangle|*
%AMROUNDEDRECTD41*
21,1,1.5600,0.2100,0,0,180.0*
21,1,1.4900,0.2800,0,0,180.0*
1,1,0.0700,-0.7450,0.1050*
1,1,0.0700,0.7450,0.1050*
1,1,0.0700,0.7450,-0.1050*
1,1,0.0700,-0.7450,-0.1050*
%
%ADD41ROUNDEDRECTD41*%
%ADD42R,1.2000X0.6000*%
%ADD43R,10.4500X8.3000*%
%ADD44R,1.0500X3.2000*%
%ADD45R,4.0000X7.0000*%
%ADD46R,2.7940X3.8100*%
G36*
X411875Y143125D02*
Y137875D01*
X400625D01*
Y143125D01*
X411875D01*
D02*
G37*
G36*
Y162125D02*
Y156875D01*
X400625D01*
Y162125D01*
X411875D01*
D02*
G37*
G36*
X434875Y143125D02*
Y137875D01*
X423625D01*
Y143125D01*
X434875D01*
D02*
G37*
G36*
Y152625D02*
Y147375D01*
X423625D01*
Y152625D01*
X434875D01*
D02*
G37*
G36*
Y162125D02*
Y156875D01*
X423625D01*
Y162125D01*
X434875D01*
D02*
G37*
G36*
X435125Y191125D02*
X423875D01*
Y196375D01*
X435125D01*
Y191125D01*
D02*
G37*
G36*
X412125D02*
X400875D01*
Y196375D01*
X412125D01*
Y191125D01*
D02*
G37*
G36*
X435125Y181625D02*
X423875D01*
Y186875D01*
X435125D01*
Y181625D01*
D02*
G37*
G36*
Y172125D02*
X423875D01*
Y177375D01*
X435125D01*
Y172125D01*
D02*
G37*
G36*
X412125D02*
X400875D01*
Y177375D01*
X412125D01*
Y172125D01*
D02*
G37*
D21*
X127250Y282500D02*
D03*
Y259500D02*
D03*
X98750Y282500D02*
D03*
Y259500D02*
D03*
X70250Y282500D02*
D03*
Y259500D02*
D03*
X343750Y540250D02*
D03*
Y563250D02*
D03*
D22*
X346750Y186750D02*
D03*
X330750D02*
D03*
X331000Y170500D02*
D03*
X347000D02*
D03*
X474750Y95750D02*
D03*
X490750D02*
D03*
X446250Y91500D02*
D03*
X430250D02*
D03*
X111500Y142750D02*
D03*
X95500D02*
D03*
X98750Y200500D02*
D03*
X114750D02*
D03*
X367750Y255000D02*
D03*
X351750D02*
D03*
X59000Y384250D02*
D03*
X75000D02*
D03*
X59000Y399500D02*
D03*
X75000D02*
D03*
X294750Y187250D02*
D03*
X310750D02*
D03*
X111500Y413500D02*
D03*
X127500D02*
D03*
X286750Y560000D02*
D03*
X302750D02*
D03*
X166500Y445000D02*
D03*
X150500D02*
D03*
X278750Y509750D02*
D03*
X294750D02*
D03*
X196500Y498500D02*
D03*
X180500D02*
D03*
X208500D02*
D03*
X224500D02*
D03*
D23*
X66250Y239250D02*
D03*
Y223250D02*
D03*
X49750Y238750D02*
D03*
Y222750D02*
D03*
X81000Y239500D02*
D03*
Y223500D02*
D03*
X143250Y254750D02*
D03*
Y270750D02*
D03*
X151500Y196250D02*
D03*
Y180250D02*
D03*
X507750Y190000D02*
D03*
Y206000D02*
D03*
Y233000D02*
D03*
Y217000D02*
D03*
X461750Y106750D02*
D03*
Y90750D02*
D03*
X509000Y130000D02*
D03*
Y114000D02*
D03*
X112250Y240250D02*
D03*
Y224250D02*
D03*
X64500Y189750D02*
D03*
Y173750D02*
D03*
X314750Y137250D02*
D03*
Y153250D02*
D03*
X299000D02*
D03*
Y137250D02*
D03*
X44250Y137000D02*
D03*
Y153000D02*
D03*
X28500Y153000D02*
D03*
Y137000D02*
D03*
X368500Y269250D02*
D03*
Y285250D02*
D03*
X383500Y157250D02*
D03*
Y141250D02*
D03*
X337750Y316250D02*
D03*
Y332250D02*
D03*
X353250Y269000D02*
D03*
Y285000D02*
D03*
X354750Y316250D02*
D03*
Y332250D02*
D03*
X211500Y146750D02*
D03*
Y162750D02*
D03*
X151250Y163250D02*
D03*
Y147250D02*
D03*
X260250Y410500D02*
D03*
Y426500D02*
D03*
X188500Y410250D02*
D03*
Y426250D02*
D03*
X166500Y475250D02*
D03*
Y459250D02*
D03*
Y487250D02*
D03*
Y503250D02*
D03*
X232750Y541750D02*
D03*
Y525750D02*
D03*
X217500Y541750D02*
D03*
Y525750D02*
D03*
X263500Y541750D02*
D03*
Y525750D02*
D03*
X248000Y541750D02*
D03*
Y525750D02*
D03*
X363250Y566750D02*
D03*
Y550750D02*
D03*
D24*
X118500Y308200D02*
D03*
Y320900D02*
D03*
Y333600D02*
D03*
Y346300D02*
D03*
D25*
X60500Y308200D02*
D03*
Y320900D02*
D03*
Y333600D02*
D03*
Y346300D02*
D03*
D26*
X447750Y124050D02*
D03*
Y105000D02*
D03*
X424890Y114525D02*
D03*
D27*
X64475Y159860D02*
D03*
X83525D02*
D03*
X74000Y137000D02*
D03*
D28*
X115750Y186000D02*
D03*
X96750D02*
D03*
X106250Y163500D02*
D03*
D29*
X468500Y121750D02*
D03*
X491000Y131250D02*
D03*
Y112250D02*
D03*
D30*
X342750Y238000D02*
D03*
X358750D02*
D03*
X347500Y203000D02*
D03*
X331500D02*
D03*
X134750Y370750D02*
D03*
X118750D02*
D03*
X289000Y487500D02*
D03*
X305000D02*
D03*
X122400Y432800D02*
D03*
X106400D02*
D03*
X122400Y448800D02*
D03*
X106400D02*
D03*
D31*
X296250Y399250D02*
D03*
Y419250D02*
D03*
D32*
X327000Y366250D02*
D03*
Y382250D02*
D03*
X377250Y193750D02*
D03*
Y177750D02*
D03*
X268000Y150500D02*
D03*
Y166500D02*
D03*
X248250Y150500D02*
D03*
Y166500D02*
D03*
X228000Y150500D02*
D03*
Y166500D02*
D03*
X131750Y234000D02*
D03*
Y218000D02*
D03*
X215250Y416250D02*
D03*
Y400250D02*
D03*
X96500Y498119D02*
D03*
Y482119D02*
D03*
X80250Y498119D02*
D03*
Y482119D02*
D03*
X91500Y387000D02*
D03*
Y371000D02*
D03*
X233250Y416250D02*
D03*
Y400250D02*
D03*
X509750Y279500D02*
D03*
Y295500D02*
D03*
D33*
X193000Y146000D02*
D03*
X170000D02*
D03*
Y164000D02*
D03*
X193000D02*
D03*
X169500Y408000D02*
D03*
X146500D02*
D03*
Y426000D02*
D03*
X169500D02*
D03*
D34*
X159500Y383750D02*
D03*
X179500D02*
D03*
D35*
X313250Y463750D02*
D03*
X284250D02*
D03*
D36*
X122750Y471500D02*
D03*
Y500500D02*
D03*
D37*
X219786Y481036D02*
D03*
X216250Y477500D02*
D03*
X202108Y463358D02*
D03*
X205644Y466893D02*
D03*
X212714Y473965D02*
D03*
X209179Y470429D02*
D03*
X235978Y443629D02*
D03*
X239514Y447165D02*
D03*
X232442Y440094D02*
D03*
X228907Y436559D02*
D03*
X243050Y450701D02*
D03*
X246585Y454236D02*
D03*
D38*
X228907Y481036D02*
D03*
X232442Y477500D02*
D03*
X246585Y463358D02*
D03*
X243050Y466893D02*
D03*
X235978Y473964D02*
D03*
X239514Y470429D02*
D03*
X202108Y454236D02*
D03*
X205644Y450701D02*
D03*
X219786Y436559D02*
D03*
X216250Y440094D02*
D03*
X209179Y447165D02*
D03*
X212714Y443629D02*
D03*
D39*
X224347Y458797D02*
D03*
D40*
X179750Y359350D02*
D03*
X184750D02*
D03*
X189750D02*
D03*
X194750D02*
D03*
X199750D02*
D03*
X204750D02*
D03*
X209750D02*
D03*
X214750D02*
D03*
X219750D02*
D03*
X224750D02*
D03*
X229750D02*
D03*
X234750D02*
D03*
X239750D02*
D03*
X244750D02*
D03*
X249750D02*
D03*
X254750D02*
D03*
X259750D02*
D03*
X264750D02*
D03*
X269750D02*
D03*
X274750D02*
D03*
X279750D02*
D03*
X284750D02*
D03*
X289750D02*
D03*
X294750D02*
D03*
X299750D02*
D03*
Y205750D02*
D03*
X294750D02*
D03*
X289750D02*
D03*
X284750D02*
D03*
X279750D02*
D03*
X274750D02*
D03*
X269750D02*
D03*
X264750D02*
D03*
X259750D02*
D03*
X254750D02*
D03*
X249750D02*
D03*
X244750D02*
D03*
X239750D02*
D03*
X234750D02*
D03*
X229750D02*
D03*
X224750D02*
D03*
X219750D02*
D03*
X214750D02*
D03*
X209750D02*
D03*
X204750D02*
D03*
X199750D02*
D03*
X194750D02*
D03*
X189750D02*
D03*
X184750D02*
D03*
X179750D02*
D03*
D41*
X162950Y222550D02*
D03*
Y227550D02*
D03*
Y232550D02*
D03*
Y237550D02*
D03*
Y242550D02*
D03*
Y247550D02*
D03*
Y252550D02*
D03*
Y257550D02*
D03*
Y262550D02*
D03*
Y267550D02*
D03*
Y272550D02*
D03*
Y277550D02*
D03*
Y282550D02*
D03*
Y287550D02*
D03*
Y292550D02*
D03*
Y297550D02*
D03*
Y302550D02*
D03*
Y307550D02*
D03*
Y312550D02*
D03*
Y317550D02*
D03*
Y322550D02*
D03*
Y327550D02*
D03*
Y332550D02*
D03*
Y337550D02*
D03*
Y342550D02*
D03*
X316550D02*
D03*
Y337550D02*
D03*
Y332550D02*
D03*
Y327550D02*
D03*
Y322550D02*
D03*
Y317550D02*
D03*
Y312550D02*
D03*
Y307550D02*
D03*
Y302550D02*
D03*
Y297550D02*
D03*
Y292550D02*
D03*
Y287550D02*
D03*
Y282550D02*
D03*
Y277550D02*
D03*
Y272550D02*
D03*
Y267550D02*
D03*
Y262550D02*
D03*
Y257550D02*
D03*
Y252550D02*
D03*
Y247550D02*
D03*
Y242550D02*
D03*
Y237550D02*
D03*
Y232550D02*
D03*
Y227550D02*
D03*
Y222550D02*
D03*
D42*
X406500Y174750D02*
D03*
Y193750D02*
D03*
X429500D02*
D03*
Y184250D02*
D03*
Y174750D02*
D03*
X406250Y140500D02*
D03*
Y159500D02*
D03*
X429250D02*
D03*
Y150000D02*
D03*
Y140500D02*
D03*
D43*
X439750Y641750D02*
D03*
D44*
X473750Y547250D02*
D03*
X456750D02*
D03*
X439750D02*
D03*
X422750D02*
D03*
X405750D02*
D03*
D45*
X498750Y376500D02*
D03*
X398750D02*
D03*
D46*
X423435Y488750D02*
D03*
X352065D02*
D03*
M02*
