G04*
G04 #@! TF.GenerationSoftware,Altium Limited,Altium Designer,20.0.13 (296)*
G04*
G04 Layer_Color=65535*
%FSLAX44Y44*%
%MOMM*%
G71*
G01*
G75*
%ADD10C,0.1500*%
%ADD11C,0.2000*%
%ADD12C,0.2500*%
%ADD13C,0.6096*%
%ADD14C,0.3000*%
%ADD15C,0.2540*%
%ADD16C,0.1270*%
%ADD17C,0.1524*%
%ADD18C,0.1520*%
%ADD19R,0.5500X2.8000*%
%ADD20R,2.8001X0.5500*%
D10*
X329300Y299500D02*
G03*
X309316Y299576I-10047J-14270D01*
G01*
X309300Y263500D02*
G03*
X329284Y263424I10047J14270D01*
G01*
X291287Y266096D02*
G03*
X307200Y266200I7877J12168D01*
G01*
X307313Y297204D02*
G03*
X291400Y297100I-7877J-12168D01*
G01*
X351237Y46345D02*
G03*
X367150Y46450I7877J12168D01*
G01*
X367262Y77455D02*
G03*
X351350Y77350I-7877J-12168D01*
G01*
X385262Y87155D02*
G03*
X369350Y87050I-7877J-12168D01*
G01*
X369237Y56045D02*
G03*
X385150Y56150I7877J12168D01*
G01*
X251987Y29345D02*
G03*
X267900Y29450I7877J12168D01*
G01*
X268013Y60455D02*
G03*
X252100Y60350I-7877J-12168D01*
G01*
X235987Y29345D02*
G03*
X251900Y29450I7877J12168D01*
G01*
X252013Y60455D02*
G03*
X236100Y60350I-7877J-12168D01*
G01*
X219988Y29095D02*
G03*
X235900Y29200I7877J12168D01*
G01*
X236012Y60205D02*
G03*
X220100Y60100I-7877J-12168D01*
G01*
X137004Y108787D02*
G03*
X136900Y124700I-12168J7877D01*
G01*
X105895Y124812D02*
G03*
X106000Y108900I12168J-7877D01*
G01*
X142155Y248738D02*
G03*
X142050Y264650I-12168J7877D01*
G01*
X111046Y264762D02*
G03*
X111150Y248850I12168J-7877D01*
G01*
X187500Y259750D02*
G03*
X187576Y279734I-14270J10047D01*
G01*
X151500Y279750D02*
G03*
X151424Y259766I14270J-10047D01*
G01*
X282095Y356763D02*
G03*
X282200Y340850I12168J-7877D01*
G01*
X313204Y340737D02*
G03*
X313100Y356650I-12168J7877D01*
G01*
X223263Y309655D02*
G03*
X207350Y309550I-7877J-12168D01*
G01*
X207237Y278545D02*
G03*
X223150Y278650I7877J12168D01*
G01*
X129804Y310787D02*
G03*
X129700Y326700I-12168J7877D01*
G01*
X98695Y326813D02*
G03*
X98800Y310900I12168J-7877D01*
G01*
X129804Y326787D02*
G03*
X129700Y342700I-12168J7877D01*
G01*
X98695Y342812D02*
G03*
X98800Y326900I12168J-7877D01*
G01*
X104513Y391523D02*
G03*
X88600Y391418I-7877J-12168D01*
G01*
X88487Y360414D02*
G03*
X104400Y360518I7877J12168D01*
G01*
X88263Y391523D02*
G03*
X72350Y391419I-7877J-12168D01*
G01*
X72237Y360414D02*
G03*
X88150Y360519I7877J12168D01*
G01*
X99513Y280704D02*
G03*
X83600Y280600I-7877J-12168D01*
G01*
X83487Y249595D02*
G03*
X99400Y249700I7877J12168D01*
G01*
X241262Y309954D02*
G03*
X225350Y309850I-7877J-12168D01*
G01*
X225237Y278845D02*
G03*
X241150Y278950I7877J12168D01*
G01*
X501737Y158096D02*
G03*
X517650Y158200I7877J12168D01*
G01*
X517762Y189205D02*
G03*
X501850Y189100I-7877J-12168D01*
G01*
X329300Y263500D02*
Y299500D01*
X309300Y263500D02*
Y299500D01*
X315200Y279500D02*
X323300D01*
X315300Y283500D02*
X323300D01*
X307300Y266250D02*
Y297000D01*
X291300Y266250D02*
Y297000D01*
X296600Y280100D02*
X301900D01*
X296600Y282900D02*
X301900D01*
X284500Y44000D02*
X315250D01*
Y60000D01*
X284500D02*
X315250D01*
X284500Y44000D02*
Y60000D01*
X297750Y50000D02*
Y54250D01*
X301750D01*
Y50000D02*
Y54250D01*
X297750Y50000D02*
X301750D01*
X367250Y46500D02*
Y77250D01*
X351250Y46500D02*
Y77250D01*
X356550Y60350D02*
X361850D01*
X356550Y63150D02*
X361850D01*
X369250Y56250D02*
Y87000D01*
X385250Y56250D02*
Y87000D01*
X374650Y73150D02*
X379950D01*
X374650Y70350D02*
X379950D01*
X317750Y60000D02*
X348500D01*
X317750Y44000D02*
Y60000D01*
Y44000D02*
X348500D01*
Y60000D01*
X335250Y49750D02*
Y54000D01*
X331250Y49750D02*
X335250D01*
X331250D02*
Y54000D01*
X335250D01*
X268000Y29500D02*
Y60250D01*
X252000Y29500D02*
Y60250D01*
X257300Y43350D02*
X262600D01*
X257300Y46150D02*
X262600D01*
X252000Y29500D02*
Y60250D01*
X236000Y29500D02*
Y60250D01*
X241300Y43350D02*
X246600D01*
X241300Y46150D02*
X246600D01*
X236000Y29250D02*
Y60000D01*
X220000Y29250D02*
Y60000D01*
X225300Y43100D02*
X230600D01*
X225300Y45900D02*
X230600D01*
X89500Y79750D02*
X120250D01*
X89500Y63750D02*
Y79750D01*
Y63750D02*
X120250D01*
Y79750D01*
X107000Y69500D02*
Y73750D01*
X103000Y69500D02*
X107000D01*
X103000D02*
Y73750D01*
X107000D01*
X89500Y63500D02*
X120250D01*
X89500Y47500D02*
Y63500D01*
Y47500D02*
X120250D01*
Y63500D01*
X107000Y53250D02*
Y57500D01*
X103000Y53250D02*
X107000D01*
X103000D02*
Y57500D01*
X107000D01*
X89500Y47500D02*
X120250D01*
X89500Y31500D02*
Y47500D01*
Y31500D02*
X120250D01*
Y47500D01*
X107000Y37250D02*
Y41500D01*
X103000Y37250D02*
X107000D01*
X103000D02*
Y41500D01*
X107000D01*
X75250Y86000D02*
X106000D01*
Y102000D01*
X75250D02*
X106000D01*
X75250Y86000D02*
Y102000D01*
X88500Y92000D02*
Y96250D01*
X92500D01*
Y92000D02*
Y96250D01*
X88500Y92000D02*
X92500D01*
X106100Y141050D02*
X136850D01*
X106100Y125050D02*
Y141050D01*
Y125050D02*
X136850D01*
Y141050D01*
X123600Y130800D02*
Y135050D01*
X119600Y130800D02*
X123600D01*
X119600D02*
Y135050D01*
X123600D01*
X106100Y124800D02*
X136850D01*
X106100Y108800D02*
X136850D01*
X123000Y114100D02*
Y119400D01*
X120200Y114100D02*
Y119400D01*
X111250Y264750D02*
X142000D01*
X111250Y248750D02*
X142000D01*
X128150Y254050D02*
Y259350D01*
X125350Y254050D02*
Y259350D01*
X151500Y259750D02*
X187500D01*
X151500Y279750D02*
X187500D01*
X167500Y265750D02*
Y273850D01*
X171500Y265750D02*
Y273750D01*
X282250Y340750D02*
X313000D01*
X282250Y356750D02*
X313000D01*
X296100Y346150D02*
Y351450D01*
X298900Y346150D02*
Y351450D01*
X207250Y278750D02*
Y309500D01*
X223250Y278750D02*
Y309500D01*
X212650Y295650D02*
X217950D01*
X212650Y292850D02*
X217950D01*
X98900Y326800D02*
X129650D01*
X98900Y310800D02*
X129650D01*
X115800Y316100D02*
Y321400D01*
X113000Y316100D02*
Y321400D01*
X98900Y342800D02*
X129650D01*
X98900Y326800D02*
X129650D01*
X115800Y332100D02*
Y337400D01*
X113000Y332100D02*
Y337400D01*
X88500Y360619D02*
Y391369D01*
X104500Y360619D02*
Y391369D01*
X93900Y377519D02*
X99200D01*
X93900Y374719D02*
X99200D01*
X72250Y360619D02*
Y391369D01*
X88250Y360619D02*
Y391369D01*
X77650Y377519D02*
X82950D01*
X77650Y374719D02*
X82950D01*
X88800Y266400D02*
X94100D01*
X88800Y263600D02*
X94100D01*
X83500Y249750D02*
Y280500D01*
X99500Y249750D02*
Y280500D01*
X230550Y295650D02*
X235850D01*
X230550Y292850D02*
X235850D01*
X225250Y279000D02*
Y309750D01*
X241250Y279000D02*
Y309750D01*
X485750Y100000D02*
X516500D01*
X485750Y84000D02*
Y100000D01*
Y84000D02*
X516500D01*
Y100000D01*
X503250Y89750D02*
Y94000D01*
X499250Y89750D02*
X503250D01*
X499250D02*
Y94000D01*
X503250D01*
X517250Y105000D02*
Y135750D01*
X501250D02*
X517250D01*
X501250Y105000D02*
Y135750D01*
Y105000D02*
X517250D01*
X507000Y118250D02*
X511250D01*
X507000D02*
Y122250D01*
X511250D01*
Y118250D02*
Y122250D01*
X517750Y158250D02*
Y189000D01*
X501750Y158250D02*
Y189000D01*
X507050Y172100D02*
X512350D01*
X507050Y174900D02*
X512350D01*
D11*
X77500Y157500D02*
G03*
X77500Y157500I-1000J0D01*
G01*
X180750Y74150D02*
G03*
X180750Y74150I-1000J0D01*
G01*
X376000Y516500D02*
G03*
X376000Y516500I-50000J0D01*
G01*
X497000Y144500D02*
G03*
X497000Y144500I-50000J0D01*
G01*
X61000Y275000D02*
X64000D01*
X61000Y266000D02*
X64000D01*
X61000Y290250D02*
X64000D01*
X61000Y281250D02*
X64000D01*
X394250Y29500D02*
Y32500D01*
X385250Y29500D02*
Y32500D01*
X367500Y153500D02*
Y156500D01*
X376500Y153500D02*
Y156500D01*
X367500Y121250D02*
Y124250D01*
X376500Y121250D02*
Y124250D01*
X353500Y121250D02*
Y124250D01*
X362500Y121250D02*
Y124250D01*
X353500Y153500D02*
Y156500D01*
X362500Y153500D02*
Y156500D01*
X207000Y39250D02*
Y42250D01*
X216000Y39250D02*
Y42250D01*
X155750Y39750D02*
Y42750D01*
X146750Y39750D02*
Y42750D01*
X44050Y99500D02*
Y175700D01*
X69450Y99500D02*
Y175700D01*
X44050D02*
X69450D01*
X44050Y99500D02*
X69450D01*
X255750Y303000D02*
Y306000D01*
X264750Y303000D02*
Y306000D01*
X304000Y307750D02*
Y335750D01*
Y307750D02*
X310000D01*
X304000Y335750D02*
X310000D01*
X75500Y188250D02*
Y238250D01*
X93500Y188250D02*
Y238250D01*
X75500D02*
X93500D01*
X75500Y188250D02*
X93500D01*
X118000Y304000D02*
X121000D01*
X118000Y295000D02*
X121000D01*
X184000Y302750D02*
Y305750D01*
X193000Y302750D02*
Y305750D01*
X293250Y450500D02*
X296250D01*
X293250Y441500D02*
X296250D01*
X157000Y326500D02*
X160000D01*
X157000Y335500D02*
X160000D01*
X285250Y400250D02*
X288250D01*
X285250Y391250D02*
X288250D01*
X187000Y380000D02*
X190000D01*
X187000Y389000D02*
X190000D01*
X215000D02*
X218000D01*
X215000Y380000D02*
X218000D01*
X171000Y351750D02*
Y354750D01*
X162000Y351750D02*
Y354750D01*
Y379750D02*
Y382750D01*
X171000Y379750D02*
Y382750D01*
X108750Y375000D02*
X136750D01*
X108750Y369000D02*
Y375000D01*
X136750Y369000D02*
Y375000D01*
X237250Y418250D02*
Y421250D01*
X228250Y418250D02*
Y421250D01*
X222000Y418250D02*
Y421250D01*
X213000Y418250D02*
Y421250D01*
X268000Y418250D02*
Y421250D01*
X259000Y418250D02*
Y421250D01*
X252500Y418250D02*
Y421250D01*
X243500Y418250D02*
Y421250D01*
X340550Y198150D02*
X365950D01*
X340550Y274350D02*
X365950D01*
Y198150D02*
Y274350D01*
X340550Y198150D02*
Y274350D01*
X491750Y459750D02*
Y482250D01*
X387750Y459750D02*
X491750D01*
X387750D02*
Y482250D01*
X338750Y439500D02*
X348750D01*
X367750Y443250D02*
Y446250D01*
X358750Y443250D02*
Y446250D01*
X322500Y457750D02*
X329500D01*
X326000Y454250D02*
Y461250D01*
X505750Y141000D02*
Y148000D01*
X502250Y144500D02*
X509250D01*
X281150Y16300D02*
Y41700D01*
X357350D01*
Y16300D02*
Y41700D01*
X281150Y16300D02*
X357350D01*
X15050Y287750D02*
X40450D01*
Y160750D02*
Y287750D01*
X15050Y160750D02*
Y287750D01*
Y160750D02*
X40450D01*
X53586Y249001D02*
Y256999D01*
X57585D01*
X58918Y255666D01*
Y253000D01*
X57585Y251667D01*
X53586D01*
X56252D02*
X58918Y249001D01*
X61583D02*
X64249D01*
X62916D01*
Y256999D01*
X61583Y255666D01*
X68248Y249001D02*
X70914D01*
X69581D01*
Y256999D01*
X68248Y255666D01*
X58918Y302916D02*
X57586Y304249D01*
X54920D01*
X53587Y302916D01*
Y297584D01*
X54920Y296251D01*
X57586D01*
X58918Y297584D01*
X61584Y302916D02*
X62917Y304249D01*
X65583D01*
X66916Y302916D01*
Y301583D01*
X65583Y300250D01*
X64250D01*
X65583D01*
X66916Y298917D01*
Y297584D01*
X65583Y296251D01*
X62917D01*
X61584Y297584D01*
X69582Y302916D02*
X70915Y304249D01*
X73580D01*
X74913Y302916D01*
Y297584D01*
X73580Y296251D01*
X70915D01*
X69582Y297584D01*
Y302916D01*
X56082Y93000D02*
Y86335D01*
X59415Y89668D02*
X52750D01*
X28500Y146250D02*
X38497D01*
Y141252D01*
X36831Y139586D01*
X33498D01*
X31832Y141252D01*
Y146250D01*
Y142918D02*
X28500Y139586D01*
X36831Y129589D02*
X38497Y131255D01*
Y134587D01*
X36831Y136253D01*
X35164D01*
X33498Y134587D01*
Y131255D01*
X31832Y129589D01*
X30166D01*
X28500Y131255D01*
Y134587D01*
X30166Y136253D01*
X28500Y121258D02*
Y124590D01*
X30166Y126256D01*
X33498D01*
X35164Y124590D01*
Y121258D01*
X33498Y119592D01*
X31832D01*
Y126256D01*
X36831Y114593D02*
X35164D01*
Y116260D01*
Y112927D01*
Y114593D01*
X30166D01*
X28500Y112927D01*
X215750Y569500D02*
X210418D01*
X260334Y566000D02*
Y571332D01*
X257668Y568666D02*
X263000D01*
X254250Y21997D02*
Y16666D01*
X256916Y14000D01*
X259582Y16666D01*
Y21997D01*
X262247Y14000D02*
X264913D01*
X263580D01*
Y19332D01*
X262247D01*
X268912Y14000D02*
Y19332D01*
X272911D01*
X274244Y17999D01*
Y14000D01*
X18000Y297500D02*
Y305497D01*
X21999D01*
X23332Y304165D01*
Y301499D01*
X21999Y300166D01*
X18000D01*
X20666D02*
X23332Y297500D01*
X381249Y439668D02*
X373251D01*
Y443667D01*
X374584Y445000D01*
X377250D01*
X378583Y443667D01*
Y439668D01*
Y442334D02*
X381249Y445000D01*
Y447666D02*
Y450332D01*
Y448999D01*
X373251D01*
X374584Y447666D01*
X354670Y421499D02*
Y416167D01*
X357336Y413501D01*
X360001Y416167D01*
Y421499D01*
X362667D02*
Y413501D01*
X366666D01*
X367999Y414834D01*
Y420166D01*
X366666Y421499D01*
X362667D01*
X370664Y413501D02*
X373330D01*
X371997D01*
Y421499D01*
X370664Y420166D01*
X248830Y537501D02*
Y545499D01*
X244832D01*
X243499Y544166D01*
Y538834D01*
X244832Y537501D01*
X248830D01*
X235501Y538834D02*
X236834Y537501D01*
X239500D01*
X240833Y538834D01*
Y544166D01*
X239500Y545499D01*
X236834D01*
X235501Y544166D01*
Y541500D01*
X238167D01*
X232835Y545499D02*
X230170D01*
X231502D01*
Y537501D01*
X232835Y538834D01*
X478914Y88499D02*
Y80501D01*
X474916D01*
X473583Y81834D01*
Y84500D01*
X474916Y85833D01*
X478914D01*
X476249D02*
X473583Y88499D01*
X466918D02*
Y80501D01*
X470917Y84500D01*
X465585D01*
X516499Y60835D02*
X508501D01*
Y64834D01*
X509834Y66167D01*
X512500D01*
X513833Y64834D01*
Y60835D01*
Y63501D02*
X516499Y66167D01*
X509834Y68833D02*
X508501Y70166D01*
Y72832D01*
X509834Y74165D01*
X511167D01*
X512500Y72832D01*
Y71499D01*
Y72832D01*
X513833Y74165D01*
X515166D01*
X516499Y72832D01*
Y70166D01*
X515166Y68833D01*
X508668Y345499D02*
Y337501D01*
X514000D01*
X516666D02*
X519332D01*
X517999D01*
Y345499D01*
X516666Y344166D01*
X443084Y121167D02*
X441751Y119834D01*
Y117168D01*
X443084Y115836D01*
X448416D01*
X449749Y117168D01*
Y119834D01*
X448416Y121167D01*
X443084Y123833D02*
X441751Y125166D01*
Y127832D01*
X443084Y129164D01*
X444417D01*
X445750Y127832D01*
Y126499D01*
Y127832D01*
X447083Y129164D01*
X448416D01*
X449749Y127832D01*
Y125166D01*
X448416Y123833D01*
X375500Y471916D02*
X374167Y473249D01*
X371501D01*
X370168Y471916D01*
Y466584D01*
X371501Y465251D01*
X374167D01*
X375500Y466584D01*
X378166Y465251D02*
X380832D01*
X379499D01*
Y473249D01*
X378166Y471916D01*
X496420Y449249D02*
Y441251D01*
X500418D01*
X501751Y442584D01*
Y447916D01*
X500418Y449249D01*
X496420D01*
X504417D02*
Y441251D01*
X508416D01*
X509749Y442584D01*
Y447916D01*
X508416Y449249D01*
X504417D01*
X512415Y441251D02*
X515080D01*
X513747D01*
Y449249D01*
X512415Y447916D01*
X454249Y354332D02*
X446251D01*
Y350333D01*
X447584Y349000D01*
X452916D01*
X454249Y350333D01*
Y354332D01*
X446251Y346334D02*
Y343668D01*
Y345001D01*
X454249D01*
X452916Y346334D01*
D12*
X61750Y240800D02*
G03*
X61750Y240800I-1250J0D01*
G01*
X396250Y433250D02*
G03*
X396250Y433250I-1250J0D01*
G01*
D13*
X432430Y348080D02*
G03*
X432430Y348080I-1500J0D01*
G01*
D14*
X194250Y446000D02*
G03*
X194250Y446000I-1500J0D01*
G01*
X204730Y526750D02*
Y558500D01*
X269500D01*
X204500Y438500D02*
Y497540D01*
X261880Y483570D02*
Y558500D01*
X204730Y483570D02*
X269500D01*
X204500Y438500D02*
X269500D01*
Y558500D01*
D15*
X160488Y58636D02*
X183602D01*
X160488Y23584D02*
Y58636D01*
Y23584D02*
X202398D01*
Y40856D01*
X195540Y58636D02*
X202398D01*
Y51270D02*
Y58636D01*
X136988Y320636D02*
X160102D01*
X136988Y285584D02*
Y320636D01*
Y285584D02*
X178898D01*
Y302856D01*
X172040Y320636D02*
X178898D01*
Y313270D02*
Y320636D01*
X236251Y161968D02*
X242916D01*
X244249Y163301D01*
Y165967D01*
X242916Y167300D01*
X236251D01*
X244249Y169966D02*
Y172632D01*
Y171299D01*
X236251D01*
X237584Y169966D01*
X284999Y406837D02*
X277001D01*
Y410835D01*
X278334Y412168D01*
X281000D01*
X282333Y410835D01*
Y406837D01*
Y409503D02*
X284999Y412168D01*
Y420166D02*
Y414834D01*
X279667Y420166D01*
X278334D01*
X277001Y418833D01*
Y416167D01*
X278334Y414834D01*
X277001Y422832D02*
Y428163D01*
X278334D01*
X283666Y422832D01*
X284999D01*
X298999Y406587D02*
X291001D01*
Y410586D01*
X292334Y411918D01*
X295000D01*
X296333Y410586D01*
Y406587D01*
Y409253D02*
X298999Y411918D01*
Y419916D02*
Y414584D01*
X293667Y419916D01*
X292334D01*
X291001Y418583D01*
Y415917D01*
X292334Y414584D01*
X291001Y427913D02*
X292334Y425247D01*
X295000Y422582D01*
X297666D01*
X298999Y423915D01*
Y426580D01*
X297666Y427913D01*
X296333D01*
X295000Y426580D01*
Y422582D01*
X325999Y406087D02*
X318001D01*
Y410086D01*
X319334Y411418D01*
X322000D01*
X323333Y410086D01*
Y406087D01*
Y408753D02*
X325999Y411418D01*
Y419416D02*
Y414084D01*
X320667Y419416D01*
X319334D01*
X318001Y418083D01*
Y415417D01*
X319334Y414084D01*
X318001Y427413D02*
Y422082D01*
X322000D01*
X320667Y424748D01*
Y426080D01*
X322000Y427413D01*
X324666D01*
X325999Y426080D01*
Y423415D01*
X324666Y422082D01*
X391249Y111837D02*
X383251D01*
Y115836D01*
X384584Y117168D01*
X387250D01*
X388583Y115836D01*
Y111837D01*
Y114503D02*
X391249Y117168D01*
Y125166D02*
Y119834D01*
X385917Y125166D01*
X384584D01*
X383251Y123833D01*
Y121167D01*
X384584Y119834D01*
X391249Y131830D02*
X383251D01*
X387250Y127832D01*
Y133163D01*
X312749Y406337D02*
X304751D01*
Y410336D01*
X306084Y411668D01*
X308750D01*
X310083Y410336D01*
Y406337D01*
Y409003D02*
X312749Y411668D01*
Y419666D02*
Y414334D01*
X307417Y419666D01*
X306084D01*
X304751Y418333D01*
Y415667D01*
X306084Y414334D01*
Y422332D02*
X304751Y423665D01*
Y426330D01*
X306084Y427663D01*
X307417D01*
X308750Y426330D01*
Y424997D01*
Y426330D01*
X310083Y427663D01*
X311416D01*
X312749Y426330D01*
Y423665D01*
X311416Y422332D01*
X312337Y438251D02*
Y446249D01*
X316336D01*
X317668Y444916D01*
Y442250D01*
X316336Y440917D01*
X312337D01*
X315002D02*
X317668Y438251D01*
X325666D02*
X320334D01*
X325666Y443583D01*
Y444916D01*
X324333Y446249D01*
X321667D01*
X320334Y444916D01*
X333663Y438251D02*
X328332D01*
X333663Y443583D01*
Y444916D01*
X332330Y446249D01*
X329664D01*
X328332Y444916D01*
X359749Y85670D02*
X351751D01*
Y89668D01*
X353084Y91001D01*
X355750D01*
X357083Y89668D01*
Y85670D01*
Y88336D02*
X359749Y91001D01*
Y98999D02*
Y93667D01*
X354417Y98999D01*
X353084D01*
X351751Y97666D01*
Y95000D01*
X353084Y93667D01*
X359749Y101664D02*
Y104330D01*
Y102998D01*
X351751D01*
X353084Y101664D01*
X264249Y265587D02*
X256251D01*
Y269585D01*
X257584Y270918D01*
X260250D01*
X261583Y269585D01*
Y265587D01*
Y268253D02*
X264249Y270918D01*
Y278916D02*
Y273584D01*
X258917Y278916D01*
X257584D01*
X256251Y277583D01*
Y274917D01*
X257584Y273584D01*
Y281582D02*
X256251Y282915D01*
Y285580D01*
X257584Y286913D01*
X262916D01*
X264249Y285580D01*
Y282915D01*
X262916Y281582D01*
X257584D01*
X377249Y173753D02*
X369251D01*
Y177752D01*
X370584Y179085D01*
X373250D01*
X374583Y177752D01*
Y173753D01*
Y176419D02*
X377249Y179085D01*
Y181751D02*
Y184416D01*
Y183084D01*
X369251D01*
X370584Y181751D01*
X375916Y188415D02*
X377249Y189748D01*
Y192414D01*
X375916Y193747D01*
X370584D01*
X369251Y192414D01*
Y189748D01*
X370584Y188415D01*
X371917D01*
X373250Y189748D01*
Y193747D01*
X345749Y144753D02*
X337751D01*
Y148752D01*
X339084Y150085D01*
X341750D01*
X343083Y148752D01*
Y144753D01*
Y147419D02*
X345749Y150085D01*
Y152751D02*
Y155416D01*
Y154084D01*
X337751D01*
X339084Y152751D01*
Y159415D02*
X337751Y160748D01*
Y163414D01*
X339084Y164747D01*
X340417D01*
X341750Y163414D01*
X343083Y164747D01*
X344416D01*
X345749Y163414D01*
Y160748D01*
X344416Y159415D01*
X343083D01*
X341750Y160748D01*
X340417Y159415D01*
X339084D01*
X341750Y160748D02*
Y163414D01*
X69585Y34501D02*
Y42499D01*
X73584D01*
X74917Y41166D01*
Y38500D01*
X73584Y37167D01*
X69585D01*
X72251D02*
X74917Y34501D01*
X77583Y35834D02*
X78916Y34501D01*
X81582D01*
X82914Y35834D01*
Y41166D01*
X81582Y42499D01*
X78916D01*
X77583Y41166D01*
Y39833D01*
X78916Y38500D01*
X82914D01*
X111835Y89001D02*
Y96999D01*
X115834D01*
X117167Y95666D01*
Y93000D01*
X115834Y91667D01*
X111835D01*
X114501D02*
X117167Y89001D01*
X119833Y95666D02*
X121166Y96999D01*
X123832D01*
X125164Y95666D01*
Y94333D01*
X123832Y93000D01*
X125164Y91667D01*
Y90334D01*
X123832Y89001D01*
X121166D01*
X119833Y90334D01*
Y91667D01*
X121166Y93000D01*
X119833Y94333D01*
Y95666D01*
X121166Y93000D02*
X123832D01*
X70335Y52751D02*
Y60749D01*
X74334D01*
X75667Y59416D01*
Y56750D01*
X74334Y55417D01*
X70335D01*
X73001D02*
X75667Y52751D01*
X78333Y60749D02*
X83665D01*
Y59416D01*
X78333Y54084D01*
Y52751D01*
X70086Y69001D02*
Y76999D01*
X74084D01*
X75417Y75666D01*
Y73000D01*
X74084Y71667D01*
X70086D01*
X72751D02*
X75417Y69001D01*
X83414Y76999D02*
X80749Y75666D01*
X78083Y73000D01*
Y70334D01*
X79416Y69001D01*
X82082D01*
X83414Y70334D01*
Y71667D01*
X82082Y73000D01*
X78083D01*
X85685Y129051D02*
Y137049D01*
X89684D01*
X91017Y135716D01*
Y133050D01*
X89684Y131717D01*
X85685D01*
X88351D02*
X91017Y129051D01*
X99015Y137049D02*
X93683D01*
Y133050D01*
X96349Y134383D01*
X97682D01*
X99015Y133050D01*
Y130384D01*
X97682Y129051D01*
X95016D01*
X93683Y130384D01*
X377249Y23835D02*
X369251D01*
Y27834D01*
X370584Y29167D01*
X373250D01*
X374583Y27834D01*
Y23835D01*
Y26501D02*
X377249Y29167D01*
Y37164D02*
Y31833D01*
X371917Y37164D01*
X370584D01*
X369251Y35832D01*
Y33166D01*
X370584Y31833D01*
X248259Y381146D02*
X250144Y379261D01*
X249201Y380204D01*
X243546Y374549D01*
X242604Y375491D01*
X244489Y373606D01*
X255799Y371721D02*
Y373606D01*
X253914Y375491D01*
X252029Y375491D01*
X248259Y371721D01*
Y369836D01*
X250144Y367951D01*
X252029Y367951D01*
X256741Y361354D02*
X252971Y365124D01*
X260511D01*
X261454Y366066D01*
Y367951D01*
X259569Y369836D01*
X257684Y369836D01*
X127501Y226836D02*
Y229502D01*
Y228169D01*
X135499D01*
Y226836D01*
Y229502D01*
X128834Y238832D02*
X127501Y237499D01*
Y234834D01*
X128834Y233501D01*
X134166D01*
X135499Y234834D01*
Y237499D01*
X134166Y238832D01*
X135499Y241498D02*
Y244164D01*
Y242831D01*
X127501D01*
X128834Y241498D01*
X136001Y158085D02*
X143999D01*
Y162084D01*
X142666Y163417D01*
X137334D01*
X136001Y162084D01*
Y158085D01*
X143999Y171415D02*
Y166083D01*
X138667Y171415D01*
X137334D01*
X136001Y170082D01*
Y167416D01*
X137334Y166083D01*
X342668Y317416D02*
X341335Y318749D01*
X338670D01*
X337337Y317416D01*
Y312084D01*
X338670Y310751D01*
X341335D01*
X342668Y312084D01*
X350666Y310751D02*
X345334D01*
X350666Y316083D01*
Y317416D01*
X349333Y318749D01*
X346667D01*
X345334Y317416D01*
X353332Y318749D02*
X358663D01*
Y317416D01*
X353332Y312084D01*
Y310751D01*
X74068Y338966D02*
X72736Y340299D01*
X70070D01*
X68737Y338966D01*
Y333634D01*
X70070Y332301D01*
X72736D01*
X74068Y333634D01*
X82066Y332301D02*
X76734D01*
X82066Y337633D01*
Y338966D01*
X80733Y340299D01*
X78067D01*
X76734Y338966D01*
X90063Y340299D02*
X87397Y338966D01*
X84732Y336300D01*
Y333634D01*
X86065Y332301D01*
X88730D01*
X90063Y333634D01*
Y334967D01*
X88730Y336300D01*
X84732D01*
X74068Y320966D02*
X72736Y322299D01*
X70070D01*
X68737Y320966D01*
Y315634D01*
X70070Y314301D01*
X72736D01*
X74068Y315634D01*
X82066Y314301D02*
X76734D01*
X82066Y319633D01*
Y320966D01*
X80733Y322299D01*
X78067D01*
X76734Y320966D01*
X90063Y322299D02*
X84732D01*
Y318300D01*
X87397Y319633D01*
X88730D01*
X90063Y318300D01*
Y315634D01*
X88730Y314301D01*
X86065D01*
X84732Y315634D01*
X323084Y348918D02*
X321751Y347585D01*
Y344920D01*
X323084Y343587D01*
X328416D01*
X329749Y344920D01*
Y347585D01*
X328416Y348918D01*
X329749Y356916D02*
Y351584D01*
X324417Y356916D01*
X323084D01*
X321751Y355583D01*
Y352917D01*
X323084Y351584D01*
X329749Y363580D02*
X321751D01*
X325750Y359582D01*
Y364913D01*
X59334Y373835D02*
X58001Y372502D01*
Y369836D01*
X59334Y368503D01*
X64666D01*
X65999Y369836D01*
Y372502D01*
X64666Y373835D01*
X65999Y376501D02*
Y379166D01*
Y377834D01*
X58001D01*
X59334Y376501D01*
X64666Y383165D02*
X65999Y384498D01*
Y387164D01*
X64666Y388497D01*
X59334D01*
X58001Y387164D01*
Y384498D01*
X59334Y383165D01*
X60667D01*
X62000Y384498D01*
Y388497D01*
X43834Y375203D02*
X42501Y373871D01*
Y371205D01*
X43834Y369872D01*
X49166D01*
X50499Y371205D01*
Y373871D01*
X49166Y375203D01*
X50499Y377869D02*
Y380535D01*
Y379202D01*
X42501D01*
X43834Y377869D01*
X42501Y389865D02*
X43834Y387200D01*
X46500Y384534D01*
X49166D01*
X50499Y385867D01*
Y388532D01*
X49166Y389865D01*
X47833D01*
X46500Y388532D01*
Y384534D01*
X27834Y374203D02*
X26501Y372870D01*
Y370205D01*
X27834Y368872D01*
X33166D01*
X34499Y370205D01*
Y372870D01*
X33166Y374203D01*
X34499Y376869D02*
Y379535D01*
Y378202D01*
X26501D01*
X27834Y376869D01*
X26501Y388865D02*
Y383534D01*
X30500D01*
X29167Y386200D01*
Y387533D01*
X30500Y388865D01*
X33166D01*
X34499Y387533D01*
Y384867D01*
X33166Y383534D01*
X279584Y276585D02*
X278251Y275252D01*
Y272586D01*
X279584Y271253D01*
X284916D01*
X286249Y272586D01*
Y275252D01*
X284916Y276585D01*
X286249Y279251D02*
Y281917D01*
Y280584D01*
X278251D01*
X279584Y279251D01*
Y285915D02*
X278251Y287248D01*
Y289914D01*
X279584Y291247D01*
X280917D01*
X282250Y289914D01*
Y288581D01*
Y289914D01*
X283583Y291247D01*
X284916D01*
X286249Y289914D01*
Y287248D01*
X284916Y285915D01*
X208584Y64585D02*
X207251Y63252D01*
Y60586D01*
X208584Y59253D01*
X213916D01*
X215249Y60586D01*
Y63252D01*
X213916Y64585D01*
X215249Y67251D02*
Y69916D01*
Y68584D01*
X207251D01*
X208584Y67251D01*
Y73915D02*
X207251Y75248D01*
Y77914D01*
X208584Y79247D01*
X213916D01*
X215249Y77914D01*
Y75248D01*
X213916Y73915D01*
X208584D01*
X132584Y36667D02*
X131251Y35334D01*
Y32668D01*
X132584Y31335D01*
X137916D01*
X139249Y32668D01*
Y35334D01*
X137916Y36667D01*
X132584Y39333D02*
X131251Y40666D01*
Y43332D01*
X132584Y44665D01*
X133917D01*
X135250Y43332D01*
X136583Y44665D01*
X137916D01*
X139249Y43332D01*
Y40666D01*
X137916Y39333D01*
X136583D01*
X135250Y40666D01*
X133917Y39333D01*
X132584D01*
X135250Y40666D02*
Y43332D01*
X134167Y277666D02*
X132834Y278999D01*
X130168D01*
X128835Y277666D01*
Y272334D01*
X130168Y271001D01*
X132834D01*
X134167Y272334D01*
X136833Y278999D02*
X142164D01*
Y277666D01*
X136833Y272334D01*
Y271001D01*
X111417Y277416D02*
X110084Y278749D01*
X107418D01*
X106086Y277416D01*
Y272084D01*
X107418Y270751D01*
X110084D01*
X111417Y272084D01*
X119415Y278749D02*
X116749Y277416D01*
X114083Y274750D01*
Y272084D01*
X115416Y270751D01*
X118082D01*
X119415Y272084D01*
Y273417D01*
X118082Y274750D01*
X114083D01*
X90517Y117716D02*
X89184Y119049D01*
X86518D01*
X85185Y117716D01*
Y112384D01*
X86518Y111051D01*
X89184D01*
X90517Y112384D01*
X98514Y119049D02*
X93183D01*
Y115050D01*
X95849Y116383D01*
X97182D01*
X98514Y115050D01*
Y112384D01*
X97182Y111051D01*
X94516D01*
X93183Y112384D01*
X90676Y298165D02*
X89343Y299497D01*
X86677D01*
X85344Y298165D01*
Y292833D01*
X86677Y291500D01*
X89343D01*
X90676Y292833D01*
X97340Y291500D02*
Y299497D01*
X93341Y295499D01*
X98673D01*
D16*
X99750Y178500D02*
X109750D01*
X99750Y150500D02*
X109750D01*
X221419Y370366D02*
X224262Y373209D01*
X224347D01*
X227147Y370408D01*
X195970Y344959D02*
X198770Y347760D01*
X195970Y344875D02*
X198813Y342032D01*
X249774Y342082D02*
X252574Y344882D01*
X249732Y347809D02*
X252574Y344967D01*
X221405Y319412D02*
X224205Y316611D01*
X224290Y316612D02*
X227132Y319454D01*
X169750Y98550D02*
X175150D01*
X304350D02*
X309750D01*
X169750Y238550D02*
X175150D01*
X304350D02*
X309750D01*
X169750Y98550D02*
Y103950D01*
X309750Y98550D02*
Y103950D01*
X169750Y233150D02*
Y238550D01*
X309750Y233150D02*
Y238550D01*
X353450Y345550D02*
X422050D01*
X353450Y403950D02*
X422050D01*
X182750Y404200D02*
Y463000D01*
Y494000D02*
Y618200D01*
X22750Y404200D02*
Y463000D01*
Y494000D02*
Y618200D01*
X182750D01*
X22750Y404200D02*
X182750D01*
D17*
X411250Y61750D02*
Y71250D01*
X411050Y52000D02*
X427250D01*
X411150Y80970D02*
X427350D01*
X411000Y27500D02*
Y37000D01*
X410800Y17750D02*
X427000D01*
X410900Y46720D02*
X427100D01*
X380250Y199500D02*
X510250D01*
X380250Y329500D02*
X510250D01*
D18*
X510020Y199500D02*
Y226400D01*
Y199500D02*
X510250D01*
X510020Y302600D02*
Y329500D01*
X510250D01*
X380480Y199500D02*
Y226400D01*
X380250Y199500D02*
X380480D01*
Y302600D02*
Y329500D01*
X380250D02*
X380480D01*
X380250D02*
X380480D01*
D19*
X306750Y321750D02*
D03*
D20*
X122750Y372251D02*
D03*
M02*
